<?xml version="1.0" standalone="no"?>
<!DOCTYPE svg PUBLIC "-//W3C//DTD SVG 20010904//EN"
 "http://www.w3.org/TR/2001/REC-SVG-20010904/DTD/svg10.dtd">
<svg version="1.0" xmlns="http://www.w3.org/2000/svg"
 width="14173.000000pt" height="6775.000000pt" viewBox="0 0 14173.000000 6775.000000"
 preserveAspectRatio="xMidYMid meet">

<g transform="translate(0.000000,6775.000000) scale(0.100000,-0.100000)"
fill="#000000" stroke="none">
<path d="M99595 67739 c-592 -57 -1264 -348 -1974 -854 -298 -212 -557 -433
-865 -735 -376 -369 -663 -712 -920 -1099 -73 -110 -16840 -27985 -16853
-28019 -4 -9 686 -12 3428 -12 l3434 0 6907 11348 c3799 6241 6913 11355 6920
11365 12 16 302 -459 2678 -4393 1466 -2426 2666 -4418 2668 -4426 3 -12 -554
-14 -4060 -14 l-4063 0 -1612 -2644 c-887 -1453 -1613 -2646 -1613 -2649 0 -4
3275 -8 7277 -9 l7277 -3 2567 -4264 c1412 -2346 2576 -4274 2586 -4287 l18
-22 3424 -21 c1883 -12 3426 -20 3428 -17 6 5 -16304 27849 -16421 28033 -682
1075 -1758 2033 -2765 2463 -489 209 -1017 302 -1466 259z"/>
<path d="M9195 67649 c-2282 -94 -4211 -739 -5824 -1946 -358 -268 -594 -474
-932 -812 -405 -406 -685 -746 -984 -1196 -313 -471 -566 -967 -767 -1505
-230 -616 -386 -1300 -457 -2010 -60 -595 -62 -1298 -6 -1890 114 -1191 440
-2249 986 -3201 794 -1385 2083 -2554 3664 -3325 1251 -610 2638 -945 4234
-1024 133 -6 2792 -10 7615 -10 4404 0 7543 -4 7736 -10 179 -5 411 -16 515
-25 1154 -94 2155 -398 3024 -920 1308 -786 1932 -1910 1870 -3370 -35 -835
-293 -1538 -794 -2165 -265 -332 -741 -748 -1108 -966 -744 -443 -1580 -730
-2512 -863 -207 -30 -399 -50 -685 -73 -108 -9 -3149 -12 -12052 -15 l-11908
-3 0 -2670 0 -2670 11863 0 c7596 0 11950 4 12107 10 1627 65 3026 362 4336
921 257 109 781 369 1009 499 504 288 989 620 1415 969 432 353 925 853 1285
1301 1073 1337 1687 2909 1854 4745 59 642 61 1368 5 2015 -225 2650 -1412
4822 -3519 6445 -1762 1356 -3882 2076 -6405 2175 -163 6 -2950 10 -7715 10
-4973 0 -7514 3 -7620 10 -811 52 -1501 273 -2100 673 -724 483 -1119 1112
-1231 1958 -21 166 -30 591 -15 756 66 718 321 1276 800 1754 628 625 1493
1002 2475 1079 86 7 4046 10 11827 10 l11699 0 0 2675 0 2675 -11747 -2
c-6462 0 -11833 -5 -11938 -9z"/>
<path d="M112220 64985 l0 -2675 6065 0 6065 0 0 -12665 0 -12665 2650 0 2650
0 0 12665 0 12665 6038 2 6037 3 3 2673 2 2672 -14755 0 -14755 0 0 -2675z"/>
<path d="M70708 29770 c-1210 -57 -2168 -440 -2878 -1150 -699 -699 -1079
-1612 -1160 -2790 -13 -192 -13 -657 1 -856 50 -748 232 -1411 538 -1959 266
-475 643 -895 1087 -1212 739 -528 1703 -784 2859 -760 411 9 710 41 1058 113
842 175 1548 561 2093 1144 633 678 989 1574 1063 2674 14 200 14 665 1 856
-84 1211 -484 2142 -1225 2848 -823 784 -2002 1159 -3437 1092z m688 -810
c926 -73 1634 -371 2184 -920 562 -560 868 -1292 939 -2245 14 -180 14 -602 1
-776 -55 -706 -237 -1288 -556 -1772 -118 -177 -226 -309 -384 -468 -392 -394
-858 -655 -1435 -802 -679 -174 -1536 -178 -2217 -11 -389 95 -721 238 -1023
439 -197 132 -288 206 -465 384 -557 558 -858 1280 -931 2233 -13 177 -7 764
10 913 77 667 248 1183 541 1628 549 835 1409 1304 2560 1396 153 12 626 13
776 1z"/>
<path d="M83450 29770 c-986 -54 -1737 -344 -2257 -871 -175 -178 -280 -324
-383 -534 -100 -202 -161 -406 -196 -650 -27 -180 -24 -534 4 -721 64 -414
214 -739 462 -998 246 -257 534 -427 949 -560 213 -69 395 -105 1401 -281
1218 -213 1392 -247 1750 -347 661 -184 950 -370 1112 -714 154 -330 139 -823
-38 -1176 -218 -437 -710 -780 -1351 -942 -359 -91 -827 -133 -1277 -115 -746
30 -1328 234 -1784 624 -255 217 -440 486 -546 794 -62 178 -106 441 -106 632
l0 79 -420 0 -420 0 0 -117 c0 -739 232 -1359 688 -1834 658 -687 1664 -1021
2992 -996 162 3 349 11 415 17 851 77 1506 307 1994 700 122 99 307 289 393
403 246 331 388 721 429 1177 15 168 6 505 -16 650 -120 778 -562 1262 -1418
1555 -314 108 -429 133 -1475 315 -1270 222 -1492 268 -1851 385 -379 123
-596 238 -757 399 -218 218 -321 515 -300 861 27 428 199 753 539 1019 397
310 949 472 1676 493 832 23 1507 -164 1941 -539 312 -270 511 -658 576 -1123
l17 -125 414 0 c387 0 413 1 413 18 0 9 -5 69 -10 132 -58 652 -295 1172 -717
1570 -488 460 -1167 729 -2027 805 -211 18 -617 26 -816 15z"/>
<path d="M99990 29769 c-750 -37 -1373 -220 -1863 -545 -539 -359 -860 -835
-961 -1425 -38 -223 -45 -534 -16 -759 96 -748 502 -1253 1240 -1543 277 -108
426 -141 1525 -332 1316 -230 1615 -292 1987 -411 497 -160 745 -323 893 -588
209 -375 183 -961 -60 -1352 -167 -267 -424 -484 -770 -650 -393 -187 -829
-282 -1394 -303 -827 -30 -1457 115 -1966 454 -553 368 -846 881 -872 1528
l-6 147 -420 0 -420 0 6 -212 c10 -327 49 -565 136 -828 131 -394 318 -689
618 -981 640 -619 1573 -929 2803 -929 957 0 1743 193 2315 568 599 392 931
924 1027 1642 16 124 16 556 0 680 -107 799 -528 1291 -1367 1595 -322 117
-492 154 -1613 350 -1179 206 -1320 234 -1677 340 -583 172 -894 379 -1044
696 -170 358 -141 857 72 1214 272 457 835 762 1582 859 583 76 1236 28 1697
-124 733 -241 1162 -749 1272 -1501 9 -59 16 -112 16 -118 0 -8 115 -11 415
-11 l415 0 -6 78 c-50 684 -267 1189 -688 1607 -220 218 -515 414 -820 545
-564 242 -1272 348 -2056 309z"/>
<path d="M47090 25410 l0 -4150 415 0 415 0 0 4150 0 4150 -415 0 -415 0 0
-4150z"/>
<path d="M49930 25410 l0 -4150 405 0 405 0 2 3717 3 3717 2874 -3717 2874
-3717 553 0 554 0 0 4150 0 4150 -400 0 -400 0 0 -3721 c0 -2153 -4 -3719 -9
-3717 -5 2 -1313 1676 -2907 3721 l-2899 3717 -527 0 -528 0 0 -4150z"/>
<path d="M59567 29553 c-4 -3 -7 -1871 -7 -4150 l0 -4143 415 0 415 0 0 1920
0 1920 2370 0 2370 0 0 405 0 405 -2367 2 -2368 3 -3 1433 -2 1432 2655 0
2655 0 0 390 0 390 -3063 0 c-1685 0 -3067 -3 -3070 -7z"/>
<path d="M88102 29550 c2 -5 805 -1067 1786 -2360 l1782 -2350 0 -1790 0
-1790 410 0 410 0 0 1790 0 1790 1747 2303 c960 1266 1766 2328 1790 2360 l44
57 -512 -2 -513 -3 -1478 -2015 c-814 -1108 -1483 -2016 -1487 -2018 -5 -2
-667 906 -1472 2018 l-1463 2020 -524 0 c-340 0 -522 -3 -520 -10z"/>
<path d="M104517 29553 c-4 -3 -7 -174 -7 -380 l0 -373 1605 0 1605 0 0 -3770
0 -3770 415 0 415 0 0 3770 0 3770 1605 0 1605 0 0 380 0 380 -3618 0 c-1990
0 -3622 -3 -3625 -7z"/>
<path d="M112760 25410 l0 -4150 3190 0 3190 0 0 390 0 390 -2780 0 -2780 0 2
1528 3 1527 2563 3 2562 2 0 390 0 390 -2565 0 -2565 0 0 1455 0 1455 2780 0
2780 0 0 385 0 385 -3190 0 -3190 0 0 -4150z"/>
<path d="M120670 25410 l0 -4150 405 0 405 0 0 148 c0 81 -18 1763 -40 3737
-23 1975 -39 3612 -38 3640 3 48 63 -77 1803 -3735 l1801 -3785 479 -3 480 -2
1759 3790 c967 2085 1760 3789 1761 3788 2 -3 -20 -5030 -29 -6575 l-6 -1003
410 0 410 0 0 4150 0 4150 -612 -2 -612 -3 -1776 -3762 c-976 -2069 -1778
-3759 -1781 -3755 -4 4 -792 1697 -1753 3762 l-1745 3755 -661 3 -660 2 0
-4150z"/>
<path d="M65045 10809 c-352 -15 -664 -28 -692 -28 l-53 -1 0 -148 0 -148 121
-23 c291 -57 432 -138 512 -296 71 -142 95 -299 107 -695 13 -418 13 -1530 0
-1530 -5 0 -42 13 -82 29 -287 113 -587 183 -916 212 -177 15 -613 6 -745 -15
-824 -135 -1404 -557 -1766 -1287 -245 -493 -342 -1007 -328 -1734 11 -523 68
-911 188 -1281 117 -359 267 -625 484 -852 261 -274 547 -424 941 -493 169
-30 494 -33 649 -6 354 62 718 233 1034 487 103 83 305 272 436 409 79 82 80
83 120 76 22 -3 43 -9 47 -13 7 -7 -39 -707 -57 -884 l-6 -58 228 0 c125 0
487 11 803 25 316 14 596 25 623 25 l47 0 0 149 0 149 -72 17 c-447 99 -577
231 -619 628 -9 84 -13 1007 -16 3715 l-4 3602 -172 -1 c-95 -1 -460 -14 -812
-30z m-929 -3099 c417 -71 721 -340 837 -741 30 -101 62 -289 78 -449 16 -169
24 -1788 10 -1994 -23 -312 -82 -503 -218 -695 -66 -94 -312 -335 -418 -410
-159 -111 -339 -187 -535 -222 -49 -9 -149 -14 -290 -13 -200 0 -222 2 -315
27 -315 85 -536 277 -703 612 -130 261 -211 578 -259 1005 -26 236 -26 957 0
1170 62 511 175 861 374 1159 85 128 218 269 324 344 175 124 392 202 631 227
116 12 352 2 484 -20z"/>
<path d="M126375 10809 c-352 -15 -661 -28 -687 -28 l-48 -1 0 -148 0 -149
113 -22 c303 -61 434 -138 514 -303 66 -136 90 -277 104 -613 15 -379 7 -5901
-10 -6020 -33 -242 -70 -341 -162 -440 -84 -89 -195 -143 -439 -214 -25 -8
-25 -8 -28 -149 l-3 -142 1141 0 1140 0 0 140 c0 104 -3 142 -12 145 -7 2 -58
18 -113 35 -333 104 -453 241 -495 564 -25 186 -29 798 -30 4004 l0 3372 -172
-1 c-95 -1 -461 -14 -813 -30z"/>
<path d="M3130 10543 c-1173 -64 -2079 -640 -2606 -1658 -410 -790 -578 -1799
-503 -3010 89 -1445 535 -2434 1334 -2957 332 -218 703 -345 1185 -405 118
-15 215 -18 525 -17 394 1 612 11 944 45 367 37 817 115 1171 201 l135 34 3
827 2 827 -281 -2 -281 -3 -52 -150 c-176 -506 -373 -826 -626 -1016 -81 -61
-231 -140 -334 -174 -287 -96 -712 -119 -1015 -53 -192 41 -374 121 -534 235
-104 74 -275 244 -356 353 -441 596 -671 1590 -671 2901 0 887 104 1542 341
2144 233 593 568 998 1004 1214 266 132 539 184 852 161 403 -29 647 -130 884
-369 200 -202 338 -448 460 -821 l47 -145 281 -3 281 -2 0 794 0 795 -37 10
c-444 116 -829 186 -1228 221 -266 23 -717 35 -925 23z"/>
<path d="M40130 9800 l0 -560 530 0 530 0 0 560 0 560 -530 0 -530 0 0 -560z"/>
<path d="M58460 9800 l0 -560 525 0 525 0 0 560 0 560 -525 0 -525 0 0 -560z"/>
<path d="M87512 9803 l3 -558 528 -3 527 -2 0 560 0 560 -530 0 -530 0 2 -557z"/>
<path d="M129630 9800 l0 -560 525 0 525 0 0 560 0 560 -525 0 -525 0 0 -560z"/>
<path d="M36196 9308 c-33 -258 -67 -458 -102 -615 -105 -468 -300 -714 -656
-827 -62 -19 -141 -41 -175 -47 l-63 -12 0 -143 0 -144 425 0 424 0 4 -1762
c4 -1884 2 -1828 52 -2091 138 -732 526 -1101 1225 -1168 558 -53 1027 128
1570 606 52 46 107 96 123 112 l27 29 -126 152 -126 152 -39 -32 c-95 -78
-230 -170 -309 -211 -167 -88 -298 -118 -501 -118 -301 0 -482 79 -641 279
-164 207 -229 456 -258 987 -6 111 -10 784 -10 1628 l0 1437 930 0 930 0 0
290 0 290 -930 0 -930 0 0 710 0 710 -408 0 -408 0 -28 -212z"/>
<path d="M97486 9498 c-3 -13 -10 -66 -16 -118 -20 -173 -71 -493 -101 -637
-106 -512 -297 -759 -680 -881 -53 -17 -126 -36 -162 -43 l-67 -12 0 -144 0
-143 424 0 425 0 4 -1737 c3 -1559 5 -1753 21 -1883 55 -472 181 -798 397
-1025 91 -95 179 -162 290 -220 301 -156 747 -206 1121 -125 349 76 741 304
1082 631 l90 86 -124 149 c-68 82 -124 150 -126 152 -1 2 -40 -27 -85 -64
-287 -232 -534 -316 -857 -293 -212 15 -335 65 -467 190 -212 201 -291 425
-336 944 -8 98 -13 595 -16 1668 l-4 1527 935 0 936 0 -2 288 -3 287 -932 3
-933 2 0 710 0 710 -405 0 -405 0 -4 -22z"/>
<path d="M132977 9311 c-70 -529 -125 -772 -223 -981 -132 -279 -361 -444
-711 -511 l-63 -12 0 -143 0 -144 425 0 425 0 0 -1672 c0 -1043 4 -1728 10
-1818 62 -875 393 -1354 1030 -1494 437 -96 879 -36 1257 170 188 102 437 287
621 461 l83 78 -126 153 -127 152 -39 -32 c-220 -181 -421 -284 -619 -318 -82
-15 -300 -14 -382 0 -190 33 -329 116 -450 268 -165 207 -228 449 -258 982 -6
111 -10 765 -10 1628 l0 1442 930 0 930 0 0 290 0 290 -930 0 -930 0 0 710 0
710 -408 0 -408 0 -27 -209z"/>
<path d="M8850 8184 c-238 -28 -350 -49 -525 -99 -395 -112 -737 -313 -1003
-590 -519 -539 -778 -1347 -748 -2340 27 -948 262 -1612 727 -2060 339 -326
758 -511 1321 -582 185 -23 631 -23 816 0 852 108 1460 506 1826 1197 265 502
392 1187 356 1924 -27 564 -120 974 -305 1351 -335 682 -889 1063 -1716 1181
-109 15 -659 28 -749 18z m542 -477 c351 -92 632 -336 820 -711 167 -333 264
-719 310 -1236 17 -195 17 -794 0 -975 -58 -608 -198 -1042 -438 -1361 -70
-93 -222 -238 -312 -298 -287 -190 -695 -237 -1061 -121 -505 161 -853 691
-990 1510 -77 459 -86 1154 -20 1615 19 139 40 244 76 385 171 677 537 1100
1038 1198 125 25 130 25 310 22 144 -2 185 -7 267 -28z"/>
<path d="M16045 8179 c-178 -18 -361 -73 -560 -168 -292 -140 -526 -315 -877
-660 -166 -162 -168 -164 -205 -158 -20 4 -40 10 -44 14 -5 5 5 204 21 443 17
239 30 450 30 468 l0 32 -142 0 c-79 0 -431 -11 -783 -25 -352 -14 -668 -25
-702 -25 l-63 0 0 -155 c0 -146 1 -155 19 -155 11 0 79 -15 153 -34 333 -84
451 -201 506 -504 16 -90 17 -226 17 -1862 0 -1892 1 -1869 -51 -2060 -31
-117 -75 -200 -139 -265 -63 -63 -146 -107 -300 -161 l-120 -42 -3 -141 -3
-141 1131 0 1130 0 0 140 c0 104 -3 142 -12 144 -378 111 -492 189 -567 391
-68 182 -73 301 -69 1815 4 1426 0 1332 67 1506 58 150 150 283 306 439 243
245 468 392 691 452 90 24 115 27 284 27 157 0 198 -3 272 -22 293 -73 505
-271 606 -567 113 -331 141 -765 141 -2155 0 -705 -9 -1115 -29 -1255 -50
-357 -154 -483 -486 -595 l-119 -39 0 -138 0 -138 1133 -3 1133 -2 -3 141 -3
142 -130 42 c-182 59 -258 98 -332 171 -118 115 -156 246 -173 585 -5 112 -10
785 -10 1494 0 1282 -4 1444 -36 1685 -42 318 -134 587 -269 790 -98 148 -267
299 -433 388 -244 130 -641 196 -977 161z"/>
<path d="M27098 8175 c-537 -68 -981 -275 -1347 -630 -590 -572 -875 -1462
-812 -2540 19 -320 54 -565 116 -815 176 -705 542 -1192 1098 -1461 458 -221
1111 -297 1672 -194 230 42 414 104 640 215 222 109 387 220 613 413 111 95
412 385 412 397 0 4 -77 89 -171 189 l-170 182 -117 -112 c-470 -449 -893
-629 -1479 -630 -239 0 -395 21 -568 78 -335 109 -599 347 -765 688 -155 319
-240 772 -240 1281 l0 194 1815 0 1815 0 0 65 c0 114 -20 403 -41 589 -84 754
-317 1305 -689 1633 -268 236 -592 380 -1016 449 -137 22 -618 28 -766 9z
m561 -464 c369 -93 623 -400 750 -906 54 -219 98 -515 116 -797 l7 -108 -1261
0 -1261 0 0 48 c0 127 59 485 110 666 165 584 479 959 908 1081 131 38 191 44
377 40 131 -2 189 -8 254 -24z"/>
<path d="M33875 8174 c-342 -46 -659 -185 -965 -423 -147 -114 -420 -391 -586
-594 -31 -38 -32 -38 -73 -27 -22 6 -41 16 -41 23 0 7 13 226 30 487 16 261
30 483 30 493 0 15 -13 17 -142 17 -79 0 -458 -14 -843 -30 -385 -16 -701 -30
-702 -30 -2 0 -3 -67 -3 -148 l0 -148 90 -18 c123 -25 297 -85 358 -125 133
-85 203 -218 234 -446 10 -81 13 -436 13 -1845 0 -1623 -1 -1754 -18 -1870
-19 -133 -62 -276 -101 -338 -37 -60 -123 -137 -190 -173 -33 -18 -115 -52
-181 -75 l-120 -42 -3 -141 -3 -141 1161 0 1160 0 0 140 c0 104 -3 141 -12
144 -7 1 -70 17 -140 34 -351 85 -481 227 -536 587 -15 99 -17 243 -17 1455 0
1344 0 1345 22 1436 57 241 188 464 403 688 283 295 577 412 877 350 120 -25
194 -63 280 -146 86 -83 160 -190 229 -330 l49 -98 322 0 323 0 0 659 0 659
-42 6 c-199 28 -687 34 -863 10z"/>
<path d="M46065 8178 c-347 -38 -747 -229 -1095 -521 -69 -57 -210 -186 -315
-286 -183 -176 -191 -182 -224 -177 -19 3 -38 9 -43 14 -5 5 4 200 22 460 16
248 30 458 30 467 0 22 -155 20 -925 -10 -352 -14 -668 -25 -702 -25 l-63 0 0
-153 0 -152 88 -19 c136 -28 293 -82 358 -124 104 -68 160 -146 202 -282 47
-153 47 -157 47 -2005 0 -1610 -1 -1749 -18 -1863 -20 -141 -64 -287 -105
-352 -73 -114 -199 -195 -399 -257 l-93 -28 0 -142 0 -143 1125 0 1126 0 -3
142 -3 142 -75 22 c-374 108 -494 239 -542 594 -10 74 -13 410 -13 1490 l0
1395 23 90 c61 239 216 461 487 693 203 174 369 270 554 320 86 23 115 26 276
26 141 1 197 -3 258 -17 174 -41 307 -117 428 -245 169 -178 247 -397 293
-822 33 -294 38 -551 33 -1705 -4 -1228 -4 -1221 -58 -1400 -66 -220 -173
-315 -459 -409 l-105 -34 -3 -141 -3 -141 1136 0 1136 0 -3 141 -3 141 -130
42 c-174 56 -253 96 -325 163 -94 87 -144 204 -171 403 -8 59 -14 555 -19
1615 -8 1640 -7 1617 -60 1897 -99 524 -338 872 -725 1058 -246 117 -627 173
-940 138z"/>
<path d="M51445 8183 c-111 -9 -333 -46 -440 -72 -679 -167 -1140 -564 -1337
-1153 -152 -457 -140 -1046 32 -1480 128 -323 325 -570 612 -765 54 -37 97
-67 95 -68 -1 -2 -58 -47 -127 -102 -227 -181 -408 -361 -511 -510 -237 -343
-260 -792 -56 -1093 41 -61 151 -174 212 -218 27 -21 90 -58 139 -84 l91 -46
-34 -19 c-97 -53 -249 -147 -322 -199 -104 -74 -281 -244 -353 -338 -178 -233
-244 -498 -205 -821 75 -614 598 -1005 1524 -1140 473 -69 1059 -90 1475 -54
606 53 1133 236 1522 530 310 234 541 594 618 962 84 403 12 889 -176 1180
-191 295 -545 503 -984 576 -221 37 -335 41 -1205 41 -1094 0 -1238 10 -1422
100 -132 65 -188 147 -214 313 -39 246 72 473 343 705 l87 74 63 -21 c181 -60
397 -91 688 -98 1025 -25 1748 314 2090 979 202 392 265 948 164 1431 -55 261
-164 502 -294 650 -44 49 -44 62 -3 99 17 15 53 15 498 -3 264 -10 504 -18
533 -19 l52 0 -2 288 -3 287 -1050 5 -1050 6 -132 27 c-203 41 -392 57 -650
55 -125 -1 -246 -3 -268 -5z m510 -446 c479 -107 769 -492 856 -1137 20 -145
18 -538 -4 -683 -65 -433 -227 -741 -482 -917 -68 -47 -201 -107 -290 -132
-71 -19 -104 -22 -300 -22 -205 0 -226 2 -315 26 -457 124 -730 500 -810 1118
-18 141 -24 433 -11 580 37 412 149 698 356 905 152 153 337 241 580 275 88
13 339 5 420 -13z m-1025 -5264 c8 -3 400 -9 870 -14 705 -6 872 -10 950 -23
517 -86 751 -371 727 -885 -13 -272 -103 -478 -291 -667 -314 -314 -856 -460
-1577 -424 -309 15 -474 37 -677 91 -491 129 -746 395 -781 816 -23 267 42
513 191 730 59 86 240 275 333 347 l60 46 90 -6 c50 -3 97 -8 105 -11z"/>
<path d="M69920 8176 c-561 -72 -1023 -293 -1392 -668 -409 -415 -667 -1003
-755 -1718 -22 -182 -25 -784 -5 -980 69 -663 237 -1156 520 -1527 332 -436
799 -684 1449 -770 202 -26 624 -24 811 5 455 71 867 255 1241 555 108 88 331
290 445 406 l79 80 -109 117 c-60 65 -138 149 -174 187 l-66 70 -104 -102
c-335 -329 -667 -520 -1040 -599 -147 -31 -270 -43 -455 -43 -201 0 -320 13
-470 51 -459 116 -784 440 -951 946 -95 290 -154 718 -154 1132 l0 112 1820 0
1820 0 0 23 c0 12 -5 108 -10 212 -43 809 -181 1326 -467 1760 -93 139 -282
327 -427 424 -252 167 -509 264 -846 317 -143 22 -613 28 -760 10z m483 -451
c304 -53 522 -225 682 -537 138 -268 210 -602 260 -1211 l7 -77 -1264 2 -1263
3 3 60 c15 287 104 688 208 936 197 468 514 748 933 823 104 19 328 20 434 1z"/>
<path d="M75712 8175 c-574 -65 -1136 -245 -1795 -574 l-232 -116 -3 -377 -2
-378 372 0 373 0 38 113 c147 433 408 706 762 796 277 70 634 48 875 -53 285
-121 468 -383 549 -786 43 -219 53 -341 58 -736 l5 -381 -133 -7 c-766 -40
-1446 -158 -1954 -341 -155 -55 -438 -192 -550 -265 -278 -182 -482 -409 -588
-654 -142 -327 -148 -763 -16 -1103 92 -236 248 -431 455 -569 269 -179 622
-267 999 -250 611 27 1107 270 1667 815 l128 124 45 -13 c39 -11 45 -16 45
-39 0 -14 -7 -195 -15 -401 -8 -206 -15 -381 -15 -387 0 -10 165 -13 790 -13
l791 0 -3 141 -3 141 -115 34 c-63 19 -155 55 -205 79 -212 102 -280 220 -326
565 -8 58 -14 584 -19 1645 -7 1520 -7 1564 -28 1712 -39 273 -88 453 -167
607 -187 367 -494 575 -970 658 -157 27 -623 34 -813 13z m996 -3452 l-4 -488
-27 -95 c-143 -499 -613 -906 -1137 -985 -112 -17 -336 -19 -447 -4 -380 52
-607 234 -694 559 -20 74 -23 109 -23 275 -1 167 2 200 22 274 101 369 383
617 881 775 330 104 811 171 1264 175 l168 1 -3 -487z"/>
<path d="M81115 8179 c-471 -44 -896 -183 -1185 -388 -367 -259 -558 -616
-577 -1076 -14 -365 80 -637 312 -905 225 -260 540 -452 1225 -748 657 -284
893 -414 1070 -592 162 -164 224 -315 236 -580 21 -445 -182 -747 -586 -874
-158 -50 -295 -69 -510 -69 -207 -1 -305 10 -455 48 -393 99 -658 373 -821
848 l-36 107 -279 0 -279 0 0 -599 0 -600 55 -16 c93 -27 389 -92 587 -129
717 -136 1395 -151 1948 -45 730 140 1183 540 1309 1154 33 160 47 392 33 543
-30 333 -139 561 -386 807 -185 184 -373 308 -756 498 -124 62 -349 166 -500
232 -323 140 -632 292 -748 369 -298 196 -420 374 -453 658 -34 295 68 551
284 714 184 138 420 204 730 204 490 0 784 -140 1016 -484 54 -79 145 -256
182 -353 l24 -63 277 0 278 0 0 584 0 584 -22 5 c-140 35 -709 127 -903 146
-313 31 -848 41 -1070 20z"/>
<path d="M93464 8180 c-195 -21 -379 -77 -589 -180 -292 -143 -505 -306 -875
-666 l-155 -151 -37 11 c-20 6 -38 13 -41 16 -3 3 8 194 24 425 16 231 29 441
29 468 l0 47 -142 0 c-79 0 -431 -11 -783 -25 -352 -14 -668 -25 -702 -25
l-63 0 0 -155 c0 -146 1 -155 19 -155 11 0 81 -15 155 -34 374 -94 487 -236
517 -646 15 -215 7 -3508 -9 -3615 -7 -44 -24 -119 -37 -168 -67 -237 -167
-332 -449 -427 l-111 -37 -3 -141 -3 -142 1131 0 1130 0 0 140 c0 104 -3 142
-12 144 -148 43 -239 76 -308 109 -149 74 -237 184 -280 351 -43 171 -45 229
-45 1666 l0 1365 23 89 c46 181 131 333 280 502 171 193 446 403 621 474 149
61 229 75 426 74 204 0 280 -13 403 -66 209 -91 366 -254 451 -468 90 -228
131 -516 151 -1070 12 -346 13 -1899 0 -2149 -29 -567 -127 -725 -525 -847
l-95 -29 0 -142 0 -143 1135 0 1136 0 -3 141 -3 141 -115 34 c-245 74 -383
168 -448 306 -84 175 -92 341 -92 2024 0 751 -4 1303 -10 1380 -29 366 -90
629 -200 859 -147 306 -406 532 -735 639 -210 69 -529 100 -761 76z"/>
<path d="M102980 8179 c-488 -53 -958 -237 -1290 -506 -110 -89 -285 -273
-374 -392 -381 -513 -566 -1166 -566 -2001 0 -845 181 -1507 539 -1975 63 -83
221 -245 307 -316 239 -196 565 -350 894 -423 560 -123 1177 -96 1695 75 849
280 1389 978 1560 2014 45 271 58 483 52 850 -7 408 -29 605 -102 910 -220
921 -787 1507 -1645 1700 -236 54 -366 67 -685 70 -165 2 -338 -1 -385 -6z
m595 -473 c124 -32 295 -115 401 -193 346 -258 590 -769 689 -1445 36 -247 48
-450 48 -798 0 -362 -12 -540 -53 -800 -65 -400 -180 -723 -347 -974 -86 -129
-247 -292 -368 -372 -306 -203 -760 -239 -1130 -91 -254 102 -487 328 -648
627 -166 309 -274 739 -316 1255 -28 344 -22 797 15 1114 93 807 390 1362 851
1591 181 89 341 121 588 116 144 -3 185 -8 270 -30z"/>
<path d="M112797 8175 c-426 -58 -809 -257 -1175 -609 -95 -92 -284 -296 -373
-404 l-35 -44 -43 12 -43 11 6 72 c9 106 56 864 56 903 l0 34 -142 0 c-79 0
-456 -14 -838 -30 -382 -16 -698 -30 -702 -30 -5 0 -8 -67 -8 -150 0 -141 1
-150 19 -150 11 0 79 -15 153 -34 174 -43 272 -89 347 -161 110 -105 155 -236
172 -504 15 -244 7 -3488 -9 -3596 -33 -214 -81 -334 -171 -424 -69 -68 -148
-112 -306 -167 l-120 -42 -3 -141 -3 -141 1161 0 1161 0 -3 141 -3 142 -100
22 c-208 47 -320 99 -410 190 -95 96 -142 213 -176 440 -17 110 -25 2611 -9
2735 40 311 175 565 445 836 223 224 426 330 655 341 207 11 367 -43 487 -163
74 -75 166 -210 226 -335 l42 -88 328 0 327 -1 0 659 0 659 -47 6 c-221 29
-693 34 -866 11z"/>
<path d="M116497 8175 c-803 -101 -1435 -541 -1807 -1257 -243 -468 -353 -975
-353 -1623 0 -378 23 -636 84 -940 176 -885 636 -1468 1355 -1718 298 -104
682 -157 1044 -143 398 14 684 82 1019 242 228 109 374 204 596 388 121 101
455 422 455 438 0 5 -70 84 -157 176 -86 92 -162 173 -169 181 -11 12 -32 -4
-132 -101 -394 -380 -751 -561 -1216 -618 -134 -16 -433 -14 -558 5 -337 50
-576 169 -791 394 -313 329 -466 829 -484 1579 l-6 252 1817 0 1816 0 0 94 c0
200 -33 574 -71 806 -96 587 -315 1067 -616 1350 -274 258 -615 416 -1053 485
-144 23 -622 29 -773 10z m574 -468 c163 -43 293 -120 411 -245 151 -160 248
-352 323 -637 57 -214 106 -544 121 -808 l7 -117 -1263 0 -1263 0 7 88 c20
250 72 518 147 745 185 566 530 911 991 992 58 10 135 13 253 11 142 -3 186
-8 266 -29z"/>
<path d="M122385 8184 c-382 -39 -763 -125 -1140 -259 -221 -79 -398 -156
-712 -310 l-273 -134 0 -375 0 -376 376 2 377 3 33 100 c99 297 267 539 466
672 212 141 507 199 835 162 328 -36 558 -165 706 -395 61 -95 80 -134 121
-254 86 -245 118 -512 120 -995 l1 -340 -105 -7 c-763 -50 -1238 -121 -1705
-255 -711 -203 -1179 -525 -1388 -955 -86 -176 -125 -343 -134 -563 -30 -775
464 -1323 1266 -1405 380 -38 780 36 1136 210 269 132 497 299 808 592 l137
130 42 -14 41 -13 -2 -105 c-1 -58 -6 -206 -11 -330 -5 -124 -10 -262 -10
-307 l0 -83 785 0 786 0 -3 142 -3 142 -90 27 c-206 62 -306 113 -386 196 -59
62 -82 101 -113 193 -61 182 -59 138 -66 1845 -6 1338 -10 1579 -23 1692 -54
448 -136 678 -322 910 -182 227 -446 367 -816 433 -105 19 -167 23 -409 25
-157 2 -303 1 -325 -1z m912 -3446 c-5 -509 -6 -519 -63 -678 -67 -187 -168
-343 -319 -496 -282 -283 -619 -424 -1017 -424 -432 0 -707 129 -847 398 -95
185 -124 441 -75 682 56 275 233 499 519 660 352 197 976 323 1633 329 l174 1
-5 -472z"/>
<path d="M40200 8124 c-305 -12 -597 -23 -647 -23 l-93 -1 0 -152 0 -153 92
-18 c419 -83 556 -224 600 -612 19 -166 18 -3396 -1 -3585 -26 -260 -79 -410
-183 -514 -73 -72 -143 -110 -309 -166 l-114 -38 -3 -141 -3 -141 1131 0 1131
0 -3 141 -3 141 -100 30 c-136 39 -291 116 -348 171 -124 121 -166 261 -187
617 -6 107 -10 1007 -10 2323 l0 2147 -197 -1 c-109 -1 -448 -12 -753 -25z"/>
<path d="M58525 8124 c-308 -12 -599 -23 -647 -23 l-88 -1 0 -152 0 -153 104
-23 c220 -47 345 -103 425 -187 102 -107 146 -246 161 -503 13 -218 13 -3271
0 -3442 -12 -162 -31 -271 -65 -370 -32 -95 -62 -144 -125 -207 -66 -64 -141
-105 -295 -159 l-120 -42 -3 -141 -3 -141 1126 0 1126 0 -3 141 -3 141 -133
43 c-154 51 -235 92 -302 152 -94 84 -147 199 -177 385 -16 94 -17 301 -20
2406 l-4 2302 -197 -1 c-108 -1 -449 -12 -757 -25z"/>
<path d="M87570 8124 c-316 -12 -609 -24 -650 -26 l-75 -3 0 -149 0 -149 105
-23 c410 -92 532 -214 583 -579 18 -134 17 -3494 -1 -3648 -48 -400 -163 -547
-509 -654 l-93 -28 0 -142 0 -143 1125 0 1126 0 -3 142 -3 142 -80 23 c-353
101 -476 226 -532 543 -15 87 -17 294 -20 2408 l-4 2312 -197 -1 c-108 -1
-456 -12 -772 -25z"/>
<path d="M129700 8124 c-305 -12 -597 -23 -647 -23 l-93 -1 0 -155 c0 -146 1
-155 19 -155 11 0 79 -15 153 -34 377 -95 490 -237 519 -651 6 -97 9 -750 6
-1845 -4 -1838 -2 -1769 -58 -1955 -65 -216 -163 -306 -434 -401 l-120 -42 -3
-141 -3 -141 1131 0 1130 0 0 140 c0 104 -3 142 -12 144 -257 75 -366 125
-450 207 -108 106 -157 253 -177 541 -7 97 -11 893 -11 2342 l0 2196 -197 -1
c-109 -1 -448 -12 -753 -25z"/>
<path d="M18720 7958 l0 -143 73 -18 c230 -56 385 -196 510 -460 78 -165 148
-353 961 -2592 l802 -2210 342 0 343 0 998 2195 c1093 2403 1080 2375 1171
2540 181 330 330 468 570 529 l75 18 3 142 3 141 -1076 0 -1075 0 0 -144 0
-143 43 -7 c65 -11 243 -73 311 -109 205 -109 278 -312 230 -634 -18 -122 -47
-227 -113 -407 -78 -214 -1253 -2998 -1262 -2989 -11 12 -1062 3073 -1092
3183 -39 141 -57 251 -64 382 -16 301 78 431 377 526 52 16 121 36 153 43 l57
14 0 142 0 143 -1170 0 -1170 0 0 -142z"/>
<path d="M135882 7959 l3 -142 79 -23 c280 -80 416 -236 595 -677 64 -157
1721 -4613 1721 -4627 0 -16 -220 -452 -316 -627 -212 -386 -360 -601 -528
-768 -132 -131 -207 -182 -321 -218 -59 -19 -92 -22 -215 -22 -129 1 -152 3
-205 24 -108 43 -190 149 -251 321 l-22 65 -256 3 -256 2 0 -569 0 -569 28 -6
c289 -60 734 -84 961 -51 345 51 615 186 884 445 280 268 546 677 834 1285 45
94 568 1263 1163 2600 595 1337 1137 2543 1205 2680 183 372 302 537 451 628
49 29 166 74 272 103 9 2 12 40 12 144 l0 140 -1075 0 -1076 0 3 -142 3 -141
86 -23 c386 -102 514 -246 512 -574 -1 -149 -21 -255 -88 -460 -37 -113 -1227
-2991 -1264 -3058 -8 -15 -11 -13 -21 13 -91 238 -1078 3036 -1104 3130 -47
170 -66 295 -66 430 0 292 110 413 462 509 l123 34 3 141 3 141 -1171 0 -1171
0 3 -141z"/>
</g>
</svg>
