<svg id="Layer_1" viewBox="0 0 512 512" xmlns="http://www.w3.org/2000/svg" data-name="Layer 1"><path d="m412.52 339.43 13.4 23.2a6.34 6.34 0 0 1 5.89 3l54.32 83.37c9.83 15.09 3.26 35.35-12.41 43.45-14.6 7.54-33.52 2.63-41.2-12.25l-45.6-88.2c-1.44-2.79-.56-5 .82-7.2l-13.44-23.3a104.28 104.28 0 0 1 -19.2 4.25v55.68a22.77 22.77 0 0 1 -22.73 22.73h-288.37a22.77 22.77 0 0 1 -22.73-22.73v-382.69a22.77 22.77 0 0 1 22.73-22.74h234.3a6.36 6.36 0 0 1 4.55 1.91l70.34 70.39a6.39 6.39 0 0 1 1.91 4.55v64.8a104.86 104.86 0 0 1 57.42 181.78z" fill-rule="evenodd"/><g fill="#3d7dbd"><path d="m333.29 86.47-48.65-48.65v38.69a10 10 0 0 0 10 10z" fill-rule="evenodd"/><path d="m412.54 365-10.1-17.49a104.45 104.45 0 0 1 -16.14 9.33l10.1 17.49a43.1 43.1 0 0 1 16.14-9.33z" fill-rule="evenodd"/><path d="m423.14 375.64a32 32 0 0 0 -23.2 13.79l43.9 85c7 13.45 29.06 11.41 33.52-5.06a16.44 16.44 0 0 0 -1.91-13.37z" fill-rule="evenodd"/><path d="m194.55 75.85h28.69v165.91h-28.69z"/><path d="m153.09 186.1h28.69v55.66h-28.69z"/><path d="m111.62 118.64h28.69v123.12h-28.69z"/><path d="m264.71 191v-71.74h-28.71v122.5h3.21a104.92 104.92 0 0 1 25.5-50.76z" fill-rule="evenodd"/><path d="m306.18 163.2v-15.32h-28.69v31.28a105.88 105.88 0 0 1 28.69-15.96z" fill-rule="evenodd"/><path d="m314.86 173.72a6.34 6.34 0 0 1 -.74.23 93.2 93.2 0 1 0 .74-.23zm-46.1 105.13a6.39 6.39 0 1 1 0-12.78h14.1l12.61-14a6.37 6.37 0 0 1 10.93 2.73l3.12 10.16 9.58-31.22a6.37 6.37 0 0 1 12.19.06l11.18 36.44 11.45-41.54a6.38 6.38 0 0 1 12.21-.24l14.47 37.68h34.95a6.36 6.36 0 1 1 0 12.72h-39.32a6.36 6.36 0 0 1 -5.94-4.08l-9.23-24-12.06 43.77a6.38 6.38 0 0 1 -12.27.33l-11.52-37.57-9.56 31.17a6.38 6.38 0 0 1 -12.2.06l-6-19.59-6.76 7.52a6.39 6.39 0 0 1 -5 2.38z" fill-rule="evenodd"/></g><path d="m63.77 148.7h35.07v-36.45a6.39 6.39 0 0 1 6.39-6.38h41.47a6.39 6.39 0 0 1 6.39 6.38v61.07h28.69v-103.86a6.39 6.39 0 0 1 6.38-6.39h41.47a6.39 6.39 0 0 1 6.37 6.39v37h35.1a6.39 6.39 0 0 1 6.39 6.39v22.24h35.07a6.39 6.39 0 0 1 6.44 6.41v17.92a104.17 104.17 0 0 1 23.37-2.59v-57.59h-47.77a22.76 22.76 0 0 1 -22.73-22.73v-47.72h-227.87a10 10 0 0 0 -10 10v382.64a10 10 0 0 0 10 9.95h288.37a10 10 0 0 0 9.95-9.95v-54.89c-60.76 0-109-51.45-104.77-112h-173.78a6.39 6.39 0 0 1 -6.39-6.38v-93.07a6.39 6.39 0 0 1 6.39-6.39zm-.86 153.24a6.39 6.39 0 0 1 0-12.78h152.64a6.39 6.39 0 0 1 0 12.78zm0 47.41a6.39 6.39 0 1 1 0-12.78h176.45a6.39 6.39 0 1 1 0 12.78zm69.65 47.4a6.39 6.39 0 1 1 0-12.77h180.86a6.39 6.39 0 1 1 0 12.77zm-69.65 0a6.39 6.39 0 1 1 0-12.77h33.09a6.39 6.39 0 1 1 0 12.77z" fill="#fff" fill-rule="evenodd"/><path d="m70.15 161.48h28.69v80.28h-28.69z" fill="#3d7dbd"/></svg>