<svg enable-background="new 0 0 26 32" height="32" viewBox="0 0 26 32" width="26" xmlns="http://www.w3.org/2000/svg"><g><g id="Android_1_"><g id="Android"><g fill="#10dd76"><path id="Hands_1_" clip-rule="evenodd" d="m2 10c-1.1 0-2 .9-2 2v8c0 1.1.9 2 2 2s2-.9 2-2v-8c0-1.1-.9-2-2-2z" fill-rule="evenodd"/><path id="Hands" clip-rule="evenodd" d="m24 10c-1.1 0-2 .9-2 2v8c0 1.1.9 2 2 2s2-.9 2-2v-8c0-1.1-.9-2-2-2z" fill-rule="evenodd"/><path id="Body" d="m5 10v14c0 1.1.9 2 2 2h1v4c0 1.1.9 2 2 2s2-.9 2-2v-4h2v4c0 1.1.9 2 2 2s2-.9 2-2v-4h1c1.1 0 2-.9 2-2v-14z"/><path id="Head" clip-rule="evenodd" d="m21 9c0-2-.7-3.7-1.9-5.1l1.8-3.1c.1-.2.1-.5-.2-.7s-.5-.1-.6.2l-1.7 2.9c-1.4-1.4-3.3-2.2-5.4-2.2s-4 .8-5.4 2.1l-1.7-2.8c-.1-.3-.4-.4-.6-.2s-.4.4-.2.7l1.8 3.1c-1.2 1.4-1.9 3.1-1.9 5.1z" fill-rule="evenodd"/></g><circle id="Eyes_1_" clip-rule="evenodd" cx="10" cy="5" fill="#f4f4f4" fill-rule="evenodd" r="1"/><circle id="Eyes" clip-rule="evenodd" cx="16" cy="5" fill="#f4f4f4" fill-rule="evenodd" r="1"/><path id="Shadow_1_" d="m14 26 4 4v-4z" fill="#0cc15e"/><path id="Shadow" d="m8 26 4 4v-4z" fill="#0cc15e"/></g></g></g></svg>