<svg id="Layer_1" enable-background="new 0 0 512 512" viewBox="0 0 512 512" xmlns="http://www.w3.org/2000/svg"><g clip-rule="evenodd" fill-rule="evenodd"><path d="m54.128 112.769c0 32.507 26.453 58.96 58.96 58.96 32.509 0 58.964-26.449 58.964-58.96 0-32.51-26.455-58.96-58.964-58.96-32.508 0-58.96 26.453-58.96 58.96zm299.06 324.43c-1.931 1.979-1.88 5.144.098 7.072l19.62 19.13c.935.911 2.18 1.417 3.485 1.417 1.343 0 2.611-.525 3.557-1.479l35.18-35.51c1.945-1.963 1.919-5.13-.042-7.073-1.962-1.945-5.12-1.923-7.063.038l-31.699 31.982-16.068-15.665c-1.977-1.928-5.14-1.889-7.068.088zm-309.893-376.807-8.758-8.758 17.421-17.414 8.757 8.757c1.684 1.684 4.331 1.943 6.312.621 9.045-6.036 19.062-10.194 29.726-12.322 2.336-.466 4.02-2.519 4.02-4.901v-12.378h24.634v12.376c0 2.384 1.681 4.44 4.02 4.906 10.663 2.125 20.681 6.284 29.726 12.318 1.981 1.321 4.627 1.063 6.312-.621l8.757-8.757 17.415 17.416-8.757 8.757c-1.683 1.683-1.942 4.332-.621 6.312 6.035 9.043 10.195 19.065 12.322 29.726.467 2.34 2.514 4.025 4.902 4.025h12.376v24.634h-12.376c-2.385 0-4.435 1.681-4.901 4.02-2.125 10.662-6.286 20.684-12.323 29.727-1.32 1.977-1.06 4.629.622 6.311l8.757 8.757-17.415 17.422-8.758-8.764c-1.682-1.683-4.332-1.941-6.31-.62-9.042 6.036-19.066 10.19-29.726 12.318-2.339.467-4.02 2.522-4.02 4.906v12.376h-24.634v-12.376c0-2.385-1.687-4.439-4.026-4.906-10.658-2.128-20.68-6.284-29.72-12.318-1.98-1.321-4.627-1.064-6.311.62l-8.757 8.763-17.42-17.42 8.756-8.762c1.682-1.684 1.943-4.332.622-6.312-6.034-9.043-10.194-19.06-12.318-29.722-.466-2.339-2.517-4.02-4.901-4.02h-12.384v-24.634h12.381c2.385 0 4.435-1.687 4.901-4.025 2.125-10.661 6.283-20.683 12.318-29.726 1.321-1.98 1.062-4.629-.621-6.312zm340.874 325.737c30.846 0 55.932 25.092 55.932 55.937 0 30.843-25.089 55.932-55.932 55.932-30.844 0-55.928-25.09-55.928-55.932 0-30.845 25.081-55.937 55.928-55.937z" fill="#92c3fe"/><path d="m142.117 442.066c0-4.419 3.58-8.004 7.999-8.004h45.99c4.419 0 7.999 3.584 7.999 8.004 0 4.419-3.58 7.999-7.999 7.999h-45.99c-4.419 0-7.999-3.58-7.999-7.999zm-45.372 0c0-4.419 3.58-8.004 7.999-8.004h9.032c4.419 0 7.999 3.584 7.999 8.004 0 4.419-3.58 7.999-7.999 7.999h-9.032c-4.419 0-7.999-3.58-7.999-7.999zm318.514-329.297c0 4.419-3.58 7.999-7.999 7.999h-45.99c-4.419 0-7.999-3.58-7.999-7.999s3.58-7.999 7.999-7.999h45.99c4.42 0 7.999 3.58 7.999 7.999zm-82.33 0c0 4.419-3.58 7.999-7.999 7.999h-9.027c-4.424 0-8.004-3.58-8.004-7.999s3.58-7.999 8.004-7.999h9.027c4.42 0 7.999 3.58 7.999 7.999zm-105.577 164.646c0 4.419-3.58 8.004-8.004 8.004h-9.027c-4.419 0-8.004-3.584-8.004-8.004 0-4.419 3.584-7.999 8.004-7.999h9.027c4.424 0 8.004 3.58 8.004 7.999zm82.325 0c0 4.419-3.58 8.004-7.999 8.004h-45.985c-4.419 0-7.999-3.584-7.999-8.004 0-4.419 3.58-7.999 7.999-7.999h45.985c4.42 0 7.999 3.58 7.999 7.999zm-196.59-118.684c-25.341 0-45.962-20.62-45.962-45.962 0-25.341 20.62-45.961 45.962-45.961 25.346 0 45.961 20.62 45.961 45.961.001 25.342-20.615 45.962-45.961 45.962zm0-107.921c-34.161 0-61.96 27.794-61.96 61.96s27.799 61.96 61.96 61.96c34.166 0 61.964-27.794 61.964-61.96s-27.798-61.96-61.964-61.96zm238.105 395.609c-3.17-3.085-3.231-8.15-.151-11.315 3.089-3.16 8.15-3.226 11.31-.142l13.937 13.588 29.605-29.869c3.108-3.141 8.169-3.165 11.305-.057 3.141 3.113 3.165 8.178.061 11.315l-35.18 35.51c-1.57 1.576-3.627 2.368-5.688 2.368-2.009 0-4.033-.755-5.579-2.269zm-40.882-142.771 27.379-52.838h-135.38c-.344 0-.462.071-.618.377l-27.383 52.838h135.385c.348 0 .456-.071.617-.377zm-214.193 112.185-27.388 52.838h135.39c.344 0 .457-.071.618-.372l27.379-52.843h-135.385c-.345-.001-.458.07-.614.377zm288.052-26.705c-29.19 0-52.928 23.747-52.928 52.937 0 29.185 23.738 52.932 52.928 52.932s52.932-23.747 52.932-52.932c0-29.189-23.742-52.937-52.932-52.937zm31.723-250.126 27.379-52.838h-135.39c-.34 0-.462.071-.613.373l-27.384 52.838h135.385c.339 0 .462-.071.623-.373zm-207.033-16.913v-18.635h-9.376c-3.816 0-7.098-2.693-7.844-6.438-2.052-10.272-6.046-19.913-11.876-28.647-2.118-3.174-1.698-7.4.995-10.098l6.636-6.636-13.173-13.173-6.636 6.636c-2.698 2.698-6.924 3.113-10.098.995-8.74-5.829-18.375-9.824-28.648-11.871-3.74-.745-6.433-4.033-6.433-7.848v-9.376h-18.634v9.376c0 3.815-2.698 7.098-6.433 7.843-10.277 2.052-19.913 6.047-28.647 11.876-3.174 2.118-7.4 1.703-10.098-.995l-6.636-6.636-13.178 13.173 6.636 6.636c2.698 2.698 3.113 6.928.995 10.098-5.829 8.74-9.824 18.38-11.871 28.647-.745 3.74-4.028 6.438-7.843 6.438h-9.381v18.635h9.381c3.815 0 7.098 2.693 7.843 6.433 2.047 10.272 6.042 19.908 11.871 28.643 2.118 3.174 1.702 7.405-.995 10.098l-6.636 6.641 13.178 13.178 6.636-6.641c2.698-2.698 6.924-3.113 10.098-.995 8.735 5.829 18.375 9.824 28.643 11.871 3.74.75 6.438 4.033 6.438 7.848v9.376h18.634v-9.376c0-3.815 2.693-7.098 6.433-7.848 10.272-2.047 19.913-6.042 28.648-11.871 3.169-2.118 7.4-1.703 10.098.995l6.636 6.641 13.173-13.178-6.636-6.636c-2.693-2.698-3.113-6.928-.995-10.098 5.834-8.74 9.829-18.38 11.876-28.648.745-3.74 4.028-6.433 7.844-6.433zm248.372-17.319h-5.579l8.589-16.578c2-3.858 1.849-8.381-.41-12.098-2.259-3.716-6.207-5.929-10.551-5.929h-141.399c-6.348 0-11.89 3.368-14.819 9.009l-13.267 25.596h-54.937v-9.315c0-4.419-3.58-8.004-7.999-8.004h-11.041c-2.127-7.82-5.226-15.3-9.263-22.341l7.811-7.815c1.505-1.5 2.349-3.537 2.349-5.66 0-2.122-.844-4.155-2.349-5.655l-24.488-24.488c-1.5-1.505-3.533-2.344-5.655-2.344s-4.16.84-5.66 2.344l-7.815 7.815c-7.042-4.042-14.522-7.141-22.342-9.263v-11.046c0-4.419-3.58-7.999-7.999-7.999h-34.638c-4.415 0-7.999 3.58-7.999 7.999v11.046c-7.82 2.127-15.3 5.226-22.341 9.263l-7.815-7.815c-3.122-3.122-8.188-3.122-11.315 0l-24.489 24.488c-1.504 1.5-2.344 3.532-2.344 5.655s.84 4.16 2.344 5.66l7.815 7.815c-4.037 7.046-7.136 14.522-9.263 22.341h-11.045c-4.419 0-7.999 3.585-7.999 8.004v34.633c0 4.419 3.58 7.999 7.999 7.999h11.046c2.127 7.82 5.226 15.3 9.263 22.342l-7.815 7.815c-3.127 3.127-3.127 8.192 0 11.315l24.488 24.492c1.5 1.5 3.537 2.344 5.66 2.344 2.118 0 4.155-.844 5.655-2.344l7.815-7.815c7.046 4.033 14.522 7.136 22.341 9.258v11.046c0 4.419 3.584 8.004 7.999 8.004h34.637c4.42 0 7.999-3.584 7.999-8.004v-11.046c7.825-2.122 15.3-5.226 22.342-9.258l7.815 7.815c3.127 3.122 8.192 3.122 11.315 0l24.492-24.492c1.5-1.5 2.344-3.537 2.344-5.655 0-2.122-.844-4.155-2.344-5.655l-7.815-7.82c4.037-7.046 7.136-14.522 9.263-22.342h11.041c4.42 0 7.999-3.58 7.999-7.999v-9.32h46.65l-8.594 16.578c-1.999 3.858-1.849 8.381.411 12.098 2.259 3.712 6.202 5.933 10.55 5.933h141.394c6.363 0 11.899-3.372 14.819-9.013l13.272-25.596h13.871c20.649 0 37.448 16.805 37.448 37.458v73.732c0 20.653-16.8 37.458-37.448 37.458h-111.161l8.589-16.578c2-3.858 1.854-8.381-.41-12.098-2.259-3.712-6.197-5.929-10.546-5.929h-141.394c-6.358 0-11.9 3.368-14.824 9.008l-13.263 25.596h-119.443c-29.478 0-53.461 23.983-53.461 53.461v73.727c0 29.478 23.983 53.461 53.461 53.461h5.575l-8.593 16.583c-2 3.858-1.844 8.376.415 12.088 2.254 3.716 6.202 5.933 10.546 5.933h141.398c6.353 0 11.895-3.368 14.819-9.008l13.267-25.596h83.514c3.981 34.251 33.152 60.936 68.45 60.936 38.014 0 68.931-30.926 68.931-68.935 0-38.01-30.916-68.936-68.931-68.936-35.298 0-64.469 26.681-68.45 60.932h-75.222l8.593-16.578c2-3.858 1.844-8.381-.415-12.098-2.259-3.712-6.202-5.929-10.551-5.929h-141.393c-6.358 0-11.895 3.367-14.819 9.013l-13.267 25.591h-13.867c-20.658 0-37.463-16.8-37.463-37.458v-73.727c0-20.658 16.805-37.458 37.463-37.458h111.152l-8.594 16.574c-2 3.863-1.844 8.381.411 12.098 2.259 3.716 6.207 5.933 10.55 5.933h141.394c6.358 0 11.9-3.367 14.829-9.013l13.263-25.591h119.448c29.468 0 53.452-23.983 53.452-53.461v-73.732c-.001-29.477-23.984-53.455-53.452-53.455z" fill="#224eff"/></g></svg>