<svg clip-rule="evenodd" fill-rule="evenodd" height="1.707in" image-rendering="optimizeQuality" shape-rendering="geometricPrecision" text-rendering="geometricPrecision" viewBox="0 0 1707 1707" width="1.707in" xmlns="http://www.w3.org/2000/svg"><g id="Layer_x0020_1"><path d="m1512 479c-26 0-39-31-20-50l68-68c27-27 68 14 41 41l-68 68c-6 6-14 9-21 9zm-721 341c-14 0-27-11-28-25l-18-137-150 17c-18 2-34-14-32-32l15-122c-15-5-31-7-47-7-74 0-137 52-151 125 1 57 35 109 87 133 35 16 10 69-24 53-67-31-112-95-120-167-134-32-265 70-265 209 0 117 95 213 211 215-51-82 8-189 105-189 38 0 38 58 0 58-86 0-88 130 1 131h219c138-157 381-157 519 0h216c-51-82 7-189 105-189 38 0 38 58 0 58-86 0-87 131 0 131 118 0 215-97 215-215 0-88-54-164-129-197l-75 64 24 59c6 16-3 35-20 39l-216 56c-33 0-40-49-7-57l177-47c-32-79-37-58 48-131-89-7-108 35-136 19-8-4-14-13-15-22-8-78-74-137-152-137-14 0-28 2-41 6-52 25-85 78-85 135 0 38-58 38-58 0 0-74 39-142 102-179-15-105-105-185-213-185-117 0-213 95-214 213l-14 110 142-16c16-2 30 9 32 25l21 165c2 18-11 33-29 33zm731-211c1 0 2 1 4 1 105 38 181 139 181 257 0 150-121 272-273 273h-280c129 227-35 515-301 515-265 0-429-288-300-515h-280c-151 0-273-123-273-273 0-174 161-303 330-267 35-105 146-166 254-138 21-130 134-230 269-230 134 0 246 97 269 225 104-13 200 52 229 150 55-17 116-17 171 2zm-669 413c-158 0-287 129-287 287 0 159 129 288 287 288 159 0 288-129 288-288 0-158-129-287-288-287zm-73 429c-7 0-15-3-20-8l-81-80c-27-27 14-68 41-41l60 59 206-205c27-27 68 14 41 41l-226 226c-6 5-13 8-21 8zm-577-981c-7 0-15-3-20-9l-67-69c-27-27 15-68 41-40l67 69c18 18 5 49-21 49zm313-201c-11 0-22-7-27-18l-34-90c-14-36 40-56 54-21l34 90c8 19-7 39-27 39zm692 8c-20 0-34-21-27-40l37-90c15-35 68-13 54 23l-37 89c-5 11-15 18-27 18zm-356-119c-37 0-29-45-29-77 0-38 58-38 58 0 0 32 7 77-29 77z" fill="#558efa"/><g id="_581828096" fill="#a9c3f5"><path d="m1066 475c-15-105-105-185-213-185-117 0-213 95-214 213l-14 110 142-16c16-2 30 9 32 25l21 165c2 18-11 33-29 33-14 0-27-11-28-25l-18-137-150 17c-18 2-34-14-32-32l15-122c-15-5-31-7-47-7-74 0-137 52-151 125 1 57 35 109 87 133 35 16 10 69-24 53-67-31-112-95-120-167-134-32-265 70-265 209 0 117 95 213 211 215-51-82 8-189 105-189 38 0 38 58 0 58-86 0-88 130 1 131h219c138-157 381-157 519 0h216c-51-82 7-189 105-189 38 0 38 58 0 58-86 0-87 131 0 131 118 0 215-97 215-215 0-88-54-164-129-197l-75 64 24 59c6 16-3 35-20 39l-216 56c-33 0-40-49-7-57l177-47c-32-79-37-58 48-131-89-7-108 35-136 19-8-4-14-13-15-22-8-78-74-137-152-137-14 0-28 2-41 6-52 25-85 78-85 135 0 38-58 38-58 0 0-74 39-142 102-179z"/><path d="m853 1022c-158 0-287 129-287 287 0 159 129 288 287 288 159 0 288-129 288-288 0-158-129-287-288-287zm-133 300 60 59 206-205c27-27 68 14 41 41l-226 226c-6 5-13 8-21 8-7 0-15-3-20-8l-81-80c-27-27 14-68 41-41z"/></g><g id="_581827280" fill="#e8edfa"><path d="m1066 475c-15-105-105-185-213-185-117 0-213 95-214 213l-14 110 142-16c16-2 30 9 32 25l21 165c2 18-11 33-29 33-14 0-27-11-28-25l-18-137-150 17c-18 2-34-14-32-32l15-122c-15-5-31-7-47-7-74 0-137 52-151 125 1 57 35 109 87 133 35 16 10 69-24 53-67-31-112-95-120-167-134-32-265 70-265 209 0 117 95 213 211 215-51-82 8-189 105-189 38 0 38 58 0 58-86 0-88 130 1 131h219c138-157 381-157 519 0h66c26-64 45-130 58-195l-4 1c-33 0-40-49-7-57l21-6c13-93 13-186 0-275-27-23-62-37-99-37-14 0-28 2-41 6-52 25-85 78-85 135 0 38-58 38-58 0 0-74 39-142 102-179z"/><path d="m853 1022c-158 0-287 129-287 287 0 141 102 258 235 283 35-28 68-58 101-90 90-91 163-191 219-296-41-107-146-184-268-184zm-133 300 60 59 206-205c27-27 68 14 41 41l-226 226c-6 5-13 8-21 8-7 0-15-3-20-8l-81-80c-27-27 14-68 41-41z"/></g></g></svg>