<svg id="Icon_Set" enable-background="new 0 0 64 64" viewBox="0 0 64 64" xmlns="http://www.w3.org/2000/svg"><g id="Mind_Mapping"><g stroke="#37474f" stroke-linecap="round" stroke-linejoin="round" stroke-miterlimit="10"><path d="m43 60.5v-9.8c0-1.1.4-2.2 1.1-3.1l1.7-2.2c2.7-3.5 4.2-7.8 4.2-12.3v-.1-2c0-9.9-8.1-18-18-18-3.7 0-7.1 1.1-10 3" fill="none"/><path d="m15.2 24.5c-.8 2-1.2 4.2-1.2 6.5v1l-5.7 6.9c-.5.7-.1 1.6.8 1.6h5.9v6.5c0 2.8 2.2 5 5 5h4.5c1.4 0 2.5 1.1 2.5 2.5v6" fill="none"/><path d="m19 18.5c-.9.9-1.7 1.9-2.3 3" fill="none"/><path d="m42 32c0-5.5-4.5-10-10-10v10z" fill="#fff"/><path d="m22 32c0 5.5 4.5 10 10 10v-10z" fill="#ef5350"/><path d="m32 42c5.5 0 10-4.5 10-10h-10z" fill="#64b5f6"/><path d="m32 22c-5.5 0-10 4.5-10 10h10z" fill="#ffca28"/><g fill="none"><path d="m27 27-20-20"/><path d="m37 27 20-20"/><path d="m37 37 20 20"/><path d="m27 37-20 20"/><circle cx="7" cy="7" r="4"/><circle cx="57" cy="7" r="4"/><circle cx="7" cy="57" r="4"/><circle cx="57" cy="57" r="4"/></g></g></g></svg>