<svg id="Layer_1" height="512" viewBox="0 0 512 512" width="512" xmlns="http://www.w3.org/2000/svg" data-name="Layer 1"><path d="m443.642 32.319h-157.685a7 7 0 0 0 -7 6.995v106.068a7 7 0 0 0 7 7h14.943a8 8 0 0 1 8 8v16l21.661-21.662a8 8 0 0 1 5.657-2.343h107.424a7 7 0 0 0 6.994-7v-106.063a7 7 0 0 0 -6.994-6.995z" fill="#f7d119"/><path d="m165.256 109.159a8 8 0 0 1 6.668-3.58h91.038v-28.757h-208.331a10.918 10.918 0 0 0 -10.907 10.906v39.79h109.363z" fill="#c4daec"/><path d="m93.889 339.951a69.879 69.879 0 1 0 69.864 69.864 69.958 69.958 0 0 0 -69.864-69.864z" fill="#ff6969"/><path d="m393.86 267.21v-33.554h-133.953a1.918 1.918 0 0 0 -1.892 1.893v242.267a1.917 1.917 0 0 0 1.892 1.892h182.771a1.917 1.917 0 0 0 1.892-1.892v-78.992l-12.964 22.447a7.971 7.971 0 0 1 -1.813 2.151l-35.971 29.9a8 8 0 0 1 -13-7.5l7.909-46.118a8.033 8.033 0 0 1 .956-2.647l54.882-95.071v-16.886h-32.816a17.913 17.913 0 0 1 -17.893-17.89z" fill="#e1efff"/><path d="m401.86 217.656a8 8 0 0 1 5.7 2.385l34.54 35.048v-86.712h-102.574l-32.974 32.975a8 8 0 0 1 -13.652-5.652v-27.323h-6.938a23.02 23.02 0 0 1 -23-23v-23.8h-86.743l-12.169 18.361a8 8 0 0 1 -6.668 3.58h-113.658v196.665a85.85 85.85 0 0 1 132.205 95h66.086v-199.634a17.913 17.913 0 0 1 17.892-17.893z" fill="#eafaff"/><path d="m68.066 102.184a8.008 8.008 0 1 1 8.022 7.993 8.033 8.033 0 0 1 -8.022-7.993zm34.5 7.993a8.008 8.008 0 1 0 -7.993-7.993 8.02 8.02 0 0 0 7.989 7.993zm26.475 0a8.008 8.008 0 1 0 -7.994-7.993 8 8 0 0 0 7.99 7.993zm10.381 299.635a8 8 0 0 1 -4.239 7.064l-62.477 33.278a8 8 0 0 1 -11.761-7.061v-66.526a8 8 0 0 1 11.761-7.061l62.468 33.246a8 8 0 0 1 4.244 7.06zm-25.028.01-37.449-19.929v39.875zm100.281-231.956v113.3a8 8 0 0 1 -8 8h-128.603a8 8 0 0 1 -8-8v-113.3a8 8 0 0 1 8-8h128.6a8 8 0 0 1 8.003 8zm-128.6 8v84.807l27.979-30.373a8 8 0 0 1 11.632-.142l8.845 9.141 28.73-31.193a8 8 0 0 1 11.633-.143l23.781 24.57v-56.667zm34.008 71.51-23.761 25.786h48.707zm78.6 25.786v-17.618l-29.393-30.361-23.614 25.638 21.616 22.341zm-92.434-69.638a20.869 20.869 0 1 1 20.868 20.869 20.892 20.892 0 0 1 -20.876-20.869zm16 0a4.869 4.869 0 1 0 4.868-4.868 4.874 4.874 0 0 0 -4.876 4.868zm378.528 87.987-40.2 69.608v106.7a17.912 17.912 0 0 1 -17.892 17.892h-182.778a17.913 17.913 0 0 1 -17.893-17.892v-26.641h-72.9a85.851 85.851 0 1 1 -141.39-96.052v-267.398a26.938 26.938 0 0 1 26.907-26.906h208.331v-21.508a23.021 23.021 0 0 1 23-22.995h157.679a23.022 23.022 0 0 1 23 23v106.063a22.954 22.954 0 0 1 -8.532 17.859v108.081l.163.165a8 8 0 0 1 2.03 3.575 24.213 24.213 0 0 1 40.472 26.449zm-100.521 125.66 10.483-8.715-8.178-4.726zm61.009-89.25-14.227-8.206-39.494 68.416 14.208 8.21zm8-13.855 2.926-5.066-14.228-8.212-2.926 5.068zm-59.405-56.856a1.919 1.919 0 0 0 1.893 1.893h21.7l-23.593-23.934zm-130.9-121.828a7 7 0 0 0 7 7h14.937a8 8 0 0 1 8 8v16l21.661-21.662a8 8 0 0 1 5.658-2.343h107.425a7 7 0 0 0 7-7v-106.063a7 7 0 0 0 -7-6.995h-157.684a7 7 0 0 0 -7 6.995zm-235.237-57.654v39.79h109.364l12.169-18.359a8 8 0 0 1 6.668-3.58h91.038v-28.757h-208.331a10.919 10.919 0 0 0 -10.908 10.906zm120.03 322.087a69.879 69.879 0 1 0 -69.864 69.893 69.943 69.943 0 0 0 69.864-69.893zm78.261 25.363v-199.629a17.914 17.914 0 0 1 17.893-17.893h141.953a7.994 7.994 0 0 1 5.7 2.385l34.54 35.048v-86.712h-102.574l-32.974 32.975a8 8 0 0 1 -13.658-5.657v-27.318h-6.937a23.02 23.02 0 0 1 -23-23v-23.8h-86.738l-12.169 18.361a8 8 0 0 1 -6.668 3.58h-113.659v196.665a85.85 85.85 0 0 1 132.206 95zm202.556-36.354-12.964 22.447a7.989 7.989 0 0 1 -1.813 2.151l-35.971 29.9a8 8 0 0 1 -13-7.5l7.909-46.118a8.011 8.011 0 0 1 .956-2.647l54.882-95.071v-16.886h-32.816a17.913 17.913 0 0 1 -17.893-17.89v-33.554h-133.953a1.919 1.919 0 0 0 -1.893 1.893v242.267a1.918 1.918 0 0 0 1.893 1.892h182.771a1.917 1.917 0 0 0 1.892-1.892zm43.137-111.535a8.221 8.221 0 0 0 -15.027-1.989l-6.718 11.636 14.231 8.214 6.72-11.637a8.137 8.137 0 0 0 .794-6.224zm-203.281 135.511h23.867a8 8 0 0 0 0-16h-23.867a8 8 0 0 0 0 16zm81.774 16.375h-81.774a8 8 0 0 0 0 16h81.774a8 8 0 0 0 0-16zm0-32.371h-30.525a8 8 0 0 0 0 16h30.525a8 8 0 0 0 0-16zm-81.776-48.768h23.867a8 8 0 0 0 0-16h-23.865a8 8 0 0 0 0 16zm81.776 16.37h-81.774a8 8 0 0 0 0 16h81.774a8 8 0 0 0 0-16zm29.083-32.37h-59.61a8 8 0 0 0 0 16h59.61a8 8 0 0 0 0-16zm-110.859-16.4h124.948a8 8 0 0 0 0-16h-124.946a8 8 0 0 0 0 16zm0-32.37h30.528a8 8 0 0 0 0-16h-30.526a8 8 0 0 0 0 16zm27.49-193.916v-23.81c0-8.069 6.946-14.633 15.483-14.633h39.173c13.1 0 24.629-2.717 35.113-8.274v-4.078a8 8 0 0 1 16 0v77.751a8 8 0 0 1 -16 0v-4.05c-10.484-5.557-22.015-8.274-35.113-8.274h-1.438v22.131a8 8 0 0 1 -8 8h-16.1a8 8 0 0 1 -7.842-6.418l-4.782-23.713h-1.008c-8.54 0-15.486-6.564-15.486-14.632zm37.218 14.632h-4.4l2.85 14.131h1.553zm17.438-37.075h-1.438v21.075h1.438a92.043 92.043 0 0 1 35.113 6.648v-34.371a92.043 92.043 0 0 1 -35.113 6.648zm-38.656 21.065 21.218.006v-21.071h-21.218z"/><path d="m327.914 76.907h21.218v21.068h-21.218z" fill="#ff6969"/><path d="m401.684 104.63v-34.371a92.052 92.052 0 0 1 -35.114 6.648h-1.438v21.075h1.438a92.052 92.052 0 0 1 35.114 6.648z" fill="#72d1fb"/><path d="m76.945 429.768 37.446-19.946-37.446-19.929z" fill="#fff"/><path d="m347.579 128.113h1.553v-14.131h-4.403z" fill="#41739f"/><path d="m402.561 413.73-2.305 13.441 10.483-8.715z" fill="#f4baa6"/><path d="m460.69 309.216h5.849v16.427h-5.849z" fill="#83a7c5" transform="matrix(.5 -.866 .866 .5 -42.991 560.434)"/><path d="m407.544 398.131 14.208 8.21 39.514-68.42-14.227-8.206z" fill="#ffe958"/><path d="m483.9 282.309a8.264 8.264 0 0 0 -11.22 2.988l-6.718 11.636 14.231 8.213 6.72-11.636a8.25 8.25 0 0 0 -3.013-11.2z" fill="#ff6969"/><g fill="#fff"><path d="m127.109 218.393a4.869 4.869 0 1 0 -4.868-4.869 4.875 4.875 0 0 0 4.868 4.869z"/><path d="m145.676 260.821 21.616 22.341h31.383v-17.618l-29.385-30.361z"/><path d="m96.322 283.162h48.707l-24.949-25.786z"/></g><path d="m411.753 269.1h21.7l-23.593-23.931v22.041a1.919 1.919 0 0 0 1.893 1.89z" fill="#cadeef"/><path d="m86.072 270.673 27.982-30.373a8 8 0 0 1 11.633-.142l8.844 9.141 28.73-31.193a8 8 0 0 1 11.634-.143l23.78 24.57v-56.667h-112.603zm41.037-78.017a20.869 20.869 0 1 1 -20.868 20.868 20.894 20.894 0 0 1 20.868-20.868z" fill="#9dd46f"/></svg>