<svg enable-background="new 0 0 512 512" viewBox="0 0 512 512" xmlns="http://www.w3.org/2000/svg" width="300" height="300" version="1.1" xmlns:xlink="http://www.w3.org/1999/xlink" xmlns:svgjs="http://svgjs.dev/svgjs"><g width="100%" height="100%" transform="matrix(1,0,0,1,0,0)"><g id="_x30_6_Content_Management_System"><g><path d="m478.771 32.581v358.894c0 8.634-6.999 15.634-15.634 15.634h-356.139c-8.634 0-15.634-6.999-15.634-15.634v-358.894c0-8.634 6.999-15.634 15.634-15.634h356.139c8.635.001 15.634 7 15.634 15.634z" fill="#ffffff" fill-opacity="1" data-original-color="#ffffffff" stroke="none" stroke-opacity="1"/><path d="m478.771 111.004v-78.423c0-8.634-6.999-15.634-15.634-15.634h-356.138c-8.634 0-15.634 6.999-15.634 15.634v53.002h254.37c10.346 0 20.14 4.67 26.652 12.71 6.512 8.04 16.306 12.71 26.652 12.71h79.732z" fill="#6882bc" fill-opacity="0.6" data-original-color="#a9d2f0ff" stroke="none" stroke-opacity="1"/><circle cx="136.776" cy="50.501" fill="#ffffff" r="13.763" fill-opacity="1" data-original-color="#ffffffff" stroke="none" stroke-opacity="1"/><circle cx="188.186" cy="50.501" fill="#ffffff" r="13.763" fill-opacity="1" data-original-color="#ffffffff" stroke="none" stroke-opacity="1"/><circle cx="239.595" cy="50.501" fill="#ffffff" r="13.763" fill-opacity="1" data-original-color="#ffffffff" stroke="none" stroke-opacity="1"/><path d="m383.922 361.278h-17.208c-1.909-7.058-4.712-13.744-8.274-19.942l12.177-12.177c4.994-4.994 4.994-13.09 0-18.084l-13.215-13.215c-4.994-4.994-13.09-4.994-18.084 0l-12.177 12.177c-6.198-3.562-12.884-6.365-19.942-8.274v-17.208c0-7.062-5.725-12.787-12.787-12.787h-18.689c-7.062 0-12.787 5.725-12.787 12.787v17.208c-7.058 1.909-13.744 4.712-19.942 8.274l-12.177-12.177c-4.994-4.994-13.09-4.994-18.084 0l-13.215 13.215c-4.994 4.994-4.994 13.09 0 18.084l12.177 12.177c-3.562 6.198-6.365 12.884-8.274 19.942h-17.208c-7.062 0-12.787 5.725-12.787 12.787v18.689c0 7.062 5.725 12.787 12.787 12.787h17.208c1.909 7.058 4.712 13.744 8.274 19.942l-12.177 12.177c-4.994 4.994-4.994 13.09 0 18.084l13.215 13.215c4.994 4.994 13.09 4.994 18.084 0l12.177-12.177c6.198 3.562 12.884 6.365 19.942 8.274v17.208c0 7.062 5.725 12.787 12.787 12.787h18.689c7.062 0 12.787-5.725 12.787-12.787v-17.208c7.058-1.909 13.744-4.712 19.942-8.274l12.177 12.177c4.994 4.994 13.09 4.994 18.084 0l13.215-13.215c4.994-4.994 4.994-13.09 0-18.084l-12.177-12.177c3.562-6.198 6.365-12.884 8.274-19.942h17.208c7.062 0 12.787-5.725 12.787-12.787v-18.689c0-7.062-5.725-12.787-12.787-12.787z" fill="#6882bc" fill-opacity="0.6" data-original-color="#a9d2f0ff" stroke="none" stroke-opacity="1"/><circle cx="285.068" cy="383.409" fill="#ffffff" r="44.071" fill-opacity="1" data-original-color="#ffffffff" stroke="none" stroke-opacity="1"/><path d="m240.323 135.149v98.356c0 19.987-13.943 37.666-33.598 41.293-2.714.501-5.564.883-8.551 1.177-1.807.177-2.78-2.114-1.385-3.276 9.992-8.325 13.151-14.773 13.726-20.336.186-1.803-1.235-3.369-3.047-3.369h-162.796c-6.319 0-11.442-5.123-11.442-11.442v-102.403c0-6.319 5.123-11.442 11.442-11.442h184.211c6.317 0 11.44 5.123 11.44 11.442z" fill="#6882bc" fill-opacity="0.6" data-original-color="#a9d2f0ff" stroke="none" stroke-opacity="1"/><g fill="#3797d1"><path d="m485.92 391.493c0-1.243.02-305.362.023-358.913 0-12.574-10.23-22.803-22.806-22.803h-.023-356.116-.023c-12.576 0-22.806 10.23-22.806 22.806v83.953h-39.499c-10.262 0-18.613 8.35-18.613 18.613v102.402c0 10.265 8.35 18.615 18.613 18.615l39.499-.001v30.288c0 3.962 3.21 7.172 7.172 7.172s7.172-3.21 7.172-7.172v-30.288l103.467-.001c-1.368 2.643-4.125 6.312-9.786 11.028-3.054 2.547-4.071 6.73-2.531 10.409 1.55 3.702 5.276 5.906 9.21 5.509 32.23-3.144 48.623-25.204 48.623-49.605v-98.357c0-10.262-8.35-18.613-18.613-18.613h-130.371v-23.781h247.222c8.222 0 15.905 3.665 21.08 10.055 7.912 9.765 19.656 15.366 32.225 15.366h72.537v273.319c0 4.667-3.796 8.463-8.462 8.463h-60.63c.873-2.241 1.397-4.656 1.397-7.202v-18.69c0-11.005-8.955-19.958-19.96-19.958h-11.894c-1.321-3.92-2.911-7.748-4.755-11.462l8.416-8.416c7.783-7.781 7.783-20.443 0-28.224l-13.216-13.216c-7.779-7.783-20.445-7.783-28.224 0l-8.416 8.416c-3.714-1.844-7.543-3.434-11.462-4.755v-11.894c0-11.005-8.953-19.96-19.958-19.96h-18.69c-11.005 0-19.958 8.955-19.958 19.96v11.894c-3.92 1.321-7.75 2.911-11.462 4.755l-8.416-8.416c-7.779-7.783-20.445-7.783-28.224 0l-13.216 13.216c-7.783 7.781-7.783 20.443 0 28.224l8.416 8.416c-1.844 3.714-3.434 7.543-4.755 11.462h-11.894c-11.005 0-19.958 8.953-19.958 19.958v18.69c0 2.546.524 4.961 1.397 7.202h-60.679c-4.667 0-8.463-3.796-8.463-8.463v-68.225c0-3.962-3.21-7.172-7.172-7.172s-7.172 3.21-7.172 7.172v68.225c0 12.576 10.23 22.806 22.806 22.806h91.73c1.204 3.362 2.567 6.668 4.159 9.875l-8.416 8.416c-7.783 7.781-7.783 20.443 0 28.224l13.216 13.216c7.779 7.783 20.445 7.783 28.224 0l8.416-8.416c3.714 1.844 7.545 3.434 11.462 4.755v11.894c0 11.005 8.953 19.96 19.958 19.96h18.69c11.005 0 19.958-8.955 19.958-19.96v-11.894c3.92-1.321 7.748-2.911 11.462-4.755l8.416 8.416c7.779 7.783 20.445 7.783 28.224 0l13.216-13.216c7.783-7.781 7.783-20.443 0-28.224l-8.416-8.416c1.592-3.207 2.955-6.513 4.159-9.875h91.683c12.577-.001 22.807-10.231 22.807-22.807zm-252.769-256.345v98.357c0 13.967-7.989 26.24-19.852 31.735 2.498-3.985 3.92-7.986 4.349-12.139.296-2.874-.642-5.752-2.58-7.9s-4.709-3.38-7.601-3.38l-162.797.002c-2.355 0-4.27-1.917-4.27-4.272v-102.403c0-2.355 1.914-4.27 4.27-4.27h184.212c2.355.001 4.269 1.915 4.269 4.27zm165.889-31.317c-8.222 0-15.905-3.663-21.08-10.05-7.909-9.767-19.654-15.37-32.225-15.37h-247.2v-45.831c0-4.664 3.796-8.46 8.463-8.46h356.116c4.667 0 8.462 3.796 8.462 8.463v71.248zm-33.493 346.842-13.216 13.216c-2.124 2.12-5.818 2.12-7.942 0l-12.177-12.177c-2.285-2.292-5.832-2.757-8.645-1.146-5.743 3.301-11.88 5.848-18.242 7.568-3.128.845-5.299 3.681-5.299 6.922v17.207c0 3.098-2.519 5.617-5.614 5.617h-18.69c-3.096 0-5.614-2.519-5.614-5.617v-17.207c0-3.24-2.171-6.077-5.299-6.922-6.359-1.721-12.496-4.267-18.244-7.571-2.81-1.611-6.352-1.145-8.642 1.149l-12.177 12.177c-2.124 2.12-5.818 2.12-7.942 0l-13.216-13.216c-2.193-2.197-2.193-5.744 0-7.942l12.177-12.177c2.292-2.29 2.762-5.834 1.146-8.645-3.301-5.743-5.848-11.88-7.568-18.242-.845-3.128-3.681-5.299-6.922-5.299h-17.207c-3.096 0-5.614-2.519-5.614-5.614v-18.69c0-3.096 2.519-5.614 5.614-5.614h17.207c3.24 0 6.077-2.171 6.922-5.299 1.721-6.361 4.267-12.499 7.568-18.242 1.615-2.811 1.146-6.354-1.146-8.645l-12.177-12.177c-2.193-2.197-2.193-5.744 0-7.942l13.216-13.216c2.124-2.12 5.818-2.12 7.942 0l12.177 12.177c2.292 2.297 5.839 2.764 8.645 1.146 5.74-3.299 11.88-5.846 18.242-7.568 3.128-.845 5.299-3.681 5.299-6.922v-17.207c0-3.098 2.519-5.617 5.614-5.617h18.69c3.096 0 5.614 2.519 5.614 5.617v17.207c0 3.24 2.171 6.077 5.299 6.922 6.361 1.721 12.499 4.267 18.242 7.568 2.811 1.615 6.354 1.146 8.645-1.146l12.177-12.177c2.124-2.12 5.818-2.12 7.942 0l13.216 13.216c1.06 1.062 1.643 2.472 1.643 3.971s-.584 2.909-1.643 3.971l-12.177 12.177c-2.292 2.29-2.762 5.834-1.146 8.645 3.301 5.743 5.848 11.88 7.568 18.242.845 3.128 3.681 5.299 6.922 5.299h17.207c3.098 0 5.617 2.519 5.617 5.614v18.69c0 3.096-2.519 5.614-5.617 5.614h-17.207c-3.24 0-6.077 2.171-6.922 5.299-1.72 6.361-4.267 12.499-7.568 18.242-1.615 2.811-1.146 6.354 1.146 8.645l12.177 12.177c2.192 2.197 2.192 5.744-.001 7.942z" fill="#6882bc" fill-opacity="1" data-original-color="#3797d1ff" stroke="none" stroke-opacity="1"/><path d="m136.777 29.567c-11.544 0-20.936 9.392-20.936 20.936 0 11.542 9.392 20.933 20.936 20.933 11.542 0 20.933-9.392 20.933-20.933 0-11.545-9.392-20.936-20.933-20.936zm0 27.526c-3.635 0-6.593-2.955-6.593-6.59s2.958-6.593 6.593-6.593 6.59 2.958 6.59 6.593-2.956 6.59-6.59 6.59z" fill="#6882bc" fill-opacity="1" data-original-color="#3797d1ff" stroke="none" stroke-opacity="1"/><path d="m188.187 29.567c-11.544 0-20.936 9.392-20.936 20.936 0 11.542 9.392 20.933 20.936 20.933 11.542 0 20.933-9.392 20.933-20.933 0-11.545-9.392-20.936-20.933-20.936zm0 27.526c-3.635 0-6.593-2.955-6.593-6.59s2.958-6.593 6.593-6.593 6.59 2.958 6.59 6.593-2.955 6.59-6.59 6.59z" fill="#6882bc" fill-opacity="1" data-original-color="#3797d1ff" stroke="none" stroke-opacity="1"/><path d="m239.594 29.567c-11.542 0-20.933 9.392-20.933 20.936 0 11.542 9.392 20.933 20.933 20.933 11.544 0 20.936-9.392 20.936-20.933 0-11.545-9.392-20.936-20.936-20.936zm0 27.526c-3.635 0-6.59-2.955-6.59-6.59s2.955-6.593 6.59-6.593 6.593 2.958 6.593 6.593-2.958 6.59-6.593 6.59z" fill="#6882bc" fill-opacity="1" data-original-color="#3797d1ff" stroke="none" stroke-opacity="1"/><path d="m447.315 41.965h-50.334c-3.962 0-7.172 3.21-7.172 7.172s3.21 7.172 7.172 7.172h50.334c3.962 0 7.172-3.21 7.172-7.172s-3.211-7.172-7.172-7.172z" fill="#6882bc" fill-opacity="1" data-original-color="#3797d1ff" stroke="none" stroke-opacity="1"/><path d="m447.315 71.643h-50.334c-3.962 0-7.172 3.21-7.172 7.172s3.21 7.172 7.172 7.172h50.334c3.962 0 7.172-3.21 7.172-7.172-.001-3.962-3.211-7.172-7.172-7.172z" fill="#6882bc" fill-opacity="1" data-original-color="#3797d1ff" stroke="none" stroke-opacity="1"/><path d="m285.068 332.167c-28.254 0-51.242 22.988-51.242 51.242s22.988 51.242 51.242 51.242 51.242-22.988 51.242-51.242-22.988-51.242-51.242-51.242zm0 88.141c-20.345 0-36.899-16.554-36.899-36.899s16.554-36.899 36.899-36.899 36.899 16.554 36.899 36.899-16.554 36.899-36.899 36.899z" fill="#6882bc" fill-opacity="1" data-original-color="#3797d1ff" stroke="none" stroke-opacity="1"/><path d="m82.633 219.239c5.822 0 11.621-1.459 16.773-4.218 3.49-1.872 4.804-6.217 2.934-9.709-1.87-3.49-6.212-4.807-9.709-2.934-3.119 1.671-6.483 2.519-9.999 2.519-11.584 0-21.008-9.424-21.008-21.01s9.424-21.01 21.008-21.01c3.516 0 6.88.847 9.999 2.519 3.492 1.868 7.839.553 9.709-2.934 1.87-3.492.556-7.837-2.934-9.709-5.152-2.759-10.951-4.218-16.773-4.218-19.493 0-35.351 15.86-35.351 35.353s15.858 35.351 35.351 35.351z" fill="#6882bc" fill-opacity="1" data-original-color="#3797d1ff" stroke="none" stroke-opacity="1"/><path d="m120.68 219.239c3.962 0 7.172-3.21 7.172-7.172v-34.275l7.368 10.223c1.345 1.865 3.502 2.974 5.801 2.979h.016c2.292 0 4.447-1.097 5.797-2.951l7.599-10.433v34.457c0 3.962 3.21 7.172 7.172 7.172s7.172-3.21 7.172-7.172v-56.49c0-3.105-1.998-5.857-4.951-6.819-2.946-.959-6.189.086-8.017 2.598l-14.74 20.242-14.57-20.214c-1.819-2.526-5.061-3.588-8.021-2.631-2.96.955-4.968 3.712-4.968 6.824v56.49c-.001 3.962 3.209 7.172 7.17 7.172z" fill="#6882bc" fill-opacity="1" data-original-color="#3797d1ff" stroke="none" stroke-opacity="1"/><path d="m196.67 190.994h8.306c3.833 0 6.95 3.117 6.95 6.95s-3.117 6.952-6.95 6.952h-7.891c-3.833 0-6.952-3.119-6.952-6.952 0-3.962-3.21-7.172-7.172-7.172s-7.172 3.21-7.172 7.172c0 11.742 9.553 21.295 21.295 21.295h7.891c11.74 0 21.293-9.553 21.293-21.295 0-11.74-9.553-21.293-21.293-21.293h-8.306c-3.833 0-6.952-3.117-6.952-6.95s3.119-6.952 6.952-6.952h7.891c3.833 0 6.95 3.119 6.95 6.952 0 3.962 3.21 7.172 7.172 7.172s7.172-3.21 7.172-7.172c0-11.742-9.553-21.295-21.293-21.295h-7.891c-11.742 0-21.295 9.553-21.295 21.295 0 11.74 9.553 21.293 21.295 21.293z" fill="#6882bc" fill-opacity="1" data-original-color="#3797d1ff" stroke="none" stroke-opacity="1"/></g></g></g><g id="Layer_1"/></g></svg>