<svg id="Layer_1" enable-background="new 0 0 512 512" viewBox="0 0 512 512" xmlns="http://www.w3.org/2000/svg"><g clip-rule="evenodd" fill-rule="evenodd"><path d="m274.976 285.835c-22.871 0-41.443-18.613-41.443-41.476s18.572-41.476 41.443-41.476c22.865 0 41.49 18.607 41.49 41.476.001 22.87-18.624 41.476-41.49 41.476zm-80.628 109.597c2.572 3.095 3.823 7.026 3.401 11.035-.423 4.018-2.433 7.592-5.604 10.093-8.998 7.094-18.154 13.032-28.151 18.652-3.182 1.789-6.674 1.868-9.935.228-40.553-20.391-74.51-59.825-96.911-98.622-12.079-20.92-21.98-43.512-28.602-66.759-6.092-21.387-9.639-44.208-8.348-66.478.21-3.633 2.032-6.608 5.16-8.463 9.867-5.851 19.574-10.822 30.222-15.064 1.784-.711 3.661-1.081 5.583-1.081 2.062 0 4.079.432 5.962 1.268 3.692 1.64 6.484 4.661 7.882 8.448l15.845 42.927c2.265 6.137.878 12.512-3.758 17.134l-18.391 18.339c-1.125 1.122-1.488 2.765-.924 4.251 6.074 16.012 13.751 31.646 22.313 46.469 8.563 14.826 18.273 29.29 29.107 42.557.997 1.22 2.589 1.747 4.114 1.337l25.088-6.758c6.303-1.698 12.536.285 16.708 5.304z" fill="#92c3fe"/><path d="m274.976 144.72c54.939 0 99.644 44.701 99.644 99.639 0 28.497-12.025 54.231-31.265 72.41-11.176-12.384-25.512-21.461-41.216-26.371 15.751-9.318 26.314-26.46 26.314-46.04 0-29.488-23.956-53.477-53.476-53.477-29.473 0-53.477 23.989-53.477 53.477 0 19.58 10.611 36.721 26.314 46.04-15.703 4.909-29.992 13.987-41.216 26.371-19.24-18.179-31.265-43.913-31.265-72.41 0-54.938 44.705-99.639 99.643-99.639zm0 137.115c20.655 0 37.49-16.811 37.49-37.476 0-20.664-16.835-37.476-37.49-37.476s-37.443 16.812-37.443 37.476c0 20.665 16.788 37.476 37.443 37.476zm-55.881 44.984c15.939 10.837 35.179 17.18 55.882 17.18 20.702 0 39.942-6.343 55.882-17.18-14.336-15.52-34.708-24.588-55.882-24.588-21.127 0-41.499 9.068-55.882 24.588zm55.881 33.18c63.757 0 115.677-51.869 115.677-115.64 0-63.762-51.921-115.64-115.677-115.64-63.757 0-115.63 51.878-115.63 115.64 0 63.771 51.874 115.64 115.63 115.64zm-81.205 46.049c.33-2.91-.566-5.772-2.499-8.059l-29.238-35.179c-3.207-3.839-7.781-5.301-12.591-3.999l-25.088 6.758c-3.065.811-6.272-.231-8.252-2.669-20.891-25.569-40.367-59.272-52.062-90.137-1.131-2.947-.424-6.276 1.839-8.503l18.391-18.339c3.537-3.523 4.527-8.234 2.83-12.917l-15.845-42.927c-1.037-2.792-3.065-4.989-5.753-6.178-1.368-.613-2.83-.924-4.339-.924-1.367 0-2.735.264-4.103.797-10.28 4.107-18.863 8.389-29.662 14.789-1.981 1.179-3.065 2.948-3.207 5.254-4.763 82.313 58.004 191.016 131.664 228.053 2.075 1.042 4.15.99 6.178-.142 10.941-6.158 18.957-11.459 27.634-18.306 2.358-1.855 3.82-4.462 4.103-7.372zm9.809-18.288-29.238-35.18c-7.168-8.592-18.297-12.124-29.049-9.224l-20.042 5.399c-17.543-22.4-33.765-50.477-44.375-76.867l14.666-14.642c7.922-7.89 10.422-19.302 6.555-29.785l-15.845-42.921c-2.499-6.88-7.592-12.299-14.242-15.255-6.649-2.961-14.053-3.093-20.843-.372-11.129 4.433-20.372 9.035-31.926 15.883-6.555 3.886-10.563 10.483-10.988 18.099-2.452 42.022 11.648 92.985 38.716 139.817 27.021 46.837 64.087 84.535 101.719 103.459 3.254 1.627 6.696 2.438 10.139 2.438 3.773 0 7.545-.981 11.035-2.938 11.695-6.583 20.325-12.294 29.709-19.693 5.753-4.527 9.337-11.016 10.092-18.25.802-7.24-1.367-14.327-6.083-19.968zm63.379 83.87c123.977-3.391 221.027-103.214 221.027-227.271 0-125.364-101.955-227.355-227.346-227.355-80.026 0-153.875 42.036-194.949 110.315l18.25 6.409c17.873-28.417 42.394-52.283 71.396-69.279 31.784-18.665 68.237-28.535 105.302-28.535 114.923 0 208.436 93.508 208.436 208.445 0 54.5-20.891 106.038-58.805 145.137-37.867 39.013-88.609 61.451-142.84 63.191-2.169.08-4.244-.74-5.8-2.25-1.556-1.509-2.452-3.579-2.452-5.748v-11.851l-38.056 29.422 38.056 29.426v-12.068c.001-4.329 3.443-7.87 7.781-7.988zm165.759-399.348c-45.931-45.965-107.047-71.279-172.078-71.279-89.08 0-170.946 48.605-213.67 126.849-1.132 2.061-1.321 4.513-.472 6.706s2.594 3.9 4.81 4.678l33.482 11.737c3.631 1.268 7.64-.208 9.573-3.518 34.425-58.933 98.135-95.541 166.277-95.541 106.105 0 192.45 86.331 192.45 192.445 0 101.738-77.48 184.499-177.925 191.898v-9.889c.047-4.933-2.735-9.351-7.168-11.53-4.385-2.16-9.573-1.627-13.487 1.382l-46.45 35.896c-3.16 2.452-4.952 6.145-4.952 10.143 0 3.999 1.792 7.701 4.952 10.148l46.45 35.901c2.311 1.778 5.093 2.688 7.875 2.688 1.886 0 3.82-.429 5.612-1.306 4.433-2.183 7.168-6.602 7.168-11.53v-10.87c60.645-3.575 117.139-29.342 159.77-73.094 44.517-45.701 69.086-106.01 69.086-169.838-.001-65.001-25.324-126.112-71.303-172.076z" fill="#224eff"/></g></svg>