<svg id="Capa_1" enable-background="new 0 0 511 511" height="512" viewBox="0 0 511 511" width="512" xmlns="http://www.w3.org/2000/svg"><g id="Outline_4_" fill="#233d91"><path d="m473.5 23h-436c-20.678 0-37.5 16.822-37.5 37.5v292c0 20.678 16.822 37.5 37.5 37.5h150.494l-23.382 53h-41.612v45h265v-45h-41.612l-23.382-53h150.494c20.678 0 37.5-16.822 37.5-37.5v-292c0-20.678-16.822-37.5-37.5-37.5zm-100.5 435v15h-235v-15zm-43.006-15h-148.988l23.383-53h102.223zm166.006-90.5c0 12.407-10.094 22.5-22.5 22.5h-157.111-121.778-157.111c-12.406 0-22.5-10.093-22.5-22.5v-54.5h481zm0-69.5h-481v-222.5c0-12.407 10.094-22.5 22.5-22.5h436c12.406 0 22.5 10.093 22.5 22.5z"/><path d="m255.5 359c12.406 0 22.5-10.093 22.5-22.5s-10.094-22.5-22.5-22.5-22.5 10.093-22.5 22.5 10.094 22.5 22.5 22.5zm0-30c4.136 0 7.5 3.364 7.5 7.5s-3.364 7.5-7.5 7.5-7.5-3.364-7.5-7.5 3.364-7.5 7.5-7.5z"/><path d="m233 53h-175v200h-17.5v15h210v-15h-17.5zm-64 200h-45v-45h45zm49 0h-34v-60h-75v60h-36v-185h145z"/><path d="m270.5 198h200v15h-200z"/><path d="m300.5 228h140v15h-140z"/><path d="m120.5 97h80v15h-80z"/><path d="m90.5 97h15v15h-15z"/><path d="m90.5 127h80v15h-80z"/><path d="m185.5 127h15v15h-15z"/><path d="m120.5 157h80v15h-80z"/><path d="m90.5 157h15v15h-15z"/><path d="m370.5 183h29v-15h-29c-11.765 0-23.119-4.965-31.151-13.624-24.413-26.313-6.977-68.637 27.873-71.253 25.32-1.902 45.778 18.282 45.778 42.377-.232.862 2.01 12.5-7.5 12.5-4.136 0-7.5-3.364-7.5-7.5v-5c0-15.164-12.337-27.5-27.5-27.5s-27.5 12.336-27.5 27.5 12.337 27.5 27.5 27.5c7.131 0 13.635-2.729 18.527-7.196 4.111 4.422 9.973 7.196 16.473 7.196 41.781 0 24.495-89.638-39.401-84.834-47.239 3.546-70.743 60.845-37.747 96.413 10.861 11.707 26.223 18.421 42.148 18.421zm0-45c-6.893 0-12.5-5.607-12.5-12.5s5.607-12.5 12.5-12.5 12.5 5.607 12.5 12.5-5.607 12.5-12.5 12.5z"/></g></svg>