<svg id="Layer_1" enable-background="new 0 0 550 550" viewBox="0 0 550 550" xmlns="http://www.w3.org/2000/svg"><g fill="#b5adf2"><path d="m117.5 400.2c-4 0-7.3-3.3-7.3-7.3v-5c0-4 3.3-7.3 7.3-7.3s7.3 3.3 7.3 7.3v5c0 4.1-3.3 7.3-7.3 7.3z"/><path d="m117.5 348.2c-4 0-7.3-3.3-7.3-7.3v-5c0-4 3.3-7.3 7.3-7.3s7.3 3.3 7.3 7.3v5c0 4.1-3.3 7.3-7.3 7.3z"/><path d="m117.5 249.3c-4 0-7.3-3.3-7.3-7.3v-5c0-4 3.3-7.3 7.3-7.3s7.3 3.3 7.3 7.3v5c0 4.1-3.3 7.3-7.3 7.3z"/><path d="m117.5 197.3c-4 0-7.3-3.3-7.3-7.3v-5c0-4 3.3-7.3 7.3-7.3s7.3 3.3 7.3 7.3v5c0 4.1-3.3 7.3-7.3 7.3z"/><path d="m436.2 254c-4 0-7.3-3.3-7.3-7.3v-5c0-4 3.3-7.3 7.3-7.3s7.3 3.3 7.3 7.3v5c0 4.1-3.3 7.3-7.3 7.3z"/><path d="m436.2 202c-4 0-7.3-3.3-7.3-7.3v-5c0-4 3.3-7.3 7.3-7.3s7.3 3.3 7.3 7.3v5c0 4.1-3.3 7.3-7.3 7.3z"/><path d="m85.3 124c-11.3 0-20.5-9.2-20.5-20.5s9.2-20.6 20.5-20.6 20.6 9.2 20.6 20.6c0 11.3-9.2 20.5-20.6 20.5zm0-26.5c-3.3 0-6 2.7-6 6s2.7 6 6 6 6-2.7 6-6-2.7-6-6-6z"/><path d="m142.2 124c-11.3 0-20.6-9.2-20.6-20.5s9.2-20.6 20.6-20.6c11.3 0 20.5 9.2 20.5 20.6.1 11.3-9.2 20.5-20.5 20.5zm0-26.5c-3.3 0-6 2.7-6 6s2.7 6 6 6 6-2.7 6-6-2.7-6-6-6z"/><path d="m199.1 124c-11.3 0-20.5-9.2-20.5-20.5s9.2-20.6 20.5-20.6 20.5 9.2 20.5 20.6c0 11.3-9.2 20.5-20.5 20.5zm0-26.5c-3.3 0-6 2.7-6 6s2.7 6 6 6 6-2.7 6-6-2.7-6-6-6z"/><path d="m477.9 110.8h-194.8c-4 0-7.3-3.3-7.3-7.3s3.3-7.3 7.3-7.3h194.8c4 0 7.3 3.3 7.3 7.3s-3.2 7.3-7.3 7.3z"/><path d="m275 323.9c-14.4 0-26.1-11.7-26.1-26.1 0-4 3.3-7.3 7.3-7.3s7.3 3.3 7.3 7.3c0 6.3 5.2 11.5 11.5 11.5s11.5-5.2 11.5-11.5-5.2-11.5-11.5-11.5c-14.4 0-26.1-11.7-26.1-26.1s11.7-26.1 26.1-26.1 26.1 11.7 26.1 26.1c0 4-3.3 7.3-7.3 7.3s-7.3-3.3-7.3-7.3c0-6.3-5.2-11.5-11.5-11.5s-11.5 5.2-11.5 11.5 5.2 11.5 11.5 11.5c14.4 0 26.1 11.7 26.1 26.1s-11.7 26.1-26.1 26.1z"/><path d="m275 332c-4 0-7.3-3.3-7.3-7.3v-8.1c0-4 3.3-7.3 7.3-7.3s7.3 3.3 7.3 7.3v8.1c0 4-3.3 7.3-7.3 7.3z"/><path d="m275 248.8c-4 0-7.3-3.3-7.3-7.3v-8.1c0-4 3.3-7.3 7.3-7.3s7.3 3.3 7.3 7.3v8.1c0 4-3.3 7.3-7.3 7.3z"/><path d="m117.5 395.2c-10.5 0-19-8.5-19-19 0-4 3.3-7.3 7.3-7.3 1 0 1.9.2 2.7.5-5.9-3.2-10-9.5-10-16.7 0-10.5 8.5-19 19-19s19 8.5 19 19c0 4-3.3 7.3-7.3 7.3-1 0-1.9-.2-2.7-.5 5.9 3.2 10 9.5 10 16.7 0 10.5-8.5 19-19 19zm-7.9-25.2c2.1 1.3 3.5 3.6 3.5 6.2 0 2.5 2 4.5 4.5 4.5s4.5-2 4.5-4.5-2-4.5-4.5-4.5c-2.9 0-5.6-.6-8-1.7zm7.9-21.8c-2.5 0-4.5 2-4.5 4.5s2 4.5 4.5 4.5c2.8 0 5.5.6 7.9 1.7-2.1-1.3-3.5-3.6-3.5-6.2.1-2.5-1.9-4.5-4.4-4.5z"/><path d="m117.5 244.3c-10.5 0-19-8.5-19-19 0-4 3.3-7.3 7.3-7.3 1 0 1.9.2 2.7.5-5.9-3.2-10-9.5-10-16.7 0-10.5 8.5-19 19-19s19 8.5 19 19c0 4-3.3 7.3-7.3 7.3-1 0-1.9-.2-2.7-.5 5.9 3.2 10 9.5 10 16.7 0 10.5-8.5 19-19 19zm-7.9-25.2c2.1 1.3 3.5 3.6 3.5 6.2 0 2.5 2 4.5 4.5 4.5s4.5-2 4.5-4.5-2-4.5-4.5-4.5c-2.9 0-5.6-.6-8-1.7zm7.9-21.8c-2.5 0-4.5 2-4.5 4.5s2 4.5 4.5 4.5c2.8 0 5.5.6 7.9 1.7-2.1-1.3-3.5-3.6-3.5-6.2.1-2.5-1.9-4.5-4.4-4.5z"/><path d="m436.2 249c-10.5 0-19-8.5-19-19 0-4 3.3-7.3 7.3-7.3 1 0 1.9.2 2.7.5-5.9-3.2-10-9.5-10-16.7 0-10.5 8.5-19 19-19s19 8.5 19 19c0 4-3.3 7.3-7.3 7.3-1 0-1.9-.2-2.7-.5 5.9 3.2 10 9.5 10 16.7 0 10.4-8.5 19-19 19zm-7.9-25.2c2.1 1.3 3.5 3.6 3.5 6.2 0 2.5 2 4.5 4.5 4.5s4.5-2 4.5-4.5-2-4.5-4.5-4.5c-2.9 0-5.6-.6-8-1.7zm7.9-21.8c-2.5 0-4.5 2-4.5 4.5s2 4.5 4.5 4.5c2.8 0 5.5.6 7.9 1.7-2.1-1.3-3.5-3.6-3.5-6.2.1-2.5-1.9-4.5-4.4-4.5z"/></g><path d="m496.4 447.4h-34.1c-4 0-7.3-3.3-7.3-7.3s3.3-7.3 7.3-7.3h34.1c2.2 0 4.1-1.8 4.1-4.1v-278h-451v278c0 2.2 1.8 4.1 4.1 4.1h256.9c4 0 7.3 3.3 7.3 7.3s-3.3 7.3-7.3 7.3h-256.9c-10.3 0-18.6-8.3-18.6-18.6v-285.3c0-4 3.3-7.3 7.3-7.3h465.5c4 0 7.3 3.3 7.3 7.3v285.3c-.1 10.3-8.4 18.6-18.7 18.6z" fill="#0a0249"/><path d="m507.7 150.8h-465.4c-4 0-7.3-3.3-7.3-7.3v-68.7c0-10.3 8.3-18.6 18.6-18.6h442.8c10.3 0 18.6 8.3 18.6 18.6v68.8c0 4-3.3 7.2-7.3 7.2zm-458.2-14.5h450.9v-61.5c0-2.2-1.8-4.1-4.1-4.1h-442.7c-2.2 0-4.1 1.8-4.1 4.1z" fill="#0a0249"/><path d="m275 359.1c-44.1 0-80-35.9-80-80s35.9-80 80-80c31.9 0 60.8 18.9 73.4 48.2 1.6 3.7-.1 8-3.8 9.6s-8-.1-9.6-3.8c-10.4-24-34-39.5-60.1-39.5-36.1 0-65.5 29.4-65.5 65.5s29.4 65.5 65.5 65.5c18.1 0 34.9-7.2 47.4-20.3 2.8-2.9 7.4-3 10.3-.2s3 7.4.2 10.3c-15.2 15.9-35.7 24.7-57.8 24.7z" fill="#0a0249"/><path d="m275 388.8c-60.5 0-109.7-49.2-109.7-109.7s49.2-109.7 109.7-109.7 109.7 49.2 109.7 109.7c0 6-.5 12-1.5 17.9-.7 4-4.4 6.6-8.4 6-4-.7-6.6-4.4-6-8.4.8-5.1 1.3-10.3 1.3-15.5 0-52.5-42.7-95.2-95.2-95.2s-95.2 42.7-95.2 95.2 42.7 95.2 95.2 95.2c2.7 0 5.4-.1 8.1-.3 4-.3 7.5 2.6 7.9 6.6.3 4-2.6 7.5-6.6 7.9-3.1.2-6.2.3-9.3.3z" fill="#0a0249"/><path d="m364.3 378c-3.7 0-6.9-2.8-7.2-6.6l-5.6-57.2c-.4-4 2.5-7.6 6.5-7.9 4-.4 7.6 2.5 7.9 6.5l5.6 57.2c.4 4-2.5 7.6-6.5 7.9-.2.1-.5.1-.7.1z" fill="#0a0249"/><path d="m396.6 374.9c-3.7 0-6.9-2.8-7.2-6.6l-3.6-36.6c-.4-4 2.5-7.6 6.5-7.9 4-.4 7.6 2.5 7.9 6.5l3.6 36.6c.4 4-2.5 7.6-6.5 7.9-.2.1-.4.1-.7.1z" fill="#0a0249"/><path d="m396.6 374.9c-3.7 0-6.9-2.8-7.2-6.6l-3.6-36.6c-.4-4 2.5-7.6 6.5-7.9 4-.4 7.6 2.5 7.9 6.5l3.6 36.6c.4 4-2.5 7.6-6.5 7.9-.2.1-.4.1-.7.1z" fill="#0a0249"/><path d="m428.9 371.7c-3.7 0-6.9-2.8-7.2-6.6l-1.5-15.7c-.4-4 2.5-7.6 6.5-7.9 4-.4 7.6 2.5 7.9 6.5l1.5 15.7c.4 4-2.5 7.6-6.5 7.9-.2.1-.4.1-.7.1z" fill="#0a0249"/><path d="m342.3 493.8c-7.7 0-15.2-2.6-21.2-7.6-6.9-5.7-11.2-13.7-12.1-22.6-1.8-18.6-10.8-35.4-25.2-47.3l-5.1-4.2c-4.8-4-7.9-9.6-8.5-15.9s1.2-12.4 5.2-17.2c4-4.9 9.6-7.9 15.9-8.5 6.2-.6 12.4 1.3 17.2 5.2l17.7 14.5-11.9-121.6c-.6-6.3 1.4-12.8 5.5-17.7 4-4.9 9.5-7.9 15.6-8.4 6.2-.6 12.3 1.2 17.2 5.2 4.8 4 7.9 9.6 8.5 15.9l2.7 27.6c2.6-1.4 5.6-2.3 8.8-2.6 6.2-.6 12.3 1.2 17.2 5.2 4.6 3.8 7.5 9 8.4 14.8 2.6-1.4 5.6-2.3 8.8-2.7 6.3-.6 12.4 1.3 17.2 5.3 4.6 3.7 7.5 9 8.3 14.8 2.7-1.5 5.7-2.4 8.8-2.7 6.2-.6 12.3 1.3 17.2 5.2 4.8 4 7.9 9.6 8.5 15.9v.5l2.9 105.3c.5 17.5-12.8 32.5-30.2 34.2l-94 9.2c-1.2.2-2.3.2-3.4.2zm-48.6-108.8c-.3 0-.6 0-.9 0-2.4.2-4.5 1.4-6.1 3.2-1.5 1.9-2.2 4.2-2 6.6s1.4 4.5 3.2 6l5.1 4.2c17.4 14.3 28.2 34.6 30.4 57.1.5 5 2.9 9.6 6.8 12.8s8.8 4.7 13.9 4.2l94-9.2c9.9-1 17.4-9.5 17.1-19.4l-2.9-105c-.3-2.3-1.4-4.4-3.2-5.8-1.8-1.5-4.2-2.2-6.6-2-2.2.2-4.3 1.4-5.8 3.2-1.6 2-2.4 4.6-2.2 7 .4 4-2.5 7.6-6.5 7.9-4 .4-7.6-2.5-7.9-6.5l-2-20.9c-.2-2.4-1.4-4.5-3.2-6.1-1.9-1.5-4.2-2.2-6.6-2-4.9.5-8.5 4.9-8 9.8.4 4-2.5 7.6-6.5 7.9-4 .4-7.6-2.5-7.9-6.5l-2-20.6c-.2-2.4-1.4-4.5-3.2-6.1-1.8-1.5-4.2-2.2-6.6-2-4.9.5-8.5 4.9-8.1 9.8.4 4-2.5 7.6-6.5 7.9-4 .4-7.6-2.5-7.9-6.5l-4.8-49.2c-.2-2.4-1.4-4.5-3.2-6.1-1.8-1.5-4.2-2.2-6.6-2-2.2.2-4.3 1.4-5.8 3.2-1.6 2-2.4 4.6-2.2 7.1l13.6 139.1c.3 2.9-1.2 5.7-3.8 7.1s-5.8 1.1-8-.8l-31.2-25.7c-1.9-1-3.9-1.7-5.9-1.7z" fill="#0a0249"/><path d="m428.9 371.7c-3.7 0-6.9-2.8-7.2-6.6l-1.5-15.7c-.4-4 2.5-7.6 6.5-7.9 4-.4 7.6 2.5 7.9 6.5l1.5 15.7c.4 4-2.5 7.6-6.5 7.9-.2.1-.4.1-.7.1z" fill="#0a0249"/><path d="m335.2 414.8c-3.7 0-6.9-2.8-7.2-6.6v-.3c-.4-4 2.5-7.6 6.5-7.9 4-.4 7.6 2.5 7.9 6.5v.3c.4 4-2.5 7.6-6.5 7.9-.2 0-.4.1-.7.1z" fill="#0a0249"/><path d="m364.3 378c-3.7 0-6.9-2.8-7.2-6.6l-5.6-57.2c-.4-4 2.5-7.6 6.5-7.9 4-.4 7.6 2.5 7.9 6.5l5.6 57.2c.4 4-2.5 7.6-6.5 7.9-.2.1-.5.1-.7.1z" fill="#0a0249"/><path d="m117.5 417.2c-29.1 0-52.7-23.7-52.7-52.7s23.7-52.7 52.7-52.7 52.7 23.7 52.7 52.7-23.6 52.7-52.7 52.7zm0-90.9c-21.1 0-38.2 17.1-38.2 38.2s17.1 38.2 38.2 38.2 38.2-17.1 38.2-38.2-17.1-38.2-38.2-38.2z" fill="#0a0249"/><path d="m117.5 266.3c-29.1 0-52.7-23.7-52.7-52.7s23.7-52.7 52.7-52.7 52.7 23.7 52.7 52.7-23.6 52.7-52.7 52.7zm0-91c-21.1 0-38.2 17.1-38.2 38.2s17.1 38.2 38.2 38.2 38.2-17.1 38.2-38.2-17.1-38.2-38.2-38.2z" fill="#0a0249"/><path d="m436.2 271c-29.1 0-52.7-23.7-52.7-52.7s23.7-52.7 52.7-52.7 52.7 23.7 52.7 52.7-23.6 52.7-52.7 52.7zm0-91c-21.1 0-38.2 17.1-38.2 38.2s17.1 38.2 38.2 38.2 38.2-17.1 38.2-38.2-17.1-38.2-38.2-38.2z" fill="#0a0249"/></svg>