<svg id="Layer_1" height="512" viewBox="0 0 64 64" width="512" xmlns="http://www.w3.org/2000/svg" data-name="Layer 1"><path d="m12.26862 39.5014a6.00012 6.00012 0 1 0 -2.848 2.8996l16.78177 11.43976a4.99647 4.99647 0 0 0 4.43164.60046l2.36597-.80761zm-2.791-.8128a3 3 0 1 1 -.78902-4.1686 3 3 0 0 1 .78906 4.1686z" fill="#415366"/><path d="m32.00128 32.72913-2.44159-.5373a4.99993 4.99993 0 0 0 -4.33636 1.09351l-15.39289 13.2486a6.00076 6.00076 0 1 0 3.15455 2.5625zm-22.19092 21.73852a3 3 0 1 1 .31672-4.23083 3 3 0 0 1 -.31672 4.23083z" fill="#495e73"/><path d="m60.71587 14.11224h-.974a1.44578 1.44578 0 0 1 -1.36391-1.04255 12.89179 12.89179 0 0 0 -.847-2.03911 1.44685 1.44685 0 0 1 .22687-1.70453l.69269-.69269a15.08171 15.08171 0 0 0 -4.08385-4.0838l-.69269.69269a1.44676 1.44676 0 0 1 -1.70448.22682 12.88772 12.88772 0 0 0 -2.03915-.847 1.4459 1.4459 0 0 1 -1.04261-1.36395v-.974a14.818 14.818 0 0 0 -5.77532 0v.974a1.4459 1.4459 0 0 1 -1.04261 1.364 12.88772 12.88772 0 0 0 -2.03915.847 1.44676 1.44676 0 0 1 -1.70448-.22682l-.69269-.69269a15.08171 15.08171 0 0 0 -4.08385 4.0838l.69269.69269a1.44685 1.44685 0 0 1 .22687 1.70453 12.89179 12.89179 0 0 0 -.847 2.03911 1.44578 1.44578 0 0 1 -1.36391 1.04255h-.974a14.81748 14.81748 0 0 0 0 5.77542h.97407a1.44579 1.44579 0 0 1 1.36391 1.04256 12.89023 12.89023 0 0 0 .847 2.03911 1.4469 1.4469 0 0 1 -.22687 1.70457l-.69269.69265a15.07984 15.07984 0 0 0 4.0838 4.08384l.69274-.69264a1.44686 1.44686 0 0 1 1.70448-.22691 12.88788 12.88788 0 0 0 2.03915.847 1.44591 1.44591 0 0 1 1.04261 1.364v.97407a14.818 14.818 0 0 0 5.77532 0v-.97407a1.44591 1.44591 0 0 1 1.04261-1.364 12.88788 12.88788 0 0 0 2.03915-.847 1.44686 1.44686 0 0 1 1.70448.22691l.69274.69264a15.07984 15.07984 0 0 0 4.0838-4.08384l-.69269-.69265a1.4469 1.4469 0 0 1 -.22687-1.70457 12.89023 12.89023 0 0 0 .847-2.03911 1.44579 1.44579 0 0 1 1.36391-1.04256h.97407a14.81748 14.81748 0 0 0 0-5.77542z" fill="#495e73"/><circle cx="46" cy="17" fill="#f2be30" r="9"/><path d="m46 16a1 1 0 1 1 1-1h2a2.99507 2.99507 0 0 0 -2-2.81573v-1.18427h-2v1.18427a2.99257 2.99257 0 0 0 1 5.81573 1 1 0 1 1 -1 1h-2a2.995 2.995 0 0 0 2 2.81567v1.18433h2v-1.18427a2.99257 2.99257 0 0 0 -1-5.81573z" fill="#415366"/><rect fill="#6b7899" height="1.5" rx=".75" transform="matrix(.563 -.826 .826 .563 -29.62 32.286)" width="1.5" x="14.981" y="43.412"/><g fill="#6c8eb3"><path d="m26 43h2v2h-2z"/><path d="m30 43h2v2h-2z"/><path d="m34 43h2v2h-2z"/><path d="m38 43h2v2h-2z"/><path d="m52 43h2v2h-2z"/><path d="m56 43h2v2h-2z"/><path d="m60 43h2v2h-2z"/></g><path d="m40 55 6 7 6-7h-3v-19h-6v19z" fill="#d96161"/></svg>