<svg version="1.1" id="Capa_1" xmlns="http://www.w3.org/2000/svg" xmlns:xlink="http://www.w3.org/1999/xlink" x="0px" y="0px" viewBox="0 0 512 512" style="enable-background:new 0 0 512 512;" xml:space="preserve">
<g>
	<g>
		<g>
			<path style="fill:#D8ECFE;" d="M379.24,320.65H132.76c-11.158,0-20.203-9.045-20.203-20.203v-88.894&#10;&#9;&#9;&#9;&#9;c0-11.158,9.045-20.203,20.203-20.203h246.48c11.158,0,20.203,9.045,20.203,20.203v88.894&#10;&#9;&#9;&#9;&#9;C399.443,311.605,390.398,320.65,379.24,320.65z"/>
			<path style="fill:#C4E2FF;" d="M379.24,191.35h-26.264c11.158,0,20.203,9.045,20.203,20.203v88.894&#10;&#9;&#9;&#9;&#9;c0,11.158-9.045,20.203-20.203,20.203h26.264c11.158,0,20.203-9.045,20.203-20.203v-88.894&#10;&#9;&#9;&#9;&#9;C399.443,200.395,390.398,191.35,379.24,191.35z"/>
		</g>
		<g>
			<circle style="fill:#D8ECFE;" cx="433.789" cy="78.211" r="70.711"/>
			<path style="fill:#C4E2FF;" d="M474.18,20.185c7.987,11.453,12.685,25.37,12.685,40.392c0,39.053-31.658,70.711-70.711,70.711&#10;&#9;&#9;&#9;&#9;c-15.022,0-28.939-4.698-40.392-12.685c12.778,18.321,33.995,30.32,58.026,30.32c39.053,0,70.711-31.659,70.711-70.711&#10;&#9;&#9;&#9;&#9;C504.5,54.18,492.502,32.963,474.18,20.185z"/>
			<path style="fill:#F07281;" d="M433.789,77.906c-26.231,0-49.11,14.295-61.316,35.508c12.206,21.214,35.084,35.508,61.316,35.508&#10;&#9;&#9;&#9;&#9;c26.232,0,49.11-14.295,61.316-35.508C482.898,92.201,460.02,77.906,433.789,77.906z"/>
			<path style="fill:#EB5569;" d="M478.533,93.888c-11.91,22.255-35.372,37.4-62.379,37.4c-15.01,0-28.918-4.691-40.366-12.667&#10;&#9;&#9;&#9;&#9;c12.777,18.31,33.98,30.301,58,30.301c26.231,0,49.11-14.295,61.316-35.508C490.802,105.936,485.168,99.324,478.533,93.888z"/>
			<circle style="fill:#FED2A4;" cx="433.789" cy="67.109" r="28.78"/>
		</g>
		<g>
			<circle style="fill:#D8ECFE;" cx="433.789" cy="433.789" r="70.711"/>
			<path style="fill:#C4E2FF;" d="M474.18,375.763c7.987,11.453,12.685,25.37,12.685,40.392c0,39.053-31.658,70.711-70.711,70.711&#10;&#9;&#9;&#9;&#9;c-15.022,0-28.939-4.698-40.392-12.685c12.778,18.321,33.995,30.32,58.026,30.32c39.053,0,70.711-31.659,70.711-70.711&#10;&#9;&#9;&#9;&#9;C504.5,409.758,492.502,388.54,474.18,375.763z"/>
			<path style="fill:#FEB237;" d="M433.789,433.483c-26.231,0-49.11,14.295-61.316,35.508&#10;&#9;&#9;&#9;&#9;c12.206,21.214,35.084,35.508,61.316,35.508c26.232,0,49.11-14.295,61.316-35.508&#10;&#9;&#9;&#9;&#9;C482.898,447.778,460.02,433.483,433.789,433.483z"/>
			<path style="fill:#F6AB31;" d="M478.533,449.466c-11.91,22.255-35.372,37.4-62.379,37.4c-15.01,0-28.918-4.691-40.366-12.667&#10;&#9;&#9;&#9;&#9;c12.777,18.31,33.98,30.301,58,30.301c26.231,0,49.11-14.295,61.316-35.508C490.802,461.514,485.168,454.901,478.533,449.466z"/>
			<circle style="fill:#FED2A4;" cx="433.789" cy="422.687" r="28.78"/>
		</g>
		<g>
			<circle style="fill:#D8ECFE;" cx="78.211" cy="78.211" r="70.711"/>
			<path style="fill:#C4E2FF;" d="M118.603,20.185c7.987,11.453,12.685,25.37,12.685,40.392c0,39.053-31.658,70.711-70.711,70.711&#10;&#9;&#9;&#9;&#9;c-15.022,0-28.939-4.698-40.392-12.685c12.778,18.321,33.995,30.32,58.026,30.32c39.053,0,70.711-31.659,70.711-70.711&#10;&#9;&#9;&#9;&#9;C148.923,54.18,136.925,32.963,118.603,20.185z"/>
			<path style="fill:#80D261;" d="M78.211,77.906c-26.231,0-49.11,14.295-61.316,35.508c12.206,21.214,35.084,35.508,61.316,35.508&#10;&#9;&#9;&#9;&#9;s49.11-14.295,61.316-35.508C127.321,92.201,104.443,77.906,78.211,77.906z"/>
			<path style="fill:#68CA44;" d="M122.956,93.888c-11.91,22.255-35.372,37.4-62.379,37.4c-15.011,0-28.918-4.691-40.366-12.667&#10;&#9;&#9;&#9;&#9;c12.777,18.31,33.98,30.301,58,30.301c26.231,0,49.11-14.295,61.316-35.508C135.224,105.936,129.591,99.324,122.956,93.888z"/>
			<circle style="fill:#FED2A4;" cx="78.211" cy="67.109" r="28.78"/>
		</g>
		<g>
			<circle style="fill:#D8ECFE;" cx="78.211" cy="433.789" r="70.711"/>
			<path style="fill:#C4E2FF;" d="M118.603,375.763c7.987,11.453,12.685,25.37,12.685,40.392c0,39.053-31.658,70.711-70.711,70.711&#10;&#9;&#9;&#9;&#9;c-15.022,0-28.939-4.698-40.392-12.685c12.778,18.321,33.995,30.32,58.026,30.32c39.053,0,70.711-31.659,70.711-70.711&#10;&#9;&#9;&#9;&#9;C148.923,409.758,136.925,388.54,118.603,375.763z"/>
			<path style="fill:#60B7FF;" d="M78.211,433.483c-26.231,0-49.11,14.295-61.316,35.508C29.102,490.205,51.98,504.5,78.211,504.5&#10;&#9;&#9;&#9;&#9;s49.11-14.295,61.316-35.508C127.321,447.778,104.443,433.483,78.211,433.483z"/>
			<path style="fill:#26A6FE;" d="M122.956,449.466c-11.91,22.255-35.372,37.4-62.379,37.4c-15.011,0-28.918-4.691-40.366-12.667&#10;&#9;&#9;&#9;&#9;c12.777,18.31,33.98,30.301,58,30.301c26.231,0,49.11-14.295,61.316-35.508C135.224,461.514,129.591,454.901,122.956,449.466z"/>
			<circle style="fill:#FED2A4;" cx="78.211" cy="422.687" r="28.78"/>
		</g>
	</g>
	<g>
		<path style="fill:none;stroke:#000000;stroke-width:15;stroke-linecap:round;stroke-linejoin:round;stroke-miterlimit:10;" d="&#10;&#9;&#9;&#9;M112.56,265.74v34.71c0,11.16,9.04,20.2,20.2,20.2h246.48c11.16,0,20.2-9.04,20.2-20.2v-88.9c0-11.16-9.04-20.2-20.2-20.2H132.76&#10;&#9;&#9;&#9;c-11.16,0-20.2,9.04-20.2,20.2v19.19"/>
		<g>
			<path style="fill:none;stroke:#000000;stroke-width:15;stroke-linecap:round;stroke-linejoin:round;stroke-miterlimit:10;" d="&#10;&#9;&#9;&#9;&#9;M298.072,287.82l11.363-62.957c0.284-1.474,2.34-1.612,2.818-0.189l18.485,62.656c0.448,1.334,2.339,1.325,2.773-0.014&#10;&#9;&#9;&#9;&#9;l17.854-62.631c0.463-1.428,2.52-1.312,2.82,0.159l12.036,62.977"/>
		</g>
		<g>
			<path style="fill:none;stroke:#000000;stroke-width:15;stroke-linecap:round;stroke-linejoin:round;stroke-miterlimit:10;" d="&#10;&#9;&#9;&#9;&#9;M196.177,229.195c-5.159-3.485-11.379-5.521-18.073-5.521c-17.853,0-32.325,14.472-32.325,32.325s14.472,32.325,32.325,32.325&#10;&#9;&#9;&#9;&#9;c7.251,0,13.215-2.387,17.741-6.418c0.937-0.834,1.812-1.739,2.624-2.707"/>
		</g>
		<g>
			
				<line style="fill:none;stroke:#000000;stroke-width:15;stroke-linecap:round;stroke-linejoin:round;stroke-miterlimit:10;" x1="238.589" y1="257.469" x2="265.747" y2="288.325"/>
			
				<line style="fill:none;stroke:#000000;stroke-width:15;stroke-linecap:round;stroke-linejoin:round;stroke-miterlimit:10;" x1="230.793" y1="257.353" x2="230.793" y2="288.325"/>
			<path style="fill:none;stroke:#000000;stroke-width:15;stroke-linecap:round;stroke-linejoin:round;stroke-miterlimit:10;" d="&#10;&#9;&#9;&#9;&#9;M265.747,240.477c0,9.279-8.137,16.802-17.753,16.802c-4.769,0-17.201,0.074-17.201,0.074l0.021-33.678c0,0,11.545,0,17.18,0&#10;&#9;&#9;&#9;&#9;C257.61,223.675,265.747,231.197,265.747,240.477z"/>
		</g>
		<path style="fill:none;stroke:#000000;stroke-width:15;stroke-linecap:round;stroke-linejoin:round;stroke-miterlimit:10;" d="&#10;&#9;&#9;&#9;M458.82,82.472c15.371,5.825,28.178,16.856,36.284,30.945c-12.207,21.213-35.082,35.506-61.316,35.506&#10;&#9;&#9;&#9;c-26.234,0-49.109-14.293-61.316-35.506c8.105-14.089,20.913-25.12,36.284-30.945"/>
		<path style="fill:none;stroke:#000000;stroke-width:15;stroke-linecap:round;stroke-linejoin:round;stroke-miterlimit:10;" d="&#10;&#9;&#9;&#9;M398.79,16.76c10.32-5.89,22.26-9.26,35-9.26c39.05,0,70.71,31.66,70.71,70.71s-31.66,70.71-70.71,70.71s-70.71-31.66-70.71-70.71&#10;&#9;&#9;&#9;c0-13.7,3.9-26.49,10.65-37.32"/>
		
			<circle style="fill:none;stroke:#000000;stroke-width:15;stroke-linecap:round;stroke-linejoin:round;stroke-miterlimit:10;" cx="433.789" cy="67.109" r="28.78"/>
		<path style="fill:none;stroke:#000000;stroke-width:15;stroke-linecap:round;stroke-linejoin:round;stroke-miterlimit:10;" d="&#10;&#9;&#9;&#9;M458.82,438.049c15.371,5.825,28.178,16.856,36.284,30.945c-12.207,21.213-35.082,35.506-61.316,35.506&#10;&#9;&#9;&#9;c-26.234,0-49.109-14.293-61.316-35.506c8.105-14.089,20.913-25.12,36.284-30.945"/>
		<path style="fill:none;stroke:#000000;stroke-width:15;stroke-linecap:round;stroke-linejoin:round;stroke-miterlimit:10;" d="&#10;&#9;&#9;&#9;M491.88,393.48c7.96,11.44,12.62,25.33,12.62,40.31c0,39.05-31.66,70.71-70.71,70.71s-70.71-31.66-70.71-70.71&#10;&#9;&#9;&#9;s31.66-70.71,70.71-70.71c11.46,0,22.29,2.73,31.86,7.58"/>
		
			<circle style="fill:none;stroke:#000000;stroke-width:15;stroke-linecap:round;stroke-linejoin:round;stroke-miterlimit:10;" cx="433.789" cy="422.687" r="28.78"/>
		<path style="fill:none;stroke:#000000;stroke-width:15;stroke-linecap:round;stroke-linejoin:round;stroke-miterlimit:10;" d="&#10;&#9;&#9;&#9;M103.243,82.472c15.371,5.825,28.178,16.856,36.284,30.945c-12.207,21.213-35.082,35.506-61.316,35.506&#10;&#9;&#9;&#9;s-49.109-14.293-61.316-35.506c8.105-14.089,20.913-25.12,36.284-30.945"/>
		
			<circle style="fill:none;stroke:#000000;stroke-width:15;stroke-linecap:round;stroke-linejoin:round;stroke-miterlimit:10;" cx="78.211" cy="78.211" r="70.711"/>
		
			<circle style="fill:none;stroke:#000000;stroke-width:15;stroke-linecap:round;stroke-linejoin:round;stroke-miterlimit:10;" cx="78.211" cy="67.109" r="28.78"/>
		<path style="fill:none;stroke:#000000;stroke-width:15;stroke-linecap:round;stroke-linejoin:round;stroke-miterlimit:10;" d="&#10;&#9;&#9;&#9;M103.243,438.049c15.371,5.825,28.178,16.856,36.284,30.945C127.32,490.207,104.445,504.5,78.211,504.5&#10;&#9;&#9;&#9;s-49.109-14.293-61.316-35.506c8.105-14.089,20.913-25.12,36.284-30.945"/>
		
			<circle style="fill:none;stroke:#000000;stroke-width:15;stroke-linecap:round;stroke-linejoin:round;stroke-miterlimit:10;" cx="78.211" cy="433.789" r="70.711"/>
		
			<circle style="fill:none;stroke:#000000;stroke-width:15;stroke-linecap:round;stroke-linejoin:round;stroke-miterlimit:10;" cx="78.211" cy="422.687" r="28.78"/>
		<path style="fill:none;stroke:#000000;stroke-width:15;stroke-linecap:round;stroke-linejoin:round;stroke-miterlimit:10;" d="&#10;&#9;&#9;&#9;M363.077,78.211H335.8c-15.621,0-28.285,12.663-28.285,28.285v84.854"/>
		<path style="fill:none;stroke:#000000;stroke-width:15;stroke-linecap:round;stroke-linejoin:round;stroke-miterlimit:10;" d="&#10;&#9;&#9;&#9;M148.923,78.211H176.2c15.621,0,28.285,12.663,28.285,28.285v84.854"/>
		<path style="fill:none;stroke:#000000;stroke-width:15;stroke-linecap:round;stroke-linejoin:round;stroke-miterlimit:10;" d="&#10;&#9;&#9;&#9;M363.077,433.789H335.8c-15.621,0-28.285-12.663-28.285-28.285V320.65"/>
		<path style="fill:none;stroke:#000000;stroke-width:15;stroke-linecap:round;stroke-linejoin:round;stroke-miterlimit:10;" d="&#10;&#9;&#9;&#9;M148.923,433.789H176.2c15.621,0,28.285-12.663,28.285-28.285V320.65"/>
	</g>
</g>
<g>
</g>
<g>
</g>
<g>
</g>
<g>
</g>
<g>
</g>
<g>
</g>
<g>
</g>
<g>
</g>
<g>
</g>
<g>
</g>
<g>
</g>
<g>
</g>
<g>
</g>
<g>
</g>
<g>
</g>
</svg>