<svg id="one_color" height="512" viewBox="0 0 64 64" width="512" xmlns="http://www.w3.org/2000/svg"><path d="m25 21v36c0 1.1-.9 2-2 2h-16c-1.1 0-2-.9-2-2v-36c0-1.1.9-2 2-2h3l3 2h4l3-2h3c1.1 0 2 .9 2 2z" fill="#6f7bbf"/><path d="m59 7v36c0 1.1-.9 2-2 2h-16c-1.1 0-2-.9-2-2v-36c0-1.1.9-2 2-2h3l3 2h4l3-2h3c1.1 0 2 .9 2 2z" fill="#6f7bbf"/><g><path d="m25 14h-20c-2.757 0-5 2.243-5 5v40c0 2.757 2.243 5 5 5h20c2.757 0 5-2.243 5-5v-40c0-2.757-2.243-5-5-5zm3 45c0 1.654-1.346 3-3 3h-20c-1.654 0-3-1.346-3-3v-40c0-1.654 1.346-3 3-3h20c1.654 0 3 1.346 3 3z"/><path d="m23 18h-3c-.197 0-.391.059-.555.168l-2.748 1.832h-3.395l-2.748-1.832c-.163-.109-.357-.168-.554-.168h-3c-1.654 0-3 1.346-3 3v36c0 1.654 1.346 3 3 3h16c1.654 0 3-1.346 3-3v-36c0-1.654-1.346-3-3-3zm1 39c0 .552-.449 1-1 1h-16c-.551 0-1-.448-1-1v-36c0-.552.449-1 1-1h2.697l2.748 1.832c.164.109.358.168.555.168h4c.197 0 .391-.059.555-.168l2.748-1.832h2.697c.551 0 1 .448 1 1z"/><path d="m59 0h-20c-2.757 0-5 2.243-5 5v40c0 2.757 2.243 5 5 5h20c2.757 0 5-2.243 5-5v-40c0-2.757-2.243-5-5-5zm3 45c0 1.654-1.346 3-3 3h-20c-1.654 0-3-1.346-3-3v-40c0-1.654 1.346-3 3-3h20c1.654 0 3 1.346 3 3z"/><path d="m57 4h-3c-.197 0-.391.059-.555.168l-2.748 1.832h-3.395l-2.748-1.832c-.163-.109-.357-.168-.554-.168h-3c-1.654 0-3 1.346-3 3v36c0 1.654 1.346 3 3 3h16c1.654 0 3-1.346 3-3v-36c0-1.654-1.346-3-3-3zm1 39c0 .552-.449 1-1 1h-16c-.551 0-1-.448-1-1v-36c0-.552.449-1 1-1h2.697l2.748 1.832c.164.109.358.168.555.168h4c.197 0 .391-.059.555-.168l2.748-1.832h2.697c.551 0 1 .448 1 1z"/><path d="m52 52c-.552 0-1 .447-1 1v4h-4.142c-.447-1.721-2-3-3.858-3s-3.411 1.279-3.858 3h-6.142c-.552 0-1 .447-1 1s.448 1 1 1h6.142c.447 1.721 2 3 3.858 3s3.411-1.279 3.858-3h5.142c.552 0 1-.447 1-1v-5c0-.553-.448-1-1-1zm-9 8c-1.103 0-2-.897-2-2s.897-2 2-2 2 .897 2 2-.897 2-2 2z"/><path d="m31 5h-5.142c-.447-1.721-2-3-3.858-3s-3.411 1.279-3.858 3h-6.142c-.552 0-1 .447-1 1v5c0 .553.448 1 1 1s1-.447 1-1v-4h5.142c.447 1.721 2 3 3.858 3s3.411-1.279 3.858-3h5.142c.552 0 1-.447 1-1s-.448-1-1-1zm-9 3c-1.103 0-2-.897-2-2s.897-2 2-2 2 .897 2 2-.897 2-2 2z"/><path d="m11 54h-1v-1c0-.553-.448-1-1-1s-1 .447-1 1v2c0 .553.448 1 1 1h2c.552 0 1-.447 1-1s-.448-1-1-1z"/><path d="m9 51c.552 0 1-.447 1-1v-4c0-.553-.448-1-1-1s-1 .447-1 1v4c0 .553.448 1 1 1z"/><path d="m44 40h-1v-1c0-.553-.448-1-1-1s-1 .447-1 1v2c0 .553.448 1 1 1h2c.552 0 1-.447 1-1s-.448-1-1-1z"/><path d="m42 37c.552 0 1-.447 1-1v-3c0-.553-.448-1-1-1s-1 .447-1 1v3c0 .553.448 1 1 1z"/></g></svg>