<svg clip-rule="evenodd" fill-rule="evenodd" stroke-linejoin="round" stroke-miterlimit="2" viewBox="0 0 510 510" xmlns="http://www.w3.org/2000/svg"><g><g><g><path d="m285.332 463.338h-138.573c11.065-15.648 20.23-55.99 16.241-87.096h105.094c-3.966 31.106 6.173 71.448 17.238 87.096z" fill="#a9b0bb"/><path d="m395.864 99.143c11.706 0 21.203 9.498 21.203 21.204v238.467c0 15.933-12.917 28.85-28.849 28.85h-344.345c-15.956 0-28.873-12.917-28.873-28.85v-230.798c0-15.956 12.917-28.873 28.873-28.873z" fill="#f4f6f8"/><g fill="#cad0d7"><path d="m417.067 330.249v28.565c0 15.933-12.917 28.85-28.849 28.85h-344.345c-15.956 0-28.873-12.917-28.873-28.85v-28.565z"/><path d="m122.064 457.948h187.963c9.664 0 17.571 7.907 17.571 17.571s-7.907 17.571-17.571 17.571h-187.963c-9.664 0-17.571-7.907-17.571-17.571s7.907-17.571 17.571-17.571z"/></g></g><path d="m450.793 44.583c0-7.339-2.915-14.378-8.105-19.568-5.19-5.189-12.228-8.105-19.567-8.105h-206.923c-7.339 0-14.378 2.916-19.567 8.105-5.19 5.19-8.105 12.229-8.105 19.568v232.362c0 7.339 2.915 14.378 8.105 19.568 5.189 5.189 12.228 8.105 19.567 8.105h206.923c7.339 0 14.377-2.916 19.567-8.105 5.19-5.19 8.105-12.229 8.105-19.568z" fill="#66d4f1"/><g><path d="m495 403.485c0 11.485-9.395 20.881-20.881 20.881h-124.281c-11.468 0-20.863-9.396-20.863-20.881v-245.946c0-11.485 9.395-20.881 20.863-20.881h124.281c11.486 0 20.881 9.396 20.881 20.881z" fill="#a4d4ff"/></g><g fill="#afe269"><circle cx="133.407" cy="193.674" r="18.554"/><circle cx="281.492" cy="105.132" r="18.554"/><circle cx="280.993" cy="261.958" r="18.554"/></g></g><path d="m156.929 394.664h-113.056c-19.826 0-35.873-16.053-35.873-35.85v-230.798c0-19.824 16.049-35.873 35.873-35.873h137.653v-47.56c0-9.196 3.653-18.015 10.155-24.517 6.502-6.503 15.321-10.156 24.517-10.156h206.923c9.195 0 18.014 3.653 24.517 10.156 6.502 6.502 10.155 15.321 10.155 24.517v85.075h16.326c15.336 0 27.881 12.545 27.881 27.881v245.946c0 15.335-12.545 27.881-27.881 27.881h-124.281c-15.314 0-27.863-12.544-27.863-27.881v-8.821h-47.706c.569 20.589 5.723 42.289 12.142 56.284h23.616c13.514 0 24.571 11.057 24.571 24.571s-11.057 24.571-24.571 24.571h-187.963c-13.514 0-24.571-11.057-24.571-24.571s11.057-24.571 24.571-24.571h23.547c6.249-14.006 10.953-35.704 11.318-56.284zm24.597-288.521h-137.653c-12.088 0-21.873 9.785-21.873 21.873v195.233h299.975v-11.631h-105.777c-9.196 0-18.015-3.653-24.517-10.156-6.502-6.502-10.155-15.321-10.155-24.517v-53.569l-28.54-13.286c-4.69 5.586-11.723 9.138-19.579 9.138-14.103 0-25.554-11.45-25.554-25.554s11.451-25.554 25.554-25.554c6.715 0 12.828 2.595 17.391 6.836l30.728-17.999zm-159.526 231.106v21.565c0 12.068 9.787 21.85 21.873 21.85h278.102v-43.415zm238.269 57.415h-89.342c-.348 19.996-4.517 40.96-10.229 56.284h110.554c-5.917-15.331-10.457-36.295-10.983-56.284zm183.524-265.006v-85.075c0-5.483-2.178-10.741-6.055-14.618s-9.135-6.055-14.617-6.055h-206.923c-5.483 0-10.741 2.178-14.618 6.055-3.876 3.877-6.054 9.135-6.054 14.618v104.174l61.554-36.056c-.742-2.392-1.142-4.934-1.142-7.569 0-14.104 11.451-25.555 25.554-25.555 14.104 0 25.555 11.451 25.555 25.555s-11.451 25.554-25.555 25.554c-6.401 0-12.255-2.359-16.741-6.254l-69.225 40.55v49.469l66.145 30.79c4.687-5.412 11.608-8.838 19.322-8.838 14.104 0 25.555 11.451 25.555 25.555 0 14.103-11.451 25.554-25.555 25.554-14.103 0-25.554-11.451-25.554-25.554 0-1.371.108-2.716.316-4.028l-60.229-28.037v47.052c0 5.483 2.178 10.741 6.054 14.618 3.877 3.877 9.135 6.055 14.618 6.055h105.777v-140.079c0-15.337 12.549-27.881 27.863-27.881zm-107.818 27.881v245.946c0 7.633 6.241 13.881 13.863 13.881h124.281c7.635 0 13.881-6.246 13.881-13.881v-245.946c0-7.635-6.246-13.881-13.881-13.881h-124.281c-7.622 0-13.863 6.248-13.863 13.881zm-177.27 39.771 22.821 10.624v-34.752l-23.466 13.745c.588 2.15.902 4.412.902 6.747 0 1.234-.088 2.448-.257 3.636zm-25.298-15.19c-6.377 0-11.554 5.177-11.554 11.554s5.177 11.554 11.554 11.554 11.555-5.177 11.555-11.554-5.178-11.554-11.555-11.554zm148.085-88.543c-6.377 0-11.554 5.178-11.554 11.555s5.177 11.554 11.554 11.554 11.555-5.177 11.555-11.554-5.178-11.555-11.555-11.555zm-.499 156.826c-6.377 0-11.554 5.178-11.554 11.555s5.177 11.554 11.554 11.554 11.555-5.177 11.555-11.554-5.178-11.555-11.555-11.555zm-158.929 214.545c-5.814 0-10.571 4.757-10.571 10.571s4.757 10.571 10.571 10.571h187.963c5.814 0 10.571-4.757 10.571-10.571s-4.757-10.571-10.571-10.571zm78.096-98.992c-3.863 0-7-3.136-7-7 0-3.863 3.137-7 7-7h31.747c3.863 0 7 3.137 7 7 0 3.864-3.137 7-7 7zm200.478 36.442c-3.863 0-7-3.137-7-7 0-3.864 3.137-7 7-7h22.699c3.863 0 7 3.136 7 7 0 3.863-3.137 7-7 7z"/></g></svg>