<svg id="Layer_1" enable-background="new 0 0 512 512" viewBox="0 0 512 512" xmlns="http://www.w3.org/2000/svg"><g clip-rule="evenodd" fill-rule="evenodd"><path d="m273.407 200.246c0 6.062-3.105 11.621-8.258 14.812-.588.364-.947 1.005-.947 1.697v10.931c0 4.503-3.699 8.2-8.203 8.2-4.506 0-8.203-3.696-8.203-8.2v-10.931c0-.693-.36-1.333-.948-1.697-5.153-3.191-8.258-8.751-8.258-14.812 0-9.602 7.807-17.41 17.409-17.41s17.408 7.808 17.408 17.41zm-17.407-83.72c-10.421 0-18.908 8.489-18.908 18.909v19.95h-21.762v-19.95c0-22.425 18.244-40.669 40.669-40.669s40.667 18.246 40.667 40.669v19.95h-21.76v-19.95c.001-10.419-8.487-18.909-18.906-18.909zm159.526 86.66c0 46.522-19.869 85.276-57.647 112.427l-100.712 72.381c-.706.508-1.628.507-2.334 0l-100.718-72.381c-37.778-27.149-57.642-65.907-57.642-112.427v-46.611h-38.578v253.63h396.209v-253.63h-38.578zm-86.108 240.96v21.21h-146.839v-21.21z" fill="#92c3fe"/><path d="m256 188.836c6.29 0 11.408 5.12 11.408 11.41 0 3.979-2.025 7.611-5.417 9.711-2.355 1.459-3.788 4.029-3.788 6.798v10.931c0 1.19-1.01 2.2-2.204 2.2-1.196 0-2.203-1.01-2.203-2.2v-10.931c0-2.769-1.434-5.34-3.79-6.798-3.392-2.1-5.417-5.732-5.417-9.711.001-6.29 5.119-11.41 11.411-11.41zm-18.205 31.91v6.94c0 10.041 8.165 18.2 18.204 18.2 10.037 0 18.205-8.16 18.205-18.2v-6.94c5.831-5.161 9.204-12.539 9.204-20.5 0-15.109-12.296-27.41-27.409-27.41-15.115 0-27.408 12.301-27.408 27.41 0 7.969 3.371 15.35 9.204 20.5zm-35.638-49.11v75.461c0 3.439 2.802 6.24 6.249 6.24h95.187c3.445 0 6.248-2.8 6.248-6.24v-75.461c0-3.451-2.802-6.249-6.248-6.249h-95.187c-3.447-.001-6.249 2.798-6.249 6.249zm62.749-22.251h-17.814v-13.95c0-4.829 4.079-8.91 8.908-8.91 4.827 0 8.906 4.081 8.906 8.91zm-8.906-48.619c-19.118 0-34.669 15.56-34.669 34.67v13.95h9.761v-13.95c0-13.73 11.174-24.909 24.908-24.909 13.733 0 24.907 11.179 24.907 24.909v13.95h9.76v-13.95c0-19.11-15.551-34.67-34.667-34.67zm-47.594 168.57h95.187c12.267 0 22.249-9.98 22.249-22.239v-75.461c0-11.229-8.357-20.53-19.173-22.029v-14.172c0-27.94-22.731-50.671-50.669-50.671-27.939 0-50.668 22.731-50.668 50.671v14.172c-10.818 1.499-19.175 10.8-19.175 22.029v75.461c-.001 12.259 9.981 22.239 22.249 22.239zm-73.936-181.249v115.099c0 34.18 14.07 61.62 41.822 81.57l79.708 57.279 79.702-57.279c27.753-19.951 41.826-47.391 41.826-81.57v-115.099c-91.413-50.36-151.649-50.36-243.058 0zm32.485 209.66 84.376 60.64c1.395 1 3.03 1.509 4.668 1.509 1.636 0 3.272-.509 4.669-1.509l84.372-60.64c31.72-22.801 48.486-55.501 48.486-94.561v-119.801c0-2.889-1.561-5.558-4.083-6.978-51.958-29.182-93.114-42.189-133.443-42.189-.002 0 0 0-.002 0-40.329 0-81.489 13.018-133.443 42.189-2.522 1.42-4.083 4.09-4.083 6.978v119.801c-.001 39.069 16.765 71.76 48.483 94.561zm328.043 169.839c0 12.27-9.975 22.25-22.243 22.25h-433.51c-12.266 0-22.245-9.98-22.245-22.25v-17.44h155.58v17.21c0 4.42 3.582 7.999 8 7.999h150.839c4.418 0 8-3.58 8-7.999v-17.21h155.58v17.44zm-306.419-17.44v9.21h134.84v-9.21zm-154.624-304.48v288.48h444.087v-288.48c0-7.18-5.848-13.031-13.037-13.031h-43.48v13.941h34.577c4.418 0 7.999 3.58 7.999 7.999v257.631c0 4.42-3.582 8-7.999 8h-400.208c-4.418 0-8-3.58-8-8v-257.631c0-4.42 3.581-7.999 8-7.999h34.579v-13.941h-43.481c-7.189 0-13.037 5.851-13.037 13.031zm72.517-73.87v131.389c0 43.089 18.493 79.161 53.48 104.3l96.048 69.041 96.044-69.04c34.988-25.139 53.482-61.211 53.482-104.3v-131.39c-112.631-65.829-186.427-65.829-299.054 0zm44.141 248.689c-39.344-28.28-60.14-68.84-60.14-117.299v-40.611h-26.578v241.63h384.209v-241.63h-26.578v40.611c0 48.459-20.799 89.019-60.146 117.299l-100.712 72.381c-1.397 1.01-3.033 1.511-4.669 1.511-1.638 0-3.274-.501-4.668-1.511zm352.384 113.661h-8.952v-288.48c0-16.01-13.027-29.03-29.04-29.03h-43.48v-49.41c0-2.821-1.491-5.44-3.919-6.879-63.153-37.472-112.994-54.182-161.606-54.182-.004 0 .002 0-.002 0-48.61 0-98.457 16.72-161.608 54.182-2.428 1.439-3.917 4.059-3.917 6.879v49.41h-43.481c-16.012 0-29.037 13.02-29.037 29.03v288.48h-8.956c-4.418 0-8 3.579-8 7.999v25.441c0 21.089 17.156 38.249 38.246 38.249h433.511c21.087 0 38.245-17.16 38.245-38.249v-25.441c0-4.42-3.585-7.999-8.004-7.999z" fill="#224eff"/></g></svg>