<svg id="Layer_1" viewBox="0 0 512 512" xmlns="http://www.w3.org/2000/svg" data-name="Layer 1"><ellipse cx="243.993" cy="108.96" fill="#a3b7ff" rx="41.072" ry="13.027"/><path d="m202.92 159.341v13.21c.003 3.896 13.977 13.025 41.073 13.025s41.072-9.131 41.072-13.026v-13.209c-10.603 5.577-25.885 8.44-41.072 8.44s-30.47-2.864-41.073-8.44z" fill="#a3b7ff"/><path d="m450.486 392.266v9.757h9.757z" fill="#a3b7ff"/><path d="m266.426 275.334c.453-2.298 2.025-4.217 4.188-5.113l34.854-14.439c2.164-.897 4.633-.651 6.578.653l16.909 11.338 26.158-26.156-11.339-16.909c-1.305-1.945-1.55-4.414-.653-6.578l14.44-34.854c.896-2.163 2.815-3.735 5.113-4.188l19.969-3.937v-36.992s-19.97-3.939-19.97-3.939c-2.297-.453-4.216-2.024-5.112-4.188l-14.44-34.854c-.896-2.164-.651-4.633.653-6.578l11.339-16.908-26.157-26.158-16.908 11.339c-1.946 1.306-4.415 1.549-6.578.653l-34.855-14.44c-2.164-.896-3.735-2.815-4.188-5.113l-3.937-19.969h-36.993s-3.938 19.969-3.938 19.969c-.453 2.298-2.025 4.217-4.188 5.113l-34.855 14.44c-2.165.897-4.633.651-6.578-.653l-16.907-11.339-26.158 26.156 11.338 16.91c1.305 1.945 1.55 4.414.653 6.578l-14.44 34.854c-.896 2.163-2.815 3.734-5.112 4.188l-19.97 3.938v36.992s19.969 3.938 19.969 3.938c2.297.453 4.216 2.025 5.113 4.188l14.44 34.854c.896 2.164.651 4.633-.653 6.578l-11.338 16.908 26.156 26.157 16.91-11.338c1.944-1.306 4.413-1.551 6.578-.653l34.855 14.439c2.164.896 3.735 2.815 4.188 5.113l3.937 19.97h36.993s3.938-19.97 3.938-19.97zm-124.386-118.682c0-56.216 45.736-101.951 101.952-101.951s101.952 45.735 101.952 101.951-45.736 101.952-101.952 101.952-101.952-45.735-101.952-101.952z" fill="#a3b7ff"/><path d="m106.599 392.266v9.757h9.757z" fill="#a3b7ff"/><path d="m278.542 392.266v9.757h9.758z" fill="#a3b7ff"/><g fill="#466ffd"><path d="m400.493 465.542h54.9v14h-54.9z"/><path d="m400.493 439.143h54.9v14h-54.9z"/><path d="m448.436 370.417c-1.312-1.313-3.093-2.051-4.95-2.051h-20.55v-35.167c0-3.866-3.134-7-7-7h-164.944v-16.895h11.569c6.627 0 12.367-4.72 13.649-11.222l3.226-16.363 27.927-11.57 13.854 9.291c5.502 3.69 12.899 2.97 17.586-1.717l26.26-26.26c4.686-4.686 5.408-12.082 1.717-17.585l-9.292-13.855 11.57-27.927 16.365-3.227c6.501-1.282 11.219-7.022 11.219-13.649v-37.138c0-6.627-4.72-12.367-11.22-13.647l-16.364-3.228-11.571-27.927 9.292-13.855c3.691-5.503 2.969-12.899-1.717-17.585l-26.261-26.262c-4.687-4.684-12.081-5.406-17.584-1.716l-13.854 9.291-27.928-11.57-3.226-16.363c-1.281-6.502-7.021-11.221-13.649-11.221h-37.138c-6.627 0-12.368 4.719-13.649 11.221l-3.226 16.363-27.928 11.57-13.856-9.292c-5.502-3.689-12.897-2.967-17.584 1.719l-26.26 26.26c-4.686 4.686-5.408 12.081-1.717 17.585l9.291 13.854-11.571 27.928-16.361 3.227c-6.503 1.281-11.223 7.021-11.223 13.648v37.138c0 6.627 4.719 12.367 11.221 13.649l16.364 3.227 11.57 27.928-9.291 13.854c-3.691 5.504-2.969 12.899 1.717 17.585l26.26 26.26c4.686 4.686 12.081 5.408 17.585 1.717l13.854-9.29 27.928 11.569 3.226 16.363c1.282 6.502 7.022 11.222 13.649 11.222h11.568v16.895h-164.94c-3.866 0-7 3.134-7 7v35.167h-30.191c-3.866 0-7 3.134-7 7v125.634c0 3.866 3.134 7 7 7h98.398c3.866 0 7-3.134 7-7v-91.977c0-1.856-.738-3.637-2.05-4.949l-33.656-33.657c-1.312-1.313-3.093-2.051-4.95-2.051h-20.55v-28.167h157.943v28.167h-30.191c-3.866 0-7 3.134-7 7v125.634c0 3.866 3.134 7 7 7h98.398c3.866 0 7-3.134 7-7v-91.977c0-1.856-.738-3.637-2.05-4.949l-33.656-33.657c-1.312-1.313-3.093-2.051-4.95-2.051h-20.55v-28.167h157.944v28.167h-30.191c-3.866 0-7 3.134-7 7v125.634c0 3.866 3.134 7 7 7h98.398c3.866 0 7-3.134 7-7v-91.977c0-1.856-.738-3.637-2.05-4.949l-33.657-33.657zm-341.836 21.849 9.757 9.758h-9.757zm-14-9.9v26.657c0 3.866 3.134 7 7 7h26.656v77.977h-84.399v-111.634h50.742zm185.943 9.9 9.757 9.758h-9.757zm-14-9.9v26.657c0 3.866 3.134 7 7 7h26.656v77.977h-84.398v-111.634zm-39.047-87.062-3.937-19.97c-.453-2.298-2.025-4.217-4.188-5.113l-34.855-14.439c-2.165-.897-4.634-.652-6.578.653l-16.91 11.338-26.156-26.157 11.338-16.908c1.305-1.945 1.55-4.414.653-6.578l-14.44-34.854c-.896-2.163-2.815-3.735-5.113-4.188l-19.97-3.938v-36.992s19.971-3.938 19.971-3.938c2.297-.453 4.216-2.024 5.112-4.188l14.44-34.854c.896-2.164.651-4.633-.653-6.578l-11.338-16.91 26.158-26.156 16.907 11.339c1.945 1.305 4.414 1.551 6.578.653l34.855-14.44c2.164-.896 3.735-2.815 4.188-5.113l3.938-19.97h36.993s3.937 19.97 3.937 19.97c.453 2.298 2.025 4.217 4.188 5.113l34.855 14.44c2.163.896 4.632.652 6.578-.653l16.908-11.339 26.157 26.158-11.339 16.908c-1.305 1.945-1.55 4.414-.653 6.578l14.44 34.854c.896 2.163 2.815 3.734 5.112 4.188l19.971 3.939v36.992s-19.97 3.937-19.97 3.937c-2.297.453-4.216 2.025-5.113 4.188l-14.44 34.854c-.896 2.164-.651 4.633.653 6.578l11.339 16.909-26.158 26.156-16.909-11.338c-1.945-1.305-4.414-1.551-6.578-.653l-34.854 14.439c-2.164.896-3.735 2.815-4.188 5.113l-3.938 19.971h-36.993zm224.99 96.962 9.758 9.758h-9.758zm19.657 101.734h-84.398v-111.634h50.741v26.657c0 3.866 3.134 7 7 7h26.657z"/><path d="m228.549 465.542h54.9v14h-54.9z"/><path d="m56.606 465.542h54.9v14h-54.9z"/><path d="m243.993 81.933c-27.367 0-55.072 9.284-55.072 27.027v31.795s0 .004 0 .007v31.788s0 .002 0 .003v31.791c0 17.743 27.705 27.027 55.073 27.027s55.072-9.284 55.072-27.027v-95.384c0-17.743-27.705-27.027-55.072-27.027zm41.072 122.411c0 3.896-13.974 13.027-41.072 13.027s-41.073-9.131-41.073-13.027v-13.208c10.603 5.577 25.886 8.44 41.073 8.44s30.469-2.864 41.072-8.44zm0-31.794c0 3.896-13.974 13.026-41.072 13.026s-41.07-9.128-41.073-13.025v-13.21c10.603 5.577 25.886 8.44 41.073 8.44s30.469-2.864 41.072-8.44zm0-31.795c0 3.896-13.974 13.026-41.072 13.026s-41.066-9.126-41.073-13.023v-13.211c10.603 5.577 25.886 8.441 41.073 8.441s30.469-2.864 41.072-8.441zm-41.072-18.768c-26.68 0-41.072-9.246-41.072-13.027s14.393-13.027 41.072-13.027 41.072 9.246 41.072 13.027-14.393 13.027-41.072 13.027z"/><path d="m345.944 156.652c0-56.216-45.736-101.951-101.952-101.951s-101.952 45.735-101.952 101.951 45.736 101.952 101.952 101.952 101.952-45.735 101.952-101.952zm-101.952 87.952c-48.497 0-87.952-39.455-87.952-87.952s39.455-87.951 87.952-87.951 87.952 39.455 87.952 87.951-39.455 87.952-87.952 87.952z"/><path d="m228.549 439.143h54.9v14h-54.9z"/><path d="m56.606 439.143h54.9v14h-54.9z"/></g></svg>