<svg id="Layer_1" viewBox="0 0 512 512" xmlns="http://www.w3.org/2000/svg" data-name="Layer 1"><path d="m325.685 141.926 6.151-8.39-28.034-20.608-6.152 8.39z" fill="#ea4b23"/><path d="m363.301 195.954c18.113 0 32.854-14.712 32.854-32.825s-14.74-32.825-32.854-32.825-32.825 14.712-32.825 32.825 14.74 32.825 32.825 32.825z" fill="#ea4b23"/><path d="m388.582 114.519h38.729v10.424h-38.729z" fill="#ea4b23" transform="matrix(.718 -.696 .696 .718 31.734 317.772)"/><path d="m452.564 109.129c18.114 0 32.854-14.74 32.854-32.825s-14.74-32.797-32.854-32.797-32.825 14.712-32.825 32.797 14.712 32.825 32.825 32.825z" fill="#ea4b23"/><path d="m266.157 124.521c18.113 0 32.825-14.74 32.825-32.854s-14.712-32.769-32.825-32.769-32.797 14.712-32.797 32.769 14.712 32.854 32.797 32.854z" fill="#ea4b23"/><path d="m99.764 280.795c22.479 0 40.762 18.283 40.762 40.734s-18.283 40.734-40.762 40.734-40.734-18.255-40.734-40.734 18.283-40.734 40.734-40.734zm-67.493 55.361c2.013.312 3.657 1.758 4.224 3.713 1.361 4.649 3.232 9.184 5.584 13.436.964 1.786.822 3.969-.369 5.613l-13.011 17.632c4.677 6.01 10.035 11.395 16.073 16.044l17.631-12.983c1.616-1.219 3.799-1.361 5.584-.369 4.252 2.353 8.788 4.224 13.465 5.556 1.956.567 3.402 2.211 3.685 4.224l3.288 21.657c7.54.964 15.137.964 22.705 0l3.26-21.657c.312-2.012 1.757-3.657 3.713-4.224 4.649-1.332 9.184-3.203 13.436-5.556 1.786-.992 3.997-.85 5.613.369l17.631 12.983c6.01-4.649 11.395-10.035 16.073-16.044l-13.011-17.632c-1.219-1.644-1.361-3.827-.369-5.613 2.353-4.252 4.224-8.787 5.556-13.436.595-1.956 2.24-3.402 4.252-3.713l21.628-3.26c.964-7.569.964-15.165 0-22.706l-21.628-3.288c-2.012-.283-3.656-1.758-4.223-3.685-1.361-4.677-3.232-9.213-5.584-13.465-.992-1.786-.85-3.969.369-5.613l13.011-17.632c-4.677-6.009-10.063-11.395-16.073-16.044l-17.631 13.011c-1.616 1.19-3.827 1.332-5.613.368-4.252-2.353-8.787-4.252-13.436-5.584-1.956-.567-3.402-2.211-3.713-4.224l-3.26-21.657c-7.568-.964-15.165-.964-22.705 0l-3.288 21.657c-.283 2.013-1.729 3.657-3.685 4.224-4.677 1.332-9.213 3.231-13.465 5.584-1.786.964-3.969.822-5.613-.368l-17.631-13.011c-6.01 4.649-11.367 10.035-16.044 16.044l13.011 17.632c1.191 1.644 1.332 3.827.369 5.613-2.353 4.252-4.224 8.787-5.584 13.465-.567 1.927-2.211 3.402-4.224 3.685l-21.656 3.288c-.964 7.54-.964 15.137 0 22.706l21.656 3.26z" fill="#115181"/><path d="m99.764 351.86c16.753 0 30.359-13.606 30.359-30.331s-13.606-30.331-30.359-30.331-30.331 13.606-30.331 30.331 13.606 30.331 30.331 30.331z" fill="#115181"/><path d="m159.32 195.954c18.114 0 32.854-14.712 32.854-32.825s-14.74-32.825-32.854-32.825-32.825 14.712-32.825 32.825 14.74 32.825 32.825 32.825z" fill="#ea4b23"/><path d="m233.899 120.468-5.952-8.561-34.867 24.208 5.471 8.844z" fill="#ea4b23"/><g fill="#115181"><path d="m233.361 224.613v39.26c11.792 1.389 23.017 4.649 33.392 9.496v-48.756z"/><path d="m151.695 403.252-18.114-13.351c-3.033 1.502-6.179 2.806-9.383 3.912l-.51 3.458c.057.142.113.283.17.454 12.189 44.22 51.846 75.146 96.491 75.26h.227c26.476 0 51.392-10.318 70.186-29.055 18.907-18.879 29.339-43.965 29.339-70.696 0-54.992-44.759-99.723-99.751-99.723-18.454 0-36.397 5.046-52.016 14.627 1.446 2.891 2.665 5.896 3.713 8.958l22.224 3.373c2.24.34 3.997 2.069 4.365 4.281.085.539.17 1.077.255 1.616 6.917-2.24 14.145-3.373 21.515-3.373 38.75 0 70.242 31.521 70.242 70.243s-31.493 70.271-70.242 70.271c-27.042 0-51.704-15.732-63.298-39.77-1.729.85-3.827.708-5.414-.482z"/><path d="m215.134 336.241c0-2.891 2.324-5.216 5.216-5.216 2.863 0 5.188 2.324 5.188 5.216v31.805h20.494c2.891 0 5.216 2.324 5.216 5.188 0 2.891-2.324 5.216-5.216 5.216h-25.682c-2.891 0-5.216-2.324-5.216-5.216v-36.992zm-49.578 60.973c9.439 21.6 31.068 35.887 54.85 35.887 32.995 0 59.839-26.873 59.839-59.868s-26.844-59.84-59.839-59.84c-7.058 0-13.918 1.219-20.466 3.6.312 7.115-.114 14.258-1.304 21.317-.368 2.239-2.126 3.968-4.337 4.28l-22.252 3.373c-1.105 3.203-2.381 6.35-3.912 9.383l13.379 18.113c1.332 1.814 1.361 4.28.028 6.123-4.62 6.52-9.978 12.387-15.987 17.631z"/><path d="m337.279 379.64v-138.076h-33.392v59.953c16.554 19.304 26.589 44.362 26.589 71.717 0 2.154-.057 4.28-.17 6.406z"/><path d="m444.938 184.672v185.727l33.421 20.607v-206.334z"/><path d="m396.268 343.526c1.673-.907 3.657-.879 5.272.114l6.18 3.798v-81.95h-33.307v114.151h19.19v-31.578c0-1.871 1.021-3.6 2.665-4.535z"/></g><path d="m494.431 413.117-90.425-55.729v27.468c0 2.863-2.324 5.188-5.188 5.188h-69.591c-2.551 16.668-8.844 32.4-18.453 46.176h88.044c2.863 0 5.188 2.324 5.188 5.188v27.468l90.425-55.758z" fill="#ea4b23"/></svg>