<svg clip-rule="evenodd" fill-rule="evenodd" height="512" image-rendering="optimizeQuality" shape-rendering="geometricPrecision" text-rendering="geometricPrecision" viewBox="0 0 173.397 173.397" width="512" xmlns="http://www.w3.org/2000/svg"><g id="Layer_x0020_1"><path d="m141.423 104.785.0006-19.7921-15.1343-7.3678-.0001 9.4074v.0024c-.0006.9213-.7492 1.6688-1.6709 1.6685h-1.671l-.0002 9.7587c0 .6405.3663 1.2218.9404 1.5002l18.4255 8.9736c-.5302-.2802-.8901-.8369-.8901-1.4779z" fill="#83dbf2"/><g id="_216383096" fill="#1865c1"><path id="_216384512" d="m67.9727 121.14c-.2858 0-.5714-.0729-.836-.2261-.8003-.4597-1.0723-1.4831-.6128-2.2837 12.3456-21.3794 25.0243-43.3888 37.6862-65.4191.4602-.8009 1.4796-1.0758 2.2803-.6162.8009.4593 1.0757 1.483.6162 2.2803-12.6617 22.0337-25.341 44.0467-37.6861 65.426-.3096.5361-.874.839-1.4478.8388z"/><path id="_216384608" d="m105.425 121.14c-.5781 0-1.1387-.3026-1.4487-.8388l-37.6858-65.4226c-.4629-.8011-.1882-1.8207.6124-2.2837.8008-.46 1.8208-.1846 2.2839.6162l37.6866 65.4223c.4598.8009.1841 1.821-.6167 2.2805-.2607.1528-.5501.2263-.8317.2261z"/><path id="_216383984" d="m15.6473 74.9522 14.6566 7.1367 14.6566-7.1367-14.6566-7.1369zm14.6566 10.6672c-.2506 0-.5018-.0557-.7316-.1706l-18.4722-8.9927c-.5741-.282-.9401-.8631-.9401-1.5037.0001-.6371.3656-1.222.9399-1.5005l18.4724-8.9962c.4637-.2264 1.0027-.226 1.4621.0003l18.4764 8.9958c.5741.2783.9359.8635.9395 1.5006.0004.6405-.3656 1.222-.94 1.504l-18.4756 8.9922c-.2295.1151-.4806.1709-.7308.1708z"/><path id="_216383672" d="m30.3039 109.129c-.2506 0-.5018-.0553-.7316-.1702l-18.4722-8.9962c-.5741-.2784-.9401-.8597-.9401-1.5002l.0001-23.5102c0-.9224.7484-1.6709 1.671-1.6709s1.671.7486 1.671 1.6711l.0004 22.4652 16.8014 8.1814 16.8013-8.1814v-22.4654c0-.9224.7479-1.6709 1.6706-1.6709.9261 0 1.6745.7486 1.6745 1.6711l.0004 23.5098c0 .6404-.366 1.2221-.9404 1.5006l-18.4756 8.9959c-.2295.1147-.4806.1706-.7308.1703z"/><path id="_216383384" d="m30.3039 109.129c-.9228 0-1.6716-.7481-1.6716-1.6707v-23.5102c0-.9223.7484-1.6708 1.6711-1.6708.9232-.0004 1.6711.7485 1.6711 1.6711l.0002 23.5098c0 .9224-.7488 1.6711-1.6708 1.6708z"/><path id="_216383480" d="m43.8466 26.0384 14.6527 7.1336 14.6567-7.1336-14.6567-7.1368zm14.6527 10.6637c-.2467 0-.4978-.0556-.7312-.167l-18.4718-8.9963c-.5749-.2785-.9404-.863-.9404-1.5001.0005-.6407.3655-1.2255.9399-1.504l18.4727-8.9963c.4629-.2225 1.0023-.2225 1.4653.0004l18.4724 8.9956c.575.2788.9399.8637.9399 1.5043.0001.6369-.3655 1.2219-.94 1.5004l-18.4721 8.9957c-.2333.1116-.4841.1674-.7347.1673z"/><path id="_216383744" d="m58.4993 60.2121c-.2467 0-.4978-.0557-.7312-.1671l-18.4718-8.9961c-.5749-.2785-.9404-.8632-.9404-1.5038l.0005-23.5067c0-.9224.748-1.6708 1.6705-1.6708.923 0 1.6711.7485 1.6711 1.6711v22.4616l16.8013 8.1814 16.8053-8.1814v-22.4619c0-.9224.7478-1.6708 1.6705-1.6708.923 0 1.671.7485 1.671 1.6711l.0001 23.5062c0 .6408-.3656 1.2257-.9401 1.5043l-18.4721 8.9956c-.2333.1113-.4841.1673-.7347.1673z"/><path id="_216383576" d="m58.4993 60.2121c-.9219 0-1.6711-.7484-1.6711-1.671l.0003-23.5103c0-.9223.7482-1.6707 1.6707-1.6707.9268-.0001 1.6712.7485 1.6712 1.671l.0006 23.5098c0 .9228-.7457 1.6712-1.6717 1.6712z"/><path id="_216383504" d="m100.238 26.0384 14.6566 7.1336 14.6567-7.1336-14.6567-7.1368zm14.6566 10.6637c-.2507 0-.5017-.0556-.7315-.167l-18.4723-8.9963c-.5741-.2785-.9401-.863-.9401-1.5001.0001-.6407.3657-1.2255.9401-1.504l18.473-8.9963c.463-.2225 1.002-.2225 1.4616.0004l18.4762 8.9956c.5741.2788.9394.8637.9394 1.5043-.0034.6369-.3654 1.2219-.9398 1.5004l-18.4757 8.9957c-.2296.1116-.4806.1674-.7309.1673z"/><path id="_216383360" d="m114.895 60.2121c-.2507 0-.5017-.0557-.7315-.1671l-18.4723-8.9961c-.5741-.2785-.9401-.8632-.9401-1.5038l.0001-23.5067c0-.9224.7486-1.6708 1.6711-1.6708.9233 0 1.6711.7485 1.6711 1.6711l.0003 22.4616 16.8013 8.1814 16.8014-8.1814v-22.4619c0-.9224.7479-1.6708 1.6705-1.6708.9261 0 1.6745.7485 1.6745 1.6711l.0005 23.5062c0 .6408-.3659 1.2257-.9403 1.5043l-18.4757 8.9956c-.2296.1113-.4806.1673-.7309.1673z"/><path id="_216383240" d="m114.895 60.2121c-.9227 0-1.6714-.7484-1.6714-1.671l.0007-23.5103c0-.9223.7478-1.6707 1.6703-1.6707.9232-.0001 1.6711.7485 1.6711 1.671l.0001 23.5098c0 .9228-.7486 1.6712-1.6708 1.6712z"/><path id="_216383696" d="m128.438 74.9522 14.6566 7.1367 14.6535-7.1367-14.6535-7.1369zm14.6566 10.6672c-.2507 0-.5017-.0557-.735-.1706l-18.4719-8.9927c-.5741-.282-.9404-.8631-.9404-1.5037.0004-.6371.3656-1.222.94-1.5005l18.4726-8.9962c.4629-.2264 1.0024-.226 1.4654.0003l18.4723 8.9958c.5749.2783.9399.8635.9399 1.5006 0 .6405-.3655 1.222-.9399 1.504l-18.4722 8.9922c-.2334.1151-.484.1709-.7308.1708z"/><path id="_216383456" d="m143.094 109.129c-.2507 0-.5017-.0553-.735-.1702l-18.4719-8.9962c-.5741-.2784-.9404-.8597-.9404-1.5002l.0004-23.5102c0-.9224.7481-1.6709 1.6706-1.6709.923 0 1.6711.7486 1.6711 1.6711l.0007 22.4652 16.8045 8.1814 16.8014-8.1814v-22.4654c0-.9224.7479-1.6709 1.6705-1.6709.923 0 1.671.7486 1.671 1.6711v23.5098c0 .6404-.3655 1.2221-.9399 1.5006l-18.4722 8.9959c-.2334.1147-.484.1706-.7308.1703z"/><path id="_216383192" d="m143.094 109.129c-.9259 0-1.6715-.7481-1.6715-1.6707l.0007-23.5102c0-.9223.7443-1.6708 1.6704-1.6708.9232-.0004 1.6676.7485 1.6676 1.6711l.0005 23.5098c0 .9224-.7455 1.6711-1.6677 1.6708z"/><path id="_216382784" d="m100.238 123.852 14.6566 7.1333 14.6567-7.1333-14.6567-7.1371zm14.6566 10.6633c-.2507 0-.5017-.0554-.7315-.1668l-18.4723-8.9961c-.5741-.2784-.9401-.8633-.9401-1.5004.0001-.6408.3657-1.2255.9401-1.504l18.473-8.9959c.463-.2229 1.002-.2228 1.4616 0l18.4762 8.9959c.5741.2785.9394.8634.9394 1.504.0005.6368-.3654 1.222-.9398 1.5005l-18.4757 8.996c-.2296.1112-.4806.1671-.7309.1668z"/><path id="_216382808" d="m114.895 158.026c-.2507 0-.5017-.0557-.7315-.1705l-18.4723-8.9927c-.5741-.2821-.9401-.8631-.9401-1.5037l.0001-23.5065c0-.9263.7486-1.671 1.6711-1.671.9233-.0001 1.6711.745 1.6711 1.671l.0003 22.462 16.8013 8.1813 16.8045-8.1813v-22.462c0-.9263.7448-1.671 1.671-1.671.9225-.0001 1.6709.745 1.6709 1.671l.0005 23.5062c0 .6408-.3659 1.2222-.9403 1.5043l-18.4757 8.9921c-.2296.1151-.4806.1709-.7309.1708z"/><path id="_216382472" d="m114.895 158.026c-.9227 0-1.6714-.7484-1.6714-1.6709l.0007-23.51c0-.9228.7478-1.6711 1.6703-1.6711.9232-.0001 1.6711.7485 1.6711 1.6711l.0001 23.5097c0 .9227-.7486 1.6713-1.6708 1.6712z"/><path id="_216382544" d="m43.8466 123.852 14.6567 7.1333 14.6527-7.1333-14.6527-7.1371zm14.6567 10.6633c-.2507 0-.5018-.0554-.7352-.1668l-18.4718-8.9961c-.5749-.2784-.9404-.8633-.9404-1.5004.0005-.6408.3655-1.2255.9399-1.504l18.4727-8.9959c.4629-.2229 1.0023-.2228 1.4653 0l18.4724 8.9959c.575.2785.9399.8634.9399 1.504.0001.6368-.3655 1.222-.94 1.5005l-18.4721 8.996c-.2333.1112-.4841.1671-.7307.1668z"/><path id="_216382640" d="m58.5033 158.026c-.2507 0-.5018-.0557-.7352-.1705l-18.4718-8.9927c-.5749-.2821-.9404-.8631-.9404-1.5037l.0005-23.5065c0-.9263.748-1.671 1.6705-1.671.923-.0001 1.6711.745 1.6711 1.671v22.462l16.8053 8.1813 16.8013-8.1813v-22.462c0-.9263.7478-1.671 1.6705-1.671.923-.0001 1.671.745 1.671 1.671l.0001 23.5062c0 .6408-.3656 1.2222-.9401 1.5043l-18.4721 8.9921c-.2333.1151-.4841.1709-.7307.1708z"/><path id="_216382592" d="m58.5033 158.026c-.9259 0-1.6717-.7484-1.6717-1.6709v-23.51c0-.9228.7451-1.6711 1.6712-1.6711.9232-.0001 1.6676.7485 1.6676 1.6711l.0006 23.5097c0 .9227-.7457 1.6713-1.6677 1.6712z"/><path id="_216382904" d="m124.618 88.7037h-75.8421c-.9229 0-1.6715-.7482-1.6715-1.6709.0006-.9227.7485-1.671 1.6712-1.671l75.8424-.0002c.9228 0 1.6709.7487 1.6709 1.6712.0007.9224-.7484 1.6712-1.6709 1.6709z"/></g><path d="m28.6323 104.785v-19.7938l-15.1302-7.3657.0004 19.7921z" fill="#83dbf2"/><path d="m31.9745 84.9912.0002 19.7942 15.1305-7.3678v-10.3396c-.0004-.015-.0006-.0301-.0006-.0452 0-.0147.0002-.0294.0006-.0441v-9.3617z" fill="#83dbf2"/><path d="m30.3039 82.0889 14.6566-7.1367-14.6566-7.1369-14.6566 7.1369z" fill="#e7e7e8"/><path d="m41.698 48.5003 15.1302 7.3677.0003-19.7905-15.1305-7.369z" fill="#83dbf2"/><path d="m60.1704 36.0788.0005 19.7891 15.1337-7.3676v-19.7917z" fill="#83dbf2"/><path d="m43.8466 26.0384 14.6527 7.1336 14.6567-7.1336-14.6567-7.1368z" fill="#e7e7e8"/><path d="m98.0933 28.7087.0003 19.7916 15.1304 7.3675v-19.7901z" fill="#83dbf2"/><path d="m116.566 36.0772v19.7909l15.13-7.3678v-19.7901z" fill="#83dbf2"/><path d="m114.895 33.172 14.657-7.1336-14.657-7.1368-14.657 7.1368z" fill="#e7e7e8"/><path d="m143.094 67.8153-14.656 7.1369 14.656 7.1367 14.654-7.1367z" fill="#e7e7e8"/><path d="m159.896 77.6255-15.134 7.3673v19.7942l15.134-7.3694z" fill="#83dbf2"/><path d="m129.552 123.852-14.657-7.137-14.657 7.137 14.657 7.134z" fill="#e7e7e8"/><g fill="#83dbf2"><path d="m113.224 133.891-15.1307-7.368.0003 19.791 15.1304 7.368z"/><path d="m116.566 133.891v19.791l15.133-7.368v-19.792z"/><path d="m75.3046 146.314v-19.792l-15.1342 7.371.0005 19.79z"/><path d="m56.8316 153.682v-19.789l-15.1336-7.371v19.792z"/></g><path d="m58.5033 130.986 14.6527-7.134-14.6527-7.137-14.6567 7.137z" fill="#e7e7e8"/></g></svg>