<?xml version="1.0" encoding="UTF-8"?>
<svg xmlns="http://www.w3.org/2000/svg" xmlns:xlink="http://www.w3.org/1999/xlink" id="Gradient" viewBox="0 0 512 512" width="512" height="512"><defs><linearGradient id="linear-gradient" x1="256" y1="496" x2="256" y2="16" gradientUnits="userSpaceOnUse"><stop offset="0" stop-color="#12bee5"/><stop offset="0.5" stop-color="#c071e9"/><stop offset="1" stop-color="#f24f5a"/></linearGradient></defs><path d="M456,416H430.624A23.889,23.889,0,0,0,432,408V269.959A64,64,0,0,0,416,144H400a79.97,79.97,0,0,0-95.412-78.495,104.026,104.026,0,0,0-189.8,78.5H96A64,64,0,0,0,80,269.959V408a23.889,23.889,0,0,0,1.376,8H56a8,8,0,0,0-8,8,72.081,72.081,0,0,0,72,72H392a72.081,72.081,0,0,0,72-72A8,8,0,0,0,456,416ZM48,208a48.053,48.053,0,0,1,48-48h29.47a8,8,0,0,0,7.542-10.667,88.016,88.016,0,0,1,160.569-70.89,8,8,0,0,0,9.2,3.923,63.968,63.968,0,0,1,80.82,68.757A8,8,0,0,0,391.55,160H416a48,48,0,0,1,16,93.249V200a24.028,24.028,0,0,0-24-24H288V160h16a8,8,0,0,0,5.657-13.657l-48-48a8,8,0,0,0-11.314,0l-48,48A8,8,0,0,0,208,160h16v16H104a24.028,24.028,0,0,0-24,24v53.249A48.269,48.269,0,0,1,48,208Zm224-56V256H240V152a8,8,0,0,0-8-8h-4.687L256,115.314,284.686,144H280A8,8,0,0,0,272,152Zm-48,88H128V224h96Zm-96,16h96v8a8,8,0,0,0,8,8h48a8,8,0,0,0,8-8v-8h96V384H128Zm256-16H288V224h96ZM96,408V200a8.009,8.009,0,0,1,8-8H224v16H120a8,8,0,0,0-8,8V392a8,8,0,0,0,8,8H392a8,8,0,0,0,8-8V216a8,8,0,0,0-8-8H288V192H408a8.009,8.009,0,0,1,8,8V408a8.009,8.009,0,0,1-8,8H104A8.009,8.009,0,0,1,96,408Zm211.056,24-5.789,11.578A7.958,7.958,0,0,1,294.111,448H217.889a7.957,7.957,0,0,1-7.156-4.423L204.945,432ZM392,480H120a56.089,56.089,0,0,1-55.431-48H187.056l9.367,18.732A23.867,23.867,0,0,0,217.889,464h76.222a23.868,23.868,0,0,0,21.466-13.267L324.944,432H447.431A56.089,56.089,0,0,1,392,480ZM152,288a8,8,0,1,0,8,8A8,8,0,0,0,152,288Zm0,32a8,8,0,1,0,8,8A8,8,0,0,0,152,320Zm0,32a8,8,0,1,0,8,8A8,8,0,0,0,152,352Zm32-48h16a8,8,0,0,0,0-16H184a8,8,0,0,0,0,16Zm80,16H184a8,8,0,0,0,0,16h80a8,8,0,0,0,0-16Zm96,0H296a8,8,0,0,0,0,16h64a8,8,0,0,0,0-16Zm-96,32H184a8,8,0,0,0,0,16h80a8,8,0,0,0,0-16Z" style="fill:url(#linear-gradient)"/></svg>
