<svg clip-rule="evenodd" fill-rule="evenodd" height="512" stroke-linejoin="round" stroke-miterlimit="2" viewBox="0 0 267 267" width="512" xmlns="http://www.w3.org/2000/svg"><path d="m113.304 66.512v102.787c0 5.294 4.297 9.591 9.591 9.591h102.204c5.294 0 9.592-4.297 9.592-9.591v-102.234c0-.647.3-1.257.813-1.651.512-.394 1.179-.528 1.804-.362 7.987 2.119 13.881 9.403 13.881 18.053v124.089c0 10.308-8.369 18.677-18.677 18.677h-198.358c-10.308 0-18.676-8.369-18.676-18.677v-124.089c0-10.308 8.368-18.676 18.676-18.676h77.066c1.151 0 2.084.932 2.084 2.083z" fill="#e1e3ff"/><path d="m28.584 130.296c0-3.776 3.061-6.837 6.836-6.837h53.565c3.775 0 6.836 3.061 6.836 6.837v45.46c0 3.547-2.88 6.427-6.427 6.427h-54.383c-3.547 0-6.427-2.88-6.427-6.427z" fill="#456dff"/><path d="m95.821 105.447c0 1.813-.72 3.552-2.002 4.834s-3.021 2.002-4.834 2.002h-53.565c-1.813 0-3.552-.72-4.834-2.002s-2.002-3.021-2.002-4.834v-21.485c0-3.547 2.88-6.427 6.427-6.427h54.383c3.547 0 6.427 2.88 6.427 6.427z" fill="#f2890d"/><path d="m238.857 28.424v140.875c0 7.593-6.164 13.758-13.758 13.758h-102.204c-7.593 0-13.758-6.165-13.758-13.758v-140.875c0-7.593 6.165-13.758 13.758-13.758h102.204c7.594 0 13.758 6.165 13.758 13.758z" fill="#fff8e1"/><path d="m227.411 29.344v35.017c0 2.338-1.896 4.234-4.235 4.234h-41.819c-2.339 0-4.235-1.896-4.235-4.234v-35.017c0-2.338 1.896-4.234 4.235-4.234h41.819c2.339 0 4.235 1.896 4.235 4.234z" fill="#f2890d"/><path d="m145.86 79.364v9.246c0 3.42-2.777 6.198-6.198 6.198h-8.23c-3.42 0-6.198-2.778-6.198-6.198v-9.246c0-3.421 2.778-6.198 6.198-6.198h8.23c3.421 0 6.198 2.777 6.198 6.198zm0 37.146v9.245c0 3.421-2.777 6.198-6.198 6.198h-8.23c-3.42 0-6.198-2.777-6.198-6.198v-9.245c0-3.421 2.778-6.198 6.198-6.198h8.23c3.421 0 6.198 2.777 6.198 6.198zm0 37.146v9.245c0 3.421-2.777 6.198-6.198 6.198h-8.23c-3.42 0-6.198-2.777-6.198-6.198v-9.245c0-3.421 2.778-6.199 6.198-6.199h8.23c3.421 0 6.198 2.778 6.198 6.199z" fill="#43ff32"/><path d="m216.34 247.917c1.15 0 2.083.932 2.083 2.083s-.933 2.083-2.083 2.083h-163.829v-4.166c13.211 0 21.461-2.949 26.808-7.592 5.298-4.6 7.693-10.802 9.402-17.084.247-.907 1.07-1.537 2.01-1.537h87.389c.94 0 1.763.63 2.01 1.537 1.709 6.282 4.104 12.484 9.402 17.084 5.347 4.643 13.597 7.592 26.808 7.592z" fill="#3f3773"/><path d="m251.189 194.328v12.866c0 10.308-8.369 18.677-18.677 18.677h-198.358c-10.308 0-18.676-8.369-18.676-18.677v-12.866z" fill="#3f3773"/><path d="m28.23 252.083c-1.149 0-2.083-.933-2.083-2.083s.934-2.083 2.083-2.083h212.391c1.15 0 2.083.933 2.083 2.083s-.933 2.083-2.083 2.083z" fill="#3f3773"/><g fill="#1b2256"><path d="m17.561 194.328h231.545c1.15 0 2.083.933 2.083 2.083v10.783c0 10.308-8.369 18.677-18.677 18.677h-198.358c-10.308 0-18.676-8.369-18.676-18.677v-10.783c0-1.15.932-2.083 2.083-2.083zm2.083 4.167v8.699c0 8.008 6.502 14.51 14.51 14.51h198.358c8.009 0 14.51-6.502 14.51-14.51v-8.699z"/><path d="m108.481 212.183c-1.15 0-2.084-.934-2.084-2.084s.934-2.083 2.084-2.083h49.705c1.15 0 2.083.933 2.083 2.083s-.933 2.084-2.083 2.084z"/><path d="m28.23 252.083c-1.149 0-2.083-.933-2.083-2.083s.934-2.083 2.083-2.083h212.391c1.15 0 2.083.933 2.083 2.083s-.933 2.083-2.083 2.083z"/><path d="m216.34 247.917c1.15 0 2.083.932 2.083 2.083s-.933 2.083-2.083 2.083h-163.829v-4.166c13.211 0 21.461-2.949 26.808-7.592 5.298-4.6 7.693-10.802 9.402-17.084.247-.907 1.07-1.537 2.01-1.537h87.389c.94 0 1.763.63 2.01 1.537 1.709 6.282 4.104 12.484 9.402 17.084 5.347 4.643 13.597 7.592 26.808 7.592zm-141.188 0h118.547c-2.693-1.263-4.964-2.766-6.899-4.446-5.522-4.795-8.344-11.081-10.257-17.6l-84.235-.001c-1.913 6.521-4.735 12.806-10.257 17.601-1.934 1.68-4.206 3.183-6.899 4.446z"/><path d="m28.584 130.296c0-3.776 3.061-6.837 6.836-6.837h53.565c3.775 0 6.836 3.061 6.836 6.837v45.46c0 3.547-2.88 6.427-6.427 6.427h-54.383c-3.547 0-6.427-2.88-6.427-6.427zm4.167 0v45.46c0 1.248 1.013 2.26 2.26 2.26h54.383c1.247 0 2.26-1.012 2.26-2.26v-45.46c0-1.475-1.195-2.67-2.669-2.67h-53.565c-1.474 0-2.669 1.195-2.669 2.67zm63.07-24.849c0 1.813-.72 3.552-2.002 4.834s-3.021 2.002-4.834 2.002h-53.565c-1.813 0-3.552-.72-4.834-2.002s-2.002-3.021-2.002-4.834v-21.485c0-3.547 2.88-6.427 6.427-6.427h54.383c3.547 0 6.427 2.88 6.427 6.427zm-4.167 0v-21.485c0-1.248-1.013-2.26-2.26-2.26h-54.383c-1.247 0-2.26 1.012-2.26 2.26v21.485c0 .708.281 1.387.782 1.887.5.501 1.179.782 1.887.782h53.565c.708 0 1.387-.281 1.887-.782.501-.5.782-1.179.782-1.887z"/><path d="m113.304 66.512v102.787c0 5.294 4.297 9.591 9.591 9.591h102.204c5.294 0 9.592-4.297 9.592-9.591v-102.234c0-.647.3-1.257.813-1.651.512-.394 1.179-.528 1.804-.362 7.987 2.119 13.881 9.403 13.881 18.053v124.089c0 10.308-8.369 18.677-18.677 18.677h-198.358c-10.308 0-18.676-8.369-18.676-18.677v-124.089c0-10.308 8.368-18.676 18.676-18.676h77.066c1.151 0 2.084.932 2.084 2.083zm-4.167 2.083h-74.983c-8.008 0-14.51 6.502-14.51 14.51v124.089c0 8.008 6.502 14.51 14.51 14.51h198.358c8.009 0 14.51-6.502 14.51-14.51v-124.089c0-5.734-3.333-10.696-8.165-13.051v99.245c0 7.593-6.164 13.758-13.758 13.758h-102.204c-7.593 0-13.758-6.165-13.758-13.758z"/><path d="m238.857 28.424v140.875c0 7.593-6.164 13.758-13.758 13.758h-102.204c-7.593 0-13.758-6.165-13.758-13.758v-140.875c0-7.593 6.165-13.758 13.758-13.758h102.204c7.594 0 13.758 6.165 13.758 13.758zm-4.166 0c0-5.294-4.298-9.592-9.592-9.592h-102.204c-5.294 0-9.591 4.298-9.591 9.592v140.875c0 5.294 4.297 9.591 9.591 9.591h102.204c5.294 0 9.592-4.297 9.592-9.591z"/><path d="m127.318 39.7c-1.15 0-2.084-.933-2.084-2.083s.934-2.083 2.084-2.083h36.472c1.149 0 2.083.933 2.083 2.083s-.934 2.083-2.083 2.083z"/><path d="m127.318 56.048c-1.15 0-2.084-.933-2.084-2.083s.934-2.083 2.084-2.083h36.472c1.149 0 2.083.933 2.083 2.083s-.934 2.083-2.083 2.083z"/><path d="m227.411 29.344v35.017c0 2.338-1.896 4.234-4.235 4.234h-41.819c-2.339 0-4.235-1.896-4.235-4.234v-35.017c0-2.338 1.896-4.234 4.235-4.234h41.819c2.339 0 4.235 1.896 4.235 4.234zm-4.167 0c0-.037-.03-.068-.068-.068h-41.819c-.038 0-.068.031-.068.068v35.017c0 .037.03.068.068.068h41.819c.038 0 .068-.031.068-.068z"/><path d="m145.86 79.364v9.246c0 3.42-2.777 6.198-6.198 6.198h-8.23c-3.42 0-6.198-2.778-6.198-6.198v-9.246c0-3.421 2.778-6.198 6.198-6.198h8.23c3.421 0 6.198 2.777 6.198 6.198zm-4.166 0c0-1.121-.911-2.031-2.032-2.031h-8.23c-1.121 0-2.031.91-2.031 2.031v9.246c0 1.121.91 2.031 2.031 2.031h8.23c1.121 0 2.032-.91 2.032-2.031z"/><path d="m145.86 116.51v9.245c0 3.421-2.777 6.198-6.198 6.198h-8.23c-3.42 0-6.198-2.777-6.198-6.198v-9.245c0-3.421 2.778-6.198 6.198-6.198h8.23c3.421 0 6.198 2.777 6.198 6.198zm-4.166 0c0-1.121-.911-2.032-2.032-2.032h-8.23c-1.121 0-2.031.911-2.031 2.032v9.245c0 1.121.91 2.032 2.031 2.032h8.23c1.121 0 2.032-.911 2.032-2.032z"/><path d="m145.86 153.656v9.245c0 3.421-2.777 6.198-6.198 6.198h-8.23c-3.42 0-6.198-2.777-6.198-6.198v-9.245c0-3.421 2.778-6.199 6.198-6.199h8.23c3.421 0 6.198 2.778 6.198 6.199zm-4.166 0c0-1.122-.911-2.032-2.032-2.032h-8.23c-1.121 0-2.031.91-2.031 2.032v9.245c0 1.121.91 2.031 2.031 2.031h8.23c1.121 0 2.032-.91 2.032-2.031z"/><path d="m154.291 79.773c-1.15 0-2.083-.933-2.083-2.083s.933-2.083 2.083-2.083h71.037c1.149 0 2.083.933 2.083 2.083s-.934 2.083-2.083 2.083z"/><path d="m154.291 116.919c-1.15 0-2.083-.933-2.083-2.083s.933-2.084 2.083-2.084h71.037c1.149 0 2.083.934 2.083 2.084s-.934 2.083-2.083 2.083z"/><path d="m154.291 154.065c-1.15 0-2.083-.934-2.083-2.084 0-1.149.933-2.083 2.083-2.083h71.037c1.149 0 2.083.934 2.083 2.083 0 1.15-.934 2.084-2.083 2.084z"/><path d="m154.291 92.367c-1.15 0-2.083-.933-2.083-2.083s.933-2.083 2.083-2.083h41.263c1.15 0 2.083.933 2.083 2.083s-.933 2.083-2.083 2.083z"/><path d="m154.291 129.513c-1.15 0-2.083-.934-2.083-2.083 0-1.15.933-2.084 2.083-2.084h41.263c1.15 0 2.083.934 2.083 2.084 0 1.149-.933 2.083-2.083 2.083z"/><path d="m154.291 166.658c-1.15 0-2.083-.933-2.083-2.083s.933-2.083 2.083-2.083h41.263c1.15 0 2.083.933 2.083 2.083s-.933 2.083-2.083 2.083z"/><path d="m190.19 42.639c-1.149 0-2.083-.934-2.083-2.083 0-1.15.934-2.084 2.083-2.084h24.153c1.149 0 2.083.934 2.083 2.084 0 1.149-.934 2.083-2.083 2.083z"/><path d="m190.19 55.233c-1.149 0-2.083-.934-2.083-2.084 0-1.149.934-2.083 2.083-2.083h24.153c1.149 0 2.083.934 2.083 2.083 0 1.15-.934 2.084-2.083 2.084z"/></g></svg>