<svg enable-background="new 0 0 256 256" viewBox="0 0 256 256" xmlns="http://www.w3.org/2000/svg"><g id="Layer_1"/><g id="Layer_2"/><g id="Layer_3"/><g id="Layer_4"/><g id="Layer_5"/><g id="Layer_6"/><g id="Layer_7"/><g id="Layer_8"/><g id="Layer_9"/><g id="Layer_10"/><g id="Layer_11"/><g id="Layer_12"/><g id="Layer_13"/><g id="Layer_14"/><g id="Layer_15"/><g id="Layer_16"/><g id="Layer_17"/><g id="Layer_18"/><g id="Layer_19"/><g id="Layer_20"/><g id="Layer_21"/><g id="Layer_22"/><g id="Layer_23"/><g id="Layer_24"/><g id="Layer_25"/><g id="Layer_26"/><g id="Layer_27"/><g id="Layer_28"/><g id="Layer_29"/><g id="Layer_30"/><g id="Layer_31"/><g id="Layer_32"/><g id="Layer_33"/><g id="Layer_34"/><g id="Layer_35"/><g id="Layer_36"/><g id="Layer_37"/><g id="Layer_38"/><g id="Layer_39"/><g id="Layer_40"/><g id="Layer_41"/><g id="Layer_42"/><g id="Layer_43"/><g id="Layer_44"/><g id="Layer_45"/><g id="Layer_46"/><g id="Layer_47"/><g id="Layer_48"/><g id="Layer_49"/><g id="Layer_50"/><g id="Layer_51"/><g id="Layer_52"/><g id="Layer_53"/><g id="Layer_54"/><g id="Layer_55"/><g id="Layer_56"/><g id="Layer_57"/><g id="Layer_58"/><g id="Layer_59"/><g id="Layer_60"/><g id="Layer_61"/><g id="Layer_62"/><g id="Layer_63"/><g id="Layer_64"/><g id="Layer_65"/><g id="Layer_66"/><g id="Layer_67"/><g id="Layer_68"/><g id="Layer_69"/><g id="Layer_70"><g><g><path d="m34.8378 11.2412v233.5175c0 4.8277 3.9136 8.7412 8.7412 8.7412h168.8419c4.8277 0 8.7412-3.9136 8.7412-8.7412v-233.5175c0-4.8277-3.9136-8.7412-8.7412-8.7412h-168.8418c-4.8277 0-8.7413 3.9136-8.7413 8.7412z" fill="#edf4fc"/></g><g><path d="m212.4209 2.5h-168.8418c-4.8276 0-8.7413 3.9136-8.7413 8.7412v16.2588h186.3243v-16.2588c.0001-4.8276-3.9135-8.7412-8.7412-8.7412z" fill="#5290db"/></g><g><path d="m61.5 2.5h-17.9209c-4.8276 0-8.7413 3.9136-8.7413 8.7412v16.2588h26.6622z" fill="#fc657e"/></g><g><path d="m178.962 104.3037h-16.0155c-4.2742 0-7.7397 3.4655-7.7397 7.7397 0 3.4674 2.2808 6.4016 5.4236 7.3864l-20.1113 20.1109-19.2996-19.299c-1.4518-1.4525-3.4202-2.2675-5.4729-2.2675s-4.0217.815-5.4729 2.2675l-31.8502 31.8508c-3.0227 3.0221-3.0227 7.9224 0 10.9445 1.5117 1.5117 3.492 2.2675 5.4729 2.2675s3.9618-.7558 5.4729-2.2675l26.3773-26.3773 19.2996 19.299c3.0221 3.0233 7.9237 3.0233 10.9457 0l25.5836-25.5837c.9845 3.1433 3.919 5.4244 7.3866 5.4244 4.2742 0 7.7397-3.4655 7.7397-7.7397v-16.0161c-.0001-4.2744-3.4656-7.7399-7.7398-7.7399z" fill="#70d6f9"/></g><g><g><path d="m180.9225 77.0566-10.4517-10.4514c-1.5751-1.575-4.1283-1.5752-5.703-.0002-1.5994 1.5991-3.7716 3.7715-6.3916 6.3916-1.2786 1.2783-3.2589 1.563-4.8265.6624-4.0216-2.3108-8.3636-4.1265-12.943-5.3645-1.7424-.4709-2.9365-2.0747-2.9365-3.8794v-9.0339c0-2.2273-1.8055-4.033-4.0328-4.033h-14.7808c-2.2273 0-4.0328 1.8057-4.0328 4.033v9.0339c0 1.8047-1.1941 3.4084-2.9365 3.8794-4.5795 1.238-8.9214 3.0537-12.943 5.3645-1.5676.9006-3.548.616-4.8264-.6624l-6.3915-6.3914c-1.575-1.575-4.1283-1.575-5.7034 0l-10.4515 10.4514c-1.575 1.575-1.5751 4.1284 0 5.7036 1.6001 1.5999 3.772 3.772 6.3914 6.3911 1.2784 1.2786 1.563 3.2588.6622 4.8267-2.3107 4.0215-4.1263 8.3633-5.3644 12.9431-.4709 1.7422-2.075 2.9363-3.8796 2.9363h-9.0337c-2.2273 0-4.0328 1.8054-4.0328 4.0327v14.7808c0 2.2273 1.8055 4.0332 4.0328 4.0332h9.0337c1.8047 0 3.4087 1.1938 3.8796 2.9363 1.238 4.5796 3.0537 8.9211 5.3644 12.9431.5193.9036.6326 1.9419.4008 2.9067l15.8718-15.8723c-5.3079-12.4761-2.8906-27.4834 7.2693-37.6433 13.3472-13.3469 35.0643-13.3469 48.4114 0 2.7188 2.719 4.8604 5.793 6.4689 9.0654l-.0004.0005c1.4197-1.6724 3.5342-2.7368 5.8997-2.7368h15.4868c-1.1764-3.6187-2.7-7.0806-4.5645-10.3257-.9008-1.5679-.6165-3.5481.662-4.8264 2.6202-2.6204 4.7924-4.7925 6.3917-6.3918 1.575-1.575 1.5746-4.1282-.0001-5.7032z" fill="#f5c84c"/></g></g><g><path d="m23.0131 212.2c-3.1-.6-5.6-3-6.2-6.1 0-.1-.3-.1-.3 0-.6 3.1-3.1 5.5-6.2 6.1-.1 0-.1.2 0 .3 3.1.6 5.6 3 6.2 6.1 0 .1.3.1.3 0 .6-3.1 3.1-5.5 6.2-6.1.1-.1.1-.3 0-.3z" fill="#87d147"/></g><g><path d="m3.205 119.5h2.3v2.3c0 1.8 1.4 3.2 3.2 3.2 1.7 0 3.2-1.4 3.2-3.1v-.1-2.3h2.3c1.8 0 3.2-1.4 3.2-3.2 0-1.7-1.4-3.2-3.1-3.2h-.1-2.3v-2.3c0-1.8-1.4-3.2-3.2-3.2-1.7 0-3.2 1.4-3.2 3.1v.1 2.3h-2.3c-1.8 0-3.2 1.4-3.2 3.2-.0999 1.7 1.3001 3.2 3.2 3.2-.0999 0-.0999 0 0 0z" fill="#70d6f9"/></g><g><circle cx="240.413" cy="215.9" fill="#fc657e" r="3.4"/></g><g><circle cx="14.413" cy="56.4" fill="#f5c84c" r="3.4"/></g><g><path d="m237.65 146.2c4.5-.8 8-4.3 8.9-8.7 0-.2.4-.2.4 0 .9 4.4 4.4 7.9 8.9 8.7.2 0 .2.3 0 .4-4.5.8-8 4.3-8.9 8.7 0 .2-.4.2-.4 0-.9-4.4-4.4-7.9-8.9-8.7-.2-.1-.2-.4 0-.4z" fill="#f5c84c"/></g><g><path d="m212.4209 256h-168.8418c-6.1982 0-11.2412-5.043-11.2412-11.2412v-233.5176c0-6.1982 5.043-11.2412 11.2412-11.2412h168.8418c6.1982 0 11.2412 5.043 11.2412 11.2412v233.5176c0 6.1982-5.043 11.2412-11.2412 11.2412zm-168.8418-251c-3.4414 0-6.2412 2.7998-6.2412 6.2412v233.5176c0 3.4414 2.7998 6.2412 6.2412 6.2412h168.8418c3.4414 0 6.2412-2.7998 6.2412-6.2412v-233.5176c0-3.4414-2.7998-6.2412-6.2412-6.2412z"/></g><g><path d="m176.7461 18h-99.7012c-1.3809 0-2.5-1.1191-2.5-2.5s1.1191-2.5 2.5-2.5h99.7012c1.3809 0 2.5 1.1191 2.5 2.5s-1.1191 2.5-2.5 2.5z"/></g><g><path d="m204.625 18h-12.3643c-1.3809 0-2.5-1.1191-2.5-2.5s1.1191-2.5 2.5-2.5h12.3643c1.3809 0 2.5 1.1191 2.5 2.5s-1.1191 2.5-2.5 2.5z"/></g><g><path d="m221.1621 30h-186.3242c-1.3809 0-2.5-1.1191-2.5-2.5v-16.2588c0-6.1982 5.043-11.2412 11.2412-11.2412h168.8418c6.1982 0 11.2412 5.043 11.2412 11.2412v16.2588c0 1.3809-1.1191 2.5-2.5 2.5zm-183.8242-5h181.3242v-13.7588c0-3.4414-2.7998-6.2412-6.2412-6.2412h-168.8418c-3.4414 0-6.2412 2.7998-6.2412 6.2412z"/></g><g><path d="m61.5 30h-26.6621c-1.3809 0-2.5-1.1191-2.5-2.5v-16.2588c0-6.1982 5.043-11.2412 11.2412-11.2412h17.9209c1.3809 0 2.5 1.1191 2.5 2.5v25c0 1.3809-1.1191 2.5-2.5 2.5zm-24.1621-5h21.6621v-20h-15.4209c-3.4414 0-6.2412 2.7998-6.2412 6.2412z"/></g><g><path d="m83.8965 167.8047c-2.7344 0-5.3057-1.0654-7.2402-3-1.9346-1.9336-3-4.5049-3-7.2402s1.0654-5.3066 3-7.2402l31.8496-31.8496c1.9316-1.9346 4.5029-3 7.2402-3 2.7363 0 5.3086 1.0654 7.2422 3l17.5303 17.5312 15.9883-15.9893c-2.3594-1.8984-3.7998-4.792-3.7998-7.9727 0-5.6465 4.5938-10.2402 10.2393-10.2402h16.0156c5.6465 0 10.2402 4.5938 10.2402 10.2402v16.0156c0 5.6465-4.5938 10.2402-10.2402 10.2402-3.1807 0-6.0752-1.4404-7.9746-3.8018l-23.2275 23.2285c-1.9336 1.9346-4.5049 3-7.2412 3-2.7354 0-5.3066-1.0654-7.2402-3l-17.5322-17.5312-24.6094 24.6094c-1.9328 1.9347-4.5041 3.0001-7.2404 3.0001zm31.8496-47.3301c-1.4004 0-2.7158.5449-3.7041 1.5342l-31.8506 31.8516c-.9902.9902-1.5352 2.3047-1.5352 3.7041s.5449 2.7148 1.5352 3.7051 2.3057 1.5352 3.7051 1.5352 2.7148-.5449 3.7041-1.5352l26.3779-26.377c.9766-.9766 2.5586-.9766 3.5352 0l19.2998 19.2988c.9902.9902 2.3057 1.5352 3.7051 1.5352 1.4004 0 2.7158-.5449 3.7061-1.5352l25.583-25.584c.6191-.6191 1.5137-.8701 2.3643-.6602.8496.209 1.5273.8457 1.7891 1.6807.6875 2.1963 2.6973 3.6719 5.001 3.6719 2.8896 0 5.2402-2.3506 5.2402-5.2402v-16.0156c0-2.8896-2.3506-5.2402-5.2402-5.2402h-16.0156c-2.8887 0-5.2393 2.3506-5.2393 5.2402 0 2.3027 1.4746 4.3125 3.6699 5 .835.2617 1.4717.9404 1.6807 1.7891.209.8496-.042 1.7461-.6602 2.3643l-20.1113 20.1113c-.9766.9766-2.5586.9766-3.5352 0l-19.2988-19.2988c-.9904-.9904-2.3058-1.5353-3.7062-1.5353z"/></g><g><g><path d="m79.0244 153.9902c-.418 0-.8379-.1045-1.2217-.3193-.9766-.5479-1.4697-1.6777-1.208-2.7666.0918-.3799.043-.7607-.1367-1.0742-2.4453-4.2559-4.332-8.8105-5.6104-13.5371-.1738-.6416-.7764-1.0889-1.4668-1.0889h-9.0332c-3.6025 0-6.5332-2.9307-6.5332-6.5332v-14.7803c0-3.6025 2.9307-6.5332 6.5332-6.5332h9.0332c.6904 0 1.293-.4473 1.4668-1.0889 1.2783-4.7275 3.166-9.2812 5.6094-13.5352.333-.5801.2256-1.3271-.2617-1.8145l-6.3916-6.3916c-1.2344-1.2324-1.9141-2.873-1.9141-4.6191 0-1.7451.6797-3.3857 1.9141-4.6191l10.4521-10.4512c1.2324-1.2344 2.873-1.9141 4.6191-1.9141 1.7451 0 3.3857.6797 4.6191 1.9141l6.3916 6.3906c.4893.4893 1.2334.5977 1.8135.2627 4.2529-2.4443 8.8076-4.332 13.5352-5.6094.6416-.1738 1.0898-.7773 1.0898-1.4668v-9.0342c0-3.6025 2.9307-6.5332 6.5322-6.5332h14.7812c3.6016 0 6.5322 2.9307 6.5322 6.5332v9.0342c0 .6895.4482 1.293 1.0898 1.4668 4.7275 1.2773 9.2822 3.165 13.5361 5.6104.5781.3311 1.3242.2236 1.8115-.2627l6.3929-6.3925c2.5469-2.5449 6.6914-2.5459 9.2383.001l10.4521 10.4512h.001c2.5459 2.5479 2.5459 6.6924-.001 9.2383l-6.3916 6.3916c-.4883.4883-.5957 1.2334-.2617 1.8135 1.9297 3.3594 3.5361 6.9922 4.7734 10.7979.248.7617.1162 1.5947-.3545 2.2422-.4697.6484-1.2217 1.0312-2.0225 1.0312h-15.4873c-1.5371 0-2.9932.6758-3.9932 1.8555-.5459.6406-1.3838.9688-2.2139.8623-.8369-.1035-1.5645-.6221-1.9365-1.3779-1.543-3.1416-3.5596-5.9688-5.9922-8.4014-12.374-12.3721-32.5039-12.3701-44.876 0-9.1973 9.1982-11.8418 22.8965-6.7363 34.8975.3984.9385.1885 2.0254-.5332 2.7461l-15.8719 15.8719c-.4815.4815-1.1211.7324-1.7686.7324zm-18.6767-41.6328c-.8457 0-1.5332.6875-1.5332 1.5332v14.7803c0 .8457.6875 1.5332 1.5332 1.5332h9.0332c2.9443 0 5.5322 1.9678 6.293 4.7842 1.0928 4.041 2.6738 7.9434 4.7041 11.6143l11.5879-11.5879c-5.0352-13.4971-1.8125-28.5625 8.4336-38.8076 6.9268-6.9277 16.1514-10.7422 25.9727-10.7422 9.8223 0 19.0469 3.8145 25.9736 10.7422 2.0928 2.0928 3.9189 4.4346 5.4512 6.9873 1.5469-.9014 3.3184-1.3906 5.1494-1.3906h11.9277c-.9131-2.292-1.9746-4.4951-3.1729-6.5801-1.457-2.5352-1.0195-5.7598 1.0635-7.8408l6.3906-6.3906c.5977-.5977.5967-1.5703-.001-2.168l-10.4512-10.4513c-.5801-.5781-1.5879-.5781-2.168 0l-6.3916 6.3916c-2.0791 2.0811-5.3018 2.5176-7.8389 1.0625-3.8818-2.2314-8.0361-3.9531-12.3506-5.1191-2.8174-.7627-4.7842-3.3506-4.7842-6.293v-9.0342c0-.8457-.6875-1.5332-1.5322-1.5332h-14.7812c-.8447 0-1.5322.6875-1.5322 1.5332v9.0342c0 2.9434-1.9678 5.5312-4.7842 6.293-4.3135 1.166-8.4688 2.8877-12.3496 5.1182-2.5371 1.457-5.7607 1.0186-7.8408-1.0625l-6.3906-6.3907c-.5801-.5781-1.5889-.5801-2.167 0l-10.4531 10.4512c-.2891.29-.4492.6748-.4492 1.084s.1592.7939.4492 1.083l6.3916 6.3926c2.0811 2.0811 2.5176 5.3047 1.0625 7.8398-2.2305 3.8818-3.9521 8.0371-5.1191 12.3496-.7607 2.8164-3.3486 4.7842-6.293 4.7842z"/></g></g><g><path d="m185.4285 222.653h-55.0349c-5.9404 0-10.8008-4.8604-10.8008-10.8008v-41.7125c0-5.9404 4.8604-10.8008 10.8008-10.8008h55.0349c5.9404 0 10.8008 4.8604 10.8008 10.8008v41.7125c0 5.9404-4.8603 10.8008-10.8008 10.8008z" fill="#fc657e"/></g><g><path d="m185.4287 225.1533h-55.0352c-7.334 0-13.3008-5.9668-13.3008-13.3008v-41.7129c0-7.334 5.9668-13.3008 13.3008-13.3008h55.0352c7.334 0 13.3008 5.9668 13.3008 13.3008v41.7129c0 7.334-5.9668 13.3008-13.3008 13.3008zm-55.0351-63.3144c-4.5771 0-8.3008 3.7236-8.3008 8.3008v41.7129c0 4.5771 3.7236 8.3008 8.3008 8.3008h55.0352c4.5771 0 8.3008-3.7236 8.3008-8.3008v-41.7129c0-4.5771-3.7236-8.3008-8.3008-8.3008z"/></g><g><path d="m142.832 202.7217c-.6396 0-1.2793-.2441-1.7676-.7324l-8.8936-8.8926c-.4688-.4688-.7324-1.1045-.7324-1.7676s.2637-1.2988.7324-1.7676l8.8936-8.8936c.9766-.9766 2.5586-.9766 3.5352 0s.9766 2.5586 0 3.5352l-7.126 7.126 7.126 7.125c.9766.9756.9766 2.5586 0 3.5352-.4883.4882-1.1279.7324-1.7676.7324z"/></g><g><path d="m172.9902 202.7217c-.6396 0-1.2793-.2441-1.7676-.7324-.9766-.9766-.9766-2.5596 0-3.5352l7.126-7.125-7.126-7.126c-.9766-.9766-.9766-2.5586 0-3.5352s2.5586-.9766 3.5352 0l8.8936 8.8936c.4688.4688.7324 1.1045.7324 1.7676s-.2637 1.2988-.7324 1.7676l-8.8936 8.8926c-.4883.4882-1.1279.7324-1.7676.7324z"/></g><g><path d="m153.3105 202.9131c-.3506 0-.7061-.0742-1.0459-.2314-1.2539-.5781-1.8008-2.0635-1.2217-3.3174l8.3848-18.166c.5781-1.2539 2.0605-1.8047 3.3174-1.2217 1.2539.5781 1.8008 2.0635 1.2217 3.3174l-8.3848 18.166c-.4218.914-1.3261 1.4531-2.2715 1.4531z"/></g></g></g></svg>