<svg id="Layer_1" viewBox="0 0 512 512" xmlns="http://www.w3.org/2000/svg" data-name="Layer 1"><g fill-rule="evenodd"><path d="m123.293 231.82h-17.603c-6.633 0-12.217-4.309-13.918-10.715l-3.288-12.132c-4.904-1.587-9.638-3.543-14.145-5.839l-10.885 6.264c-5.698 3.317-12.699 2.409-17.433-2.296l-17.32-17.32c-4.649-4.677-5.584-11.679-2.268-17.405l6.293-10.885c-2.353-4.564-4.309-9.298-5.896-14.145l-12.132-3.26c-6.406-1.758-10.687-7.342-10.687-13.918v-24.491c0-6.605 4.28-12.218 10.658-13.975l12.161-3.26c1.587-4.847 3.543-9.581 5.868-14.145l-6.265-10.885c-3.317-5.726-2.381-12.699 2.239-17.376l17.348-17.348c4.734-4.677 11.707-5.584 17.405-2.296l10.913 6.293c4.564-2.353 9.298-4.309 14.145-5.868l3.26-12.161c1.701-6.35 7.285-10.658 13.918-10.658h24.491c6.661 0 12.246 4.309 13.946 10.687l3.232 12.132c4.819 1.559 9.581 3.515 14.173 5.868l10.857-6.293c5.783-3.288 12.756-2.353 17.433 2.296l13.805 13.805-8.476 8.476-13.805-13.805c-.822-.794-1.956-.936-2.976-.369l-13.72 7.937c-1.814 1.049-4.053 1.049-5.896.028-5.754-3.175-11.792-5.669-17.943-7.398-2.041-.567-3.628-2.183-4.167-4.224l-4.11-15.364c-.284-1.105-1.191-1.786-2.324-1.786h-24.491c-1.191 0-2.041.68-2.353 1.786l-4.139 15.392c-.539 2.041-2.126 3.628-4.139 4.195-6.208 1.758-12.217 4.252-17.915 7.427-1.843 1.021-4.082.992-5.924-.057l-13.776-7.937c-.992-.567-2.126-.425-2.976.397l-17.291 17.291c-.794.822-.935 1.956-.369 2.948l7.965 13.776c1.049 1.814 1.049 4.082.028 5.925-3.175 5.641-5.669 11.679-7.427 17.886-.595 2.041-2.183 3.628-4.224 4.167l-15.364 4.11c-1.106.312-1.786 1.19-1.786 2.381v24.491c0 1.134.68 2.013 1.814 2.324l15.335 4.11c2.041.539 3.657 2.126 4.224 4.167 1.757 6.179 4.252 12.217 7.427 17.887 1.049 1.843 1.021 4.11-.028 5.924l-7.965 13.776c-.567.992-.425 2.154.369 2.948l17.32 17.32c.822.822 1.928.992 2.92.397l13.805-7.965c1.843-1.049 4.082-1.049 5.924-.028 5.584 3.118 11.594 5.613 17.887 7.398 2.041.567 3.6 2.154 4.139 4.195l4.139 15.364c.312 1.162 1.219 1.843 2.353 1.843h17.603v11.99h.028z" fill="#116fff"/><path d="m117.992 175.213c-13.975 0-27.553-5.074-38.098-14.457-12.274-10.857-19.276-26.476-19.276-42.832 0-31.606 25.71-57.345 57.317-57.345 18.113 0 34.781 8.305 45.751 22.791l-9.553 7.229c-8.702-11.452-21.883-18.029-36.198-18.029-25.001 0-45.326 20.353-45.326 45.354 0 12.926 5.528 25.285 15.222 33.874 9.723 8.617 22.706 12.671 35.603 11.112l1.417 11.906c-2.268.255-4.592.397-6.86.397z" fill="#116fff"/><path d="m406.332 507.972h-24.491c-6.633 0-12.217-4.309-13.918-10.687l-3.26-12.132c-4.847-1.587-9.581-3.543-14.145-5.896l-10.885 6.293c-5.783 3.316-12.756 2.381-17.433-2.268l-17.32-17.32c-4.706-4.706-5.613-11.707-2.268-17.433l6.265-10.885c-2.324-4.507-4.28-9.241-5.868-14.145l-12.132-3.26c-6.406-1.701-10.715-7.313-10.715-13.947v-17.575h11.991v17.575c0 1.162.709 2.041 1.814 2.353l15.392 4.139c2.041.539 3.628 2.126 4.224 4.167 1.757 6.293 4.252 12.302 7.398 17.886 1.02 1.843 1.02 4.082-.057 5.925l-7.937 13.776c-.595 1.02-.453 2.098.397 2.948l17.32 17.32c.794.794 1.928.936 2.948.369l13.748-7.966c1.843-1.049 4.082-1.077 5.924-.028 5.698 3.175 11.707 5.669 17.887 7.427 2.041.567 3.628 2.183 4.167 4.224l4.11 15.364c.283 1.106 1.191 1.786 2.353 1.786h24.491c1.162 0 2.041-.652 2.324-1.786l4.167-15.392c.539-2.041 2.098-3.628 4.11-4.195 6.35-1.814 12.387-4.309 17.915-7.427 1.871-1.049 4.11-1.02 5.953.028l13.776 7.966c.992.595 2.126.425 2.948-.397l17.291-17.291c.822-.822.964-1.928.397-2.948l-7.965-13.776c-1.049-1.814-1.077-4.054-.028-5.925 3.146-5.641 5.669-11.65 7.427-17.886.567-2.013 2.154-3.6 4.195-4.167l15.364-4.139c1.134-.283 1.814-1.162 1.814-2.353v-24.463c0-1.162-.68-2.069-1.786-2.353l-15.392-4.11c-2.041-.539-3.628-2.126-4.224-4.167-1.729-6.18-4.224-12.217-7.427-17.915-1.02-1.871-.992-4.11.057-5.953l7.965-13.748c.567-.992.425-2.098-.369-2.92l-13.805-13.805 8.476-8.476 13.805 13.805c4.649 4.649 5.556 11.65 2.296 17.376l-6.321 10.913c2.353 4.564 4.309 9.326 5.896 14.145l12.132 3.26c6.378 1.701 10.687 7.285 10.687 13.918v24.491c0 6.661-4.309 12.246-10.687 13.947l-12.132 3.26c-1.587 4.876-3.543 9.61-5.896 14.173l6.293 10.885c3.288 5.698 2.381 12.699-2.268 17.376l-17.32 17.348c-4.734 4.677-11.707 5.584-17.433 2.296l-10.885-6.293c-4.479 2.296-9.241 4.252-14.145 5.868l-3.288 12.161c-1.701 6.35-7.285 10.658-13.918 10.658z" fill="#116fff"/><path d="m394.086 451.392c-16.384 0-32.003-7.03-42.86-19.276-10.885-12.274-16.016-28.658-14.031-44.958l11.906 1.417c-1.559 12.898 2.466 25.88 11.112 35.603 8.589 9.666 20.92 15.222 33.874 15.222 25.002 0 45.326-20.324 45.326-45.326 0-14.343-6.548-27.524-18.028-36.198l7.228-9.553c14.485 10.942 22.791 27.61 22.791 45.723 0 31.635-25.71 57.345-57.317 57.345z" fill="#116fff"/><path d="m128.083 425.54-8.504-8.476 71.008-71.036 8.504 8.476zm-33.165-33.137-8.476-8.476 71.036-71.036 8.504 8.476-71.065 71.036z" fill="#2f3a4c"/><path d="m59.286 508c-5.669 0-11.339-2.183-15.676-6.491l-33.137-33.137c-8.646-8.646-8.646-22.706 0-31.323l53.121-53.121c4.195-4.195 9.751-6.491 15.676-6.491h.028c5.924 0 11.48 2.296 15.647 6.491l33.137 33.137c4.167 4.139 6.463 9.695 6.463 15.619s-2.296 11.509-6.463 15.704l-53.121 53.121c-4.337 4.337-10.006 6.491-15.676 6.491zm-40.337-48.104 33.137 33.137c3.969 3.969 10.432 3.969 14.372 0l53.121-53.121c1.927-1.899 2.976-4.479 2.976-7.2s-1.049-5.272-2.948-7.143l-33.165-33.165c-1.899-1.899-4.422-2.948-7.143-2.948h-.028c-2.721 0-5.272 1.049-7.172 2.948l-53.121 53.121c-3.969 3.969-3.969 10.403-.028 14.372z" fill="#2f3a4c"/><path d="m311.768 396.343c-50.23 0-100.488-19.134-138.756-57.373-76.479-76.507-76.479-201.005 0-277.512 76.507-76.507 201.005-76.507 277.54 0 37.049 37.077 57.458 86.344 57.458 138.756s-20.409 101.707-57.458 138.784c-38.268 38.211-88.526 57.345-138.784 57.345zm0-380.268c-47.168 0-94.337 17.943-130.28 53.858-71.802 71.858-71.802 188.731 0 260.561 71.858 71.83 188.731 71.83 260.561 0 71.858-71.83 71.858-188.702 0-260.561-35.915-35.915-83.083-53.858-130.28-53.858z" fill="#2f3a4c"/><path d="m311.796 352.52c-83.99 0-152.334-68.315-152.334-152.305s68.344-152.306 152.334-152.306 152.277 68.315 152.277 152.306c.028 83.99-68.315 152.305-152.277 152.305zm0-292.62c-77.386 0-140.343 62.957-140.343 140.315s62.958 140.315 140.343 140.315 140.287-62.958 140.287-140.315c.028-77.386-62.929-140.315-140.287-140.315z" fill="#2f3a4c"/><g fill="#116fff"><path d="m279.907 267.905c-3.09 0-5.698-2.353-5.981-5.471-1.417-16.498-8.079-26.391-15.137-36.907-7.824-11.594-15.902-23.584-15.902-43.625 0-37.984 30.926-68.882 68.91-68.882s68.882 30.898 68.882 68.882c0 20.041-8.079 32.031-15.902 43.653-7.058 10.488-13.72 20.41-15.137 36.879-.312 3.288-3.203 5.754-6.491 5.471-3.317-.312-5.754-3.203-5.471-6.491 1.701-19.587 9.921-31.776 17.15-42.548 7.427-11.027 13.833-20.551 13.833-36.964 0-31.351-25.512-56.863-56.863-56.863s-56.92 25.483-56.92 56.863c0 16.384 6.406 25.937 13.833 36.964 7.257 10.772 15.477 22.989 17.15 42.548.283 3.288-2.154 6.208-5.443 6.491h-.51z"/><path d="m333.113 300.334h-42.661c-9.128 0-16.554-7.427-16.554-16.526v-21.855c0-3.288 2.693-5.981 6.009-5.981l63.695-.057c3.288 0 5.981 2.665 6.009 5.981l.057 21.883c-.028 9.128-7.427 16.554-16.554 16.554zm-47.225-32.372v15.846c0 2.466 2.098 4.535 4.564 4.535h42.661c2.466 0 4.536-2.069 4.536-4.535l-.028-15.903-51.732.057z"/><path d="m323.39 323.464h-23.216c-9.241 0-16.753-7.512-16.753-16.753v-12.387c0-3.288 2.693-5.981 6.009-5.981s6.01 2.665 6.01 5.981v12.387c0 2.58 2.154 4.762 4.734 4.762h23.216c2.636 0 4.762-2.126 4.762-4.762v-12.387c0-3.288 2.665-5.981 6.009-5.981 3.317 0 5.981 2.665 5.981 5.981v12.387c0 9.241-7.512 16.753-16.753 16.753z"/><path d="m322.2 267.905c-3.317 0-6.01-2.693-6.01-6.009v-57.543c-1.417.085-2.863.142-4.309.17h-.17c-1.474-.028-2.92-.085-4.365-.17v57.572c0 3.288-2.665 5.981-6.01 5.981-3.317 0-5.981-2.665-5.981-5.981v-59.272c-9.213-2.126-16.753-5.924-21.373-11.027-4.054-4.479-5.953-9.921-5.471-15.76.822-9.326 6.463-17.065 14.031-19.332 4.45-1.304 8.702-.68 12.274 1.814 6.633 4.62 10.516 15.477 12.132 33.959 1.587.142 3.203.227 4.819.227s3.232-.085 4.791-.227c1.616-18.482 5.499-29.339 12.132-33.959 3.572-2.495 7.824-3.118 12.274-1.814 7.597 2.268 13.209 10.035 14.003 19.332.51 5.839-1.389 11.31-5.471 15.789-4.592 5.074-12.132 8.901-21.345 10.999v59.272c.028 3.288-2.636 5.981-5.953 5.981zm14.372-100.063c-.51 0-.794.17-.992.34-1.191.822-4.847 4.762-6.718 21.883 5.187-1.559 9.354-3.798 11.792-6.491 1.871-2.041 2.608-4.167 2.41-6.718-.369-4.337-2.636-7.994-5.499-8.844-.425-.113-.737-.17-.992-.17zm-49.578 0c-.255 0-.595.057-1.021.17-2.863.85-5.102 4.507-5.471 8.873-.227 2.523.539 4.649 2.381 6.69 2.466 2.693 6.605 4.932 11.82 6.52-1.871-17.149-5.528-21.09-6.746-21.912-.198-.17-.453-.34-.964-.34z"/><path d="m311.796 104.375c-3.317 0-6.009-2.665-6.009-6.01v-15.42c0-3.288 2.693-5.981 6.009-5.981s5.981 2.665 5.981 5.981v15.42c0 3.316-2.665 6.01-5.981 6.01z"/><path d="m270.014 115.572c-2.069 0-4.082-1.077-5.188-3.005l-7.71-13.38c-1.644-2.863-.68-6.52 2.183-8.192 2.891-1.644 6.548-.652 8.192 2.211l7.71 13.38c1.672 2.863.68 6.52-2.183 8.192-.964.539-1.984.794-3.005.794z"/><path d="m239.456 146.129c-1.021 0-2.069-.255-3.005-.794l-13.351-7.71c-2.863-1.672-3.827-5.329-2.183-8.192 1.672-2.863 5.329-3.855 8.192-2.183l13.351 7.71c2.863 1.644 3.855 5.329 2.183 8.192-1.105 1.899-3.118 2.976-5.187 2.976z"/><path d="m228.259 187.883h-15.42c-3.317 0-6.01-2.665-6.01-6.01 0-3.316 2.693-5.981 6.01-5.981h15.42c3.317 0 6.009 2.665 6.009 5.981 0 3.345-2.693 6.01-6.009 6.01z"/><path d="m353.551 115.572c-1.021 0-2.041-.255-3.005-.794-2.863-1.644-3.855-5.329-2.183-8.192l7.71-13.38c1.644-2.863 5.301-3.855 8.164-2.211 2.891 1.672 3.855 5.329 2.211 8.192l-7.71 13.38c-1.105 1.927-3.118 3.005-5.187 3.005z"/><path d="m384.108 146.129c-2.069 0-4.082-1.077-5.188-3.005-1.672-2.863-.68-6.52 2.183-8.192l13.38-7.682c2.891-1.672 6.548-.68 8.192 2.183s.68 6.548-2.183 8.192l-13.38 7.71c-.964.539-1.984.794-3.005.794z"/><path d="m410.726 187.883h-15.421c-3.317 0-6.009-2.665-6.009-6.01 0-3.316 2.693-5.981 6.009-5.981h15.421c3.317 0 5.981 2.665 5.981 5.981 0 3.345-2.665 6.01-5.981 6.01z"/></g></g></svg>