<svg clip-rule="evenodd" fill-rule="evenodd" height="300" image-rendering="optimizeQuality" shape-rendering="geometricPrecision" text-rendering="geometricPrecision" viewBox="0 0 1707 1707" width="300" xmlns="http://www.w3.org/2000/svg" version="1.1" xmlns:xlink="http://www.w3.org/1999/xlink" xmlns:svgjs="http://svgjs.dev/svgjs"><g width="100%" height="100%" transform="matrix(1,0,0,1,0,0)"><g id="Layer_x0020_1"><path d="m1612 1250h-631v168h122c8 0 15 6 18 13l82 208c3 5 1 12-3 18-3 5-8 8-15 8h-663c-7 0-13-3-17-8-4-6-4-13-3-18l82-208c3-9 10-13 18-13h122v-168h-630c-51 0-93-41-93-93v-145-877c0-52 42-93 93-93h1518c52 0 93 41 93 93v877 145c0 52-41 93-93 93zm-181-555c-12 0-20-8-20-19v-278c0-11 8-19 20-19 11 0 19 8 19 19v278c1 9-8 19-19 19zm-1155 0c-11 0-19-8-19-19v-278c0-11 8-19 19-19s20 8 20 19v278c0 9-9 19-20 19zm604-215v-139h-44c3 70 23 119 44 139zm0-178v-138c-21 20-41 69-44 138zm39-138v138h44c-4-69-24-118-44-138zm0 177v139c20-20 40-69 43-139zm147 0h-63c-2 53-14 99-32 133 51-25 88-74 95-133zm-271 0h-63c7 59 44 108 95 133-18-34-29-80-32-133zm-63-39h63c3-52 14-98 32-131-51 24-88 73-95 131zm271 0h63c-7-58-44-107-94-131 17 33 29 79 31 131zm-104 227c-107 0-196-83-206-188h-94l50 245h500l50-245h-94c-10 105-99 188-206 188zm-206-227c10-104 99-187 206-187s196 83 206 187h119c5 0 11 3 15 7 4 5 6 12 4 17l-58 285c-3 8-10 15-19 15h-533c-10 0-18-7-20-15l-58-285-24-83h-50c-11 0-19-9-19-20s8-19 19-19h67c10 0 17 6 19 15l23 83zm349 657c-37 0-69-31-69-70 0-38 30-69 69-69s69 31 69 69c0 39-30 70-69 70zm0-99c-17 0-29 13-29 29 0 17 12 30 29 30s29-13 29-30c0-16-12-29-29-29zm-287 99c-38 0-70-31-70-70 0-38 31-69 70-69s69 31 69 69c0 39-30 70-69 70zm0-99c-17 0-29 13-29 29 0 17 12 30 29 30 16 0 29-13 29-30 0-16-13-29-29-29zm411-72h-489c-36 0-64-29-64-64 0-34 29-64 64-64h489c11 0 19 9 19 20s-8 19-19 19h-489c-14 0-25 11-25 25s11 25 25 25h489c11 0 19 9 19 20s-8 19-19 19zm-242 734-161-229v144 1 84zm-141-272 159 226v-226zm-182-109h-56c-11 0-19-9-19-20s8-19 19-19h56c11 0 19 8 19 19s-8 20-19 20zm-139 0h-55c-12 0-20-9-20-20s8-19 20-19h55c11 0 19 8 19 19s-8 20-19 20zm-139 0h-55c-11 0-20-9-20-20s9-19 20-19h55c11 0 20 8 20 19s-9 20-20 20zm-138 0h-56c-11 0-19-9-19-20s8-19 19-19h56c11 0 19 8 19 19s-8 20-19 20zm1480-110h-1623v125c0 29 23 53 52 53h1518c29 0 53-24 53-53zm-1623-39h1623v-857c0-30-24-53-53-53h-1518v-2c-29 0-52 24-52 53zm939 465v85c1 11-7 20-18 20h-219c-11 0-20-8-20-19v-86h-108l-65 168h605l-65-168z" fill="#233d91" fill-opacity="1" data-original-color="#013b65ff" stroke="none" stroke-opacity="1"/><g fill="#00c8d0"><path d="m1156 1625-65-168h-110v85c1 11-7 20-18 20h-219c-11 0-20-8-20-19v-86h-108l-65 168z" fill="#233d91" fill-opacity="0.5607843137254902" data-original-color="#00c8d0ff" stroke="none" stroke-opacity="1"/><path d="m924 1522-161-229v229z" fill="#233d91" fill-opacity="0.5607843137254902" data-original-color="#00c8d0ff" stroke="none" stroke-opacity="1"/><path d="m94 1209h1518c29 0 53-24 53-53v-125h-1623v125c0 29 23 53 52 53zm507-107c26 0 26 39 0 39h-56c-25 0-25-39 0-39zm-139 0c26 0 26 39 0 39h-55c-26 0-26-39 0-39zm-139 0c26 0 26 39 0 39h-55c-26 0-26-39 0-39zm-138 0c25 0 25 39 0 39h-56c-26 0-26-39 0-39z" fill="#233d91" fill-opacity="0.5607843137254902" data-original-color="#00c8d0ff" stroke="none" stroke-opacity="1"/><path d="m649 586h500l50-245h-94c-10 105-99 188-206 188s-196-83-206-188h-94z" fill="#233d91" fill-opacity="0.5607843137254902" data-original-color="#00c8d0ff" stroke="none" stroke-opacity="1"/></g></g></g></svg>