<svg id="Layer_2" enable-background="new 0 0 500 500" viewBox="0 0 500 500" xmlns="http://www.w3.org/2000/svg"><path d="m337.7783 207.2324c-.5059-8.3438-3.4736-18.0742-8.356-27.3984-4.8818-9.3252-11.189-17.3076-17.7583-22.4766-10.7387-8.4502-18.3807-6.6045-22.0116-4.7258-.2116.1082-.4182.2278-.6187.3604-.0458.03-.087.0647-.1318.0957-.1287.0896-.2574.1794-.3804.2795-.1327.1074-.2567.2224-.3793.3386-.0305.0291-.0634.0547-.0935.0842-.1681.166-.3259.3396-.4733.5208l-16.1488 19.5427c-2.2866 2.7676-1.897 6.8643.8701 9.1514 1.2119 1.001 2.6787 1.4893 4.1372 1.4893 1.4422 0 2.873-.4822 4.0431-1.4131 2.5178 7.1448 8.137 22.0881 14.0236 31.0737-2.0388.9639-3.5189 2.9619-3.7073 5.3716-.2803 3.5791 2.394 6.707 5.9731 6.9873l28.7812 2.251c.1601.0127.319.0173.4771.0181.0118 0 .0233.0024.0351.0024.0272 0 .0545-.0044.0817-.0049.2068-.0024.4116-.0144.6139-.0361.0775-.0083.1544-.0225.2318-.0337.1614-.0232.321-.051.4787-.0859.0782-.0176.1559-.0364.2338-.0569.1733-.0454.3434-.0981.5111-.1575.0567-.02.1137-.0369.1701-.0586.226-.0869.4463-.1851.6598-.2957.0095-.0049.0195-.0081.029-.0129 3.609-1.8897 9.5392-7.1055 8.7086-20.8106z" fill="#36f"/><g fill="#070606"><path d="m447.1045 123.0244c-1.4238-3.2959-5.25-4.8164-8.5444-3.3896l-54.3853 23.4902c-3.2959 1.4229-4.8135 5.249-3.3901 8.5439 1.061 2.4561 3.4551 3.9248 5.9707 3.9248.8599 0 1.7344-.1719 2.5737-.5352l54.3853-23.4902c3.2959-1.4228 4.8134-5.249 3.3901-8.5439z"/><path d="m369.2974 124.4053c1.5352 0 3.0762-.541 4.314-1.6406l19.9102-17.6846c2.6841-2.3838 2.9272-6.4922.5435-9.1758-2.3848-2.6846-6.4932-2.9268-9.1763-.543l-19.9102 17.6846c-2.6841 2.3838-2.9272 6.4922-.5435 9.1758 1.2846 1.4463 3.0693 2.1836 4.8623 2.1836z"/><path d="m423.9004 174.2939-26.9893 2.4131c-3.5757.3203-6.2153 3.4775-5.8955 7.0537.3022 3.3789 3.1382 5.9209 6.4668 5.9209.1938 0 .3892-.0078.5859-.0254l26.9893-2.4131c3.5757-.3203 6.2153-3.4775 5.8955-7.0537-.3198-3.5751-3.4785-6.2099-7.0527-5.8955z"/><path d="m421.2305 222.1123c-.0038-.0347-.0128-.0679-.0171-.1025-.0244-.196-.0554-.3896-.0969-.5801-.0129-.0588-.0303-.116-.0449-.1743-.0417-.1685-.0875-.335-.142-.4978-.0218-.0652-.0468-.1287-.0706-.1931-.0563-.1519-.1167-.301-.1837-.4473-.0313-.0684-.064-.1355-.0976-.2026-.0689-.1377-.1426-.2717-.2208-.4036-.0402-.0679-.0802-.1357-.1229-.2024-.0823-.1279-.1705-.251-.2614-.3726-.0464-.0625-.0906-.1257-.1393-.1865-.108-.1343-.2233-.262-.3414-.3872-.0378-.0398-.072-.0825-.1107-.1216-.1595-.1606-.3275-.3127-.5029-.4561-.0419-.0342-.0876-.0645-.1304-.0977-.1396-.1084-.2819-.2129-.4302-.3096-.019-.0125-.0358-.0273-.0549-.0396l-37.7892-24.0877c-.2538-.1619-.5165-.2966-.7824-.4192-3.4722-10.6079-8.0604-21.4705-13.66-32.1648-5.0649-9.6748-10.7427-18.8184-16.8755-27.1758-25.3472-34.5469-54.1094-50.3828-73.2729-40.3516-7.9188 4.1465-13.21 12.1575-15.6141 23.2339-.0774.2129-.1562.429-.2381.6509-8.6002-3.5503-18.5763-2.7939-26.5746 2.3037l-19.4624 12.4062c-3.0269 1.9297-3.9165 5.9482-1.9868 8.9756 1.2393 1.9443 3.3403 3.0068 5.4873 3.0068 1.1953 0 2.4048-.3301 3.4878-1.0195l19.4619-12.4062c4.4127-2.812 9.9202-3.2222 14.6597-1.2471-9.0828 20.1821-27.3587 51.821-58.9341 72.3242-3.0107 1.9551-3.8667 5.9805-1.9116 8.9912 1.2451 1.917 3.3301 2.9609 5.4575 2.9609 1.2134 0 2.4409-.3398 3.5342-1.0498 27.7996-18.0513 45.8886-43.3999 56.9497-63.928 2.7977 17.9739 9.6611 37.9438 19.8252 57.3557 8.837 16.8782 19.4443 31.9421 30.7243 43.8335-.3963-.0776-.7897-.1572-1.1896-.2329-31.9932-6.0625-60.0615-2.1885-81.1719 11.1963-1.9171 1.2153-2.9785 3.2678-3.0161 5.3796-.5167 1.606-.4146 3.4094.4336 5.0198l8.8389 16.7803-27.2036 19.0625-16.2847-20.7686c-2.2153-2.8262-6.3018-3.3184-9.126-1.1045-2.8252 2.2148-3.3193 6.3008-1.1045 9.126l20.0854 25.6152c1.2783 1.6299 3.1865 2.4893 5.1196 2.4893 1.1634 0 2.3292-.3291 3.3783-.9717l18.8405 26.21c-.527.3367-1.0594.6614-1.5733 1.0264l-5.1783 3.6777-57.0681-57.0684c1.6534-.52 3.2654-1.1826 4.8114-1.9922 1.5693-.8213 3.0674-1.7852 4.4531-2.8633 2.833-2.2041 3.3428-6.2881 1.1382-9.1221-2.2046-2.833-6.2891-3.3418-9.1216-1.1377-.7749.6025-1.6157 1.1436-2.5 1.6064-3.3069 1.7319-6.9907 2.2747-10.68 1.6101l-14.2531-14.2532c-.0105-.0754-.0146-.1504-.0279-.2261-1.3027-7.4395 2.2026-14.7324 8.7222-18.1465.8174-.4277 1.6724-.7891 2.5415-1.0742 3.4111-1.1172 5.2705-4.7891 4.1528-8.2002-1.1177-3.4121-4.7876-5.2754-8.2007-4.1533-1.5493.5078-3.0713 1.1504-4.5234 1.9111-7.2787 3.8113-12.4373 10.3137-14.6917 17.8621l-32.8405-32.8406 29.6016-18.8682c3.0273-1.9297 3.917-5.9482 1.9873-8.9756s-5.9478-3.916-8.9746-1.9873l-36.4292 23.2207c-.0191.0122-.0359.0271-.0549.0396-.1483.0967-.2906.2012-.4302.3096-.0428.0332-.0885.0635-.1304.0977-.1755.1433-.3434.2954-.5029.4561-.0388.0391-.0729.0818-.1107.1216-.1182.1252-.2334.2529-.3414.3872-.0487.0608-.0929.124-.1393.1865-.0909.1216-.1791.2446-.2614.3726-.0427.0667-.0827.1345-.1229.2024-.0782.1318-.1519.2659-.2208.4036-.0336.0671-.0663.1343-.0976.2026-.067.1462-.1274.2954-.1837.4473-.0238.0645-.0488.1279-.0706.1931-.0546.1628-.1003.3293-.142.4978-.0145.0583-.032.1155-.0449.1743-.0415.1904-.0724.384-.0969.5801-.0043.0347-.0133.0679-.0171.1025-.0005.0049-.0002.0098-.0008.0146-.0241.2275-.0378.4585-.0378.6924v209.3879c0 9.6765 4.2422 18.377 10.9595 24.3525.2031.1992.4149.3857.6383.5532 5.6775 4.7954 13.0059 7.6938 21.0018 7.6938h279.3818c8.049 0 15.4205-2.9385 21.1135-7.7905.1509-.1187.296-.2456.4374-.3789 6.7684-5.9778 11.0487-14.7112 11.0487-24.4302v-209.3876c0-.2339-.0137-.4648-.0378-.6924-.0005-.0048-.0002-.0097-.0007-.0146zm-12.9615 210.0947c0 4.1052-1.2738 7.9158-3.4396 11.0679l-117.7196-83.604 121.1592-121.1587zm-3.8212-208.2588-17.4272 17.4272c.3108-3.9919.3363-8.2612.0342-12.8159-.3654-5.509-1.1867-11.2861-2.4088-17.2334zm-72.5035 27.5352c-14.6772-11.6846-29.0264-30.0869-40.4033-51.8154-16.9533-32.3794-22.1747-62.1279-18.6876-79.7563 1.309-3.7317 1.9778-6.0815 2.1066-6.5464.0788-.2842.1302-.5691.1696-.8535 1.6736-3.6868 3.9523-6.373 6.7835-7.8555 1.9443-1.0186 4.1587-1.5088 6.5928-1.5088 13.2646 0 32.9761 14.6006 50.1685 38.0322 5.7476 7.834 11.0771 16.4189 15.8403 25.5156 24.2295 46.2764 24.521 87.2139 9.6284 95.0117-3.5109 1.8381-7.9953 1.9521-13.1183.4846-1.0936-.5051-3.9268-1.7749-8.1345-3.3921-3.4916-1.8686-7.1608-4.3027-10.946-7.3161zm5.8888 19.3337c2.967 1.5156 5.8738 2.7129 8.7054 3.5916.1125.04.2263.0703.3397.1038 1.9393.5854 3.842 1.0198 5.7035 1.3015l-62.6132 62.6125-41.8739-44.6406c1.5991-1.9753 1.9563-4.7571.7198-7.1042l-9.2971-17.6499c34.7746-18.7728 80.1148-5.107 98.3158 1.7853zm-97.5431 70.8548-20.1164-27.9849 17.3561-12.1616 43.2414 46.0986-4.412 4.4119-5.178-3.6775c-9.0276-6.4119-20.1636-8.4529-30.5431-6.147-.1063-.1833-.2216-.3637-.348-.5395zm-29.443 17.9988-117.7196 83.6042c-2.1657-3.1523-3.4394-6.9626-3.4394-11.0679v-193.6958zm-101.5594 92.1359c-1.6716 0-3.2861-.2329-4.8362-.6287l119.8223-85.0974c.2725-.1658.5367-.3496.7875-.5593l9.2415-6.5632c8.7778-6.2334 20.5732-6.2354 29.3511 0l129.8515 92.2202c-1.55.3955-3.1644.6284-4.8359.6284z"/><path d="m323.0278 425.5859h-21.127c-3.5898 0-6.5 2.9102-6.5 6.5s2.9102 6.5 6.5 6.5h21.127c3.5898 0 6.5-2.9102 6.5-6.5s-2.9101-6.5-6.5-6.5z"/></g><g fill="#36f"><path d="m246.4526 261.165c-.231-2.6152-2.0127-4.834-4.5161-5.626-20.7881-6.5693-34.3501-32.4717-27.9067-53.2998.7759-2.5078-.0332-5.2363-2.0508-6.916-2.0176-1.6816-4.8481-1.9805-7.1738-.7637l-53.7202 28.127c-2.7319 1.4316-4.7378 3.9619-5.5029 6.9414-6.8315 26.5635 9.1284 57.0459 34.8545 66.5654 1.2188.4502 2.4971.6729 3.7725.6729 1.7471 0 3.4888-.418 5.0659-1.2441l53.7183-28.126c2.3255-1.2178 3.6908-3.7158 3.4593-6.3311zm-79.4419-13.4482c-1.665-3.1797-.437-7.1084 2.7432-8.7734l14.2427-7.457c3.1797-1.665 7.1084-.4365 8.7734 2.7441 1.6655 3.1797.437 7.1084-2.7432 8.7734l-14.2427 7.457c-.9624.5039-1.9937.7422-3.0098.7422-2.3412 0-4.6024-1.2685-5.7636-3.4863zm32.1075 12.6514-14.2422 7.457c-.9624.5039-1.9937.7422-3.0098.7422-2.3413 0-4.6025-1.2676-5.7637-3.4863-1.6655-3.1797-.437-7.1074 2.7432-8.7734l14.2422-7.457c3.1797-1.665 7.1084-.4375 8.7734 2.7441 1.6656 3.1796.437 7.1073-2.7431 8.7734z"/><g><path d="m153.814 104.25v36.2041h14.5634v-47.9785h-14.5634z"/><path d="m98.688 129.102h14.563v11.353h-14.563z"/><path d="m140.814 110.75h-14.5635v11.8516 17.8525h14.5635z"/><path d="m138.1753 35.1934c-47.3174 0-85.8125 38.4951-85.8125 85.8125s38.4951 85.8125 85.8125 85.8125 85.8125-38.4951 85.8125-85.8125-38.4951-85.8125-85.8125-85.8125zm43.2021 111.7607c0 3.5898-2.9102 6.5-6.5 6.5h-27.5634-27.5635-27.563c-3.5898 0-6.5-2.9102-6.5-6.5v-24.3525c0-3.5898 2.9102-6.5 6.5-6.5h21.063v-11.8516c0-3.5898 2.9102-6.5 6.5-6.5h21.0635v-11.7744c0-3.5898 2.9102-6.5 6.5-6.5h27.5635c3.5898 0 6.5 2.9102 6.5 6.5v60.9785z"/></g></g></svg>