<svg id="Layer_1" enable-background="new 0 0 512 512" height="512" viewBox="0 0 512 512" width="512" xmlns="http://www.w3.org/2000/svg"><g><path clip-rule="evenodd" d="m235.855 435.072c-98.226-44.051-146.328-132.755-144.304-265.983.117-6.19 4.76-11.308 11.072-12.023 24.287-2.501 46.434-15.956 60.006-36.555 2.264-3.569 5.955-5.595 10.242-5.595h166.209c4.287 0 7.977 2.025 10.357 5.595 13.453 20.599 35.598 34.054 60.008 36.555 6.189.716 10.951 5.833 10.951 12.023 2.027 133.229-46.074 221.932-144.182 265.983-13.335 5.953-27.144 5.953-40.359 0z" fill="#69a7ff" fill-rule="evenodd"/><path clip-rule="evenodd" d="m191.92 279.936h128.111c4.881 0 8.809 3.929 8.809 8.811v63.459c0 23.22-18.932 42.269-42.27 42.269h-61.197c-23.334 0-42.264-19.049-42.264-42.269v-63.459c0-4.883 3.93-8.811 8.811-8.811z" fill="#ffd23b" fill-rule="evenodd"/><path d="m255.973 343.273c8.813 0 16.074-7.14 16.074-15.95 0-8.93-7.262-16.075-16.074-16.075-8.811 0-15.951 7.146-15.951 16.075-.001 8.811 7.14 15.95 15.951 15.95z" fill="#495586"/><path d="m356.107 115.986c-3.93-5.832-10.121-9.167-17.027-9.167h-166.09c-7.025 0-13.217 3.335-17.146 9.167-12.266 18.691-32.027 30.718-54.053 32.983-10.24 1.069-18.096 9.524-18.334 20-2.027 136.09 48.096 228.125 149.063 273.369 7.738 3.452 15.598 5.237 23.453 5.237 7.859 0 15.838-1.785 23.459-5.237 100.961-45.244 151.209-137.279 149.063-273.486-.238-10.357-8.098-18.813-18.217-19.882-22.145-2.266-41.907-14.169-54.171-32.984zm56.317 53.221c2.023 129.063-45.01 216.099-139.543 258.482-11.189 5-22.621 5-33.811 0-94.537-42.383-141.445-129.419-139.543-258.482 0-2.14 1.787-4.048 3.93-4.167 26.789-2.735 50.836-17.384 65.842-40.125.832-1.308 2.021-2.021 3.691-2.021h166.09c1.545 0 2.74.713 3.572 2.021 15.002 22.741 39.053 37.39 65.961 40.125 2.143.119 3.811 2.027 3.811 4.167zm-57.863 1.551c8.568 5.713 17.857 10.239 27.857 13.453 3.217 1.071 5.596 4.287 5.477 7.855-1.428 45.961-9.762 88.821-29.053 125.494-2.734 5.119-5.594 10-8.688 14.882v-33.815c13.455-30.119 19.881-64.53 21.428-101.079-9.166-3.573-17.859-8.098-26.07-13.454-8.691-5.957-16.789-12.861-23.934-20.601h-131.084c-7.148 7.739-15.244 14.644-23.936 20.601-8.217 5.356-16.908 9.881-26.074 13.454 1.551 36.549 7.977 70.96 21.432 101.079v33.815c-3.092-4.882-5.951-9.763-8.693-14.882-19.166-36.432-27.621-79.176-29.049-124.899-.357-3.688 1.904-7.26 5.477-8.45 10-3.214 19.287-7.74 27.859-13.453 8.572-5.718 16.432-12.622 23.217-20.6 1.551-1.783 3.691-2.858 6.193-2.858h138.229c2.262 0 4.525.955 6.191 2.858 6.787 7.978 14.646 14.882 23.221 20.6zm-34.53 101.081h-15.957v-30.956c0-18.691-15.238-33.932-33.811-33.932h-28.459c-18.691 0-33.928 15.24-33.928 33.932v30.956h-15.838c-9.404 0-17.027 7.62-17.027 16.907v63.459c0 27.744 22.621 50.246 50.361 50.246h61.316c27.746 0 50.248-22.502 50.248-50.246v-63.459c.002-9.287-7.62-16.907-16.905-16.907zm-96.084-30.956c0-9.644 8.215-17.86 17.857-17.86h28.459c9.643 0 17.74 8.217 17.74 17.86v30.956h-64.057v-30.956zm96.916 111.322c0 18.813-15.357 34.171-34.174 34.171h-61.316c-18.928 0-34.285-15.357-34.285-34.171v-63.459c0-.476.475-.834.951-.834h127.992c.477 0 .832.358.832.834zm-64.771-49.053c-13.334 0-24.168 10.717-24.168 24.053 0 10.476 6.785 19.286 16.076 22.619v20.119h16.068v-20.119c9.287-3.333 15.957-12.264 15.957-22.619 0-13.336-10.718-24.053-23.933-24.053zm0 16.074c4.285 0 7.859 3.573 7.859 7.979 0 4.404-3.574 7.978-7.859 7.978-4.523 0-8.092-3.573-8.092-7.978 0-4.406 3.568-7.979 8.092-7.979zm231.219 47.27-8.93 3.21c45.006-88.34 33.219-197.282-30.838-273.958 1.67-3.335 2.742-6.907 2.742-10.718 0-6.188-2.506-12.022-6.904-16.428-4.406-4.405-10.244-6.788-16.434-6.788-6.191 0-12.025 2.383-16.549 6.788-9.051 9.049-9.051 23.811 0 32.86 4.406 4.524 10.357 6.907 16.549 6.907 3.098 0 6.072-.6 8.813-1.67 60.479 72.987 70.602 176.927 25.955 260.152l-4.762-11.313c-1.789-4.049-6.551-5.951-10.6-4.168-4.049 1.67-5.951 6.433-4.166 10.481l11.191 25.95v.121c.238.599.596 1.193 1.072 1.787.117.119.236.238.355.357.357.476.832.832 1.428 1.188 0 .121.119.121.119.121 0 .118.119.118.119.118.361.236.719.355 1.074.477.238.117.596.354.951.354.715.24 1.428.362 2.262.362.479 0 1.074-.122 1.67-.239.236 0 .355 0 .475-.123.238 0 .357 0 .596-.119l29.289-10.594c4.168-1.546 6.309-6.07 4.764-10.237-1.55-4.165-6.075-6.429-10.241-4.878zm-65.602-276.347c-2.74-2.854-2.74-7.379 0-10.119 1.428-1.428 3.332-2.142 5.238-2.142 1.904 0 3.693.714 5.119 2.021 1.311 1.43 2.143 3.217 2.143 5.12 0 1.908-.832 3.692-2.262 5.119-2.74 2.861-7.383 2.742-10.238.001zm5.238 313.492c-6.191 0-12.025 2.379-16.549 6.783-6.904 6.79-8.574 16.908-5.119 25.364-72.984 60.483-176.93 70.483-260.152 25.836l11.193-4.763c4.168-1.785 5.951-6.549 4.287-10.594-1.783-4.049-6.551-5.957-10.596-4.17l-25.955 11.191c-.359.119-.713.356-1.076.475-.119.119-.236.119-.357.239-.119.118-.355.358-.475.475-.236.124-.477.36-.713.599-.121.12-.24.239-.24.357-.236.239-.475.477-.711.834 0 0 0 0-.119.117 0 .119-.119.238-.119.358-.238.355-.357.595-.479.832-.117.237-.117.476-.236.714 0 .237-.119.594-.119.832-.117.238-.117.481-.117.719-.119.236-.119.477-.119.831 0 .239 0 .478.119.715 0 .238 0 .476.117.714 0 .238.119.595.119.832.119.118.119.238.119.476l10.715 29.411c1.188 3.216 4.285 5.237 7.621 5.237.832 0 1.783-.119 2.734-.477 4.168-1.545 6.314-6.188 4.762-10.355l-3.209-8.932c35.596 18.099 74.533 27.146 113.463 27.146 57.506 0 114.775-19.647 160.492-57.863 3.336 1.665 6.908 2.737 10.719 2.737 6.189 0 12.027-2.5 16.434-6.904 4.398-4.405 6.904-10.238 6.904-16.433 0-6.309-2.506-12.146-6.904-16.552-4.406-4.402-10.244-6.781-16.434-6.781zm5.119 28.454c-2.738 2.621-7.381 2.621-10.119.118 0 0 0-.118-.117-.118-.121-.119-.24-.238-.359-.355-2.502-2.855-2.383-7.261.238-9.883 1.428-1.427 3.332-2.14 5.238-2.14 1.904 0 3.693.713 5.119 2.021 1.311 1.427 2.143 3.216 2.143 5.237 0 1.909-.832 3.693-2.143 5.12zm-346.945-28.454c-3.098 0-6.07.595-8.811 1.667-60.604-72.985-70.723-177.044-26.074-260.15l4.881 11.191c1.307 3.097 4.285 4.884 7.383 4.884 1.072 0 2.141-.241 3.098-.599 4.168-1.783 5.951-6.547 4.281-10.595l-11.189-25.955h-.12c-.119-.357-.236-.596-.355-.832-.119-.239-.238-.357-.357-.595-.119-.12-.238-.239-.357-.478-.236-.238-.355-.475-.596-.717-.117-.115-.357-.238-.48-.353-.236-.124-.475-.361-.83-.6 0 0 0 0 0-.118-.24 0-.357-.12-.477-.12-.357-.237-.596-.356-.832-.475-.238-.12-.477-.12-.715-.239-.236 0-.475-.117-.715-.236-.357 0-.594 0-.834 0-.238-.119-.477-.119-.715-.119s-.596 0-.832.119c-.238 0-.477 0-.715 0-.238.119-.475.236-.832.236-.119.119-.238.119-.477.119l-29.291 10.72c-4.168 1.547-6.309 6.19-4.762 10.355 1.547 4.169 6.189 6.311 10.355 4.764l8.813-3.217c-44.886 88.347-33.216 197.171 30.838 273.846-4.525 8.811-3.213 19.881 4.166 27.265 4.406 4.404 10.242 6.904 16.551 6.904 6.189 0 12.027-2.5 16.432-6.904 4.406-4.405 6.904-10.238 6.904-16.433 0-6.309-2.498-12.146-6.904-16.552-4.405-4.404-10.242-6.783-16.432-6.783zm5.121 28.454c-2.74 2.74-7.623 2.74-10.357 0-2.742-2.854-2.742-7.499 0-10.356 1.426-1.309 3.209-2.021 5.236-2.021 1.902 0 3.693.713 5.121 2.021 1.309 1.427 2.145 3.216 2.145 5.237 0 1.908-.836 3.692-2.145 5.119zm-5.121-323.725c6.189 0 12.146-2.383 16.432-6.907 4.406-4.406 6.904-10.238 6.904-16.433 0-2.974-.596-5.951-1.785-8.691 72.865-60.72 176.926-70.843 260.268-26.071l-11.309 4.881c-4.049 1.666-5.955 6.428-4.168 10.477 1.307 3.097 4.168 4.881 7.379 4.881 1.076 0 2.145-.237 3.098-.595l25.955-11.194c.477-.236.832-.476 1.189-.713.119 0 .119 0 .238-.118.238-.12.357-.239.594-.477.123-.118.363-.356.6-.476.119-.119.238-.356.357-.476.238-.237.475-.477.594-.833 0 0 .119 0 .119-.119s.119-.238.119-.357c.238-.237.357-.594.477-.836.117-.238.117-.477.236-.714.119-.238.119-.476.238-.833 0-.237 0-.476.119-.714 0-.238 0-.475 0-.713 0-.237 0-.477 0-.833-.119-.238-.119-.479-.119-.719-.119-.237-.119-.476-.238-.832 0-.119-.119-.238-.119-.476l-10.713-29.288c-1.549-4.166-6.193-6.311-10.361-4.761-4.166 1.547-6.309 6.19-4.762 10.357l3.215 8.81c-88.344-45.003-197.282-33.218-273.842 30.839-3.33-1.67-6.904-2.621-10.715-2.621-6.309 0-12.145 2.383-16.551 6.788-9.047 9.049-9.047 23.811-.119 32.86 4.406 4.524 10.362 6.907 16.67 6.907zm-5.236-28.46c1.426-1.308 3.209-2.021 5.236-2.021 1.902 0 3.693.714 5.121 2.021 1.309 1.43 2.145 3.217 2.145 5.12 0 1.908-.836 3.692-2.266 5.119-2.619 2.859-7.383 2.859-10.236 0-2.742-2.854-2.742-7.378 0-10.239z" fill="#021047"/></g></svg>