<svg id="Layer_1" enable-background="new 0 0 66 66" height="300" viewBox="0 0 66 66" width="300" xmlns="http://www.w3.org/2000/svg" version="1.1" xmlns:xlink="http://www.w3.org/1999/xlink" xmlns:svgjs="http://svgjs.dev/svgjs"><g width="100%" height="100%" transform="matrix(1,0,0,1,0,0)"><g><g><g stroke="#101f2d" stroke-linecap="round" stroke-linejoin="round" stroke-miterlimit="10" stroke-width="2"><path d="m-2.3 46.7h23.2v11.3h-23.2z" fill="#336aea" transform="matrix(0 1 -1 0 61.682 43.118)" fill-opacity="1" data-original-color="#ef6561ff" stroke="#101f2d" stroke-opacity="1" data-original-stroke-color="#101f2dff" stroke-width="2" data-original-stroke-width="2"/><path d="m15 43.8c.5-.3 11.2-.9 11.4-5l.5-7.9s6.5-2.6 5.1 11.4h9.2c1.4 0 2.5 1.1 2.5 2.5 0 1.4-1.1 2.5-2.5 2.5h-9.2" fill="none" fill-opacity="1" stroke="#101f2d" stroke-opacity="1" data-original-stroke-color="#101f2dff" stroke-width="2" data-original-stroke-width="2"/><path d="m33.4 47.4h5.2c1.4 0 2.5 1.1 2.5 2.5 0 1.4-1.1 2.5-2.5 2.5h-5.2" fill="none" fill-opacity="1" stroke="#101f2d" stroke-opacity="1" data-original-stroke-color="#101f2dff" stroke-width="2" data-original-stroke-width="2"/><path d="m32 52.5h5.2c1.4 0 2.5 1.1 2.5 2.5 0 1.4-1.1 2.5-2.5 2.5h-5.2" fill="none" fill-opacity="1" stroke="#101f2d" stroke-opacity="1" data-original-stroke-color="#101f2dff" stroke-width="2" data-original-stroke-width="2"/><path d="m30.5 57.5h5.2c1.4 0 2.5 1.1 2.5 2.5 0 1.4-1.1 2.5-2.5 2.5h-12.9c-2 0-6.3-.5-7.9-1.5" fill="none" fill-opacity="1" stroke="#101f2d" stroke-opacity="1" data-original-stroke-color="#101f2dff" stroke-width="2" data-original-stroke-width="2"/><circle cx="46.7" cy="28.4" fill="#336aea" r="10.3" fill-opacity="0.6745098039215687" data-original-color="#64c4f6ff" stroke="#101f2d" stroke-opacity="1" data-original-stroke-color="#101f2dff" stroke-width="2" data-original-stroke-width="2"/><path d="m52.7 19.7 9.7-10.7-2.5-7-13.2 13.9" fill="none" fill-opacity="1" stroke="#101f2d" stroke-opacity="1" data-original-stroke-color="#101f2dff" stroke-width="2" data-original-stroke-width="2"/><path d="m40.8 19.7-9.7-10.7 2.5-7 15.2 16.1" fill="none" fill-opacity="1" stroke="#101f2d" stroke-opacity="1" data-original-stroke-color="#101f2dff" stroke-width="2" data-original-stroke-width="2"/><path d="m33.6 2 6.6 7h13.1l6.6-7z" fill="#336aea" fill-opacity="1" data-original-color="#ef6561ff" stroke="#101f2d" stroke-opacity="1" data-original-stroke-color="#101f2dff" stroke-width="2" data-original-stroke-width="2"/></g><path d="m46.7 22.3 1.8 3.5 3.8.6-2.8 2.7.7 3.9-3.5-1.8-3.4 1.8.6-3.9-2.8-2.7 3.9-.6z" fill="#ffffff" fill-opacity="1" data-original-color="#ffffffff" stroke="none" stroke-opacity="1"/></g><path d="m16.7 4.8 3.6 7.4 8.2 1.2-5.9 5.8 1.4 8.1-7.3-3.8-7.3 3.8 1.4-8.1-6-5.8 8.2-1.2z" style="stroke-linecap: round; stroke-linejoin: round; stroke-miterlimit: 10;" fill="#336aea" fill-opacity="0.6745098039215687" data-original-color="#64c4f6ff" stroke="#101f2d" stroke-opacity="1" data-original-stroke-color="#101f2dff" stroke-width="2" data-original-stroke-width="2"/></g></g></svg>