<svg id="Layer_1" viewBox="0 0 512 512" xmlns="http://www.w3.org/2000/svg" data-name="Layer 1"><path d="m256.54 437.66a7.007 7.007 0 0 0 -6.66-4.83h-.01l-37.3.07-11.47-35.5a7 7 0 0 0 -13.33 0l-11.44 35.5-37.3-.07h-.01a7 7 0 0 0 -4.11 12.67l30.22 21.87-11.59 35.45a7 7 0 0 0 10.78 7.83l30.12-21.99 30.14 21.99a7 7 0 0 0 10.78-7.83l-11.59-35.45 30.22-21.87a7.005 7.005 0 0 0 2.55-7.84zm-45.12 21.36a6.99 6.99 0 0 0 -2.55 7.84l6.44 19.7-16.75-12.22a6.977 6.977 0 0 0 -8.25 0l-16.72 12.2 6.44-19.68a7.005 7.005 0 0 0 -2.55-7.84l-16.78-12.15 20.71.05h.01a7.028 7.028 0 0 0 6.67-4.86l6.35-19.71 6.37 19.72a7.013 7.013 0 0 0 6.66 4.85h.02l20.71-.05zm-68.49-49.56a7 7 0 0 0 -6.66-4.84h-.01l-27.81.05-8.55-26.47a7 7 0 0 0 -13.33 0l-8.55 26.47-27.8-.05h-.01a7 7 0 0 0 -4.11 12.67l22.54 16.32-8.65 26.44a7 7 0 0 0 10.78 7.83l22.47-16.38 22.49 16.38a7.006 7.006 0 0 0 10.78-7.84l-8.67-26.44 22.53-16.31a7.01 7.01 0 0 0 2.56-7.83zm-39.99 23.65 3.5 10.68-9.08-6.62a6.993 6.993 0 0 0 -8.25.01l-9.07 6.61 3.5-10.69a7.005 7.005 0 0 0 -2.55-7.84l-9.11-6.6 11.22.02h.02a7 7 0 0 0 6.66-4.85l3.46-10.7 3.45 10.7a7.016 7.016 0 0 0 6.67 4.85h.01l11.23-.02-9.11 6.6a6.99 6.99 0 0 0 -2.55 7.85zm242.41-23.65a7 7 0 0 0 -6.66-4.84h-.01l-27.81.05-8.55-26.47a7 7 0 0 0 -13.32 0l-8.55 26.47-27.84-.05h-.01a7 7 0 0 0 -4.1 12.67l22.53 16.32-8.64 26.44a7 7 0 0 0 10.78 7.83l22.49-16.38 22.47 16.38a7 7 0 0 0 10.78-7.83l-8.65-26.44 22.54-16.32a6.991 6.991 0 0 0 2.55-7.83zm-39.99 23.64 3.5 10.69-9.07-6.61a6.993 6.993 0 0 0 -8.25-.01l-9.11 6.64 3.5-10.71a6.975 6.975 0 0 0 -2.55-7.84l-9.11-6.6 11.26.02h.01a6.994 6.994 0 0 0 6.66-4.85l3.46-10.7 3.46 10.7a6.994 6.994 0 0 0 6.66 4.85h.01l11.23-.02-9.11 6.6a7.005 7.005 0 0 0 -2.55 7.84zm123.49-346.88a49.028 49.028 0 1 0 -48.96 51.6c.86 0 1.73-.02 2.6-.06a49.029 49.029 0 0 0 46.36-51.54zm-22.92 26.01a35.015 35.015 0 1 1 -27.89-58.38c.65-.04 1.29-.05 1.93-.05a35.009 35.009 0 0 1 25.96 58.43zm-211.5-105.97a71.321 71.321 0 0 0 -71.23 71.24c0 28.75 7.49 53.04 21.67 70.26 13 15.79 30.61 24.48 49.56 24.48s36.57-8.69 49.57-24.48c14.18-17.22 21.67-41.51 21.67-70.26a71.323 71.323 0 0 0 -71.24-71.24zm0 151.98c-27.56 0-57.23-25.27-57.23-80.74a57.235 57.235 0 0 1 114.47 0c0 55.47-29.67 80.74-57.24 80.74zm36.71 27.37h-73.39a100.717 100.717 0 0 0 -100.6 100.61v71.77a7 7 0 0 0 7 7h260.59a7 7 0 0 0 7.01-7v-71.77a100.72 100.72 0 0 0 -100.61-100.61zm-22.62 14.01-2.33 16.56a8.373 8.373 0 0 1 -2.26 1.07 2.25 2.25 0 0 0 -.24.08 31.086 31.086 0 0 1 -9.32 1.25 29.923 29.923 0 0 1 -9.08-1.28c-.2-.07-.4-.14-.61-.2a7.745 7.745 0 0 1 -1.99-1.01l-2.31-16.47zm-20.16 32.58a50.67 50.67 0 0 0 6.22.39h.53c1.9-.03 3.7-.14 5.42-.34l10.33 61.73-16.43 23.04-16.42-23.04zm129.38 118.79h-43.79v-46.46a7.005 7.005 0 0 0 -14.01 0v46.46h-130.99v-46.46a7 7 0 1 0 -14 0v46.46h-43.8v-64.77a86.7 86.7 0 0 1 86.6-86.6h8.49l2.66 18.99a13 13 0 0 0 6.02 9.08l-11.2 66.84a6.972 6.972 0 0 0 1.2 5.22l23.81 33.39a7.005 7.005 0 0 0 11.41 0l23.81-33.39a7.016 7.016 0 0 0 1.2-5.22l-11.17-66.74a13.064 13.064 0 0 0 6.02-9.23l2.66-18.94h8.48a86.7 86.7 0 0 1 86.6 86.6zm111.11-264.77a49.028 49.028 0 1 0 -48.96 51.6c.86 0 1.73-.02 2.6-.06a49.029 49.029 0 0 0 46.36-51.54zm-22.92 26.01a35.015 35.015 0 1 1 -27.89-58.38c.65-.04 1.29-.05 1.93-.05a35.009 35.009 0 0 1 25.96 58.43zm22.92-26.01a49.028 49.028 0 1 0 -48.96 51.6c.86 0 1.73-.02 2.6-.06a49.029 49.029 0 0 0 46.36-51.54zm-22.92 26.01a35.015 35.015 0 1 1 -27.89-58.38c.65-.04 1.29-.05 1.93-.05a35.009 35.009 0 0 1 25.96 58.43zm22.92-26.01a49.028 49.028 0 1 0 -48.96 51.6c.86 0 1.73-.02 2.6-.06a49.029 49.029 0 0 0 46.36-51.54zm-22.92 26.01a35.015 35.015 0 1 1 -27.89-58.38c.65-.04 1.29-.05 1.93-.05a35.009 35.009 0 0 1 25.96 58.43zm22.92-26.01a49.028 49.028 0 1 0 -48.96 51.6c.86 0 1.73-.02 2.6-.06a49.029 49.029 0 0 0 46.36-51.54zm-22.92 26.01a35.015 35.015 0 1 1 -27.89-58.38c.65-.04 1.29-.05 1.93-.05a35.009 35.009 0 0 1 25.96 58.43zm22.92-26.01a49.028 49.028 0 1 0 -48.96 51.6c.86 0 1.73-.02 2.6-.06a49.029 49.029 0 0 0 46.36-51.54zm-22.92 26.01a35.015 35.015 0 1 1 -27.89-58.38c.65-.04 1.29-.05 1.93-.05a35.009 35.009 0 0 1 25.96 58.43zm36.39 39.39a25 25 0 0 0 3.73-3.35 23.413 23.413 0 0 0 5.38-21.36l-1.9-7.89a9.345 9.345 0 0 1 3.51-9.9l6.47-4.94a23.643 23.643 0 0 0 -2.02-38.95l-6.95-4.25a9.294 9.294 0 0 1 -4.53-9.48l1.07-8.03a23.586 23.586 0 0 0 -28.96-26.12l-7.95 1.92a9.375 9.375 0 0 1 -9.9-3.46l-5.15-6.65a23.637 23.637 0 0 0 -38.78 2.05l-4.4 7.13a9.311 9.311 0 0 1 -9.47 4.51l-8.14-1.08a23.621 23.621 0 0 0 -26.05 29.01l1.92 7.9a9.4 9.4 0 0 1 -3.49 9.92l-6.46 4.96a23.617 23.617 0 0 0 2.11 38.91l6.91 4.23a9.4 9.4 0 0 1 4.56 9.5l-1.04 8.05a23.266 23.266 0 0 0 4.64 17.45l-20.78 31.94a7 7 0 0 0 6.58 10.78l20.93-2.12 6.55 19.99a7 7 0 0 0 5.74 4.76 6.989 6.989 0 0 0 6.78-3.13l26.41-40.65a23.111 23.111 0 0 0 13.58 4.35c.45 0 .9-.01 1.35-.04a23.649 23.649 0 0 0 7.39-1.56l24.63 37.9a7.006 7.006 0 0 0 5.86 3.19 7.106 7.106 0 0 0 .92-.06 7.009 7.009 0 0 0 5.74-4.77l6.53-19.98 20.92 2.12a7.006 7.006 0 0 0 6.58-10.78zm-102.86 42.4-3.75-11.44a7 7 0 0 0 -7.36-4.78l-11.99 1.21 12.48-19.18a23.522 23.522 0 0 0 12.96.47l7.9-1.93a9.348 9.348 0 0 1 9.92 3.5l.39.52zm56.35-41.99-4.24 6.97a9.278 9.278 0 0 1 -7.74 4.6 9.18 9.18 0 0 1 -8.11-3.76c-.01 0-.01 0-.01-.01l-5-6.5a23.383 23.383 0 0 0 -18.61-9.25 23.839 23.839 0 0 0 -5.71.69l-7.9 1.92a9.624 9.624 0 0 1 -11.82-10.63l1.05-8.04a23.358 23.358 0 0 0 -11.15-23.27l-6.95-4.25a9.616 9.616 0 0 1 -.85-15.83l6.46-4.96a23.342 23.342 0 0 0 8.58-24.33l-1.93-7.9a9.624 9.624 0 0 1 10.62-11.82l8.13 1.07a23.444 23.444 0 0 0 23.21-11l4.43-7.18a9.627 9.627 0 0 1 15.77-.83l5.17 6.68a23.48 23.48 0 0 0 24.23 8.48l7.97-1.92a9.583 9.583 0 0 1 11.79 10.63l-1.07 8.06a23.353 23.353 0 0 0 11.11 23.28l6.94 4.25a9.168 9.168 0 0 1 4.6 7.7 9.3 9.3 0 0 1 -3.77 8.17l-6.46 4.93a23.293 23.293 0 0 0 -8.63 24.33l1.9 7.89a9.6 9.6 0 0 1 -10.64 11.79l-8.06-1.08a23.432 23.432 0 0 0 -23.31 11.12zm35.63 25.77a6.98 6.98 0 0 0 -7.36 4.79l-3.73 11.42-17.42-26.8c.2-.3.4-.6.59-.91l4.25-6.97a9.323 9.323 0 0 1 9.51-4.53l8.03 1.07a23.3 23.3 0 0 0 3.21.22l14.91 22.92zm-2.59-91.58a49.028 49.028 0 1 0 -48.96 51.6c.86 0 1.73-.02 2.6-.06a49.029 49.029 0 0 0 46.36-51.54zm-22.92 26.01a35.015 35.015 0 1 1 -27.89-58.38c.65-.04 1.29-.05 1.93-.05a35.009 35.009 0 0 1 25.96 58.43zm22.92-26.01a49.028 49.028 0 1 0 -48.96 51.6c.86 0 1.73-.02 2.6-.06a49.029 49.029 0 0 0 46.36-51.54zm-22.92 26.01a35.015 35.015 0 1 1 -27.89-58.38c.65-.04 1.29-.05 1.93-.05a35.009 35.009 0 0 1 25.96 58.43zm22.92-26.01a49.028 49.028 0 1 0 -48.96 51.6c.86 0 1.73-.02 2.6-.06a49.029 49.029 0 0 0 46.36-51.54zm-22.92 26.01a35.015 35.015 0 1 1 -27.89-58.38c.65-.04 1.29-.05 1.93-.05a35.009 35.009 0 0 1 25.96 58.43zm22.92-26.01a49.028 49.028 0 1 0 -48.96 51.6c.86 0 1.73-.02 2.6-.06a49.029 49.029 0 0 0 46.36-51.54zm-22.92 26.01a35.015 35.015 0 1 1 -27.89-58.38c.65-.04 1.29-.05 1.93-.05a35.009 35.009 0 0 1 25.96 58.43zm22.92-26.01a49.028 49.028 0 1 0 -48.96 51.6c.86 0 1.73-.02 2.6-.06a49.029 49.029 0 0 0 46.36-51.54zm-22.92 26.01a35.015 35.015 0 1 1 -27.89-58.38c.65-.04 1.29-.05 1.93-.05a35.009 35.009 0 0 1 25.96 58.43z" fill="#1865c1"/><g fill="#83dbf2"><path d="m305.36 433.1 3.5 10.69-9.07-6.61a6.993 6.993 0 0 0 -8.25-.01l-9.11 6.64 3.5-10.71a6.975 6.975 0 0 0 -2.55-7.84l-9.11-6.6 11.26.02h.01a6.994 6.994 0 0 0 6.66-4.85l3.46-10.7 3.46 10.7a6.994 6.994 0 0 0 6.66 4.85h.01l11.23-.02-9.11 6.6a7.005 7.005 0 0 0 -2.55 7.84z"/><path d="m102.94 433.11 3.5 10.68-9.08-6.62a6.993 6.993 0 0 0 -8.25.01l-9.07 6.61 3.5-10.69a7.005 7.005 0 0 0 -2.55-7.84l-9.11-6.6 11.22.02h.02a7 7 0 0 0 6.66-4.85l3.46-10.7 3.45 10.7a7.016 7.016 0 0 0 6.67 4.85h.01l11.23-.02-9.11 6.6a6.99 6.99 0 0 0 -2.55 7.85z"/><path d="m208.87 466.86 6.44 19.7-16.75-12.22a6.977 6.977 0 0 0 -8.25 0l-16.72 12.2 6.44-19.68a7.005 7.005 0 0 0 -2.55-7.84l-16.78-12.15 20.71.05h.01a7.028 7.028 0 0 0 6.67-4.86l6.35-19.71 6.37 19.72a7.013 7.013 0 0 0 6.66 4.85h.02l20.71-.05-16.78 12.15a6.99 6.99 0 0 0 -2.55 7.84z"/><path d="m450.18 77.18-6.94-4.25a23.353 23.353 0 0 1 -11.11-23.28l1.07-8.06a9.583 9.583 0 0 0 -11.79-10.63l-7.97 1.92a23.48 23.48 0 0 1 -24.23-8.48l-5.17-6.68a9.627 9.627 0 0 0 -15.77.83l-4.43 7.18a23.444 23.444 0 0 1 -23.21 11l-8.13-1.07a9.624 9.624 0 0 0 -10.62 11.82l1.93 7.9a23.342 23.342 0 0 1 -8.58 24.33l-6.46 4.96a9.616 9.616 0 0 0 .85 15.83l6.95 4.25a23.358 23.358 0 0 1 11.15 23.27l-1.05 8.04a9.624 9.624 0 0 0 11.82 10.63l7.9-1.92a23.839 23.839 0 0 1 5.71-.69 23.383 23.383 0 0 1 18.61 9.25l5 6.5c0 .01 0 .01.01.01a9.18 9.18 0 0 0 8.11 3.76 9.278 9.278 0 0 0 7.74-4.6l4.24-6.97a23.432 23.432 0 0 1 23.31-11.12l8.06 1.08a9.6 9.6 0 0 0 10.64-11.79l-1.9-7.89a23.293 23.293 0 0 1 8.63-24.33l6.46-4.93a9.3 9.3 0 0 0 3.77-8.17 9.168 9.168 0 0 0 -4.6-7.7zm-33.84 44.41a48.7 48.7 0 0 1 -33.85 16.17c-.87.04-1.74.06-2.6.06a49.014 49.014 0 1 1 36.45-16.23z"/><path d="m317.74 286.22v64.77h-43.79v-46.46a7.005 7.005 0 0 0 -14.01 0v46.46h-130.99v-46.46a7 7 0 1 0 -14 0v46.46h-43.8v-64.77a86.7 86.7 0 0 1 86.6-86.6h8.49l2.66 18.99a13 13 0 0 0 6.02 9.08l-11.2 66.84a6.972 6.972 0 0 0 1.2 5.22l23.81 33.39a7.005 7.005 0 0 0 11.41 0l23.81-33.39a7.016 7.016 0 0 0 1.2-5.22l-11.17-66.74a13.064 13.064 0 0 0 6.02-9.23l2.66-18.94h8.48a86.7 86.7 0 0 1 86.6 86.6z"/></g></svg>