<?xml version="1.0" encoding="UTF-8" standalone="no"?>
<!-- Created with Inkscape (http://www.inkscape.org/) -->

<svg
   version="1.1"
   id="svg3921"
   xml:space="preserve"
   width="682.66669"
   height="682.66669"
   viewBox="0 0 682.66669 682.66669"
   xmlns="http://www.w3.org/2000/svg"
   xmlns:svg="http://www.w3.org/2000/svg"><defs
     id="defs3925"><clipPath
       clipPathUnits="userSpaceOnUse"
       id="clipPath3935"><path
         d="M 0,512 H 512 V 0 H 0 Z"
         id="path3933" /></clipPath></defs><g
     id="g3927"
     transform="matrix(1.3333333,0,0,-1.3333333,0,682.66667)"><g
       id="g3929"><g
         id="g3931"
         clip-path="url(#clipPath3935)"><g
           id="g3937"
           transform="translate(321,494.5791)"><path
             d="M 0,0 C 0,5.479 -4.44,9.921 -9.917,9.921 H -303.583 C -309.06,9.921 -313.5,5.479 -313.5,0 v -422.101 c 0,-5.478 4.44,-9.92 9.917,-9.92 h 234.28 L 0,-363.046 Z"
             style="fill:#fff9e9;fill-opacity:1;fill-rule:nonzero;stroke:none"
             id="path3939" /></g><g
           id="g3941"
           transform="translate(311.082,504.5)"><path
             d="m 0,0 h -40 c 5.478,0 9.918,-4.441 9.918,-9.921 v -363.046 l -29.303,-68.974 69.303,68.974 V -9.921 C 9.918,-4.441 5.478,0 0,0"
             style="fill:#fff4d6;fill-opacity:1;fill-rule:nonzero;stroke:none"
             id="path3943" /></g><g
           id="g3945"
           transform="translate(251.6973,62.5576)"><path
             d="m 0,0 v 59.698 c 0,5.479 4.44,9.921 9.918,9.921 h 59.385 z"
             style="fill:#ffeec2;fill-opacity:1;fill-rule:nonzero;stroke:none"
             id="path3947" /></g><g
           id="g3949"
           transform="translate(224.8677,17.5)"><path
             d="m 0,0 v 259.892 c 0,5.522 4.477,10 10,10 h 127.911 c 5.523,0 10,-4.478 10,-10 V 0 c 0,-5.522 -4.477,-10 -10,-10 H 10 C 4.477,-10 0,-5.522 0,0"
             style="fill:#a1ffa1;fill-opacity:1;fill-rule:nonzero;stroke:none"
             id="path3951" /></g><g
           id="g3953"
           transform="translate(298.8228,109.1416)"><path
             d="m 0,0 c -21.155,0 -38.304,17.149 -38.304,38.304 0,21.155 17.149,38.304 38.304,38.304 21.155,0 38.304,-17.149 38.304,-38.304 C 38.304,17.149 21.155,0 0,0"
             style="fill:#74d674;fill-opacity:1;fill-rule:nonzero;stroke:none"
             id="path3955" /></g><g
           id="g3957"
           transform="translate(329.5405,7.5)"><path
             d="M 0,0 C 0,23.898 19.339,43.237 43.238,43.237 V 10 c 0,-5.522 -4.477,-10 -10,-10 z"
             style="fill:#74d674;fill-opacity:1;fill-rule:nonzero;stroke:none"
             id="path3959" /></g><g
           id="g3961"
           transform="translate(224.8677,50.7373)"><path
             d="M 0,0 C 23.898,0 43.237,-19.339 43.237,-43.237 H 10 c -5.523,0 -10,4.477 -10,10 z"
             style="fill:#74d674;fill-opacity:1;fill-rule:nonzero;stroke:none"
             id="path3963" /></g><g
           id="g3965"
           transform="translate(268.105,287.3916)"><path
             d="M 0,0 C 0,-23.898 -19.339,-43.237 -43.237,-43.237 V -10 c 0,5.522 4.477,10 10,10 z"
             style="fill:#74d674;fill-opacity:1;fill-rule:nonzero;stroke:none"
             id="path3967" /></g><g
           id="g3969"
           transform="translate(372.7783,244.1543)"><path
             d="M 0,0 C -23.899,0 -43.238,19.339 -43.238,43.237 H -10 c 5.523,0 10,-4.477 10,-10 z"
             style="fill:#74d674;fill-opacity:1;fill-rule:nonzero;stroke:none"
             id="path3971" /></g><g
           id="g3973"
           transform="translate(416.917,7.5)"><path
             d="m 0,0 h 77.583 c 5.523,0 10,4.478 10,10 V 32.889 L 0,32.889 Z"
             style="fill:#fdf385;fill-opacity:1;fill-rule:nonzero;stroke:none"
             id="path3975" /></g><g
           id="g3977"
           transform="translate(464.5,40.3887)"><path
             d="m 0,0 v -22.889 c 0,-5.522 -4.477,-10 -10,-10 h 40 c 5.523,0 10,4.478 10,10 V 0 Z"
             style="fill:#faee6e;fill-opacity:1;fill-rule:nonzero;stroke:none"
             id="path3979" /></g><path
           d="M 416.917,40.389 H 504.5 v 32.889 h -87.583 z"
           style="fill:#fed23a;fill-opacity:1;fill-rule:nonzero;stroke:none"
           id="path3981" /><path
           d="m 464.5,40.389 h 40 v 32.889 h -40 z"
           style="fill:#ffc600;fill-opacity:1;fill-rule:nonzero;stroke:none"
           id="path3983" /><g
           id="g3985"
           transform="translate(416.917,73.2773)"><path
             d="m 0,0 h 87.583 v 22.889 c 0,5.523 -4.477,10 -10,10 L 0,32.889 Z"
             style="fill:#fdf385;fill-opacity:1;fill-rule:nonzero;stroke:none"
             id="path3987" /></g><g
           id="g3989"
           transform="translate(494.5,106.166)"><path
             d="m 0,0 h -40 c 5.523,0 10,-4.477 10,-10 V -32.889 H 10 V -10 C 10,-4.477 5.523,0 0,0"
             style="fill:#faee6e;fill-opacity:1;fill-rule:nonzero;stroke:none"
             id="path3991" /></g><g
           id="g3993"
           transform="translate(339.334,7.5)"><path
             d="M 0,0 H 77.583 V 32.889 H -10 V 10 C -10,4.478 -5.523,0 0,0"
             style="fill:#fed23a;fill-opacity:1;fill-rule:nonzero;stroke:none"
             id="path3995" /></g><path
           d="m 376.917,7.5 h 40 v 32.889 h -40 z"
           style="fill:#ffc600;fill-opacity:1;fill-rule:nonzero;stroke:none"
           id="path3997" /><path
           d="m 329.334,40.389 h 87.583 v 32.889 h -87.583 z"
           style="fill:#fdf385;fill-opacity:1;fill-rule:nonzero;stroke:none"
           id="path3999" /><path
           d="m 376.917,40.389 h 40 v 32.889 h -40 z"
           style="fill:#faee6e;fill-opacity:1;fill-rule:nonzero;stroke:none"
           id="path4001" /><path
           d="m 329.334,73.277 h 87.583 v 32.889 h -87.583 z"
           style="fill:#fed23a;fill-opacity:1;fill-rule:nonzero;stroke:none"
           id="path4003" /><path
           d="m 376.917,73.277 h 40 v 32.889 h -40 z"
           style="fill:#ffc600;fill-opacity:1;fill-rule:nonzero;stroke:none"
           id="path4005" /><path
           d="m 329.334,106.166 h 87.583 v 32.889 h -87.583 z"
           style="fill:#fdf385;fill-opacity:1;fill-rule:nonzero;stroke:none"
           id="path4007" /><path
           d="m 376.917,106.166 h 40 v 32.889 h -40 z"
           style="fill:#faee6e;fill-opacity:1;fill-rule:nonzero;stroke:none"
           id="path4009" /><path
           d="m 329.334,139.055 h 87.583 v 32.889 h -87.583 z"
           style="fill:#fed23a;fill-opacity:1;fill-rule:nonzero;stroke:none"
           id="path4011" /><path
           d="m 376.917,139.055 h 40 v 32.889 h -40 z"
           style="fill:#ffc600;fill-opacity:1;fill-rule:nonzero;stroke:none"
           id="path4013" /><g
           id="g4015"
           transform="translate(329.334,171.9434)"><path
             d="m 0,0 h 87.583 v 22.889 c 0,5.523 -4.477,10 -10,10 H 10 c -5.523,0 -10,-4.477 -10,-10 z"
             style="fill:#fdf385;fill-opacity:1;fill-rule:nonzero;stroke:none"
             id="path4017" /></g><g
           id="g4019"
           transform="translate(406.917,204.832)"><path
             d="m 0,0 h -40 c 5.523,0 10,-4.477 10,-10 V -32.889 H 10 V -10 C 10,-4.477 5.523,0 0,0"
             style="fill:#faee6e;fill-opacity:1;fill-rule:nonzero;stroke:none"
             id="path4021" /></g><g
           id="g4023"
           transform="translate(321,289)"><path
             d="M 0,0 V 64"
             style="fill:none;stroke:#060606;stroke-width:15;stroke-linecap:round;stroke-linejoin:round;stroke-miterlimit:10;stroke-dasharray:none;stroke-opacity:1"
             id="path4025" /></g><g
           id="g4027"
           transform="translate(321,432.333)"><path
             d="m 0,0 v 62.246 c 0,5.48 -4.44,9.921 -9.917,9.921 h -293.666 c -5.477,0 -9.917,-4.441 -9.917,-9.921 v -422.1 c 0,-5.479 4.44,-9.921 9.917,-9.921 H -97"
             style="fill:none;stroke:#060606;stroke-width:15;stroke-linecap:round;stroke-linejoin:round;stroke-miterlimit:10;stroke-dasharray:none;stroke-opacity:1"
             id="path4029" /></g><g
           id="g4031"
           transform="translate(171.0229,435.9687)"><path
             d="M 0,0 H 87.161"
             style="fill:none;stroke:#060606;stroke-width:15;stroke-linecap:round;stroke-linejoin:round;stroke-miterlimit:10;stroke-dasharray:none;stroke-opacity:1"
             id="path4033" /></g><g
           id="g4035"
           transform="translate(171.0229,382.1641)"><path
             d="M 0,0 H 51.337"
             style="fill:none;stroke:#060606;stroke-width:15;stroke-linecap:round;stroke-linejoin:round;stroke-miterlimit:10;stroke-dasharray:none;stroke-opacity:1"
             id="path4037" /></g><g
           id="g4039"
           transform="translate(65.0229,244.5537)"><path
             d="M 0,0 H 160.977"
             style="fill:none;stroke:#060606;stroke-width:15;stroke-linecap:round;stroke-linejoin:round;stroke-miterlimit:10;stroke-dasharray:none;stroke-opacity:1"
             id="path4041" /></g><g
           id="g4043"
           transform="translate(65.0229,190.748)"><path
             d="M 0,0 H 159.977"
             style="fill:none;stroke:#060606;stroke-width:15;stroke-linecap:round;stroke-linejoin:round;stroke-miterlimit:10;stroke-dasharray:none;stroke-opacity:1"
             id="path4045" /></g><g
           id="g4047"
           transform="translate(65.0229,136.9434)"><path
             d="M 0,0 H 98.601"
             style="fill:none;stroke:#060606;stroke-width:15;stroke-linecap:round;stroke-linejoin:round;stroke-miterlimit:10;stroke-dasharray:none;stroke-opacity:1"
             id="path4049" /></g><g
           id="g4051"
           transform="translate(114.543,431.9385)"><path
             d="m 0,0 c 0,0 -12.038,11.103 -30.593,5.513 -17.037,-5.132 -21.268,-28.444 -9.691,-37.525 6.648,-5.215 16.651,-9.502 30.133,-14.266 30.172,-10.666 19.018,-53.217 -11.674,-53.422 -11.977,-0.079 -17.577,0.68 -28.098,7.563"
             style="fill:none;stroke:#060606;stroke-width:15;stroke-linecap:round;stroke-linejoin:round;stroke-miterlimit:10;stroke-dasharray:none;stroke-opacity:1"
             id="path4053" /></g><g
           id="g4055"
           transform="translate(92.7183,453.3887)"><path
             d="M 0,0 V -136.683"
             style="fill:none;stroke:#060606;stroke-width:15;stroke-linecap:round;stroke-linejoin:round;stroke-miterlimit:10;stroke-dasharray:none;stroke-opacity:1"
             id="path4057" /></g><g
           id="g4059"
           transform="translate(362.7783,7.5)"><path
             d="m 0,0 h -127.911 c -5.523,0 -10,4.478 -10,10 v 259.892 c 0,5.522 4.477,10 10,10 H 0 c 5.523,0 10,-4.478 10,-10 V 198.5"
             style="fill:none;stroke:#060606;stroke-width:15;stroke-linecap:round;stroke-linejoin:round;stroke-miterlimit:10;stroke-dasharray:none;stroke-opacity:1"
             id="path4061" /></g><g
           id="g4063"
           transform="translate(328.9673,123.8105)"><path
             d="m 0,0 c -7.012,-8.932 -17.908,-14.669 -30.145,-14.669 -21.154,0 -38.303,17.149 -38.303,38.304 0,21.155 17.149,38.304 38.303,38.304 12.851,0 24.224,-6.328 31.172,-16.038"
             style="fill:none;stroke:#060606;stroke-width:15;stroke-linecap:round;stroke-linejoin:round;stroke-miterlimit:10;stroke-dasharray:none;stroke-opacity:1"
             id="path4065" /></g><g
           id="g4067"
           transform="translate(224.8677,50.7373)"><path
             d="M 0,0 C 23.898,0 43.237,-19.339 43.237,-43.237 H 10 c -5.523,0 -10,4.477 -10,10 z"
             style="fill:none;stroke:#060606;stroke-width:15;stroke-linecap:round;stroke-linejoin:round;stroke-miterlimit:10;stroke-dasharray:none;stroke-opacity:1"
             id="path4069" /></g><g
           id="g4071"
           transform="translate(268.105,287.3916)"><path
             d="M 0,0 C 0,-23.898 -19.339,-43.237 -43.237,-43.237 V -10 c 0,5.522 4.477,10 10,10 z"
             style="fill:none;stroke:#060606;stroke-width:15;stroke-linecap:round;stroke-linejoin:round;stroke-miterlimit:10;stroke-dasharray:none;stroke-opacity:1"
             id="path4073" /></g><g
           id="g4075"
           transform="translate(372.7783,244.1543)"><path
             d="M 0,0 C -23.899,0 -43.238,19.339 -43.238,43.237 H -10 c 5.523,0 10,-4.477 10,-10 z"
             style="fill:none;stroke:#060606;stroke-width:15;stroke-linecap:round;stroke-linejoin:round;stroke-miterlimit:10;stroke-dasharray:none;stroke-opacity:1"
             id="path4077" /></g><g
           id="g4079"
           transform="translate(480.582,7.5)"><path
             d="m 0,0 h 13.918 c 5.523,0 10,4.478 10,10 V 32.889 H -63.665 V 0 h 23.867"
             style="fill:none;stroke:#060606;stroke-width:15;stroke-linecap:round;stroke-linejoin:round;stroke-miterlimit:10;stroke-dasharray:none;stroke-opacity:1"
             id="path4081" /></g><path
           d="M 416.917,40.389 H 504.5 v 32.889 h -87.583 z"
           style="fill:none;stroke:#060606;stroke-width:15;stroke-linecap:round;stroke-linejoin:round;stroke-miterlimit:10;stroke-dasharray:none;stroke-opacity:1"
           id="path4083" /><g
           id="g4085"
           transform="translate(416.917,73.2773)"><path
             d="m 0,0 h 87.583 v 22.889 c 0,5.523 -4.477,10 -10,10 L 0,32.889 Z"
             style="fill:none;stroke:#060606;stroke-width:15;stroke-linecap:round;stroke-linejoin:round;stroke-miterlimit:10;stroke-dasharray:none;stroke-opacity:1"
             id="path4087" /></g><g
           id="g4089"
           transform="translate(339.334,7.5)"><path
             d="M 0,0 H 77.583 V 32.889 H -10 V 10 C -10,4.478 -5.523,0 0,0 Z"
             style="fill:none;stroke:#060606;stroke-width:15;stroke-linecap:round;stroke-linejoin:round;stroke-miterlimit:10;stroke-dasharray:none;stroke-opacity:1"
             id="path4091" /></g><path
           d="m 329.334,40.389 h 87.583 v 32.889 h -87.583 z"
           style="fill:none;stroke:#060606;stroke-width:15;stroke-linecap:round;stroke-linejoin:round;stroke-miterlimit:10;stroke-dasharray:none;stroke-opacity:1"
           id="path4093" /><path
           d="m 329.334,73.277 h 87.583 v 32.889 h -87.583 z"
           style="fill:none;stroke:#060606;stroke-width:15;stroke-linecap:round;stroke-linejoin:round;stroke-miterlimit:10;stroke-dasharray:none;stroke-opacity:1"
           id="path4095" /><path
           d="m 329.334,106.166 h 87.583 v 32.889 h -87.583 z"
           style="fill:none;stroke:#060606;stroke-width:15;stroke-linecap:round;stroke-linejoin:round;stroke-miterlimit:10;stroke-dasharray:none;stroke-opacity:1"
           id="path4097" /><path
           d="m 329.334,139.055 h 87.583 v 32.889 h -87.583 z"
           style="fill:none;stroke:#060606;stroke-width:15;stroke-linecap:round;stroke-linejoin:round;stroke-miterlimit:10;stroke-dasharray:none;stroke-opacity:1"
           id="path4099" /><g
           id="g4101"
           transform="translate(329.334,171.9434)"><path
             d="m 0,0 h 87.583 v 22.889 c 0,5.523 -4.477,10 -10,10 H 10 c -5.523,0 -10,-4.477 -10,-10 z"
             style="fill:none;stroke:#060606;stroke-width:15;stroke-linecap:round;stroke-linejoin:round;stroke-miterlimit:10;stroke-dasharray:none;stroke-opacity:1"
             id="path4103" /></g><g
           id="g4105"
           transform="translate(268.9326,340.4229)"><path
             d="m 0,0 91.71,91.71 45.079,-45.078 91.71,91.711"
             style="fill:none;stroke:#060606;stroke-width:15;stroke-linecap:round;stroke-linejoin:round;stroke-miterlimit:10;stroke-dasharray:none;stroke-opacity:1"
             id="path4107" /></g><g
           id="g4109"
           transform="translate(458.8486,478.7656)"><path
             d="M 0,0 H 38.583 V -38.583"
             style="fill:none;stroke:#060606;stroke-width:15;stroke-linecap:round;stroke-linejoin:round;stroke-miterlimit:10;stroke-dasharray:none;stroke-opacity:1"
             id="path4111" /></g></g></g></g></svg>
