<svg id="Layer_1" enable-background="new 0 0 512 512" viewBox="0 0 512 512" xmlns="http://www.w3.org/2000/svg"><g><g><g clip-rule="evenodd" fill-rule="evenodd"><path d="m447.59 181.449v314.542h-69.072v-314.542h-24.762c-4.106 0-7.613-2.324-9.213-6.106-1.599-3.781-.825-7.917 2.035-10.863l59.298-61.092c1.955-2.014 4.371-3.036 7.178-3.036s5.223 1.022 7.178 3.036l59.298 61.092c2.86 2.946 3.634 7.082 2.035 10.864-1.6 3.781-5.107 6.106-9.213 6.106h-24.762z" fill="#a6e7f0"/><path d="m133.484 344.375v151.616h-69.072v-151.616c0-5.509 4.493-10.003 10.003-10.003h49.066c5.509.001 10.003 4.494 10.003 10.003z" fill="#f79595"/><path d="m238.185 281.344v214.647h-69.072v-214.647c0-5.509 4.493-10.003 10.003-10.003h49.066c5.51 0 10.003 4.494 10.003 10.003z" fill="#fad97f"/><path d="m342.887 233.208v262.783h-69.072v-262.783c0-5.509 4.493-10.003 10.003-10.003h49.066c5.51.001 10.003 4.494 10.003 10.003z" fill="#d6f6b2"/></g><g><g clip-rule="evenodd" fill-rule="evenodd"><ellipse cx="100.2" cy="100.19" fill="#fad97f" rx="84.2" ry="84.2" transform="matrix(.393 -.92 .92 .393 -31.281 153.021)"/><circle cx="100.2" cy="100.19" fill="#f8c963" r="65.044"/></g></g></g><path clip-rule="evenodd" d="m345.949 23.895-47.179 13.229c-2.662.743-5.418-.804-6.17-3.466-.738-2.657.809-5.418 3.47-6.161l58.178-16.314c2.652-.743 5.413.804 6.16 3.466l16.309 58.173c.752 2.662-.799 5.422-3.456 6.165-2.662.743-5.422-.804-6.17-3.461l-12.861-45.874c-24.69 47.183-56.65 89.63-95.109 126.312-33.009 31.485-70.852 58.808-112.481 81.213-70.9 38.162-127.38 48.668-129.75 49.096-.296.056-.602.08-.898.08-2.37 0-4.472-1.693-4.91-4.11-.494-2.714 1.307-5.319 4.03-5.808.569-.103 57.572-10.741 127.121-48.237 62.307-33.596 147.419-96.082 203.716-204.303zm-265.318 61.739c0 10.788 8.78 19.564 19.568 19.564 5.272 0 9.57 4.294 9.57 9.566 0 5.276-4.298 9.565-9.57 9.565-3.24 0-6.231-1.618-8.009-4.331-1.51-2.309-4.609-2.953-6.923-1.444-2.309 1.514-2.958 4.613-1.439 6.923 2.69 4.11 6.753 6.993 11.371 8.206v3.104c0 2.765 2.239 5.004 4.999 5.004 2.761 0 4.999-2.238 4.999-5.004v-3.104c8.371-2.215 14.569-9.857 14.569-18.919 0-10.788-8.776-19.564-19.568-19.564-5.272 0-9.57-4.294-9.57-9.565 0-5.276 4.298-9.565 9.57-9.565 3.24 0 6.231 1.618 8.014 4.331 1.51 2.309 4.609 2.958 6.918 1.444s2.958-4.613 1.439-6.923c-2.69-4.11-6.748-6.993-11.371-8.206v-3.106c0-2.765-2.238-4.999-4.999-4.999-2.76 0-4.999 2.234-4.999 4.999v3.104c-8.37 2.215-14.569 9.857-14.569 18.92zm19.569-40.233c-30.211 0-54.802 24.581-54.802 54.797 0 30.215 24.591 54.797 54.802 54.797s54.802-24.581 54.802-54.797c-.001-30.215-24.592-54.797-54.802-54.797zm0 119.592c35.732 0 64.8-29.068 64.8-64.795s-29.068-64.795-64.8-64.795-64.8 29.068-64.8 64.795 29.068 64.795 64.8 64.795zm0-143.995c-43.67 0-79.2 35.529-79.2 79.2 0 43.67 35.53 79.199 79.2 79.199s79.2-35.529 79.2-79.199c-.001-43.67-35.53-79.2-79.2-79.2zm0 168.403c49.182 0 89.203-40.016 89.203-89.202s-40.021-89.199-89.203-89.199c-49.191 0-89.198 40.012-89.198 89.198s40.007 89.203 89.198 89.203zm-30.789 154.98c0-2.761 2.248-4.999 4.999-4.999h49.069c2.76 0 5.004 2.238 5.004 4.999v146.619h-59.072zm104.698-63.031v209.65h59.081v-209.65c0-2.756-2.248-4.999-5.009-4.999h-49.06c-2.76-.001-5.012 2.243-5.012 4.999zm104.712-48.133v257.783h59.072v-257.783c0-2.761-2.253-5.004-5.004-5.004h-49.069c-2.76 0-4.999 2.243-4.999 5.004zm99.699-56.759c2.761 0 4.999 2.234 4.999 4.999v309.543h59.072v-309.542c0-2.765 2.238-4.999 4.999-4.999h24.76c3.08 0 4.308-2.337 4.609-3.052.31-.719 1.134-3.226-1.02-5.436l-59.297-61.094c-.96-.988-2.229-1.533-3.588-1.533-1.35 0-2.624.546-3.593 1.533l-59.288 61.094c-2.149 2.21-1.331 4.717-1.03 5.432.306.719 1.528 3.057 4.618 3.057h24.759zm117.481 314.542h-43.411v-304.543h19.761c6.142 0 11.432-3.508 13.822-9.157 2.389-5.648 1.218-11.893-3.052-16.295l-59.298-61.094c-2.864-2.949-6.683-4.571-10.769-4.571-4.082 0-7.901 1.622-10.765 4.571l-59.297 61.094c-4.27 4.402-5.441 10.647-3.062 16.295 2.389 5.648 7.689 9.157 13.831 9.157h19.761v304.543h-25.63v-257.783c0-8.272-6.73-15.002-15.002-15.002h-49.07c-8.272 0-14.997 6.729-14.997 15.002v257.783h-25.63v-209.65c0-8.272-6.735-15.002-15.011-15.002h-49.06c-8.281 0-15.011 6.73-15.011 15.002v209.65h-25.63v-146.619c0-8.268-6.73-14.997-15.002-14.997h-49.07c-8.272 0-14.997 6.73-14.997 14.997v146.619h-43.411c-2.761 0-4.999 2.234-4.999 5.004 0 2.76 2.238 4.999 4.999 4.999h480c2.76 0 4.999-2.238 4.999-4.999 0-2.77-2.239-5.004-4.999-5.004z" fill-rule="evenodd"/></g></svg>