<svg clip-rule="evenodd" fill-rule="evenodd" stroke-linejoin="round" stroke-miterlimit="2" viewBox="0 0 510 510" xmlns="http://www.w3.org/2000/svg" xmlns:serif="http://www.serif.com/"><path d="m86.28 200.463h65.546c5.4 0 9.816 4.416 9.816 9.802v21.164c0 5.4-4.416 9.816-9.816 9.816h-10.069v9.83c0 5.076-4.162 9.239-9.253 9.239h-26.888c-5.091 0-9.253-4.163-9.253-9.239v-9.83h-10.083c-5.386 0-9.802-4.416-9.802-9.816v-21.164c0-5.386 4.416-9.802 9.802-9.802z" fill="#a4d4ff"/><path d="m382.374 326.711c33.537 32.971 54.347 78.847 54.347 129.545h-72.446c-7.311-32.008-20.8-55.807-37.495-72.989z" fill="#a4d4ff"/><path d="m127.688 326.711c32.796-32.243 77.764-52.145 127.343-52.145v72.185c-8.411-1.316-16.733-1.82-24.749-1.628-23.607.565-46.515 7.316-67.223 17.57z" fill="#a4d4ff"/><g fill="none"><path d="m73.342 456.256c8.942-40.231 79.14-109.269 156.94-111.133 51.024-1.222 114.49 25.748 133.993 111.133"/><path d="m326.78 383.267 55.594-56.556"/><path d="m163.059 362.693-35.371-35.982"/><path d="m255.031 274.566v72.185"/></g><circle cx="255.031" cy="456.256" fill="#cad0d7" r="38.744"/><path d="m419.082 61.813h-9.585c-2.043 0-3.881-1.243-4.641-3.14-.76-1.896-.29-4.064 1.187-5.476 10.99-10.498 29.019-27.721 36.531-34.898 1.933-1.846 4.975-1.846 6.908 0 7.512 7.177 25.541 24.4 36.531 34.898 1.477 1.412 1.947 3.58 1.187 5.476-.76 1.897-2.598 3.14-4.641 3.14-4.994 0-9.585 0-9.585 0v127.576c0 2.761-2.239 5-5 5-10.268 0-33.624 0-43.892 0-2.761 0-5-2.239-5-5 0-24.152 0-127.576 0-127.576z" fill="#a4d4ff"/><path d="m292.846 105.087h-9.585c-2.043 0-3.881-1.243-4.641-3.139-.76-1.897-.29-4.065 1.187-5.476 10.989-10.498 29.019-27.722 36.531-34.898 1.932-1.846 4.975-1.846 6.907 0 7.512 7.176 25.542 24.4 36.531 34.898 1.478 1.411 1.948 3.579 1.187 5.476-.76 1.896-2.597 3.139-4.64 3.139-4.994 0-9.586 0-9.586 0v127.576c0 2.762-2.238 5-5 5-10.267 0-33.624 0-43.891 0-2.761 0-5-2.238-5-5 0-24.151 0-127.576 0-127.576z" fill="#a4d4ff"/><path d="m79.294 194.982c-2.944-24.882-10.978-34.429-17.135-44.331-5.286-8.503-9.447-17.213-9.447-33.06 0-36.617 29.684-66.317 66.317-66.317 36.617 0 66.317 29.7 66.317 66.317 0 15.847-4.162 24.557-9.447 33.06-6.157 9.903-14.191 19.449-17.135 44.332 5.798 2.662 9.847 8.528 9.847 15.282v21.164c0 9.251-7.565 16.816-16.816 16.816h-3.069v2.83c0 8.92-7.308 16.239-16.253 16.239h-26.888c-8.945 0-16.253-7.319-16.253-16.239v-2.83h-3.083c-9.23 0-16.802-7.562-16.802-16.816v-21.164c0-6.757 4.054-12.623 9.847-15.283zm65.547-1.519c2.714-23.413 9.385-34.933 15.552-44.559 5.617-8.767 10.953-15.582 10.953-31.313 0-28.887-23.43-52.317-52.317-52.317-28.9 0-52.317 23.43-52.317 52.317 0 15.731 5.336 22.546 10.952 31.313 6.167 9.626 12.839 21.146 15.553 44.559zm-58.592 14c-1.54 0-2.802 1.262-2.802 2.802v21.164c0 1.546 1.259 2.816 2.802 2.816h10.083c3.866 0 7 3.134 7 7v9.83c0 1.233 1.016 2.239 2.253 2.239h26.888c1.237 0 2.253-1.006 2.253-2.239v-9.83c0-3.866 3.134-7 7-7h10.069c1.549 0 2.816-1.267 2.816-2.816v-21.164c0-1.543-1.27-2.802-2.816-2.802zm35.721-53.502c-1.985 3.314-6.288 4.393-9.602 2.408s-4.393-6.288-2.408-9.602c0 0 13.283-22.176 13.283-22.176h-20.781c-2.521 0-4.847-1.355-6.09-3.549-1.243-2.193-1.21-4.885.085-7.048l19.631-32.773c1.985-3.314 6.288-4.393 9.602-2.408s4.393 6.288 2.408 9.602c0 0-13.283 22.176-13.283 22.176h20.78c2.521 0 4.848 1.356 6.091 3.549 1.242 2.193 1.21 4.885-.085 7.048zm87.819 309.295h-136.479c-3.863 0-7-3.137-7-7 0-104.141 84.549-188.69 188.69-188.69 104.14 0 188.689 84.549 188.689 188.69 0 3.863-3.136 7-7 7h-136.478c-3.374 21.929-22.344 38.744-45.211 38.744s-41.838-16.815-45.211-38.744zm90.422-14h55.045c-11.034-39.676-32.566-64.993-57.344-79.804l-19.378 47.579c11.401 6.859 19.573 18.547 21.677 32.225zm69.539 0h59.801c-1.716-43.467-19.347-82.873-47.22-112.547l-45.844 46.636c14.393 16.465 26.125 38.087 33.263 65.911zm2.598-122.362c-29.409-26.697-67.947-43.515-110.348-45.19v59.159c9.638 1.909 19.329 4.854 28.776 8.993l10.502-25.785c1.458-3.578 5.546-5.3 9.124-3.843s5.299 5.545 3.842 9.123l-10.921 26.815c8.168 4.671 16.037 10.348 23.399 17.142zm-124.348-45.19c-42.402 1.675-80.939 18.493-110.348 45.19l26.88 27.344c20.377-9.448 42.655-15.565 65.552-16.113 5.84-.14 11.838.069 17.916.669zm-120.331 55.005c-21.266 22.64-36.57 50.944-43.393 82.395 5.801-7.949 12.813-16.023 20.858-23.833 13.055-12.672 28.801-24.672 46.31-34.376zm-44.822 112.547h126.942c3.373-21.929 22.344-38.744 45.211-38.744 3.638 0 7.178.426 10.571 1.23l19.864-48.771c-18.167-8.112-37.364-11.273-55.016-10.85-44.88 1.075-87.058 25.553-115.533 53.195-15.232 14.787-26.594 30.44-32.039 43.94zm172.153-24.744c-17.52 0-31.744 14.224-31.744 31.744s14.224 31.744 31.744 31.744 31.744-14.224 31.744-31.744-14.224-31.744-31.744-31.744zm-142.971-409.512c0-3.863 3.136-7 7-7 3.863 0 7 3.137 7 7v22.467c0 3.863-3.137 7-7 7-3.864 0-7-3.137-7-7zm75.617 25.453c2.736-2.728 7.171-2.722 9.899.014s2.722 7.172-.014 9.9l-15.933 15.886c-2.736 2.727-7.171 2.721-9.899-.015s-2.722-7.172.014-9.899zm35.412 71.372c3.863 0 7 3.136 7 7 0 3.863-3.137 7-7 7h-22.526c-3.864 0-7-3.137-7-7 0-3.864 3.136-7 7-7zm-25.527 75.458c2.736 2.727 2.742 7.163.014 9.899s-7.163 2.742-9.899.015l-15.933-15.886c-2.736-2.728-2.742-7.164-.014-9.9s7.163-2.742 9.899-.014zm-157.006-136.919c-2.735-2.729-2.739-7.165-.01-9.899 2.729-2.735 7.165-2.739 9.899-.01l15.918 15.886c2.734 2.729 2.738 7.165.009 9.9-2.729 2.734-7.165 2.738-9.899.009zm-25.525 75.461c-3.864 0-7-3.137-7-7 0-3.864 3.136-7 7-7h22.511c3.863 0 7 3.136 7 7 0 3.863-3.137 7-7 7zm35.414 71.369c-2.734 2.729-7.17 2.725-9.899-.01-2.729-2.734-2.725-7.17.01-9.899l15.917-15.886c2.734-2.729 7.17-2.725 9.899.01 2.729 2.734 2.725 7.17-.009 9.899zm361.637-128.381h-15.057c-2.861 0-5.433-1.741-6.498-4.396-1.064-2.655-.406-5.69 1.662-7.666l49.003-46.813c2.706-2.584 6.966-2.584 9.671 0l49.003 46.813c2.069 1.976 2.727 5.011 1.662 7.666-1.064 2.655-3.637 4.396-6.497 4.396h-15.058v125.576c0 3.866-3.134 7-7 7h-53.891c-3.866 0-7-3.134-7-7zm14-7v125.576h39.891v-125.576c0-3.866 3.134-7 7-7h4.597l-31.542-30.132-31.542 30.132h4.596c3.866 0 7 3.134 7 7zm-140.236 50.274h-15.058c-2.86 0-5.433-1.74-6.497-4.395s-.406-5.691 1.662-7.666l49.003-46.813c2.706-2.585 6.965-2.585 9.671 0l49.003 46.813c2.068 1.975 2.726 5.011 1.662 7.666s-3.637 4.395-6.497 4.395h-15.058v125.576c0 3.866-3.134 7-7 7h-53.891c-3.866 0-7-3.134-7-7zm14-7v125.576h39.891v-125.576c0-3.866 3.134-7 7-7h4.596l-31.542-30.132-31.541 30.132h4.596c3.866 0 7 3.134 7 7z" fill="#1f4571"/></svg>