<svg id="Layer_1" height="512" viewBox="0 0 256 256" width="512" xmlns="http://www.w3.org/2000/svg"><g><g><g><path d="m138.306 168.422c-.512 0-1.024-.195-1.414-.586l-17.278-17.278c-.781-.781-.781-2.047 0-2.828.78-.781 2.048-.781 2.828 0l17.278 17.278c.781.781.781 2.047 0 2.828-.39.391-.903.586-1.414.586z" fill="#3762cc"/></g><g><path d="m245.367 174.225h-194.815c-4.418 0-8-3.582-8-8v-138.444c0-4.418 3.582-8 8-8h194.814c4.418 0 8 3.582 8 8v138.444c.001 4.418-3.581 8-7.999 8z" fill="#a4c9ff"/></g><g><path d="m54.552 159.225v-124.444c0-1.657 1.343-3 3-3h180.814c1.657 0 3 1.343 3 3v124.444c0 1.657-1.343 3-3 3h-180.814c-1.657 0-3-1.343-3-3z" fill="#e0ebfc"/></g><g><path d="m245.367 176.225h-194.815c-5.514 0-10-4.486-10-10v-138.444c0-5.514 4.486-10 10-10h194.814c5.514 0 10 4.486 10 10v138.443c.001 5.514-4.485 10.001-9.999 10.001zm-194.815-154.444c-3.309 0-6 2.691-6 6v138.443c0 3.309 2.691 6 6 6h194.814c3.309 0 6-2.691 6-6v-138.443c0-3.309-2.691-6-6-6z" fill="#3762cc"/></g><g><path d="m238.367 164.225h-180.815c-2.757 0-5-2.243-5-5v-124.444c0-2.757 2.243-5 5-5h180.814c2.757 0 5 2.243 5 5v124.443c.001 2.757-2.242 5.001-4.999 5.001zm-180.815-130.444c-.551 0-1 .448-1 1v124.443c0 .552.449 1 1 1h180.814c.551 0 1-.448 1-1v-124.443c0-.552-.449-1-1-1z" fill="#3762cc"/></g><g><g><g><path d="m108.841 236.219h-92.549v-11.68c0-13.866 11.241-25.107 25.107-25.107h42.334c13.866 0 25.107 11.241 25.107 25.107v11.68z" fill="#a4c9ff"/></g><g><path d="m69.979 236.219-3.467-18.412c-4.846.023-3.046.023-7.891 0l-3.467 18.412z" fill="#e0ebfc"/></g><g><path d="m108.841 238.219h-92.549c-1.104 0-2-.896-2-2v-11.68c0-14.947 12.16-27.107 27.107-27.107h42.334c14.947 0 27.108 12.16 27.108 27.107v11.68c0 1.104-.895 2-2 2zm-90.549-4h88.549v-9.68c0-12.741-10.366-23.107-23.108-23.107h-42.334c-12.742 0-23.107 10.366-23.107 23.107z" fill="#3762cc"/></g><g><path d="m69.979 238.219h-14.825c-.595 0-1.16-.265-1.54-.724-.38-.458-.536-1.062-.426-1.646l3.467-18.412c.178-.945 1.004-1.63 1.965-1.63h.01l1.884.01c2.05.009 2.05.009 4.104 0l1.884-.01h.01c.961 0 1.788.685 1.965 1.63l3.467 18.412c.11.585-.046 1.188-.426 1.646-.379.459-.944.724-1.539.724zm-12.414-4h10.002l-2.712-14.403-.216.001c-2.073.01-2.073.01-4.146 0l-.216-.001z" fill="#3762cc"/></g><g><path d="m47.137 195.284-5.81 3.829c-.578.381-.634 1.208-.113 1.664l11.908 10.41c.406.355 1.016.344 1.409-.027l8.036-7.581z" fill="#a4c9ff"/></g><g><path d="m77.996 195.284 5.81 3.829c.578.381.634 1.208.113 1.664l-11.908 10.41c-.406.355-1.016.344-1.409-.027l-8.036-7.581z" fill="#a4c9ff"/></g><g><path d="m69.191 209.829-6.624-6.25-6.624 6.25 2.679 7.978h7.891z" fill="#e0ebfc"/></g><g><path d="m53.813 213.45c-.712 0-1.426-.251-2.004-.755l-11.91-10.413c-.722-.63-1.1-1.542-1.035-2.5s.562-1.811 1.364-2.339l5.81-3.829c.613-.405 1.4-.439 2.048-.092l15.429 8.295c.566.305.951.862 1.036 1.499.084.638-.143 1.276-.61 1.718l-8.036 7.581c-.59.556-1.34.835-2.092.835zm-10.34-13.355 10.314 9.018 5.39-5.085-11.936-6.416zm-.944-.825.001.001s0-.001-.001-.001z" fill="#3762cc"/></g><g><path d="m71.32 213.45c-.752 0-1.503-.28-2.092-.837l-8.034-7.579c-.467-.441-.694-1.08-.61-1.718.084-.637.47-1.194 1.036-1.499l15.43-8.295c.647-.348 1.433-.313 2.047.092l5.81 3.829c.802.528 1.299 1.382 1.363 2.34.065.958-.313 1.869-1.036 2.5l-11.907 10.41c-.579.505-1.294.757-2.007.757zm-5.364-9.423 5.39 5.085 10.314-9.018-3.768-2.484z" fill="#3762cc"/></g><g><path d="m66.512 219.807h-7.891c-.859 0-1.623-.549-1.896-1.363l-2.679-7.978c-.248-.739-.044-1.556.523-2.092l6.624-6.25c.771-.727 1.975-.727 2.745 0l6.624 6.25c.567.536.771 1.353.523 2.092l-2.679 7.978c-.272.814-1.035 1.363-1.894 1.363zm-6.453-4h5.015l1.813-5.401-4.321-4.076-4.321 4.076z" fill="#3762cc"/></g><g><path d="m62.566 179.884c-7.187 0-13.033-5.847-13.033-13.033v-.812c0-2.713 2.208-4.92 4.92-4.92h16.227c2.713 0 4.92 2.207 4.92 4.92v.812c0 7.186-5.847 13.033-13.034 13.033zm-8.112-14.765c-.507 0-.92.413-.92.92v.812c0 4.98 4.052 9.033 9.033 9.033s9.034-4.053 9.034-9.033v-.812c0-.507-.413-.92-.92-.92z" fill="#3762cc"/></g><g><path d="m108.268 132.563c0-3.783-.317-7.345-.891-10.703h-56.267c-12.292 0-22.6-8.472-25.418-19.894-5.465 7.874-8.827 18.113-8.827 30.597-8.353 0-14.232 6.575-14.232 14.006 0 7.164 5.172 14.006 15.622 14.006 4.999 19.82 22.94 34.492 44.312 34.492s39.313-14.672 44.312-34.492c10.55 0 15.622-6.923 15.622-14.006-.001-7.463-5.916-14.006-14.233-14.006z" fill="#f9cfcf"/></g><g><path d="m26.248 103.869c.033.1.063.201.097.301-.034-.1-.064-.201-.097-.301z" fill="#4671c6"/></g><g><path d="m62.566 197.067c-21.378 0-40.021-14.126-45.857-34.539-11.032-.675-16.076-8.586-16.076-15.959 0-8.314 6.12-14.96 14.257-15.894.302-11.488 3.379-21.522 9.159-29.85.448-.646 1.234-.972 2.006-.826.773.143 1.391.725 1.579 1.488 2.668 10.817 12.322 18.372 23.476 18.372h56.266c.975 0 1.807.702 1.971 1.663.508 2.969.808 6.04.894 9.152 8.138.933 14.258 7.578 14.258 15.894 0 7.373-5.044 15.284-16.077 15.959-5.835 20.414-24.477 34.54-45.856 34.54zm-37.434-90.442c-4.161 7.394-6.267 16.098-6.267 25.938 0 1.104-.896 2-2 2-6.859 0-12.232 5.273-12.232 12.006 0 5.976 4.212 12.006 13.622 12.006.916 0 1.715.622 1.939 1.511 4.897 19.419 22.321 32.981 42.372 32.981s37.475-13.563 42.372-32.981c.224-.889 1.023-1.511 1.939-1.511 9.41 0 13.622-6.03 13.622-12.006 0-6.732-5.373-12.006-12.232-12.006-1.104 0-2-.896-2-2 0-2.951-.203-5.871-.604-8.703h-54.553c-11.508 0-21.647-6.902-25.978-17.235zm85.136 25.938h.01z" fill="#3762cc"/></g><g><ellipse cx="33.058" cy="161.345" fill="#f9a7a7" rx="8.131" ry="4.539"/></g><g><ellipse cx="92.075" cy="161.345" fill="#f9a7a7" rx="8.131" ry="4.539"/></g><g><path d="m86.299 155.192c-3.282 0-5.942-2.66-5.942-5.942v-6.338c0-3.282 2.66-5.942 5.942-5.942s5.942 2.66 5.942 5.942v6.338c0 3.282-2.66 5.942-5.942 5.942z" fill="#3762cc"/></g><g><path d="m38.834 155.192c-3.282 0-5.942-2.66-5.942-5.942v-6.338c0-3.282 2.66-5.942 5.942-5.942s5.942 2.66 5.942 5.942v6.338c0 3.282-2.66 5.942-5.942 5.942z" fill="#3762cc"/></g><g><path d="m62.567 177.884c-6.094 0-11.033-4.94-11.033-11.033v-.812c0-1.613 1.308-2.92 2.92-2.92h16.226c1.613 0 2.92 1.308 2.92 2.92v.812c0 6.093-4.94 11.033-11.033 11.033z" fill="#f9a7a7"/></g><g><path d="m62.567 195.067c-5.416 0-10.609-.945-15.43-2.675v2.891l15.43 8.295 15.43-8.295v-2.891c-4.821 1.73-10.015 2.675-15.43 2.675z" fill="#f9cfcf"/></g><g><path d="m62.566 205.579c-.326 0-.651-.079-.947-.238l-15.429-8.295c-.648-.349-1.053-1.025-1.053-1.762v-2.892c0-.651.317-1.261.849-1.636.532-.376 1.214-.466 1.826-.247 9.459 3.395 20.049 3.395 29.508 0 .61-.219 1.293-.129 1.826.247.532.375.849.984.849 1.636v2.892c0 .736-.404 1.413-1.053 1.762l-15.43 8.295c-.294.159-.62.238-.946.238zm-9.746-9.511 9.747 5.24 9.747-5.24c-6.382 1.328-13.113 1.328-19.494 0z" fill="#3762cc"/></g><g><path d="m62.566 179.884c-7.187 0-13.033-5.847-13.033-13.033v-.812c0-2.713 2.208-4.92 4.92-4.92h16.227c2.713 0 4.92 2.207 4.92 4.92v.812c0 7.186-5.847 13.033-13.034 13.033zm-8.112-14.765c-.507 0-.92.413-.92.92v.812c0 4.98 4.052 9.033 9.033 9.033s9.034-4.053 9.034-9.033v-.812c0-.507-.413-.92-.92-.92z" fill="#3762cc"/></g><g><g><path d="m9.839 102.194v3.227 28.909c2.029-1.118 4.405-1.766 7.026-1.766 0-12.484 3.362-22.723 8.827-30.597-.497-2.016-.766-4.121-.766-6.29 0-5.966 1.999-11.462 5.358-15.865-11.46 1.027-20.445 10.653-20.445 22.382z" fill="#4671c6"/></g><g><path d="m58.667 95.677v26.184h48.71c.431 2.519.717 5.152.833 7.907.039.918.058 1.85.058 2.796 2.29 0 4.396.497 6.248 1.372.265.125.524.257.778.397v-12.473-26.183z" fill="#4671c6"/></g></g><g><g><path d="m9.839 136.33c-.352 0-.704-.093-1.017-.278-.609-.359-.983-1.015-.983-1.722v-32.137c0-12.757 9.573-23.235 22.267-24.374.794-.066 1.547.332 1.93 1.025.383.694.32 1.55-.161 2.18-3.237 4.243-4.948 9.311-4.948 14.652 0 1.952.238 3.907.708 5.812.138.558.029 1.147-.299 1.619-5.621 8.097-8.47 18.007-8.47 29.456 0 1.104-.896 2-2 2-2.194 0-4.233.511-6.061 1.519-.301.165-.634.248-.966.248zm16.262-53.661c-8.373 2.623-14.261 10.373-14.261 19.524v29.119c.985-.308 2.003-.521 3.051-.64.293-11.151 3.202-20.932 8.658-29.109-.413-1.937-.621-3.913-.621-5.887-.001-4.596 1.086-9.017 3.173-13.007z" fill="#3762cc"/></g><g><path d="m115.294 136.333c-.332 0-.664-.082-.964-.248-.218-.119-.441-.233-.668-.341-1.658-.783-3.473-1.181-5.394-1.181-1.104 0-2-.896-2-2 0-.918-.019-1.821-.057-2.711-.085-2.017-.268-4.025-.546-5.992h-46.998c-1.104 0-2-.896-2-2v-26.183c0-1.104.896-2 2-2h56.627c1.104 0 2 .896 2 2v38.656c0 .707-.374 1.361-.982 1.722-.313.185-.666.278-1.018.278zm-5.052-5.659c1.045.119 2.064.334 3.052.643v-33.64h-52.627v22.184h46.71c.975 0 1.807.702 1.971 1.663.455 2.657.744 5.403.859 8.16.015.328.026.658.035.99z" fill="#3762cc"/></g></g><g><path d="m115.294 69.493h-64.184c-14.461 0-26.183 11.723-26.183 26.183 0 14.461 11.723 26.183 26.183 26.183h36.773c15.138 0 27.411-12.272 27.411-27.411z" fill="#4671c6"/></g><g><path d="m87.883 123.86h-36.773c-15.541 0-28.184-12.644-28.184-28.184s12.644-28.183 28.184-28.183h64.184c1.104 0 2 .896 2 2v24.957c0 16.217-13.193 29.41-29.411 29.41zm-36.773-52.367c-13.335 0-24.184 10.849-24.184 24.184s10.849 24.183 24.184 24.183h36.773c14.012 0 25.411-11.399 25.411-25.41v-22.957z" fill="#3762cc"/></g></g><g><path d="m25.751 188.814c-2.375 0-4.3 1.925-4.3 4.3v13.406h-14.283c-2.504 0-4.534 2.03-4.534 4.534v20.631c0 2.504 2.03 4.534 4.534 4.534h18.349c2.504 0 4.534-2.03 4.534-4.534v-5.895-14.736-17.94c0-2.375-1.926-4.3-4.3-4.3z" fill="#f9cfcf"/></g><g><path d="m2.633 231.685v-20.631c0-2.504 2.03-4.534 4.534-4.534h9.764c2.504 0 4.534 2.03 4.534 4.534v20.631c0 2.504-2.03 4.534-4.534 4.534h-9.763c-2.505 0-4.535-2.03-4.535-4.534z" fill="#f9cfcf"/></g><g><path d="m25.517 238.219h-18.35c-3.603 0-6.534-2.932-6.534-6.534v-20.631c0-3.603 2.931-6.534 6.534-6.534h12.283v-11.406c0-3.474 2.826-6.3 6.3-6.3s6.3 2.826 6.3 6.3v38.571c.001 3.602-2.93 6.534-6.533 6.534zm-18.35-29.699c-1.397 0-2.534 1.137-2.534 2.534v20.631c0 1.397 1.137 2.534 2.534 2.534h18.349c1.397 0 2.534-1.137 2.534-2.534v-38.571c0-1.269-1.032-2.3-2.3-2.3s-2.3 1.031-2.3 2.3v13.406c0 1.104-.896 2-2 2z" fill="#3762cc"/></g><g><path d="m16.932 238.219h-9.765c-3.603 0-6.534-2.932-6.534-6.534v-20.631c0-3.603 2.931-6.534 6.534-6.534h9.764c3.603 0 6.534 2.932 6.534 6.534v20.631c.001 3.602-2.93 6.534-6.533 6.534zm-9.765-29.699c-1.397 0-2.534 1.137-2.534 2.534v20.631c0 1.397 1.137 2.534 2.534 2.534h9.764c1.397 0 2.534-1.137 2.534-2.534v-20.631c0-1.397-1.137-2.534-2.534-2.534z" fill="#3762cc"/></g><g><path d="m20.374 225.79h9.676v-7.965h-9.676c-2.199 0-3.982 1.783-3.982 3.982 0 2.2 1.783 3.983 3.982 3.983z" fill="#f9cfcf"/></g><g><path d="m30.051 227.79h-9.676c-3.299 0-5.982-2.684-5.982-5.982s2.684-5.982 5.982-5.982h9.676c1.104 0 2 .896 2 2v7.965c0 1.104-.896 1.999-2 1.999zm-9.676-7.965c-1.093 0-1.982.89-1.982 1.982s.889 1.982 1.982 1.982h7.676v-3.965h-7.676z" fill="#3762cc"/></g></g></g><g><path d="m172.975 201.309c-8.114 0-14.715-6.601-14.715-14.716 0-8.113 6.601-14.714 14.715-14.714 8.115 0 14.716 6.601 14.716 14.714 0 8.115-6.601 14.716-14.716 14.716z" fill="#e0ebfc"/></g><g><g><path d="m217.999 175.389h-9.119c-.674-2.153-1.546-4.254-2.598-6.253l6.453-6.453c.869-.869 1.348-2.025 1.348-3.255 0-1.229-.479-2.385-1.348-3.254l-9.338-9.338c-.869-.869-2.025-1.348-3.255-1.348-1.229 0-2.385.479-3.254 1.348l-6.453 6.453c-1.999-1.052-4.1-1.925-6.253-2.598v-9.118c0-2.538-2.064-4.602-4.602-4.602h-13.207c-2.538 0-4.602 2.064-4.602 4.602v9.118c-2.152.673-4.253 1.546-6.253 2.598l-6.453-6.453c-.869-.869-2.025-1.348-3.254-1.348-1.23 0-2.386.479-3.255 1.348l-9.338 9.338c-.869.869-1.348 2.025-1.348 3.254s.479 2.386 1.348 3.254l6.453 6.454c-1.052 1.999-1.924 4.1-2.598 6.253h-9.119c-2.538 0-4.602 2.064-4.602 4.602v13.206c0 2.538 2.064 4.602 4.602 4.602h9.119c.674 2.153 1.546 4.253 2.598 6.253l-6.453 6.453c-.869.869-1.348 2.025-1.348 3.254 0 1.23.479 2.386 1.348 3.255l9.338 9.338c.869.869 2.025 1.348 3.255 1.348 1.229 0 2.385-.479 3.254-1.348l6.453-6.453c1.999 1.052 4.1 1.925 6.253 2.598v9.118c0 2.538 2.064 4.602 4.602 4.602h13.207c2.538 0 4.602-2.065 4.602-4.602v-9.118c2.152-.673 4.253-1.546 6.253-2.598l6.453 6.453c.869.869 2.025 1.348 3.254 1.348 1.23 0 2.386-.479 3.255-1.348l9.338-9.338c.869-.869 1.348-2.025 1.348-3.255 0-1.229-.479-2.385-1.348-3.254l-6.453-6.453c1.052-1.999 1.924-4.1 2.598-6.253h9.119c2.538 0 4.602-2.065 4.602-4.602v-13.206c0-2.537-2.064-4.602-4.602-4.602zm-45.024 36.555c-13.976 0-25.348-11.372-25.348-25.351 0-13.977 11.371-25.348 25.348-25.348 13.978 0 25.35 11.372 25.35 25.348.001 13.979-11.372 25.351-25.35 25.351z" fill="#f9a7a7"/></g><g><path d="m172.975 161.245c-13.976 0-25.348 11.372-25.348 25.348 0 13.978 11.371 25.351 25.348 25.351 13.978 0 25.35-11.372 25.35-25.351.001-13.976-11.372-25.348-25.35-25.348zm0 40.064c-8.114 0-14.715-6.601-14.715-14.716 0-8.113 6.601-14.714 14.715-14.714 8.115 0 14.716 6.601 14.716 14.714 0 8.115-6.601 14.716-14.716 14.716z" fill="#f9cfcf"/></g><g><path d="m179.58 238.219h-13.207c-3.64 0-6.602-2.962-6.602-6.603v-7.677c-1.312-.466-2.603-1.002-3.86-1.604l-5.432 5.432c-1.248 1.247-2.905 1.934-4.668 1.934-1.764 0-3.422-.687-4.668-1.934l-9.338-9.338c-1.247-1.247-1.934-2.905-1.934-4.669 0-1.763.687-3.42 1.933-4.668l5.433-5.434c-.602-1.256-1.138-2.547-1.604-3.859h-7.678c-3.64 0-6.602-2.962-6.602-6.602v-13.207c0-3.64 2.962-6.602 6.602-6.602h7.678c.466-1.313 1.002-2.604 1.604-3.86l-5.432-5.433c-1.247-1.247-1.934-2.905-1.934-4.669 0-1.763.687-3.421 1.934-4.668l9.338-9.338c1.247-1.248 2.905-1.935 4.668-1.935s3.42.687 4.668 1.934l5.432 5.433c1.257-.602 2.548-1.139 3.86-1.604v-7.678c0-3.641 2.962-6.603 6.602-6.603h13.207c3.641 0 6.603 2.962 6.603 6.603v7.678c1.314.466 2.604 1.003 3.86 1.604l5.432-5.432c1.247-1.248 2.905-1.935 4.668-1.935 1.764 0 3.422.687 4.669 1.935l9.338 9.338c1.247 1.247 1.934 2.905 1.934 4.668 0 1.764-.687 3.422-1.934 4.669l-5.432 5.433c.602 1.257 1.138 2.548 1.604 3.86h7.678c3.641 0 6.603 2.962 6.603 6.602v13.207c0 3.64-2.962 6.602-6.603 6.602h-7.678c-.466 1.313-1.002 2.604-1.604 3.859l5.433 5.434c1.247 1.247 1.934 2.905 1.934 4.668 0 1.764-.687 3.422-1.934 4.669l-9.338 9.338c-1.247 1.247-2.905 1.934-4.669 1.934s-3.421-.687-4.668-1.934l-5.433-5.433c-1.257.603-2.548 1.139-3.859 1.604v7.678c-.002 3.641-2.964 6.603-6.604 6.603zm-24.061-20.319c.317 0 .637.075.931.23 1.892.995 3.883 1.822 5.918 2.458.835.261 1.403 1.034 1.403 1.909v9.118c0 1.435 1.167 2.603 2.602 2.603h13.207c1.435 0 2.603-1.168 2.603-2.603v-9.118c0-.875.568-1.647 1.403-1.909 2.034-.636 4.026-1.463 5.919-2.459.775-.406 1.726-.263 2.345.356l6.453 6.453c.983.982 2.698.982 3.681 0l9.338-9.338c.492-.492.762-1.146.762-1.841 0-.694-.271-1.348-.762-1.84l-6.454-6.454c-.619-.619-.763-1.57-.355-2.346.994-1.888 1.821-3.88 2.459-5.919.261-.834 1.034-1.402 1.909-1.402h9.118c1.435 0 2.603-1.167 2.603-2.602v-13.207c0-1.435-1.167-2.602-2.603-2.602h-9.118c-.875 0-1.647-.568-1.909-1.402-.638-2.037-1.465-4.029-2.459-5.921-.408-.775-.264-1.726.356-2.345l6.453-6.453c.492-.492.762-1.146.762-1.841 0-.694-.271-1.348-.762-1.84l-9.338-9.338c-.983-.983-2.695-.984-3.681 0l-6.453 6.453c-.619.621-1.57.765-2.346.355-1.886-.993-3.878-1.82-5.919-2.46-.834-.261-1.402-1.034-1.402-1.908v-9.118c0-1.435-1.167-2.603-2.603-2.603h-13.207c-1.435 0-2.602 1.168-2.602 2.603v9.118c0 .875-.568 1.647-1.403 1.909-2.036.637-4.027 1.464-5.918 2.459-.775.408-1.726.265-2.346-.355l-6.453-6.453c-.985-.983-2.697-.984-3.681 0l-9.338 9.338c-.492.492-.762 1.146-.762 1.84 0 .695.271 1.349.762 1.841l6.453 6.453c.62.619.764 1.569.356 2.345-.995 1.892-1.822 3.884-2.459 5.921-.261.834-1.034 1.402-1.909 1.402h-9.119c-1.435 0-2.602 1.167-2.602 2.602v13.207c0 1.435 1.167 2.602 2.602 2.602h9.119c.875 0 1.647.568 1.909 1.402.638 2.038 1.465 4.029 2.459 5.919.408.775.264 1.727-.356 2.346l-6.453 6.453c-.491.492-.762 1.146-.762 1.841s.271 1.349.762 1.841l9.338 9.338c.983.982 2.697.983 3.681-.001l6.453-6.452c.384-.383.896-.585 1.415-.585z" fill="#3762cc"/></g><g><path d="m179.58 238.219h-13.207c-3.64 0-6.602-2.962-6.602-6.603v-7.677c-1.312-.466-2.603-1.002-3.86-1.604l-5.432 5.432c-1.248 1.247-2.905 1.934-4.668 1.934-1.764 0-3.422-.687-4.668-1.934l-9.338-9.338c-1.247-1.247-1.934-2.905-1.934-4.669 0-1.763.687-3.42 1.933-4.668l5.433-5.434c-.602-1.256-1.138-2.547-1.604-3.859h-7.678c-3.64 0-6.602-2.962-6.602-6.602v-13.207c0-3.64 2.962-6.602 6.602-6.602h7.678c.466-1.313 1.002-2.604 1.604-3.86l-5.432-5.433c-1.247-1.247-1.934-2.905-1.934-4.669 0-1.763.687-3.421 1.934-4.668l9.338-9.338c1.247-1.248 2.905-1.935 4.668-1.935s3.42.687 4.668 1.934l5.432 5.433c1.257-.602 2.548-1.139 3.86-1.604v-7.678c0-3.641 2.962-6.603 6.602-6.603h13.207c3.641 0 6.603 2.962 6.603 6.603v7.678c1.314.466 2.604 1.003 3.86 1.604l5.432-5.432c1.247-1.248 2.905-1.935 4.668-1.935 1.764 0 3.422.687 4.669 1.935l9.338 9.338c1.247 1.247 1.934 2.905 1.934 4.668 0 1.764-.687 3.422-1.934 4.669l-5.432 5.433c.602 1.257 1.138 2.548 1.604 3.86h7.678c3.641 0 6.603 2.962 6.603 6.602v13.207c0 3.64-2.962 6.602-6.603 6.602h-7.678c-.466 1.313-1.002 2.604-1.604 3.859l5.433 5.434c1.247 1.247 1.934 2.905 1.934 4.668 0 1.764-.687 3.422-1.934 4.669l-9.338 9.338c-1.247 1.247-2.905 1.934-4.669 1.934s-3.421-.687-4.668-1.934l-5.433-5.433c-1.257.603-2.548 1.139-3.859 1.604v7.678c-.002 3.641-2.964 6.603-6.604 6.603zm-24.061-20.319c.317 0 .637.075.931.23 1.892.995 3.883 1.822 5.918 2.458.835.261 1.403 1.034 1.403 1.909v9.118c0 1.435 1.167 2.603 2.602 2.603h13.207c1.435 0 2.603-1.168 2.603-2.603v-9.118c0-.875.568-1.647 1.403-1.909 2.034-.636 4.026-1.463 5.919-2.459.775-.406 1.726-.263 2.345.356l6.453 6.453c.983.982 2.698.982 3.681 0l9.338-9.338c.492-.492.762-1.146.762-1.841 0-.694-.271-1.348-.762-1.84l-6.454-6.454c-.619-.619-.763-1.57-.355-2.346.994-1.888 1.821-3.88 2.459-5.919.261-.834 1.034-1.402 1.909-1.402h9.118c1.435 0 2.603-1.167 2.603-2.602v-13.207c0-1.435-1.167-2.602-2.603-2.602h-9.118c-.875 0-1.647-.568-1.909-1.402-.638-2.037-1.465-4.029-2.459-5.921-.408-.775-.264-1.726.356-2.345l6.453-6.453c.492-.492.762-1.146.762-1.841 0-.694-.271-1.348-.762-1.84l-9.338-9.338c-.983-.983-2.695-.984-3.681 0l-6.453 6.453c-.619.621-1.57.765-2.346.355-1.886-.993-3.878-1.82-5.919-2.46-.834-.261-1.402-1.034-1.402-1.908v-9.118c0-1.435-1.167-2.603-2.603-2.603h-13.207c-1.435 0-2.602 1.168-2.602 2.603v9.118c0 .875-.568 1.647-1.403 1.909-2.036.637-4.027 1.464-5.918 2.459-.775.408-1.726.265-2.346-.355l-6.453-6.453c-.985-.983-2.697-.984-3.681 0l-9.338 9.338c-.492.492-.762 1.146-.762 1.84 0 .695.271 1.349.762 1.841l6.453 6.453c.62.619.764 1.569.356 2.345-.995 1.892-1.822 3.884-2.459 5.921-.261.834-1.034 1.402-1.909 1.402h-9.119c-1.435 0-2.602 1.167-2.602 2.602v13.207c0 1.435 1.167 2.602 2.602 2.602h9.119c.875 0 1.647.568 1.909 1.402.638 2.038 1.465 4.029 2.459 5.919.408.775.264 1.727-.356 2.346l-6.453 6.453c-.491.492-.762 1.146-.762 1.841s.271 1.349.762 1.841l9.338 9.338c.983.982 2.697.983 3.681-.001l6.453-6.452c.384-.383.896-.585 1.415-.585z" fill="#3762cc"/></g><g><path d="m172.976 213.944c-15.08 0-27.348-12.27-27.348-27.351 0-15.08 12.269-27.349 27.348-27.349 15.081 0 27.35 12.269 27.35 27.349 0 15.082-12.269 27.351-27.35 27.351zm0-50.699c-12.874 0-23.348 10.475-23.348 23.349 0 12.876 10.474 23.351 23.348 23.351 12.875 0 23.35-10.475 23.35-23.351 0-12.874-10.475-23.349-23.35-23.349z" fill="#3762cc"/></g><g><path d="m172.976 213.944c-15.08 0-27.348-12.27-27.348-27.351 0-15.08 12.269-27.349 27.348-27.349 15.081 0 27.35 12.269 27.35 27.349 0 15.082-12.269 27.351-27.35 27.351zm0-50.699c-12.874 0-23.348 10.475-23.348 23.349 0 12.876 10.474 23.351 23.348 23.351 12.875 0 23.35-10.475 23.35-23.351 0-12.874-10.475-23.349-23.35-23.349zm0 40.065c-9.217 0-16.715-7.499-16.715-16.716 0-9.216 7.498-16.714 16.715-16.714s16.716 7.498 16.716 16.714c-.001 9.217-7.499 16.716-16.716 16.716zm0-29.43c-7.011 0-12.715 5.703-12.715 12.714 0 7.012 5.704 12.716 12.715 12.716 7.012 0 12.716-5.704 12.716-12.716-.001-7.011-5.705-12.714-12.716-12.714z" fill="#3762cc"/></g></g><g><path d="m173.301 95.052-21.367-7.777c-.521-.189-1.096.079-1.286.6l-14.548 39.972c-.293.804.491 1.582 1.292 1.283l12.393-4.611c.461-.172.979.017 1.222.445l6.53 11.499c.422.744 1.522.652 1.815-.152l14.548-39.973c.19-.521-.078-1.096-.599-1.286z" fill="#4671c6"/></g><g><path d="m172.651 95.052 21.367-7.777c.521-.189 1.096.079 1.286.6l14.549 39.972c.293.804-.491 1.582-1.292 1.283l-12.393-4.611c-.461-.172-.979.017-1.222.445l-6.53 11.499c-.422.744-1.522.652-1.815-.152l-14.549-39.972c-.19-.522.078-1.097.599-1.287z" fill="#4671c6"/></g><g><path d="m158.399 138.97c-1.08 0-2.061-.566-2.602-1.521l-6.11-10.76-11.598 4.314c-1.107.414-2.321.152-3.162-.683-.841-.834-1.112-2.045-.707-3.158l14.549-39.972c.566-1.557 2.294-2.359 3.849-1.795l21.367 7.775v.001c.754.273 1.355.825 1.695 1.553.339.728.375 1.543.1 2.296l-14.549 39.972c-.405 1.114-1.391 1.867-2.571 1.966-.088.009-.175.012-.261.012zm-8.256-16.517c1.053 0 2.056.557 2.604 1.524l5.463 9.62 13.47-37.008-19.493-7.094-13.47 37.007 10.371-3.858c.347-.129.704-.191 1.055-.191zm22.471-25.523c.001.001.002.001.003.001z" fill="#3762cc"/></g><g><path d="m187.552 138.97c-.086 0-.173-.003-.26-.011-1.181-.099-2.166-.852-2.571-1.966l-14.549-39.972c-.274-.753-.239-1.568.1-2.296s.941-1.279 1.695-1.553v-.001l21.367-7.776c1.556-.563 3.282.239 3.849 1.796l14.549 39.972c.405 1.113.134 2.324-.707 3.158-.841.836-2.052 1.098-3.164.683l-11.596-4.314-6.111 10.76c-.541.953-1.522 1.52-2.602 1.52zm-13.281-42.38 13.47 37.008 5.464-9.621c.729-1.289 2.268-1.851 3.66-1.332l10.37 3.858-13.47-37.007zm22.415 29.359-.001.002c0-.001 0-.001.001-.002z" fill="#3762cc"/></g><g><path d="m207.757 74.28c0 3.752-.594 7.365-1.693 10.751-1.139 3.509-2.821 6.773-4.947 9.694-2.147 2.95-4.746 5.549-7.696 7.696-2.921 2.125-6.185 3.807-9.693 4.947-3.386 1.099-6.999 1.693-10.751 1.693s-7.365-.594-10.751-1.693c-3.509-1.139-6.773-2.821-9.694-4.947-2.95-2.147-5.549-4.746-7.696-7.696-2.125-2.921-3.807-6.185-4.947-9.693-1.099-3.386-1.693-6.999-1.693-10.751s.594-7.365 1.693-10.751c1.139-3.509 2.821-6.773 4.947-9.694 2.147-2.95 4.746-5.549 7.696-7.696 2.921-2.125 6.185-3.807 9.693-4.947 3.386-1.099 6.999-1.693 10.751-1.693s7.365.594 10.751 1.693c3.509 1.139 6.773 2.821 9.694 4.947 2.95 2.147 5.549 4.746 7.696 7.696 2.125 2.92 3.807 6.185 4.947 9.693 1.099 3.386 1.693 6.999 1.693 10.751z" fill="#f9a7a7"/></g><g><path d="m172.977 100.061c-2.779 0-5.457-.442-7.966-1.259-2.598-.846-5.016-2.095-7.181-3.671-2.185-1.592-4.111-3.518-5.703-5.703-1.577-2.164-2.825-4.582-3.671-7.18-.817-2.51-1.259-5.187-1.259-7.966s.442-5.457 1.259-7.966c.846-2.598 2.095-5.016 3.671-7.181 1.592-2.185 3.518-4.111 5.703-5.703 2.164-1.577 4.582-2.825 7.18-3.671 2.51-.817 5.187-1.259 7.966-1.259s5.457.442 7.966 1.259c2.598.846 5.016 2.095 7.181 3.671 2.185 1.592 4.111 3.518 5.703 5.703 1.577 2.164 2.825 4.582 3.671 7.18.817 2.51 1.259 5.187 1.259 7.966s-.442 5.457-1.259 7.966c-.846 2.598-2.095 5.016-3.671 7.181-1.592 2.185-3.518 4.111-5.703 5.703-2.164 1.577-4.582 2.825-7.18 3.671-2.51.817-5.188 1.259-7.966 1.259z" fill="#ffea92"/></g><g><path d="m175.157 61.587 2.642 5.353c.354.718 1.039 1.215 1.831 1.33l5.908.858c1.995.29 2.791 2.741 1.348 4.148l-4.275 4.167c-.573.559-.835 1.364-.699 2.152l1.009 5.884c.341 1.987-1.744 3.501-3.528 2.564l-5.284-2.778c-.708-.372-1.555-.372-2.263 0l-5.284 2.778c-1.784.938-3.869-.577-3.528-2.564l1.009-5.884c.135-.789-.126-1.594-.699-2.152l-4.275-4.167c-1.443-1.407-.647-3.858 1.348-4.148l5.908-.858c.792-.115 1.477-.613 1.831-1.33l2.642-5.353c.89-1.807 3.467-1.807 4.359 0z" fill="#e0ebfc"/></g><g><path d="m172.977 111.061c-3.881 0-7.706-.603-11.368-1.791-3.673-1.192-7.122-2.953-10.253-5.232-3.123-2.272-5.86-5.01-8.135-8.136-2.28-3.133-4.04-6.582-5.232-10.253-1.188-3.66-1.792-7.485-1.792-11.368s.603-7.708 1.791-11.368c1.193-3.673 2.953-7.122 5.232-10.253 2.273-3.124 5.011-5.861 8.136-8.137 3.132-2.278 6.582-4.039 10.252-5.231 7.319-2.377 15.418-2.377 22.737 0 3.672 1.192 7.122 2.953 10.253 5.232 3.123 2.272 5.86 5.01 8.135 8.136 2.28 3.133 4.04 6.582 5.232 10.253 1.188 3.66 1.792 7.485 1.792 11.368s-.603 7.708-1.792 11.369c-1.192 3.67-2.952 7.12-5.232 10.252-2.275 3.126-5.012 5.863-8.136 8.136-3.131 2.279-6.58 4.039-10.252 5.232-3.662 1.188-7.488 1.791-11.368 1.791zm0-69.561c-3.464 0-6.874.537-10.133 1.596-3.27 1.063-6.343 2.63-9.134 4.661-2.787 2.029-5.229 4.47-7.256 7.256-2.031 2.79-3.599 5.863-4.662 9.135-1.059 3.261-1.596 6.67-1.596 10.133s.537 6.872 1.596 10.133c1.061 3.27 2.629 6.343 4.661 9.135 2.029 2.787 4.47 5.228 7.255 7.255 2.791 2.031 5.864 3.6 9.134 4.662 6.525 2.117 13.741 2.117 20.267 0 3.27-1.063 6.343-2.631 9.133-4.662 2.786-2.027 5.228-4.468 7.256-7.255 2.032-2.792 3.6-5.864 4.662-9.134 1.059-3.262 1.596-6.671 1.596-10.134s-.537-6.872-1.596-10.133c-1.061-3.27-2.629-6.343-4.661-9.135-2.029-2.787-4.47-5.228-7.255-7.255-2.791-2.031-5.864-3.6-9.134-4.662-3.26-1.059-6.67-1.596-10.133-1.596z" fill="#3762cc"/></g><g><path d="m172.977 102.061c-2.93 0-5.819-.457-8.585-1.358-2.771-.901-5.375-2.232-7.739-3.956-2.357-1.717-4.423-3.783-6.142-6.142-1.723-2.365-3.054-4.969-3.957-7.739-.901-2.766-1.357-5.654-1.357-8.585 0-2.932.457-5.82 1.357-8.586.902-2.769 2.233-5.372 3.957-7.739 1.719-2.359 3.786-4.426 6.143-6.142 2.364-1.722 4.968-3.054 7.738-3.956 5.538-1.803 11.64-1.801 17.171.001 2.771.901 5.375 2.232 7.739 3.956 2.357 1.717 4.423 3.783 6.142 6.142 1.723 2.365 3.054 4.969 3.957 7.739.901 2.766 1.357 5.654 1.357 8.585 0 2.932-.457 5.82-1.357 8.586-.902 2.769-2.233 5.372-3.957 7.739-1.719 2.359-3.786 4.426-6.143 6.142-2.364 1.722-4.968 3.054-7.738 3.956-2.769.9-5.658 1.357-8.586 1.357zm0-51.561c-2.508 0-4.98.391-7.347 1.161-2.369.771-4.597 1.911-6.622 3.386-2.02 1.471-3.791 3.241-5.265 5.264-1.475 2.026-2.614 4.254-3.386 6.622-.771 2.365-1.161 4.838-1.161 7.348s.391 4.981 1.161 7.347c.771 2.37 1.911 4.598 3.386 6.622 1.473 2.021 3.244 3.793 5.264 5.265 2.024 1.475 4.252 2.614 6.622 3.386 4.733 1.542 9.959 1.542 14.694 0 2.369-.771 4.597-1.911 6.622-3.386 2.02-1.471 3.791-3.241 5.265-5.264 1.475-2.026 2.614-4.254 3.386-6.622.771-2.365 1.161-4.838 1.161-7.348s-.391-4.981-1.161-7.347c-.771-2.37-1.911-4.598-3.386-6.622-1.473-2.021-3.244-3.793-5.264-5.265-2.024-1.475-4.252-2.614-6.622-3.386-2.367-.77-4.839-1.161-7.347-1.161z" fill="#3762cc"/></g><g><path d="m180.528 90.328c-.704 0-1.412-.17-2.066-.514l-5.284-2.778c-.127-.067-.277-.065-.403 0l-5.283 2.778c-1.505.791-3.293.661-4.668-.338-1.374-.999-2.049-2.66-1.762-4.334l1.009-5.884c.024-.14-.022-.283-.125-.382l-4.275-4.167c-1.217-1.188-1.646-2.928-1.121-4.544s1.896-2.771 3.578-3.017l5.907-.858c.142-.021.262-.108.325-.235l2.643-5.353c.752-1.524 2.275-2.471 3.974-2.471s3.222.946 3.974 2.471l2.642 5.353c.063.127.184.215.323.235l5.909.858c1.682.245 3.052 1.4 3.578 3.017s.096 3.356-1.121 4.543l-4.275 4.168c-.102.099-.148.242-.125.382l1.009 5.884c.287 1.674-.388 3.335-1.762 4.334-.776.565-1.686.852-2.601.852zm-7.551-7.342c.708 0 1.416.17 2.061.509l5.285 2.778c.157.083.311.071.455-.033s.202-.246.171-.422l-1.009-5.884c-.247-1.438.23-2.904 1.275-3.923l4.275-4.167c.127-.124.164-.272.109-.442s-.172-.269-.349-.294l-5.907-.858c-1.443-.208-2.691-1.115-3.337-2.425l-2.642-5.353c-.158-.318-.616-.318-.774 0l-2.642 5.353c-.646 1.31-1.894 2.217-3.339 2.425l-5.905.858c-.176.025-.293.124-.349.294s-.019.318.109.443l4.274 4.166c1.045 1.019 1.521 2.485 1.275 3.923l-1.009 5.884c-.03.176.028.317.171.422.144.104.296.116.456.033l5.283-2.778c.646-.339 1.355-.509 2.063-.509z" fill="#3762cc"/></g></g></svg>