<svg id="Layer_1" viewBox="0 0 512 512" xmlns="http://www.w3.org/2000/svg" data-name="Layer 1"><g fill="#0fa4de"><path d="m122.966 200.427c.821.85 2.211 1.445 3.798 1.814l21.884 4.989c2.438.539 4.479 2.381 5.188 4.961.936 3.401 2.098 6.775 3.486 10.12 1.332 3.203 2.863 6.35 4.62 9.468 1.276 2.183 1.333 4.96-.113 7.257l-11.962 18.992c-.851 1.361-1.417 2.778-1.417 3.969 0 .454.142.85.453 1.19l14.202 14.173c.312.312.736.454 1.162.454 1.219 0 2.607-.539 3.996-1.417l18.851-11.877c2.126-1.389 4.933-1.559 7.285-.227 3.146 1.786 6.35 3.345 9.581 4.677 3.231 1.333 6.52 2.466 9.808 3.373 2.552.596 4.649 2.58 5.272 5.301l4.989 21.884c.34 1.559.936 2.948 1.786 3.798.312.312.708.51 1.162.51h3.033v-71.802c-1.418-.227-2.807-.539-4.195-.907-3.345-.879-6.633-2.211-9.865-3.997-.368-.17-.708-.369-1.077-.624-10.119-6.01-16.895-15.477-19.729-26.05-2.807-10.488-1.701-22.025 3.997-32.258.198-.425.425-.851.708-1.219 3.912-6.548 9.298-11.707 15.449-15.25 4.535-2.636 9.553-4.394 14.712-5.244v-71.86h-3.033v.028c-.454 0-.851.198-1.162.51-.851.851-1.446 2.211-1.786 3.798l-4.989 21.883c-.566 2.438-2.409 4.507-4.988 5.216-3.374.907-6.747 2.069-10.092 3.458-3.203 1.332-6.378 2.863-9.468 4.621-2.183 1.275-4.989 1.332-7.257-.114l-18.992-11.934c-1.389-.879-2.777-1.446-3.996-1.446-.426 0-.822.142-1.162.482l-14.202 14.173c-.312.34-.453.737-.453 1.19h-.028c0 1.162.566 2.58 1.445 3.969l11.877 18.878c1.39 2.098 1.588 4.904.255 7.285-1.785 3.118-3.345 6.321-4.705 9.553-1.332 3.26-2.466 6.52-3.373 9.808-.567 2.551-2.552 4.677-5.272 5.272l-21.884 4.989c-1.587.369-2.977.964-3.798 1.814-.341.312-.511.681-.511 1.163h-.028v20.041h.028c0 .454.198.851.511 1.163z"/><path d="m303.363 303.835c7.966 0 15.193-3.231 20.409-8.447 3.803-3.823 6.543-8.689 7.753-14.141-4.707-.858-9.35-2.518-13.733-5.049-3.346-1.928-4.479-6.208-2.552-9.553 1.956-3.345 6.208-4.479 9.553-2.523 4.471 2.575 9.358 3.806 14.192 3.839.08-.003.157-.012.237-.012 7.993 0 15.193-3.231 20.438-8.447 5.216-5.216 8.447-12.444 8.447-20.409 0-1.719-.143-3.358-.405-4.93-.021-.123-.048-.245-.071-.368-.054-.299-.111-.595-.173-.889-.09-.413-.19-.823-.298-1.232-.008-.03-.016-.061-.023-.091-1.904-6.991-6.378-13.301-13.088-17.293-2.296-1.134-3.884-3.515-3.884-6.265 0-3.883 3.146-7.001 7.002-7.001 1.19 0 2.409.312 3.515.964 5.638 3.249 10.254 7.603 13.744 12.623 3.785-2.045 7.071-4.89 9.585-8.343 3.486-4.762 5.527-10.63 5.527-17.037s-2.069-12.302-5.584-17.093c-2.554-3.48-5.876-6.343-9.711-8.381-3.339 4.732-7.686 8.87-12.965 12.038-2.75 1.984-6.577 1.729-9.043-.737-2.749-2.721-2.749-7.172 0-9.893v.028c.426-.425.907-.793 1.475-1.134 5.332-3.072 9.297-7.608 11.714-12.812.139-.299.277-.598.406-.903.066-.155.125-.313.188-.469.139-.348.277-.696.403-1.052.023-.065.045-.13.068-.195.334-.965.622-1.955.854-2.966.511-2.098.766-4.309.766-6.633 0-5.39-1.483-10.439-4.056-14.759-.093-.157-.189-.312-.285-.467-.166-.267-.334-.533-.508-.794-.069-.104-.141-.206-.211-.309-.208-.302-.417-.602-.636-.895-.037-.049-.074-.097-.111-.146-.253-.336-.511-.667-.778-.991-.002-.002-.003-.004-.005-.005-.586-.711-1.206-1.393-1.857-2.044-1.633-1.624-3.455-3.055-5.432-4.256-.119-.072-.24-.138-.36-.208-.257-.151-.515-.303-.777-.446-2.025-1.102-4.171-1.956-6.385-2.545-.883-.238-1.777-.434-2.68-.588-.015-.003-.03-.006-.045-.008-.327-.055-.657-.099-.987-.143-.2-.026-.4-.054-.601-.076-.173-.02-.347-.034-.521-.05-.369-.034-.739-.065-1.113-.084-.035-.002-.07-.003-.104-.005-.475-.023-.952-.036-1.432-.036-.02 0-.039-.003-.058-.003-4.895-.003-9.854 1.232-14.399 3.858-3.345 1.928-7.597.766-9.524-2.579-1.899-3.345-.765-7.597 2.58-9.524 4.363-2.507 8.983-4.161 13.665-5.024-1.264-5.357-4.015-10.149-7.798-13.911-5.216-5.159-12.387-8.334-20.324-8.334s-15.193 3.231-20.409 8.447c-5.244 5.244-8.476 12.444-8.476 20.438v171.411c0 7.994 3.231 15.194 8.476 20.438 5.216 5.216 12.443 8.447 20.409 8.447z"/><path d="m417.88 302.42c-3.82.48-6.52 3.99-6.04 7.79l6.09 46.53c-.01.15-.02.29-.02.44 0 1.96.79 3.74 2.1 5.02 1.271 1.3 3.06 2.1 5.021 2.1h53.03c1.96 0 3.74-.8 5.02-2.1 1.3-1.28 2.1-3.06 2.1-5.02 0-1.95-.8-3.74-2.1-5.01-1.28-1.31-3.06-2.1-5.02-2.1h-36.93c17.85-20.5 32.45-43.9 42.97-69.42 12.19-29.57 18.88-61.91 18.88-95.76 0-22.53-2.95-44.39-8.53-65.22-5.76-21.46-14.26-41.81-25.18-60.64-1.92-3.34-6.2-4.47-9.52-2.55-3.34 1.93-4.48 6.21-2.55 9.56 10.26 17.74 18.31 36.93 23.73 57.23 5.27 19.64 8.07 40.28 8.07 61.62 0 32.06-6.35 62.59-17.8 90.46-10.06 24.37-24.04 46.71-41.18 66.24l-4.34-33.16c-.48-3.83-4-6.52-7.8-6.01z"/></g><path d="m142.979 306.046c15.902 15.42 26.532 27.468 33.731 39.401 6.378 10.573 10.007 20.892 12.076 33.137h134.419c2.041-12.246 5.697-22.564 12.075-33.137 7.2-11.934 17.83-23.981 33.732-39.401 15.704-15.25 28.403-33.647 37.077-54.17 8.306-19.729 12.926-41.5 12.926-64.375 0-45.468-18.255-86.598-47.764-116.334-29.48-29.764-70.242-48.161-115.257-48.161s-85.776 18.397-115.285 48.161c-29.479 29.736-47.735 70.866-47.735 116.334 0 22.875 4.593 44.646 12.927 64.375 8.674 20.522 21.345 38.919 37.077 54.17zm117.496-202.507c0-11.849 4.818-22.564 12.557-30.331 7.768-7.767 18.482-12.557 30.331-12.557 11.735 0 22.394 4.734 30.16 12.444 6.293 6.208 10.659 14.4 12.133 23.556 9.27 1.389 17.575 5.754 23.896 12.075 7.542 7.542 12.263 17.867 12.531 29.282.002.08.005.16.006.241.005.261.02.519.02.78 0 .283-.019.562-.025.844-.004.23-.012.459-.021.688-.018.505-.04 1.008-.076 1.51-.014.203-.036.404-.053.606-.151 1.766-.409 3.508-.768 5.221-.025.118-.046.236-.072.354-.042.194-.074.391-.119.584-.079.314-.166.612-.246.919-.033.128-.06.258-.094.385-.034.126-.076.25-.111.376-.059.213-.11.432-.172.644 5.896 3.061 10.97 7.427 14.882 12.728 5.216 7.115 8.306 15.874 8.306 25.341s-3.062 18.199-8.277 25.285c-3.884 5.329-8.958 9.695-14.825 12.756.056.182.101.364.15.546.015.055.033.108.048.163.008.03.014.061.022.091.123.47.238.941.346 1.411.009.039.015.079.024.119.122.535.229 1.072.329 1.611.278 1.462.475 2.936.596 4.422.015.189.036.378.048.567.032.475.051.953.067 1.43.01.284.02.567.024.852.002.203.017.405.017.609 0 .257-.015.51-.02.765-.004.244-.01.487-.018.731-.016.461-.039.92-.069 1.377-.016.242-.035.483-.055.724-.04.474-.085.946-.14 1.416-.024.209-.052.417-.08.626-.067.51-.142 1.018-.227 1.522-.026.158-.056.315-.084.473-.101.559-.21 1.114-.332 1.665-.022.099-.046.199-.069.298-.141.614-.293 1.222-.459 1.826-.011.04-.023.08-.034.119-2.007 7.186-5.831 13.621-10.97 18.76-6.321 6.321-14.57 10.658-23.812 12.076-1.417 9.241-5.754 17.49-12.075 23.811-7.739 7.738-18.482 12.557-30.303 12.557s-22.563-4.819-30.331-12.557c-7.738-7.767-12.557-18.482-12.557-30.331v-171.41zm-152.022 75.685c0-4.564 1.758-8.221 4.592-11.083 2.807-2.778 6.605-4.592 10.658-5.5l17.887-4.082c.822-2.608 1.758-5.159 2.807-7.682s2.183-5.017 3.43-7.427l-9.779-15.562c-2.154-3.458-3.571-7.427-3.571-11.396h-.029c0-4.025 1.361-7.88 4.564-11.083l14.201-14.173c3.175-3.203 7.03-4.535 11.056-4.535v-.028c3.939 0 7.937 1.389 11.423 3.6l15.534 9.779c2.438-1.247 4.933-2.41 7.455-3.43 2.494-1.049 5.074-1.984 7.653-2.807l4.082-17.915c.936-4.025 2.75-7.852 5.527-10.63 2.835-2.863 6.521-4.62 11.056-4.62v.028h10.034c3.855 0 6.974 3.118 6.974 6.973h.028v85.209c0 3.883-3.146 7.001-7.002 7.001h-.538c-4.961.085-9.864 1.446-14.174 3.94-4.337 2.495-8.078 6.123-10.743 10.744-4.054 7.001-4.875 15.023-2.919 22.309 1.955 7.257 6.661 13.776 13.69 17.83.114.057.228.142.341.198 2.126 1.19 4.394 2.098 6.746 2.75 2.552.68 5.103.992 7.597.992 3.855 0 6.974 3.118 6.974 6.973h.028v85.238c0 3.855-3.146 7.001-7.002 7.001h-10.034c-4.535 0-8.221-1.786-11.056-4.62-2.777-2.778-4.592-6.605-5.527-10.63l-4.054-17.915c-2.607-.822-5.188-1.758-7.682-2.807-2.522-1.049-5.018-2.183-7.455-3.43l-15.534 9.779c-3.486 2.211-7.483 3.6-11.423 3.6-3.997 0-7.853-1.332-11.056-4.563l-14.201-14.173c-3.203-3.231-4.564-7.059-4.564-11.083 0-3.94 1.418-7.909 3.601-11.424l9.808-15.534c-1.247-2.438-2.409-4.904-3.458-7.427-1.021-2.523-1.956-5.074-2.807-7.682l-17.887-4.082c-4.053-.907-7.852-2.721-10.658-5.528-2.834-2.834-4.592-6.52-4.592-11.055h.028v-20.041h-.028z" fill="#203b72"/><path d="m242.872 488.994h26.249c10.062 0 19.219-4.11 25.852-10.744 6.633-6.633 10.771-15.789 10.771-25.852 0-1.657-.106-3.179-.278-4.592h-98.938c-.173 1.413-.279 2.935-.279 4.592 0 10.063 4.11 19.219 10.771 25.852 6.634 6.633 15.789 10.744 25.853 10.744z" fill="#203b72"/><path d="m327.458 398.625c-3.742-3.713-8.901-6.038-14.542-6.038h-113.839c-5.67 0-10.801 2.324-14.542 6.038-3.742 3.742-6.066 8.901-6.066 14.57s2.324 10.8 6.066 14.542c3.741 3.742 8.872 6.066 14.542 6.066h113.839c5.641 0 10.8-2.324 14.542-6.066 3.741-3.742 6.065-8.901 6.065-14.542s-2.324-10.828-6.065-14.57z" fill="#203b72"/><path d="m55.81 337.11c2.24 3.15 6.58 3.89 9.73 1.65 3.14-2.24 3.88-6.61 1.64-9.73-11.96-16.72-21.8-35.06-29.14-54.7-7.14-19.05-11.91-39.35-13.95-60.55-3.09-31.89.29-62.93 9.02-91.76 7.65-25.23 19.44-48.84 34.64-69.9l7.48 32.57c.85 3.77 4.62 6.12 8.36 5.27 3.77-.88 6.13-4.62 5.25-8.39l-10.8-47.03c-.03-.12-.07-.24-.11-.36-.01-.06-.03-.11-.05-.17-.04-.15-.1-.29-.15-.44-.04-.08-.07-.16-.1-.23-.05-.12-.11-.24-.17-.36-.05-.09-.09-.18-.15-.28-.05-.09-.11-.19-.17-.28-.06-.1-.13-.21-.2-.31-.05-.07-.11-.15-.16-.22-.09-.11-.18-.22-.271-.33-.04-.05-.09-.11-.14-.16-.11-.12-.22-.23-.34-.34-.03-.04-.07-.07-.11-.11-.13-.12-.27-.23-.41-.34-.03-.02-.06-.04-.09-.07-.15-.11-.31-.22-.47-.32-.02-.02-.04-.03-.06-.04-.17-.11-.35-.21-.52-.3l-.06-.03c-.18-.09-.36-.17-.55-.24-.03-.01-.06-.02-.08-.03-.18-.07-.36-.13-.54-.18-.05-.01-.1-.02-.14-.04-.17-.04-.33-.08-.5-.11-.07-.02-.15-.03-.23-.04-.14-.02-.28-.04-.42-.05-.11-.01-.21-.02-.32-.02-.12-.01-.24-.01-.36-.01s-.25.01-.37.02c-.08 0-.16 0-.25.01l-52.78 5.1c-3.82.37-6.66 3.77-6.29 7.6.37 3.82 3.77 6.66 7.6 6.29l36.89-3.57c-15.84 22.15-28.17 46.91-36.189 73.39-9.26 30.55-12.84 63.38-9.58 97.11 2.16 22.45 7.23 43.94 14.77 64.09 7.8 20.87 18.23 40.28 30.84 57.94z" fill="#0fa4de"/></svg>