<svg id="Layer_1" viewBox="0 0 512 512" xmlns="http://www.w3.org/2000/svg" data-name="Layer 1"><g fill="#a3b7ff"><path d="m396.741 93.591c6.712 0 12.173-5.461 12.173-12.173s-5.461-12.172-12.173-12.172-12.172 5.46-12.172 12.172 5.46 12.173 12.172 12.173z"/><path d="m270.489 30.172c0-6.712-5.46-12.172-12.172-12.172s-12.173 5.46-12.173 12.172 5.461 12.173 12.173 12.173 12.172-5.461 12.172-12.173z"/><circle cx="115.466" cy="481.827" r="12.173"/><path d="m119.891 69.246c-6.712 0-12.173 5.46-12.173 12.172s5.461 12.173 12.173 12.173 12.172-5.461 12.172-12.173-5.46-12.172-12.172-12.172z"/><path d="m42.881 469.654c-6.712 0-12.173 5.461-12.173 12.173s5.461 12.173 12.173 12.173 12.172-5.461 12.172-12.173-5.46-12.173-12.172-12.173z"/><path d="m246.144 481.827c0 6.712 5.461 12.173 12.173 12.173s12.172-5.461 12.172-12.173-5.46-12.173-12.172-12.173-12.173 5.461-12.173 12.173z"/><path d="m479.744 311.542c-6.712 0-12.172 5.461-12.172 12.173s5.46 12.173 12.172 12.173 12.173-5.461 12.173-12.173-5.461-12.173-12.173-12.173z"/><path d="m354.627 315.765 14.056-33.925c.896-2.163 2.815-3.734 5.112-4.188l19.287-3.804v-35.698l-19.287-3.804c-2.297-.453-4.216-2.024-5.112-4.188l-14.056-33.925c-.896-2.164-.651-4.633.653-6.578l10.951-16.329-25.242-25.242-16.33 10.95c-1.944 1.304-4.415 1.551-6.577.653l-33.925-14.055c-2.164-.896-3.735-2.815-4.188-5.112l-3.804-19.287h-35.698l-3.802 19.286c-.453 2.298-2.025 4.217-4.189 5.113l-33.925 14.055c-2.162.897-4.631.651-6.577-.653l-16.331-10.95-25.241 25.241 10.95 16.331c1.305 1.945 1.55 4.414.653 6.577l-14.055 33.925c-.896 2.163-2.815 3.734-5.112 4.188l-19.288 3.804v35.698l19.288 3.804c2.297.453 4.216 2.024 5.112 4.188l14.055 33.924c.896 2.164.651 4.633-.653 6.578l-10.95 16.331 25.242 25.242 16.33-10.951c1.943-1.306 4.414-1.552 6.577-.653l33.925 14.055c2.164.896 3.736 2.815 4.189 5.113l3.802 19.287h35.698l3.804-19.288c.453-2.297 2.024-4.216 4.188-5.112l33.925-14.055c2.163-.898 4.633-.652 6.577.653l16.329 10.951 25.243-25.243-10.951-16.329c-1.305-1.945-1.55-4.414-.653-6.578zm-96.311 30.027c-49.512 0-89.793-40.281-89.793-89.793s40.281-89.792 89.793-89.792 89.792 40.28 89.792 89.792-40.28 89.793-89.792 89.793z"/><circle cx="469.119" cy="481.827" r="12.173"/><circle cx="401.167" cy="481.827" r="12.173"/><path d="m44.428 323.715c0-6.712-5.461-12.173-12.173-12.173s-12.172 5.461-12.172 12.173 5.46 12.173 12.172 12.173 12.173-5.461 12.173-12.173z"/></g><path d="m258.317 166.207c-49.512 0-89.793 40.28-89.793 89.792s40.281 89.793 89.793 89.793 89.792-40.281 89.792-89.793-40.28-89.792-89.792-89.792zm0 165.585c-41.792 0-75.793-34.001-75.793-75.793s34.001-75.792 75.793-75.792 75.792 34 75.792 75.792-34 75.793-75.792 75.793zm51.159-116.685c-6.795-6.797-17.852-6.797-24.646 0l-41.451 41.451-8.799-15.24c-4.806-8.323-15.487-11.185-23.808-6.38-4.022 2.321-6.902 6.081-8.109 10.586s-.593 9.2 1.729 13.222l19.745 34.199c2.873 4.974 7.59 8.125 13.283 8.874.838.11 1.669.165 2.489.165 4.759 0 9.177-1.836 12.639-5.301l56.929-56.929c6.795-6.794 6.796-17.852 0-24.647zm-9.898 14.749-56.93 56.93c-.979.979-2.026 1.335-3.4 1.153-1.374-.181-2.295-.796-2.987-1.995l-19.744-34.198c-.61-1.057-.469-2.081-.33-2.599.138-.517.528-1.475 1.585-2.085.523-.302 1.104-.445 1.682-.445 1.195 0 2.375.615 3.002 1.701l13.36 23.141c1.089 1.885 2.991 3.156 5.148 3.44 2.161.284 4.326-.452 5.864-1.991l47.9-47.902c1.314-1.312 3.535-1.312 4.85 0 1.313 1.315 1.313 3.536 0 4.851zm-241.149 93.858c0-12.007-8.13-22.145-19.173-25.215v-45.5l40.556-40.557c1.313-1.312 2.051-3.093 2.051-4.949v-72.903c0-3.866-3.134-7-7-7s-7 3.134-7 7v70.004l-40.556 40.557c-1.313 1.312-2.051 3.093-2.051 4.949v48.4c-11.042 3.07-19.172 13.208-19.172 25.215 0 14.432 11.74 26.173 26.172 26.173s26.173-11.741 26.173-26.173zm-38.345 0c0-6.712 5.46-12.173 12.172-12.173s12.173 5.461 12.173 12.173-5.461 12.173-12.173 12.173-12.172-5.461-12.172-12.173zm29.798 132.898v-59.134l40.555-40.557c1.313-1.312 2.051-3.093 2.051-4.949v-87.105c0-3.866-3.134-7-7-7s-7 3.134-7 7v84.206l-40.555 40.557c-1.313 1.312-2.051 3.093-2.051 4.949v62.033c-11.042 3.07-19.173 13.208-19.173 25.215 0 14.432 11.741 26.173 26.173 26.173s26.172-11.741 26.172-26.173c0-12.007-8.13-22.145-19.172-25.214zm-7 37.387c-6.712 0-12.173-5.461-12.173-12.173s5.461-12.173 12.173-12.173 12.172 5.461 12.172 12.173-5.46 12.173-12.172 12.173zm443.862-195.5v-48.4c0-1.856-.737-3.637-2.051-4.949l-40.555-40.557v-70.004c0-3.866-3.134-7-7-7s-7 3.134-7 7v72.903c0 1.856.737 3.637 2.051 4.949l40.555 40.557v45.5c-11.042 3.07-19.172 13.208-19.172 25.215 0 14.432 11.74 26.173 26.172 26.173s26.173-11.741 26.173-26.173c0-12.007-8.13-22.145-19.173-25.215zm-7 37.387c-6.712 0-12.172-5.461-12.172-12.173s5.46-12.173 12.172-12.173 12.173 5.461 12.173 12.173-5.461 12.173-12.173 12.173zm-3.625 120.725v-62.033c0-1.856-.737-3.637-2.051-4.949l-40.556-40.557v-84.206c0-3.866-3.134-7-7-7s-7 3.134-7 7v87.105c0 1.856.737 3.637 2.051 4.949l40.556 40.557v59.134c-11.042 3.07-19.173 13.208-19.173 25.215 0 14.432 11.741 26.173 26.173 26.173s26.173-11.741 26.173-26.173c0-12.007-8.13-22.145-19.173-25.215zm-7 37.387c-6.712 0-12.173-5.461-12.173-12.173s5.461-12.173 12.173-12.173 12.173 5.461 12.173 12.173-5.461 12.173-12.173 12.173zm-60.952-37.387v-57.763c0-1.856-.737-3.637-2.051-4.949l-37.657-37.657 7.832-7.831c4.622-4.624 5.335-11.922 1.693-17.351l-8.987-13.402 11.186-26.997 15.827-3.121c6.416-1.264 11.073-6.928 11.073-13.468v-36.146c0-6.539-4.656-12.203-11.071-13.468l-15.829-3.122-11.186-26.997 8.987-13.402c3.642-5.429 2.929-12.727-1.695-17.352l-25.559-25.559c-4.624-4.626-11.923-5.337-17.352-1.694l-13.401 8.987-26.998-11.186-3.122-15.829c-1.265-6.415-6.929-11.071-13.467-11.071h-11.073v-51.848c11.042-3.07 19.172-13.208 19.172-25.214 0-14.431-11.741-26.172-26.172-26.172s-26.173 11.741-26.173 26.172c0 12.007 8.13 22.145 19.173 25.215v51.848h-11.073c-6.541 0-12.205 4.657-13.468 11.072l-3.121 15.828-26.998 11.186-13.401-8.987c-5.429-3.641-12.728-2.931-17.353 1.694l-25.559 25.559c-4.624 4.623-5.337 11.921-1.694 17.352l8.987 13.402-11.186 26.997-15.829 3.122c-6.415 1.265-11.072 6.929-11.072 13.468v36.146c0 6.54 4.657 12.204 11.072 13.467l15.829 3.122 11.186 26.997-8.987 13.402c-3.643 5.431-2.93 12.729 1.694 17.352l7.83 7.83-37.657 37.657c-1.313 1.312-2.051 3.093-2.051 4.949v57.763c-11.042 3.07-19.173 13.208-19.173 25.215 0 14.432 11.741 26.173 26.173 26.173s26.173-11.741 26.173-26.173c0-12.007-8.13-22.145-19.173-25.215v-54.864l35.606-35.607 7.83 7.83c4.624 4.625 11.924 5.338 17.353 1.695l13.402-8.987 26.997 11.185 3.12 15.828c1.264 6.416 6.928 11.073 13.469 11.073h11.073v51.847c-11.042 3.07-19.173 13.208-19.173 25.215 0 14.432 11.741 26.173 26.173 26.173s26.172-11.741 26.172-26.173c0-12.007-8.13-22.145-19.172-25.214v-51.847h11.073c6.538 0 12.202-4.657 13.467-11.072l3.122-15.829 26.997-11.185 13.402 8.987c5.431 3.645 12.731 2.93 17.352-1.695l7.83-7.83 35.606 35.607v54.864c-11.042 3.07-19.173 13.208-19.173 25.215 0 14.432 11.741 26.173 26.173 26.173s26.173-11.741 26.173-26.173c0-12.007-8.13-22.145-19.173-25.215zm-162.023-426.439c0-6.712 5.461-12.172 12.173-12.172s12.172 5.46 12.172 12.172-5.46 12.173-12.172 12.173-12.173-5.461-12.173-12.173zm-118.505 451.655c0 6.712-5.461 12.173-12.173 12.173s-12.173-5.461-12.173-12.173 5.461-12.173 12.173-12.173 12.173 5.461 12.173 12.173zm142.85 0c0 6.712-5.46 12.173-12.172 12.173s-12.173-5.461-12.173-12.173 5.461-12.173 12.173-12.173 12.172 5.461 12.172 12.173zm70.5-117.912-16.329-10.951c-1.944-1.306-4.414-1.552-6.577-.653l-33.925 14.055c-2.164.896-3.735 2.815-4.188 5.112l-3.804 19.288h-35.698l-3.802-19.287c-.453-2.298-2.025-4.217-4.189-5.113l-33.925-14.055c-2.163-.898-4.634-.652-6.577.653l-16.33 10.951-25.242-25.242 10.95-16.331c1.305-1.945 1.55-4.414.653-6.578l-14.055-33.924c-.896-2.163-2.815-3.734-5.112-4.188l-19.288-3.804v-35.698l19.288-3.804c2.297-.453 4.216-2.024 5.112-4.188l14.055-33.925c.896-2.163.651-4.632-.653-6.577l-10.95-16.331 25.241-25.241 16.331 10.95c1.946 1.305 4.415 1.551 6.577.653l33.925-14.055c2.164-.896 3.736-2.815 4.189-5.113l3.802-19.286h35.698l3.804 19.287c.453 2.297 2.024 4.216 4.188 5.112l33.925 14.055c2.162.897 4.633.65 6.577-.653l16.33-10.95 25.242 25.242-10.951 16.329c-1.305 1.945-1.55 4.414-.653 6.578l14.056 33.925c.896 2.163 2.815 3.734 5.112 4.188l19.287 3.804v35.698l-19.287 3.804c-2.297.453-4.216 2.024-5.112 4.188l-14.056 33.925c-.896 2.164-.651 4.633.653 6.578l10.951 16.329zm60.178 130.085c-6.712 0-12.173-5.461-12.173-12.173s5.461-12.173 12.173-12.173 12.173 5.461 12.173 12.173-5.461 12.173-12.173 12.173zm-97.175-448.947c24.204 5.215 47.082 14.485 68.104 27.565-.986 2.752-1.527 5.714-1.527 8.801 0 14.432 11.741 26.173 26.172 26.173s26.173-11.741 26.173-26.173-11.741-26.172-26.173-26.172c-6.273 0-12.037 2.221-16.55 5.915-22.583-14.163-47.196-24.18-73.25-29.794-3.786-.819-7.504 1.589-8.317 5.368-.814 3.779 1.589 7.503 5.368 8.317zm104.922 36.365c0 6.712-5.461 12.173-12.173 12.173s-12.172-5.461-12.172-12.173 5.46-12.172 12.172-12.172 12.173 5.46 12.173 12.172zm-289.022 26.173c14.431 0 26.172-11.741 26.172-26.173 0-3.087-.541-6.049-1.527-8.801 21.021-13.079 43.898-22.35 68.103-27.565 3.779-.814 6.183-4.538 5.368-8.317-.813-3.779-4.533-6.186-8.317-5.368-26.056 5.614-50.668 15.631-73.249 29.794-4.513-3.694-10.277-5.915-16.55-5.915-14.432 0-26.173 11.741-26.173 26.172s11.741 26.173 26.173 26.173zm0-38.345c6.712 0 12.172 5.46 12.172 12.172s-5.46 12.173-12.172 12.173-12.173-5.461-12.173-12.173 5.461-12.172 12.173-12.172z" fill="#466ffd"/></svg>