<svg id="Layer_1" viewBox="0 0 512 512" xmlns="http://www.w3.org/2000/svg" data-name="Layer 1"><path d="m266.355 245.502h117.25v117.25h-117.25z" fill="#c2a9a1"/><path d="m184.365 11.001h117.25v117.25h-117.25z" fill="#ffcec0"/><path d="m226.151 11.001h33.678v37.887h-33.678z" fill="#f29988"/><path d="m323.662 362.752h117.25v117.25h-117.25z" fill="#ea806f"/><path d="m365.448 362.752h33.678v37.887h-33.678z" fill="#ffcec0"/><path d="m383.605 245.502h117.25v117.25h-117.25z" fill="#e3a76f"/><path d="m425.391 245.502h33.678v37.887h-33.678z" fill="#f2d1a5"/><path d="m301.615 128.251h117.25v117.25h-117.25z" fill="#ea806f"/><path d="m343.401 128.251h33.678v37.887h-33.678z" fill="#ffcec0"/><path d="m301.615 11.001h117.25v117.25h-117.25z" fill="#e3a76f"/><path d="m343.401 11.001h33.678v37.887h-33.678z" fill="#f2d1a5"/><path d="m482.989 245.502h17.866v117.25h-17.866z" fill="#c48958"/><path d="m365.739 245.502h17.866v117.25h-17.866z" fill="#b0948b"/><path d="m423.046 362.752h17.866v117.25h-17.866z" fill="#c95645"/><path d="m400.999 128.251h17.866v117.25h-17.866z" fill="#c95645"/><path d="m400.999 11.001h17.866v117.25h-17.866z" fill="#c48958"/><path d="m283.749 11.001h17.866v117.25h-17.866z" fill="#fdb0a0"/><path d="m323.662 151.865c0-13.006-10.608-23.614-23.614-23.614h-265.283c-13.006 0-23.614 10.608-23.614 23.614v325.522c0 13.005 10.608 23.614 23.614 23.614h265.283c13.006 0 23.614-10.608 23.614-23.614z" fill="#b6dbff" fill-rule="evenodd"/><path d="m280.848 128.251h-246.083c-13.006 0-23.614 10.608-23.614 23.614v325.522c0 13.005 10.608 23.614 23.614 23.614h246.083c13.006 0 23.614-10.608 23.614-23.614v-325.522c0-13.006-10.607-23.614-23.614-23.614z" fill="#e3f1ff" fill-rule="evenodd"/><rect fill="#fdc72e" height="75.968" rx="7.447" width="75.968" x="52.828" y="176.447"/><path d="m60.275 176.447h56.383c2.159 1.12 3.642 3.379 3.642 5.966v57.214c0 3.694-3.022 6.717-6.716 6.717h-55.089c-2.375 0-4.471-1.249-5.666-3.122v-59.328c0-4.096 3.351-7.447 7.447-7.447z" fill="#fcdb35" fill-rule="evenodd"/><rect fill="#2dd62d" height="75.968" rx="7.447" width="75.968" x="52.828" y="282.583"/><rect fill="#4eb1fc" height="75.968" rx="7.447" width="75.968" x="52.828" y="388.719"/><g fill-rule="evenodd"><path d="m167.406 113.109c4.742 0 8.61-3.868 8.61-8.61s-3.868-8.61-8.61-8.61-8.61 3.868-8.61 8.61 3.868 8.61 8.61 8.61z"/><path d="m167.406 77.67c-15.357 0-27.806 12.449-27.806 27.806v3.819l-27.567-4.819c-4.143-.724-8 .313-11.22 3.02-3.22 2.706-4.907 6.327-4.907 10.533v29.924h143v-29.924c0-4.206-1.686-7.827-4.907-10.533-3.22-2.706-7.077-3.744-11.221-3.02l-27.567 4.819v-3.819c0-15.357-12.449-27.806-27.806-27.806z" fill="#2a93fc"/><path d="m139.6 105.476v3.819l-27.566-4.819c-4.143-.725-8.001.314-11.221 3.019-3.22 2.706-4.907 6.327-4.907 10.533v29.924h130.518s0-27.741 0-27.741c0-4.207-1.686-7.827-4.906-10.533s-7.078-3.743-11.221-3.02l-15.084 2.637-6.724 1.175-3.528.616c.436-38.393-45.36-33.102-45.36-5.611z" fill="#4eb1fc"/><path d="m60.275 282.583h56.383c2.159 1.12 3.642 3.379 3.642 5.966v57.214c0 3.694-3.022 6.717-6.716 6.717h-55.089c-2.375 0-4.471-1.249-5.666-3.122v-59.328c0-4.096 3.351-7.447 7.447-7.447z" fill="#43f043"/><path d="m60.275 388.72h56.383c2.159 1.12 3.642 3.379 3.642 5.966v57.214c0 3.694-3.022 6.717-6.716 6.717h-55.089c-2.375 0-4.471-1.249-5.666-3.122v-59.328c0-4.096 3.351-7.447 7.447-7.447z" fill="#85caff"/><path d="m159.394 405.968c0-3.871 3.128-6.999 6.999-6.999h78.788c3.87 0 6.999 3.128 6.999 6.999s-3.128 6.999-6.999 6.999h-78.788c-3.87 0-6.999-3.138-6.999-6.999zm129.587 41.471c0 3.871-3.128 6.999-6.999 6.999h-115.589c-3.87 0-6.999-3.128-6.999-6.999s3.128-7.003 6.999-7.003h115.589c3.87 0 6.999 3.143 6.999 7.003zm-129.587-147.614c0-3.856 3.128-6.999 6.999-6.999h78.788c3.87 0 6.999 3.143 6.999 6.999 0 3.875-3.128 7.004-6.999 7.004h-78.788c-3.87 0-6.999-3.128-6.999-7.004zm129.587 41.481c0 3.861-3.128 7.003-6.999 7.003h-115.589c-3.87 0-6.999-3.142-6.999-7.003s3.128-6.999 6.999-6.999h115.589c3.87 0 6.999 3.133 6.999 6.999zm-175.888 67.49c2.738 2.743 2.738 7.172 0 9.9l-25.903 25.913c-1.33 1.316-3.109 2.049-4.95 2.049-.308 0-.607-.019-.916-.063-2.164-.28-4.063-1.547-5.153-3.437l-8.758-15.174c-1.933-3.345-.781-7.625 2.569-9.568 3.34-1.928 7.62-.781 9.558 2.569l4.203 7.269 19.459-19.458c2.728-2.728 7.157-2.728 9.891 0zm0-106.137c2.738 2.738 2.738 7.167 0 9.896l-25.903 25.912c-1.33 1.33-3.109 2.049-4.95 2.049-.308 0-.607-.019-.916-.058-2.164-.279-4.063-1.552-5.153-3.442l-8.758-15.169c-1.933-3.35-.781-7.63 2.569-9.558 3.34-1.933 7.62-.79 9.558 2.559l4.203 7.269 19.459-19.459c2.728-2.733 7.157-2.733 9.891 0zm8.7 154.579v-61.07c0-.231-.212-.448-.443-.448h-61.08c-.232 0-.439.217-.439.448v61.07c0 .226.207.448.439.448h61.079c.231 0 .443-.222.443-.448zm-.443-75.521h-61.08c-7.958 0-14.441 6.478-14.441 14.45v61.07c0 7.967 6.483 14.45 14.441 14.45h61.079c7.963 0 14.441-6.483 14.441-14.45v-61.07c0-7.972-6.478-14.45-14.441-14.45zm.443-30.612v-61.08c0-.226-.212-.439-.443-.439h-61.08c-.232 0-.439.212-.439.439v61.08c0 .231.207.443.439.443h61.079c.231 0 .443-.212.443-.443zm-.443-75.516h-61.08c-7.958 0-14.441 6.478-14.441 14.436v61.08c0 7.962 6.483 14.441 14.441 14.441h61.079c7.963 0 14.441-6.478 14.441-14.441v-61.08c0-7.958-6.478-14.436-14.441-14.436zm-8.257-79.063c2.738 2.733 2.738 7.163 0 9.9l-25.903 25.907c-1.33 1.321-3.109 2.049-4.95 2.049-.308 0-.607-.019-.916-.058-2.164-.284-4.063-1.557-5.153-3.441l-8.758-15.173c-1.933-3.345-.781-7.63 2.569-9.563 3.34-1.933 7.62-.786 9.558 2.564l4.203 7.273 19.459-19.458c2.728-2.733 7.157-2.733 9.891 0zm8.7 48.441v-61.075c0-.231-.212-.448-.443-.448h-61.08c-.232 0-.439.217-.439.448v61.075c0 .231.207.448.439.448h61.079c.231 0 .443-.217.443-.448zm-.443-75.52h-61.08c-7.958 0-14.441 6.478-14.441 14.446v61.075c0 7.968 6.483 14.446 14.441 14.446h61.079c7.963 0 14.441-6.478 14.441-14.446v-61.075c0-7.968-6.478-14.446-14.441-14.446zm38.044 24.245c0-3.866 3.128-6.999 6.999-6.999h78.788c3.87 0 6.999 3.133 6.999 6.999s-3.128 6.999-6.999 6.999h-78.788c-3.87 0-6.999-3.133-6.999-6.999zm129.587 41.476c0 3.866-3.128 6.999-6.999 6.999h-115.589c-3.87 0-6.999-3.133-6.999-6.999s3.128-6.999 6.999-6.999h115.589c3.87 0 6.999 3.133 6.999 6.999zm-112.977-130.828c0 4.753-3.851 8.599-8.604 8.599s-8.589-3.847-8.589-8.599 3.851-8.599 8.589-8.599 8.604 3.851 8.604 8.599zm317.848 251.409h-103.25v-103.245h27.792v30.887c0 3.87 3.128 6.999 6.999 6.999h33.678c3.861 0 6.999-3.128 6.999-6.999v-30.887h27.783v103.245zm-59.942 117.252h-103.25v-103.25h27.792v30.887c0 3.87 3.128 7.003 6.999 7.003h33.668c3.875 0 7.004-3.133 7.004-7.003v-30.887h27.787zm-117.247 4.386v-325.522c0-9.158-7.452-16.615-16.61-16.615h-54.22v12.667c0 3.866-3.128 6.999-6.999 6.999h-142.852c-3.87 0-6.998-3.133-6.998-6.999v-12.667h-54.222c-9.163 0-16.61 7.457-16.61 16.615v325.522c0 9.163 7.447 16.61 16.61 16.61h265.291c9.158 0 16.61-7.447 16.61-16.61zm-213.683-359.363v22.895h128.85v-22.895c0-2.14-.757-3.784-2.4-5.162-1.648-1.379-3.398-1.846-5.5-1.48l-27.537 4.81c-2.039.357-4.131-.207-5.711-1.533-1.581-1.33-2.497-3.292-2.497-5.36v-3.818c0-11.452-9.322-20.774-20.784-20.774s-20.769 9.322-20.769 20.774v3.818c0 2.067-.921 4.029-2.497 5.36-1.581 1.33-3.673 1.89-5.712 1.533l-27.542-4.81c-2.106-.366-3.861.101-5.5 1.48-1.639 1.378-2.4 3.022-2.4 5.162zm88.381-100.026h27.792v30.892c0 3.866 3.128 6.999 6.999 6.999h33.678c3.861 0 7.003-3.133 7.003-6.999v-30.892h27.778v103.255h-48.779v-3.23c0-6.232-2.632-11.872-7.399-15.877-4.772-4.015-10.782-5.63-16.914-4.555l-19.617 3.427c-1.051-8.107-4.902-15.342-10.541-20.712zm41.79 0v23.893h19.68v-23.893zm117.252 0h19.68v23.893h-19.68zm61.46 103.255v-103.255h-27.783v30.892c0 3.866-3.138 6.999-6.999 6.999h-33.682c-3.866 0-6.999-3.133-6.999-6.999v-30.892h-27.787v103.255zm20.528 131.249v23.888h19.68v-23.888zm-81.989-117.252h19.68v23.888h-19.68zm-19.743 103.25h81.203v-103.25h-27.783v30.887c0 3.866-3.138 7.004-6.999 7.004h-33.682c-3.866 0-6.999-3.138-6.999-7.004v-30.887h-10.657c3.109 4.791 4.916 10.493 4.916 16.615v86.635zm0 117.247v-103.245h45.944v103.245zm41.79 14.002v23.888h19.67v-23.888zm128.401-131.249h-74.99v-227.496c0-3.866-3.128-7.003-6.999-7.003h-234.499c-3.861 0-6.998 3.138-6.998 7.003v61.162c-3.152-.945-6.502-1.461-9.963-1.461-17.661 0-32.289 13.236-34.487 30.313l-19.622-3.427c-6.141-1.075-12.137.54-16.909 4.55-4.781 4.01-7.399 9.65-7.399 15.882v3.23h-54.222c-16.88 0-30.612 13.732-30.612 30.612v325.522c0 16.88 13.732 30.612 30.612 30.612h265.291c13.52 0 25.011-8.811 29.05-21.001h111.811c3.87 0 6.999-3.128 6.999-6.998v-110.249h52.938c3.87 0 6.999-3.133 6.999-7.003v-117.243c0-3.866-3.128-7.003-6.999-7.003z"/></g></svg>