<svg height="300" viewBox="0 0 426.66667 426.66667" width="300" xmlns="http://www.w3.org/2000/svg" version="1.1" xmlns:xlink="http://www.w3.org/1999/xlink" xmlns:svgjs="http://svgjs.dev/svgjs"><g width="100%" height="100%" transform="matrix(1,0,0,1,0,0)"><path d="m373.332031 426.667969h-320c-29.453125 0-53.332031-23.878907-53.332031-53.335938v-320c0-29.453125 23.878906-53.332031 53.332031-53.332031h320c29.457031 0 53.335938 23.878906 53.335938 53.332031v320c0 29.457031-23.878907 53.335938-53.335938 53.335938zm-320-405.335938c-17.671875 0-32 14.328125-32 32v320c0 17.675781 14.328125 32 32 32h320c17.675781 0 32-14.324219 32-32v-320c0-17.671875-14.324219-32-32-32zm0 0" fill="#6882bc" fill-opacity="1" data-original-color="#000000ff" stroke="none" stroke-opacity="1"/><path d="m320 330.667969h-10.667969c-29.453125 0-53.332031-23.878907-53.332031-53.335938h21.332031c0 17.675781 14.328125 32 32 32h10.667969c17.671875 0 32-14.324219 32-32v-21.332031c0-17.671875-14.328125-32-32-32h-10.667969c-29.453125 0-53.332031-23.878906-53.332031-53.332031v-21.335938c0-29.453125 23.878906-53.332031 53.332031-53.332031h10.667969c29.457031 0 53.332031 23.878906 53.332031 53.332031h-21.332031c0-17.671875-14.328125-32-32-32h-10.667969c-17.671875 0-32 14.328125-32 32v21.335938c0 17.671875 14.328125 32 32 32h10.667969c29.457031 0 53.332031 23.875 53.332031 53.332031v21.332031c0 29.457031-23.875 53.335938-53.332031 53.335938zm0 0" fill="#6882bc" fill-opacity="1" data-original-color="#000000ff" stroke="none" stroke-opacity="1"/><path d="m170.667969 330.667969h-10.667969c-29.457031 0-53.332031-23.878907-53.332031-53.335938v-128c0-29.453125 23.875-53.332031 53.332031-53.332031h10.667969c29.453125 0 53.332031 23.878906 53.332031 53.332031v128c0 29.457031-23.878906 53.335938-53.332031 53.335938zm-10.667969-213.335938c-17.671875 0-32 14.328125-32 32v128c0 17.675781 14.328125 32 32 32h10.667969c17.671875 0 32-14.324219 32-32v-128c0-17.671875-14.328125-32-32-32zm0 0" fill="#6882bc" fill-opacity="1" data-original-color="#000000ff" stroke="none" stroke-opacity="1"/><path d="m53.332031 213.332031h21.335938v117.335938h-21.335938zm0 0" fill="#6882bc" fill-opacity="1" data-original-color="#000000ff" stroke="none" stroke-opacity="1"/><path d="m74.667969 170.667969h-21.335938v21.332031h21.335938zm0 0" fill="#6882bc" fill-opacity="1" data-original-color="#000000ff" stroke="none" stroke-opacity="1"/></g></svg>