<svg clip-rule="evenodd" fill-rule="evenodd" height="512" image-rendering="optimizeQuality" shape-rendering="geometricPrecision" text-rendering="geometricPrecision" viewBox="0 0 512 512" width="512" xmlns="http://www.w3.org/2000/svg"><g id="Layer_x0020_1"><path d="m505 469h-498c-4 0-7-3-7-7v-412c0-4 3-7 7-7h498c4 0 7 3 7 7v412c0 4-4 7-7 7z" fill="#bddbff"/><path d="m227 43h16l-47 95c-1 2-4 4-7 4-1 0-2-1-3-1-4-2-5-7-3-10z" fill="#0058c2"/><path d="m0 142v-15h512v15z" fill="#9bc9ff"/><g id="_292813200"><path d="m40 358v-28l71-48c3-2 7-2 11 0l54 36 55-37v28l-50 33c-3 2-7 2-10 0l-54-36z" fill="#fff"/><path d="m40 199v131l71-48c3-2 7-2 11 0l54 36 55-37v-82c0-7-5-12-11-12h-170c-6 0-10 5-10 12z" fill="#2488ff"/><path d="m40 393c0 7 4 13 10 13h170c6 0 11-6 11-13v-84l-50 33c-3 2-7 2-10 0l-54-36-77 52z" fill="#5eac24"/><path d="m157 274c-1 0-2 0-4-1-3-1-5-4-6-7v-1c-6-18-21-19-21-19-6 0-10-6-10-13s5-11 11-11c1 0 18 0 30 16 13-15 29-16 30-16 6 0 11 5 11 12s-4 13-11 13c-1 0-15 1-20 19-1 4-5 8-10 8z" fill="#fff"/></g><path d="m61 100h-14c-4 0-8-4-8-8s4-7 8-7h14c5 0 8 3 8 7s-3 8-8 8z" fill="#37d742"/><path d="m105 100h-14c-4 0-7-4-7-8s3-7 7-7h14c4 0 8 3 8 7s-4 8-8 8z" fill="#fdbf00"/><path d="m149 100h-14c-4 0-7-4-7-8s3-7 7-7h14c4 0 8 3 8 7s-4 8-8 8z" fill="#f03800"/><g id="_292812192" fill="#57a4ff"><path d="m463 210h-184c-4 0-8-4-8-8s4-7 8-7h183c4 0 8 3 8 7s-4 8-7 8z"/><path d="m463 248h-184c-4 0-8-3-8-7 0-5 4-7 8-7h183c4 0 8 3 8 7s-4 7-7 7z"/><path d="m463 286h-184c-4 0-8-3-8-7s4-8 8-8h183c4 0 8 4 8 8s-4 7-7 7z"/><path d="m463 321h-184c-4 0-8-3-8-7s4-8 8-8h183c4 0 8 4 8 8s-4 7-7 7z"/><path d="m463 360h-184c-4 0-8-4-8-8s4-7 8-7h183c4 0 8 3 8 7s-4 8-7 8z"/><path d="m463 398h-184c-4 0-8-3-8-8 0-4 4-7 8-7h183c4 0 8 4 8 8s-4 7-7 7z"/></g><g fill="#006df0"><path d="m201 127h311v-77c0-4-3-7-7-7h-262z"/><path d="m91 85h14c4 0 8 3 8 7s-4 8-8 8h-14c-4 0-7-4-7-8s3-7 7-7zm-91 42h185l42-84h-220c-4 0-7 3-7 7zm69-35c0 4-3 8-8 8h-14c-4 0-8-4-8-8s4-7 8-7h14c5 0 8 3 8 7zm59 0c0-4 3-7 7-7h14c4 0 8 3 8 7s-4 8-8 8h-14c-4 0-7-4-7-8z"/></g></g></svg>