<svg clip-rule="evenodd" fill-rule="evenodd" stroke-linejoin="round" stroke-miterlimit="2" viewBox="0 0 510 510" xmlns="http://www.w3.org/2000/svg"><g><g><g><path d="m18.497 258.648c-1.834-1.929-1.834-4.957 0-6.887 148.998-156.52 306.812-152.502 472.765-.237 1.031.947 1.617 2.282 1.617 3.681s-.586 2.734-1.617 3.68c-165.953 152.266-323.767 156.283-472.765-.237z" fill="#a4d4ff"/><ellipse cx="255.244" cy="255.205" fill="#f4f6f8" rx="101.695" ry="95.094"/><g fill="#f76c82"><path d="m244.132 197.478c0-5.734 4.98-10.391 11.112-10.391 6.15 0 11.112 4.657 11.112 10.391v77.766c0 5.75-4.962 10.406-11.112 10.406-6.132 0-11.112-4.656-11.112-10.406z" fill-rule="nonzero"/><path d="m255.244 323.322c6.133 0 11.112-4.672 11.112-10.39 0-5.735-4.979-10.407-11.112-10.407-6.115 0-11.112 4.672-11.112 10.407 0 5.718 4.997 10.39 11.112 10.39z"/></g></g></g><path d="m135.862 355.956c-42.659-20.025-84.671-51.895-125.97-95.965-2.523-2.692-2.523-6.88 0-9.573 41.792-44.595 84.313-76.698 127.497-96.676l-49.016-45.834 4.881 17.572c1.034 3.723-1.149 7.584-4.872 8.618-3.722 1.034-7.584-1.149-8.617-4.871l-11.545-41.568c-.669-2.41-.002-4.994 1.75-6.778 1.752-1.785 4.324-2.499 6.745-1.873l44.27 11.435c3.741.966 5.994 4.787 5.027 8.528-.966 3.741-4.787 5.993-8.528 5.027l-17.677-4.566 51.607 48.257c31.85-12.764 64.055-18.996 96.586-18.842v-66.151l-9.814 16.06c-2.015 3.296-6.327 4.337-9.623 2.322-3.297-2.014-4.338-6.326-2.323-9.623l22.787-37.288c1.266-2.071 3.514-3.339 5.941-3.35s4.687 1.236 5.971 3.295l23.141 37.098c2.045 3.278 1.043 7.599-2.235 9.644s-7.599 1.043-9.644-2.235l-10.201-16.354v67.041c30.492 1.855 61.313 9.292 92.442 22.258l56.225-52.576-18.376 4.521c-3.752.923-7.547-1.374-8.47-5.126-.923-3.751 1.374-7.546 5.125-8.469l44.417-10.926c2.431-.598 4.995.147 6.727 1.954 1.731 1.807 2.366 4.401 1.665 6.804l-12.089 41.433c-1.082 3.708-4.972 5.841-8.681 4.759-3.708-1.083-5.841-4.972-4.759-8.681l4.936-16.915-52.805 49.377c43.24 20.238 87.063 51.07 131.413 92.363 1.422 1.324 2.23 3.18 2.23 5.123s-.808 3.799-2.23 5.123c-43.83 40.808-87.145 71.4-129.891 91.646l51.63 48.279-4.896-17.407c-1.047-3.719 1.123-7.588 4.842-8.634s7.588 1.124 8.634 4.843l11.685 41.534c.677 2.408.018 4.994-1.729 6.785-1.747 1.79-4.316 2.512-6.74 1.893l-44.309-11.304c-3.743-.955-6.007-4.77-5.052-8.514.955-3.743 4.77-6.007 8.513-5.052l17.859 4.557-54.295-50.771c-31.665 13.376-63.013 21.034-94.021 22.92v66.638l10.207-16.358c2.045-3.278 6.366-4.279 9.644-2.234s4.278 6.367 2.233 9.645l-23.145 37.094c-1.285 2.06-3.545 3.306-5.972 3.295-2.427-.012-4.675-1.279-5.94-3.351l-22.783-37.291c-2.014-3.296-.973-7.608 2.324-9.622 3.297-2.015 7.609-.973 9.623 2.324l9.809 16.055v-65.735c-33.075.156-65.813-6.289-98.184-19.488l-50.483 47.207 18.376-4.521c3.752-.923 7.547 1.374 8.47 5.125.923 3.752-1.374 7.547-5.125 8.47l-44.417 10.926c-2.431.598-4.995-.147-6.727-1.954-1.731-1.808-2.366-4.402-1.665-6.804l12.089-41.433c1.082-3.708 4.972-5.841 8.681-4.759 3.708 1.082 5.841 4.972 4.759 8.681l-4.936 16.915zm-111.219-100.751c72.53 75.701 147.035 112.869 223.757 112.356 76.788-.515 155.472-38.665 236.271-112.356-80.799-73.692-159.483-111.842-236.271-112.356-76.722-.514-151.227 36.655-223.757 112.356zm230.357-102.095c60.116 0 108.695 45.881 108.695 102.095s-48.579 102.094-108.695 102.094-108.695-45.88-108.695-102.094 48.579-102.095 108.695-102.095zm0 14c-52.139 0-94.695 39.34-94.695 88.095 0 48.754 42.556 88.094 94.695 88.094s94.695-39.34 94.695-88.094c0-48.755-42.556-88.095-94.695-88.095zm-18.112 30.368c0-9.465 7.99-17.391 18.112-17.391 10.149 0 18.112 7.926 18.112 17.391v77.766c0 9.488-7.966 17.406-18.112 17.406-10.119 0-18.112-7.918-18.112-17.406zm14 0v77.766c0 2.017 1.961 3.406 4.112 3.406 2.157 0 4.112-1.389 4.112-3.406v-77.766c0-2.009-1.958-3.391-4.112-3.391-2.148 0-4.112 1.382-4.112 3.391zm4.112 132.844c-10.094 0-18.112-7.952-18.112-17.39 0-9.462 8.021-17.407 18.112-17.407 10.119 0 18.112 7.945 18.112 17.407 0 9.438-7.99 17.39-18.112 17.39zm0-14c2.148 0 4.112-1.387 4.112-3.39 0-2.012-1.961-3.407-4.112-3.407-2.145 0-4.112 1.395-4.112 3.407 0 2.003 1.969 3.39 4.112 3.39z"/></g></svg>