<svg enable-background="new 0 0 512 512" viewBox="0 0 512 512" xmlns="http://www.w3.org/2000/svg"><g id="_x32_5_Handshare"><g><path d="m199.702 469.791c68.537-58.644 86.312-28.892 139.514-12.58 45.53 13.96 98.429-2.491 129.201-38.835 64.927-76.683 20.712-200.788-86.392-219.739-25.947-4.591-54.927-2.911-75.62-19.225-26.304-20.737-26.479-59.605-37.65-91.182-20.989-59.327-92.204-95.568-152.52-77.619s-100.128 87.232-85.264 148.382c5.594 23.012 17.596 43.866 26.531 65.798 33.404 81.997-19.432 96.932-38.394 140.974-9.409 21.852-7.333 48.284 5.371 68.4 74.256 117.576 145.107 61.395 175.223 35.626z" fill="#ebf1fd"/><circle cx="256" cy="221.456" fill="#6acdf3" r="123.302"/><path d="m267.622 344.198c-3.84.393-7.679.567-11.606.567-68.11 0-123.306-55.239-123.306-123.305 0-68.111 55.195-123.306 123.306-123.306 3.927 0 7.766.174 11.606.567-62.656 5.847-111.655 58.555-111.655 122.738 0 64.141 48.999 116.893 111.655 122.739z" fill="#fff" opacity=".4"/><g><path d="m154.174 187.342c-.415 0-.834-.073-1.245-.225-1.848-.687-2.79-2.743-2.103-4.592 7.125-19.189 19.413-36.103 35.533-48.908 1.542-1.235 3.791-.97 5.019.574 1.228 1.545.97 3.791-.575 5.017-15.098 11.998-26.608 27.836-33.28 45.804-.535 1.438-1.898 2.33-3.349 2.33z" fill="#fff"/></g><circle cx="256" cy="221.456" fill="#fffcff" r="96.365"/><circle cx="256" cy="221.456" fill="#ffc563" r="14.526"/><path d="m215.359 398.017 35.093 31.099c5.843 5.178 6.484 14.072 1.445 20.035l-.888 1.051c-5.504 6.513-15.436 6.83-21.344.68l-43.039-44.801c-.995-1.036-2.14-1.917-3.397-2.613l-57.92-32.108 46.708-88.32 59.797 21.392c1.639.586 3.157 1.465 4.482 2.594l74.415 63.417c6.385 5.441 6.772 15.171.841 21.103-5.167 5.167-13.389 5.635-19.108 1.087l-32.076-25.501" fill="#fffcff"/><path d="m236.96 382.11 47.399 38.977c5.997 4.768 7.287 13.361 2.954 19.68-4.99 7.277-15.247 8.497-21.804 2.592l-49.399-47.603" fill="#fffcff"/><path d="m255.602 364.227 44.946 34.848c5.997 4.768 7.287 13.361 2.954 19.68-4.99 7.277-15.247 8.497-21.804 2.592l-44.738-39.237" fill="#fffcff"/><path d="m381.199 367.172-43.675-85.511c-13.429 7.614-29.259 9.899-44.282 6.347-5.397-1.276-10.641-2.289-15.712-3.004-12.642-1.783-25.511.924-36.725 7.027l-33.146 18.038c-6.489 3.531-9.271 11.387-6.452 18.215 2.942 7.125 10.958 10.688 18.218 8.098l36.177-12.904 45.415 38.703 3.49 33.576z" fill="#fffcff"/><path d="m168.693 385.518-5.26 5.26c-5.16 5.16-13.525 5.16-18.685 0-5.16-5.16-5.16-13.525 0-18.685l5.26-5.26c5.16-5.16 13.525-5.16 18.685 0 5.16 5.16 5.16 13.525 0 18.685z" fill="#fffcff"/><path d="m194.044 397.536-11.926 11.926c-5.16 5.16-13.525 5.16-18.685 0-5.16-5.16-5.16-13.525 0-18.685l11.926-11.926c5.16-5.16 13.525-5.16 18.685 0 5.16 5.16 5.16 13.526 0 18.685z" fill="#fffcff"/><path d="m218.591 410.36-17.788 17.788c-5.16 5.16-13.525 5.16-18.685 0-5.16-5.16-5.16-13.525 0-18.685l17.788-17.788c5.16-5.16 13.525-5.16 18.685 0 5.16 5.16 5.16 13.525 0 18.685z" fill="#fffcff"/><path d="m239.115 427.206-19.627 19.627c-5.16 5.16-13.525 5.16-18.685 0-5.16-5.16-5.16-13.525 0-18.685l19.627-19.627c5.16-5.16 13.525-5.16 18.685 0 5.159 5.159 5.159 13.525 0 18.685z" fill="#fffcff"/><path d="m176.837 275.701-54.117 99.581c-3.445 6.339-11.376 8.685-17.714 5.24l-16.891-9.179c-6.339-3.445-8.685-11.376-5.24-17.714l54.117-99.581c3.445-6.339 11.376-8.685 17.714-5.24l16.891 9.179c6.339 3.444 8.685 11.375 5.24 17.714z" fill="#6acdf3"/><path d="m161.41 252.437c-4.638-.039-9.159 2.416-11.575 6.82l-54.096 99.579c-3.43 6.353-1.091 14.264 5.223 17.733l10.211 5.534c-2.066 0-4.209-.507-6.158-1.598l-16.915-9.159c-6.314-3.469-8.652-11.38-5.223-17.733l54.096-99.579c3.469-6.314 11.38-8.691 17.733-5.223z" fill="#fff" opacity=".4"/><path d="m378.757 258.512 50.58 101.423c3.22 6.456.596 14.299-5.86 17.519l-17.204 8.579c-6.456 3.22-14.299.596-17.519-5.86l-50.58-101.423c-3.22-6.456-.596-14.299 5.86-17.519l17.204-8.58c6.456-3.219 14.3-.595 17.519 5.861z" fill="#ffc563"/><path d="m430.02 369.866c-1.013 3.196-3.274 5.963-6.548 7.6l-17.188 8.574c-6.47 3.196-14.303.585-17.538-5.885l-50.588-101.411c-3.196-6.431-.585-14.304 5.885-17.5l7.288-3.625c-1.052 3.157-.896 6.704.702 9.9l50.588 101.411c3.196 6.47 11.069 9.081 17.499 5.885z" fill="#fff" opacity=".4"/><g><path d="m378.682 305.589c-1.311.002-2.574-.724-3.198-1.978l-12.898-25.865-2.511 1.252c-1.768.881-3.91.162-4.789-1.603-.882-1.767-.164-3.91 1.601-4.79l5.706-2.844c1.779-.879 3.913-.159 4.789 1.603l14.491 29.06c.882 1.765.164 3.91-1.601 4.79-.512.255-1.056.375-1.59.375z" fill="#fff"/></g><path d="m255.602 323.477 55.111 46.966c6.385 5.441 6.772 15.171.841 21.103-5.167 5.167-13.389 5.635-19.108 1.087l-36.843-28.406" fill="#fffcff"/><g fill="#281261"><path d="m256.001 154.56c1.974 0 3.571-1.599 3.571-3.571v-9.916c0-1.972-1.597-3.571-3.571-3.571s-3.571 1.599-3.571 3.571v9.916c0 1.972 1.597 3.571 3.571 3.571z"/><path d="m308.352 174.154 7.014-7.01c1.395-1.395 1.395-3.657 0-5.052s-3.655-1.393-5.05-.002l-7.014 7.01c-1.395 1.395-1.395 3.657 0 5.052 1.394 1.395 3.653 1.396 5.05.002z"/><path d="m201.687 280.819 7.01-7.01c1.395-1.395 1.395-3.655 0-5.05s-3.655-1.395-5.05 0l-7.01 7.01c-1.395 1.395-1.395 3.655 0 5.05 1.395 1.396 3.655 1.396 5.05 0z"/><path d="m326.467 225.028h9.916c1.974 0 3.571-1.599 3.571-3.571s-1.597-3.571-3.571-3.571h-9.916c-1.974 0-3.571 1.599-3.571 3.571s1.597 3.571 3.571 3.571z"/><path d="m189.103 221.457c0-1.972-1.597-3.571-3.571-3.571h-9.916c-1.974 0-3.571 1.599-3.571 3.571s1.597 3.571 3.571 3.571h9.916c1.974 0 3.571-1.599 3.571-3.571z"/><path d="m310.316 280.821c1.396 1.393 3.655 1.393 5.05-.002s1.395-3.657 0-5.052l-7.014-7.01c-1.395-1.392-3.655-1.393-5.05.002s-1.395 3.657 0 5.052z"/><path d="m203.647 174.153c1.395 1.395 3.655 1.395 5.05 0s1.395-3.655 0-5.05l-7.01-7.01c-1.395-1.395-3.655-1.395-5.05 0s-1.395 3.655 0 5.05z"/><path d="m222.418 261.053 23.79-24.422c2.828 1.831 6.18 2.922 9.794 2.922 8.755 0 16.07-6.252 17.733-14.525h23.045c1.974 0 3.571-1.599 3.571-3.571s-1.597-3.571-3.571-3.571h-23.045c-1.431-7.118-7.045-12.734-14.162-14.165v-38.377c0-1.972-1.597-3.571-3.571-3.571s-3.571 1.599-3.571 3.571v38.377c-8.273 1.664-14.526 8.981-14.526 17.737 0 3.785 1.177 7.295 3.171 10.203l-23.777 24.409c-1.374 1.413-1.346 3.674.066 5.05 1.422 1.379 3.678 1.342 5.053-.067zm33.583-50.551c6.037 0 10.951 4.914 10.951 10.955 0 6.039-4.914 10.953-10.951 10.953-6.041 0-10.955-4.914-10.955-10.953 0-6.041 4.914-10.955 10.955-10.955z"/><path d="m380.338 371.297 5.222 10.471c4.082 8.194 14.048 11.58 22.307 7.462l17.205-8.58c8.207-4.093 11.555-14.101 7.46-22.309l-50.579-101.423c-.808-1.621-1.906-3.021-3.147-4.269 2.568-9.993 4.068-20.407 4.068-31.192 0-69.958-56.916-126.873-126.873-126.873s-126.873 56.914-126.873 126.873c0 11.023 1.523 21.674 4.191 31.87l-53.584 98.598c-4.377 8.06-1.381 18.18 6.675 22.555l16.891 9.18c8.08 4.399 18.193 1.358 22.559-6.67l.519-.955 10.995 6.095c.173 4.219 1.846 8.172 4.85 11.174 3.519 3.519 8.353 5.417 13.978 4.71-.626 4.972.897 10.166 4.706 13.976 3.492 3.492 8.314 5.421 13.978 4.71-.626 4.972.897 10.166 4.706 13.977 3.459 3.457 8.326 5.413 13.976 4.702-.709 5.627 1.195 10.466 4.711 13.98 6.559 6.559 17.174 6.56 23.734 0l.631-.631 4.447 4.629c7.375 7.679 19.779 7.277 26.65-.851.341-.538 4.291-4.147 4.966-10.744l4.413 4.252c8.165 7.35 20.931 5.82 27.141-3.226 2.939-4.289 3.713-9.442 2.661-14.205 5.755-.465 10.556-3.471 13.529-7.806 4.652-6.789 4.038-15.773-1.07-21.911 1.361-.312-1.433.599 74.957-27.569zm-61.853 15.223c2.236-7.426-.378-14.471-5.456-18.797l-55.11-46.966c-1.044-.888-2.557-.988-3.516-.645l-36.178 12.905c-5.476 1.944-11.499-.727-13.717-6.097-2.128-5.153-.038-11.051 4.855-13.715l33.151-18.037c10.815-5.886 23.075-8.236 34.518-6.628 15.398 2.168 33.559 10.339 60.491-3.085 2.092 4.509 7.624 15.73 38.738 79.733zm-145.181-131.67-4.781-2.598c-3.418-9.64-5.316-19.993-5.316-30.795 0-51.167 41.626-92.794 92.794-92.794 51.165 0 92.791 41.628 92.791 92.794 0 13.456-2.968 26.196-8.171 37.728-6.407 4.314-9.001 12.511-6.171 19.757-24.669 12.319-41.648 4.608-56.42 2.525-12.95-1.831-26.779.814-38.93 7.427l-15.913 8.658-45.343-16.221 2.132-3.923c4.397-8.094 1.388-18.179-6.672-22.558zm252.839 106.679c2.343 4.705.426 10.393-4.259 12.728l-17.205 8.58c-4.691 2.342-10.384.438-12.73-4.257l-50.579-101.424c-2.333-4.682-.422-10.393 4.259-12.728l17.205-8.578c4.66-2.33 10.37-.466 12.73 4.257zm-170.142-259.802c66.019 0 119.73 53.711 119.73 119.73 0 9.362-1.179 18.436-3.236 27.177-4.502-1.551-9.006-1.094-12.849.822l-9.316 4.645c3.594-10.23 5.605-21.193 5.605-32.644 0-55.106-44.831-99.937-99.934-99.937-55.106 0-99.937 44.831-99.937 99.937 0 8.985 1.277 17.658 3.522 25.938l-3.173-1.725c-5.197-2.828-11.741-2.89-17.359.983-1.778-8.128-2.783-16.54-2.783-25.197 0-66.018 53.711-119.729 119.73-119.729zm-149.288 275.657-16.891-9.181c-4.6-2.497-6.306-8.271-3.809-12.87l54.119-99.581c2.497-4.594 8.233-6.32 12.87-3.807l16.891 9.18c4.609 2.503 6.311 8.26 3.805 12.871-13.133 24.166-46.507 85.58-54.116 99.581-2.506 4.613-8.273 6.311-12.869 3.807zm40.562 10.866c-3.755-3.752-3.783-9.849 0-13.632l5.259-5.259c3.767-3.767 9.866-3.768 13.633 0 3.756 3.758 3.756 9.874 0 13.634l-5.259 5.259c-3.637 3.641-9.988 3.646-13.633-.002zm18.684 18.687c-3.756-3.76-3.756-9.875 0-13.635.391-.391 12.573-12.573 11.925-11.924 3.762-3.758 9.877-3.756 13.637 0 3.753 3.755 3.755 9.864.008 13.624l-11.936 11.936c-3.645 3.64-9.997 3.637-13.634-.001zm18.683 18.686c-3.756-3.76-3.756-9.875 0-13.635.358-.358 18.146-18.146 17.787-17.787 3.762-3.758 9.877-3.756 13.637 0 3.753 3.757 3.755 9.865.008 13.626l-17.795 17.795c-3.759 3.759-9.877 3.757-13.637.001zm18.688 18.682c-3.755-3.752-3.783-9.849 0-13.632.358-.358 19.983-19.984 19.625-19.627 3.767-3.767 9.866-3.768 13.634 0 3.764 3.767 3.775 9.857 0 13.635l-19.625 19.625c-3.635 3.64-9.99 3.649-13.634-.001zm45.835 2.542c-6.092 5.11-11.392 7.313-16.926 1.559l-4.545-4.731 13.944-13.944c.654-.654 1.208-1.378 1.738-2.114l4.707 4.172c4.354 3.859 4.842 10.613 1.082 15.058zm51.395-30.111c-3.04 4.424-7.712 6.538-13.933 1.592l-47.402-38.977c-.924-.761-2.918-1.193-4.447.019-1.93 1.528-1.487 4.274-.174 5.425l44.706 39.205c1.697 1.527 3.646 2.697 5.733 3.486 1.787 3.503 1.672 7.837-.672 11.26-3.771 5.489-11.542 6.395-16.382 2.039l-21.635-20.847c.692-5.603-1.196-10.424-4.715-13.943-3.905-3.905-9.599-5.845-15.666-4.442.142-4.475-1.448-8.994-4.856-12.403-5.364-5.364-13.459-6.255-19.818-2.824-.407-3.653-1.934-7.203-4.729-9.998-5.599-5.599-14.191-6.367-20.658-2.383-.47-3.525-1.991-6.933-4.694-9.636-6.559-6.559-17.174-6.56-23.734 0l-5.259 5.258c-1.505 1.505-2.662 3.257-3.491 5.149l-8.626-4.782c60.687-112.717 39.756-73.841 44.284-82.251l40.384 14.446-8.827 4.803c-8.109 4.415-11.569 14.179-8.043 22.716 3.673 8.895 13.651 13.339 22.719 10.099l34.232-12.211 40.258 34.307 13.282 11.319c4.792 4.086 5.109 11.379.631 15.86-3.853 3.849-10.032 4.258-14.403.784-6.725-5.277-29.531-23.918-36.842-28.406-1.634-1.264-4.373-.974-5.405 1.452-1.196 2.811 1.162 4.123 1.404 4.482l44.545 34.539c4.507 3.582 5.487 10.113 2.233 14.863z"/></g></g></g><g id="Layer_1"/></svg>