<svg height="414pt" viewBox="0 0 414 414" width="414pt" xmlns="http://www.w3.org/2000/svg"><path d="m414 207c0 114.324219-92.675781 207-207 207s-207-92.675781-207-207 92.675781-207 207-207 207 92.675781 207 207zm0 0" fill="#f0c48a"/><path d="m373.144531 210.382812c0 89.632813-72.660156 162.292969-162.289062 162.292969-89.632813 0-162.292969-72.660156-162.292969-162.292969 0-89.632812 72.660156-162.292968 162.292969-162.292968 89.628906 0 162.289062 72.660156 162.289062 162.292968zm0 0" fill="#a4cff2"/><path d="m325.613281 95.625c-35-34.996094-82.003906-50.660156-127.757812-47.003906 37.101562 2.964844 73.375 18.625 101.757812 47.003906 63.378907 63.378906 63.378907 166.136719 0 229.515625-28.382812 28.378906-64.65625 44.042969-101.757812 47.003906 45.753906 3.65625 92.757812-12.007812 127.757812-47.003906 63.378907-63.378906 63.378907-166.136719 0-229.515625zm0 0" fill="#7babf1"/><path d="m328.878906 210.382812c0 65.183594-52.84375 118.023438-118.023437 118.023438-65.183594 0-118.023438-52.839844-118.023438-118.023438 0-65.183593 52.839844-118.023437 118.023438-118.023437 65.179687 0 118.023437 52.839844 118.023437 118.023437zm0 0" fill="#fd919e"/><path d="m280.964844 210.382812c0 38.722657-31.390625 70.113282-70.109375 70.113282-38.722657 0-70.113281-31.390625-70.113281-70.113282 0-38.722656 31.390624-70.113281 70.113281-70.113281 38.71875 0 70.109375 31.390625 70.109375 70.113281zm0 0" fill="#fff"/><path d="m237.230469 210.382812c0 14.566407-11.808594 26.375-26.375 26.375-14.566407 0-26.375-11.808593-26.375-26.375 0-14.566406 11.808593-26.375 26.375-26.375 14.566406 0 26.375 11.808594 26.375 26.375zm0 0" fill="#fd919e"/><g fill="#4c4372"><path d="m210.855469 378.675781c-44.953125 0-87.214844-17.503906-119-49.292969-65.617188-65.617187-65.617188-172.382812 0-238 31.785156-31.785156 74.046875-49.292968 119-49.292968s87.210937 17.507812 119 49.292968c65.617187 65.617188 65.617187 172.382813 0 238-31.789063 31.785157-74.046875 49.292969-119 49.292969zm0-324.585937c-41.746094 0-80.996094 16.257812-110.515625 45.777344-60.9375 60.9375-60.9375 160.09375 0 221.03125 29.519531 29.519531 68.769531 45.777343 110.515625 45.777343 41.746093 0 80.992187-16.257812 110.515625-45.777343 60.9375-60.9375 60.9375-160.09375 0-221.03125-29.523438-29.519532-68.769532-45.777344-110.515625-45.777344zm0 0"/><path d="m210.855469 334.40625c-33.128907 0-64.273438-12.902344-87.699219-36.324219-23.425781-23.425781-36.324219-54.570312-36.324219-87.699219 0-33.125 12.898438-64.269531 36.324219-87.695312s54.570312-36.324219 87.699219-36.324219c33.125 0 64.269531 12.898438 87.695312 36.324219 23.425781 23.421875 36.324219 54.570312 36.324219 87.695312 0 33.128907-12.898438 64.273438-36.324219 87.699219s-54.570312 36.324219-87.695312 36.324219zm0-236.046875c-29.925781 0-58.054688 11.652344-79.214844 32.8125-21.15625 21.15625-32.8125 49.289063-32.8125 79.210937 0 29.921876 11.652344 58.054688 32.8125 79.210938 21.160156 21.160156 49.289063 32.8125 79.214844 32.8125 29.921875 0 58.050781-11.652344 79.210937-32.8125 21.15625-21.15625 32.8125-49.289062 32.8125-79.210938 0-29.921874-11.652344-58.054687-32.8125-79.210937-21.160156-21.160156-49.289062-32.8125-79.210937-32.8125zm0 0"/><path d="m210.855469 286.496094c-20.332031 0-39.445313-7.917969-53.820313-22.292969-29.675781-29.675781-29.675781-77.964844 0-107.640625 14.375-14.375 33.488282-22.292969 53.820313-22.292969 20.328125 0 39.441406 7.917969 53.816406 22.292969 29.675781 29.675781 29.675781 77.964844 0 107.640625-14.375 14.375-33.488281 22.292969-53.816406 22.292969zm0-140.226563c-17.125 0-33.226563 6.671875-45.335938 18.78125-24.996093 24.996094-24.996093 65.667969 0 90.664063 12.109375 12.109375 28.210938 18.777344 45.335938 18.777344s33.222656-6.667969 45.332031-18.777344c24.996094-24.996094 24.996094-65.667969 0-90.664063-12.109375-12.109375-28.207031-18.78125-45.332031-18.78125zm0 0"/><path d="m210.855469 242.757812c-8.648438 0-16.78125-3.367187-22.894531-9.484374-6.113282-6.113282-9.480469-14.242188-9.480469-22.890626 0-8.648437 3.367187-16.777343 9.480469-22.894531 6.113281-6.113281 14.246093-9.480469 22.894531-9.480469 8.644531 0 16.777343 3.367188 22.890625 9.480469 6.113281 6.117188 9.484375 14.246094 9.484375 22.894531 0 8.648438-3.371094 16.777344-9.484375 22.894532-6.113282 6.113281-14.242188 9.480468-22.890625 9.480468zm0-52.75c-5.445313 0-10.558594 2.121094-14.40625 5.96875-3.851563 3.847657-5.96875 8.964844-5.96875 14.40625 0 5.441407 2.117187 10.558594 5.964843 14.40625 3.851563 3.847657 8.964844 5.96875 14.410157 5.96875 5.441406 0 10.558593-2.117187 14.40625-5.96875 3.847656-3.847656 5.96875-8.964843 5.96875-14.40625 0-5.441406-2.121094-10.558593-5.96875-14.40625-3.851563-3.847656-8.964844-5.96875-14.40625-5.96875zm0 0"/></g><path d="m78.566406 41.324219 36.0625 36.0625-4.714844 33-36.0625-36.0625zm0 0" fill="#fd919e"/><path d="m73.851562 74.324219 36.0625 36.0625-33 4.714843-36.058593-36.0625zm0 0" fill="#fd919e"/><path d="m210.324219 216.796875c-1.535157 0-3.070313-.585937-4.242188-1.757813l-136.472656-136.472656c-2.34375-2.34375-2.34375-6.140625 0-8.484375s6.144531-2.34375 8.484375 0l136.472656 136.472657c2.34375 2.339843 2.34375 6.140624 0 8.484374-1.171875 1.171876-2.707031 1.757813-4.242187 1.757813zm0 0" fill="#4c4372"/><path d="m109.914062 116.386719c-1.5625 0-3.097656-.613281-4.242187-1.757813l-36.0625-36.0625c-1.335937-1.335937-1.964844-3.222656-1.695313-5.09375l4.714844-32.996094c.320313-2.25 1.886719-4.125 4.042969-4.84375s4.53125-.15625 6.140625 1.449219l36.058594 36.0625c1.335937 1.335938 1.964844 3.222657 1.699218 5.089844l-4.714843 33c-.320313 2.25-1.886719 4.125-4.042969 4.84375-.621094.207031-1.261719.308594-1.898438.308594zm-29.695312-44.183594 25.453125 25.453125 2.59375-18.148438-25.457031-25.453124zm0 0" fill="#4c4372"/><path d="m76.914062 121.101562c-1.578124 0-3.105468-.625-4.238281-1.757812l-36.066406-36.0625c-1.605469-1.609375-2.167969-3.984375-1.449219-6.140625s2.59375-3.722656 4.84375-4.042969l33-4.714844c1.875-.269531 3.757813.363282 5.089844 1.699219l36.0625 36.0625c1.609375 1.605469 2.171875 3.984375 1.453125 6.140625s-2.59375 3.71875-4.84375 4.039063l-33 4.714843c-.285156.042969-.570313.0625-.851563.0625zm-23.332031-37.820312 25.453125 25.457031 18.152344-2.59375-25.457031-25.457031zm0 0" fill="#4c4372"/></svg>