<svg id="Icons" height="512" viewBox="0 0 60 60" width="512" xmlns="http://www.w3.org/2000/svg"><g fill="#cadee8"><path d="m13.365 52.753a.5.5 0 0 1 -.41-.786l.572-.819-2.152 1.243a.5.5 0 0 1 -.583-.806l.15-.134-.378.218a.5.5 0 0 1 -.6-.789l1.376-1.357-1.861 1.077a.5.5 0 0 1 -.572-.816l.562-.472-.775.447a.5.5 0 0 1 -.6-.794l2.18-2.09-2.521 1.455a.5.5 0 0 1 -.566-.819l.983-.8-.024.013a.5.5 0 0 1 -.617-.772l2.24-2.427-.565.325a.5.5 0 0 1 -.605-.784l.225-.228-.178.1a.5.5 0 0 1 -.646-.738l1.089-1.4-1.213.7a.5.5 0 0 1 -.623-.764l.8-.9-.748.432a.5.5 0 0 1 -.647-.737l1.3-1.7-1.309.755a.5.5 0 0 1 -.625-.762l1.076-1.233-.909.524a.5.5 0 0 1 -.591-.8l.177-.164a.492.492 0 0 1 -.5-.189.5.5 0 0 1 .056-.662l.4-.378-.7.4a.5.5 0 0 1 -.623-.765l2.115-2.37-3.817 2.2a.5.5 0 0 1 -.562-.825l1.278-1.014-1.8 1.038a.5.5 0 0 1 -.569-.818l3.3-2.736-3.042 1.768a.5.5 0 0 1 -.569-.818l4.185-3.468-3.629 2.093a.5.5 0 0 1 -.623-.1.5.5 0 0 1 -.029-.631l1.276-1.725-.342.2a.5.5 0 1 1 -.5-.866l2.423-1.4a.5.5 0 0 1 .652.73l-1.279 1.725 6.678-3.854a.5.5 0 0 1 .569.817l-4.184 3.468 3.052-1.762a.5.5 0 0 1 .569.817l-3.3 2.739 2.5-1.443a.5.5 0 0 1 .561.824l-1.281 1.015.684-.394a.5.5 0 0 1 .623.765l-2.116 2.368 1.625-.937a.5.5 0 0 1 .595.8l-.4.377a.5.5 0 0 1 .563.814l-.208.194a.5.5 0 0 1 .451.824l-1.069 1.216.849-.489a.5.5 0 0 1 .646.738l-1.3 1.7 1.259-.727a.5.5 0 0 1 .623.765l-.8.9.731-.422a.5.5 0 0 1 .645.74l-1.087 1.4 1.2-.694a.5.5 0 0 1 .605.784l-.224.226.178-.1a.5.5 0 0 1 .617.771l-2.24 2.429 2.508-1.444a.5.5 0 0 1 .566.819l-.983.8.781-.451a.5.5 0 0 1 .6.794l-2.182 2.091 2.1-1.214a.5.5 0 0 1 .572.816l-.561.471.329-.189a.5.5 0 0 1 .6.789l-1.374 1.356 1.22-.7a.5.5 0 0 1 .583.806l-.185.164a.5.5 0 0 1 .575.759l-.572.817.331-.193a.5.5 0 0 1 .5.865l-2.28 1.317a.5.5 0 0 1 -.255.071z"/><path d="m56.09 35.048a.5.5 0 0 1 -.25-.933l2.6-1.5a.5.5 0 0 1 .5.866l-2.6 1.5a.5.5 0 0 1 -.25.067z"/><path d="m47.029 52.912a.5.5 0 0 1 -.311-.891l.229-.183-.884.51a.5.5 0 0 1 -.574-.814l2.194-1.867-3.073 1.773a.5.5 0 0 1 -.564-.821l2.315-1.876-1.123.649a.5.5 0 0 1 -.555-.829l.76-.588a.5.5 0 0 1 -.328-.878l2.633-2.286-1.343.774a.5.5 0 0 1 -.552-.83l.8-.61a.5.5 0 0 1 -.339-.9l1.016-.776a.52.52 0 0 1 -.474-.22.5.5 0 0 1 .112-.674l1.442-1.107a.5.5 0 0 1 -.2-.9l2.048-1.467-.565.326a.5.5 0 0 1 -.564-.822l4.535-3.662-3.064 1.772a.5.5 0 0 1 -.56-.825l3.18-2.513-2.193 1.266a.5.5 0 0 1 -.547-.835l.913-.675-.2.116a.5.5 0 0 1 -.577-.811l2.684-2.322-2.025 1.168a.5.5 0 0 1 -.6-.784l1.925-1.95-1.428.823a.5.5 0 0 1 -.611-.778l.982-1.025-.564.325a.5.5 0 0 1 -.623-.766l1.122-1.256-.824.475a.5.5 0 0 1 -.644-.741l1.362-1.75-1.242.717a.5.5 0 0 1 -.614-.775l.651-.692-.485.28a.5.5 0 0 1 -.653-.729l1.229-1.672-1.339.773a.5.5 0 0 1 -.616-.774l.546-.587-.52.3a.5.5 0 0 1 -.627-.761l1.27-1.454-1.509.871a.5.5 0 0 1 -.579-.808l1.092-.955-1.279.737a.5.5 0 0 1 -.588-.8l2.485-2.28-3.051 1.761a.5.5 0 0 1 -.575-.813l1.9-1.625-2.393 1.381a.5.5 0 0 1 -.592-.8l2.633-2.47-3.516 2.033a.5.5 0 0 1 -.555-.829l.419-.322-.811.468a.5.5 0 0 1 -.582-.806l2.092-1.86-3 1.733a.5.5 0 0 1 -.67-.7l1.007-1.571-2.274 1.313a.5.5 0 0 1 -.681-.687l1.043-1.766-2.742 1.583a.5.5 0 0 1 -.612-.088.5.5 0 0 1 -.058-.617l1.079-1.666-3.074 1.772a.5.5 0 0 1 -.613-.776l.811-.859-2.421 1.4a.5.5 0 0 1 -.622-.767l1.694-1.889-4.839 2.793a.5.5 0 0 1 -.564-.822l2-1.61-6.395 3.692a.5.5 0 1 1 -.5-.865l11.99-6.923a.5.5 0 0 1 .564.822l-2 1.61 1.96-1.132a.5.5 0 0 1 .623.766l-1.693 1.888 2.671-1.542a.5.5 0 0 1 .613.776l-.811.859 1.9-1.1a.5.5 0 0 1 .67.7l-1.08 1.669 2.593-1.5a.5.5 0 0 1 .68.687l-1.04 1.775 2.418-1.395a.5.5 0 0 1 .67.7l-1.009 1.571 5.459-3.152a.5.5 0 0 1 .582.806l-2.092 1.861 3.149-1.815a.5.5 0 0 1 .555.83l-.422.324.686-.4a.5.5 0 0 1 .591.8l-2.631 2.47 3.348-1.933a.5.5 0 0 1 .575.813l-1.9 1.624 2.285-1.319a.5.5 0 0 1 .588.8l-2.484 2.281 1.76-1.019a.5.5 0 0 1 .579.808l-1.223 1.072a.5.5 0 0 1 .451.823l-1.269 1.453.794-.459a.5.5 0 0 1 .617.774l-.547.587.523-.3a.5.5 0 0 1 .653.728l-1.229 1.672 1.36-.785a.5.5 0 0 1 .615.775l-.653.694.519-.3a.5.5 0 0 1 .644.74l-1.362 1.747 1.3-.751a.5.5 0 0 1 .623.766l-1.122 1.257.906-.523a.5.5 0 0 1 .611.778l-.98 1.024 1.612-.931a.5.5 0 0 1 .606.784l-1.928 1.954 3.34-1.928a.5.5 0 0 1 .577.81l-2.681 2.322 3.326-1.919a.5.5 0 0 1 .546.835l-.911.674.486-.281a.5.5 0 0 1 .559.825l-3.182 2.514 2.655-1.532a.5.5 0 0 1 .564.821l-4.534 3.661 3.846-2.219a.5.5 0 0 1 .541.838l-4.789 3.431a.486.486 0 0 1 .095.106.5.5 0 0 1 -.112.673l-.9.689a.5.5 0 0 1 .388.891l-1.02.78a.506.506 0 0 1 .471.22.5.5 0 0 1 -.114.674l-1.1.837a.5.5 0 0 1 .272.875l-2.623 2.286 1.243-.717a.5.5 0 0 1 .556.828l-.362.28.224-.129a.5.5 0 0 1 .565.821l-2.321 1.876 2.333-1.345a.5.5 0 0 1 .574.813l-2.2 1.868 1.89-1.091a.5.5 0 0 1 .562.824l-1.854 1.485a.488.488 0 0 1 .125.145.5.5 0 0 1 -.182.682l-3.574 2.064a.491.491 0 0 1 -.25.067z"/><path d="m25.51 4.286a.5.5 0 0 1 -.381-.823l.871-1.024a.481.481 0 0 1 -.185-.184.5.5 0 0 1 .182-.683l1.524-.882a.5.5 0 0 1 .63.756l-.394.465 2.268-1.311a.5.5 0 1 1 .5.865l-4.765 2.754a.489.489 0 0 1 -.25.067z"/><path d="m5.987 23.68a.5.5 0 0 1 -.315-.888l2.391-1.942-1.125.65a.5.5 0 0 1 -.524-.851l13.166-8.664-11.227 6.483a.5.5 0 0 1 -.521-.853l8.076-5.2-6.818 3.936a.5.5 0 0 1 -.554-.83l5.754-4.392-5.961 3.441a.5.5 0 0 1 -.575-.812l2.625-2.244-2.631 1.518a.5.5 0 0 1 -.609-.779l3.108-3.223a.5.5 0 0 1 0-.864l1.937-1.118a.5.5 0 0 1 .609.779l-2.472 2.564 4.254-2.456a.5.5 0 0 1 .575.812l-2.626 2.245 8-4.62a.5.5 0 0 1 .554.83l-5.748 4.392 17.94-10.358a.5.5 0 0 1 .52.853l-8.071 5.2 8.2-4.736a.5.5 0 0 1 .524.85l-20.726 13.637a.5.5 0 0 1 -.131.613l-2.396 1.947.064-.036a.5.5 0 1 1 .5.865l-5.517 3.183a.493.493 0 0 1 -.25.068z"/></g><path d="m28.543 59.4a.5.5 0 0 1 -.28-.914l5.916-4-7.753 4.476a.5.5 0 0 1 -.525-.851l5.976-3.924-7.325 4.229a.5.5 0 0 1 -.52-.855l3.722-2.376-4.6 2.654a.5.5 0 0 1 -.519-.854l5.778-3.7-6.651 3.84a.5.5 0 0 1 -.527-.85l11.818-7.832-13.028 7.529a.5.5 0 0 1 -.521-.853l10.09-6.519-10.873 6.273a.5.5 0 0 1 -.514-.857l2.044-1.272-2.325 1.342a.5.5 0 0 1 -.525-.851l13.251-8.692-13.974 8.068a.5.5 0 0 1 -.519-.854l9.049-5.757-9.358 5.4a.5.5 0 0 1 -.522-.852l11.7-7.562-12.007 6.934a.5.5 0 0 1 -.526-.85l14.013-9.237-14.267 8.236a.5.5 0 0 1 -.515-.856l4.613-2.891-4.459 2.578a.5.5 0 0 1 -.519-.854l7.984-5.086-7.794 4.5a.5.5 0 0 1 -.522-.852l9.345-6.031-9.034 5.212a.5.5 0 0 1 -.524-.851l9.455-6.162-8.977 5.183a.5.5 0 0 1 -.518-.855l2.787-1.762-2.182 1.258a.5.5 0 0 1 -.518-.855l2.26-1.434-1.528.881a.5.5 0 0 1 -.526-.849l6.27-4.139-5.239 3.027a.5.5 0 0 1 -.528-.848l4.471-2.975-3.151 1.82a.5.5 0 0 1 -.545-.837l5.631-4.109-3.215 1.856a.5.5 0 0 1 -.547-.835l2.664-1.966a.486.486 0 0 1 -.132-.149.5.5 0 0 1 .183-.683l4.969-2.867a.5.5 0 0 1 .547.835l-.471.348 3.6-2.081a.5.5 0 0 1 .545.837l-5.629 4.107 8.7-5.02a.5.5 0 0 1 .528.849l-4.473 2.975 6.078-3.509a.5.5 0 0 1 .526.85l-6.278 4.141 7.7-4.448a.5.5 0 0 1 .518.855l-2.263 1.436 3.068-1.77a.5.5 0 0 1 .517.855l-2.769 1.752 3.475-2a.5.5 0 0 1 .524.851l-9.465 6.168 10.505-6.069a.5.5 0 0 1 .521.852l-9.34 6.027 10.147-5.858a.5.5 0 0 1 .518.855l-7.981 5.084 8.552-4.938a.5.5 0 0 1 .515.857l-4.615 2.89 4.926-2.844a.5.5 0 0 1 .525.85l-14.011 9.239 14.709-8.492a.5.5 0 0 1 .521.853l-11.714 7.567 12.061-6.962a.5.5 0 0 1 .518.855l-9.028 5.747 9.15-5.284a.5.5 0 0 1 .525.851l-13.256 8.7 13.389-7.729a.5.5 0 0 1 .513.857l-2.062 1.283 1.834-1.06a.5.5 0 0 1 .521.852l-10.082 6.516 9.851-5.688a.5.5 0 0 1 .526.85l-11.816 7.832 11.42-6.594a.5.5 0 0 1 .519.854l-5.772 3.7 5.175-2.987a.5.5 0 0 1 .519.854l-3.731 2.379 3.011-1.738a.5.5 0 0 1 .525.85l-5.986 3.931 5-2.887a.5.5 0 0 1 .531.847l-5.911 3.991 4.517-2.607a.5.5 0 0 1 .545.836l-5.671 4.141 3.25-1.876a.5.5 0 0 1 .547.835l-2.668 1.971a.485.485 0 0 1 .133.151.5.5 0 0 1 -.183.682l-4.97 2.867a.5.5 0 0 1 -.546-.835l.492-.363-3.634 2.1a.5.5 0 0 1 -.545-.836l5.675-4.145-8.753 5.053a.494.494 0 0 1 -.246.064z" fill="#e2eff7"/><path d="m20.93 50.7a.5.5 0 0 1 -.332-.874l.381-.339-1.111.642a.5.5 0 0 1 -.595-.795l2.04-1.943-2.373 1.37a.5.5 0 0 1 -.58-.809l1.688-1.483-1.742 1.006a.5.5 0 0 1 -.591-.8l2.727-2.544-2.735 1.579a.5.5 0 0 1 -.569-.817l2.552-2.116-2.3 1.328a.5.5 0 0 1 -.547-.835l1.215-.895-.767.442a.5.5 0 0 1 -.567-.817l3.282-2.724-2.618 1.511a.5.5 0 0 1 -.563-.823l1.956-1.564-1.039.6a.5.5 0 0 1 -.566-.819l1.121-.917a.5.5 0 0 1 -.564-.779l2.112-2.7a.527.527 0 0 1 -.043-.062.5.5 0 0 1 .183-.684l.888-.512a.5.5 0 0 1 .644.742l-1.417 1.804 3-1.725a.5.5 0 0 1 .566.819l-1.082.886 1.446-.835a.5.5 0 0 1 .563.823l-1.96 1.565 1.985-1.145a.5.5 0 0 1 .57.817l-3.288 2.722 3.451-1.991a.5.5 0 0 1 .547.835l-1.413 1.04a.5.5 0 0 1 .412.876l-2.552 2.114 1.4-.81a.5.5 0 0 1 .591.8l-2.73 2.546 2.313-1.335a.5.5 0 0 1 .58.809l-1.688 1.483 1.633-.942a.5.5 0 0 1 .6.8l-2.044 1.938 1.755-1.013a.5.5 0 0 1 .582.807l-2.04 1.81a.364.364 0 0 1 .03.046.5.5 0 0 1 -.182.683l-1.965 1.134a.491.491 0 0 1 -.25.07z" fill="#6ac579"/><path d="m25.644 38.1a.5.5 0 0 1 -.314-.89l4.362-3.51-5.167 2.983a.5.5 0 0 1 -.574-.814l4.021-3.424-4.88 2.818a.5.5 0 0 1 -.547-.835l.673-.5-.929.536a.5.5 0 0 1 -.625-.764l1.782-2.016-1.746 1.006a.5.5 0 0 1 -.5-.865l4.4-2.54a.5.5 0 0 1 .625.764l-1.783 2.016 5.976-3.449a.5.5 0 0 1 .547.835l-.67.494 1.928-1.112a.5.5 0 0 1 .574.813l-4.022 3.425 6-3.461a.5.5 0 0 1 .563.823l-4.36 3.515 5.735-3.311a.5.5 0 0 1 .586.8l-2.11 1.91 2.911-1.679a.5.5 0 0 1 .56.824l-.37.294.586-.338a.5.5 0 0 1 .577.811l-1.43 1.241.124-.071a.5.5 0 1 1 .5.865l-4.67 2.7a.5.5 0 0 1 -.578-.81l1.43-1.239-1.908 1.1a.5.5 0 0 1 -.561-.824l.371-.3-1.115.643a.5.5 0 0 1 -.586-.8l2.111-1.909-7.247 4.183a.5.5 0 0 1 -.25.062z" fill="#e1c53a"/><path d="m38.284 50.535a.5.5 0 0 1 -.348-.858l1.107-1.077-1.637.944a.5.5 0 0 1 -.572-.815l1.31-1.107-1.687.974a.5.5 0 0 1 -.559-.827l1.18-.924-1.486.857a.5.5 0 0 1 -.57-.817l3.035-2.516-2.814 1.631a.5.5 0 0 1 -.571-.816l3.241-2.711-1.723.994a.5.5 0 0 1 -.559-.825l.93-.733-.3.17a.5.5 0 0 1 -.559-.826l.371-.291a.5.5 0 0 1 -.559-.82l1.552-1.346-1.485.857a.5.5 0 0 1 -.593-.8l2.012-1.891-2.593 1.5a.5.5 0 0 1 -.6-.794l4.2-4.019a.5.5 0 0 1 .239-.535l.856-.494a.5.5 0 0 1 .6.794l-2.2 2.11 2.73-1.576a.5.5 0 0 1 .592.8l-2.007 1.889 2.293-1.324a.5.5 0 0 1 .578.81l-1.558 1.341 1.577-.91a.5.5 0 0 1 .559.826l-.367.287.185-.106a.5.5 0 0 1 .56.825l-.93.732.692-.4a.5.5 0 0 1 .572.816l-3.243 2.712 2.946-1.7a.5.5 0 0 1 .569.817l-3.036 2.518 2.472-1.427a.5.5 0 0 1 .558.826l-1.177.923.429-.247a.5.5 0 0 1 .572.814l-1.309 1.107.27-.155a.5.5 0 0 1 .6.791l-1.3 1.258h.005a.5.5 0 0 1 .25.933l-3.053 1.763a.489.489 0 0 1 -.247.068z" fill="#c74c5e"/><path d="m29.105 44.249a.5.5 0 0 1 -.324-.88l3.391-2.9-3.864 2.231a.5.5 0 0 1 -.55-.833l1.8-1.35-.418.242a.5.5 0 0 1 -.559-.826l4.2-3.29a.5.5 0 0 1 .218-.61l2.175-1.256a.5.5 0 0 1 .558.826l-.943.739 1.5-.867a.5.5 0 0 1 .55.834l-1.8 1.347 1.343-.775a.5.5 0 0 1 .574.812l-3.624 3.095a.507.507 0 0 1 .454.25.5.5 0 0 1 -.183.683l-4.255 2.457a.489.489 0 0 1 -.243.071z" fill="#425e66"/><path d="m.281 30.808c-.614 3.337 2.174 3.745 4.528 4.718.791 2.116 1.326 4.874 2.66 6.874 1.545 1.313.067 2.692-.415 4.17-.688 1.663.146 2.51 1.308 3.73 1.812 2.5 4.294 3.373 6.973 1.6 6.506 9.9 22.486 9.713 29.019.044a4.408 4.408 0 0 0 6.407-1c2.562-1.807 3.071-3.9 1.371-6.559-.089-.209-.418-.7-.4-.929a25.99 25.99 0 0 0 3.372-8.048c1.718-.619 4.292-1.211 4.523-3.225-.014-1.94.62-4.4-.62-6.035-1.058-.952-2.8-1.045-3.97-1.74-.193-2.922-2.2-5.729-3.238-8.309 1.467-3.422 2.353-4.713-1.121-7.368-1.942-2.541-4.459-1.5-6.854-.276-2.383-1.653-5.389-2.479-7.992-3.4-1.31-4.177-2.372-5.021-6.868-4.455-2.987-.393-4.15 2.22-4.793 4.7a27.158 27.158 0 0 0 -7.628 3.153c-3.925-2.934-7.476-.314-9.653 3.275-.675 1.676 1.168 3.161 1.335 4.72a30.111 30.111 0 0 0 -3.332 8.14c-3.509.74-5.252 2.649-4.612 6.22zm35.133 26.963c-26.863 7.023-29.447-36.465-1.78-31.916 15.466 3.421 16.908 26.911 1.78 31.916zm-22.968-17.679c-5.846-9.844-1.775-23.821 8.687-28.707 17.367-8.834 36.449 12.375 26.495 28.836-1.878-20.521-32.938-20.321-35.182-.129zm-9.441-13.859c2.357-.584 3.889-1.678 4.03-4.289a26.2 26.2 0 0 1 2.665-5.493c-1.055-3.625-2.852-4.5 1.039-7.436 1.4-1.817 3.217-.432 4.817.247 2.856.025 5.409-2.853 8.462-3.12 2.181-.249 1.819-2.583 2.809-3.994.615-.907 2.17-.723 3.149-.713 2.4-.445 3.592 1.032 4.079 3.19 1.015 2.518 5.215 2.011 7.295 3.775 1.864 1.755 3.572.42 5.5-.33 1.751-.276 5.282 3.343 4.806 5.133-.293 1.062-1.281 2.213-1.409 3.3 1.172 2.416 2.754 4.857 3.271 7.6.931 3.15 5.618.64 4.75 5.773.592 3.233-1.284 4.1-3.948 4.958-1.7 1.8-1.5 5.173-3.143 7.245-2.438 2.033 1.514 4.3.318 6.558-1.644 2.2-3.81 4.413-6.5 2.344 3.132-8.772 9.013-18.2 5.634-27.881-5.6-18.258-32.9-19.13-40.406-1.866-5 10.222 1.312 20.4 4.641 29.971-1.2.537-2.48 1.358-3.548.088-1.116-1.293-3.457-2.528-2.977-4.493.933-2.212 2.22-3.3.219-5.446-1.281-1.984-1.514-4.6-2.6-6.554-1.048-.718-2.57-.818-3.623-1.532-.978-1.39-1.214-6.341.67-7.035z" fill="#262626"/><path d="m54.961 23.681c0 .013.008.026.011.039-.011-.056-.013-.058-.011-.039z" fill="#262626"/><path d="m36.567 30.08c-9.252-5.14-21.74 2.989-20.2 13.608.227 4.626 4.11 10.227 8.1 4.621.951-.95 1.736-1.908 1.15-3.329-2.582-4.245 1.316-10.159 6.243-8.034-8.813 5.559-2.594 11.744 3.116 3.384 1.415 2.78-2.526 5.841.424 8.033 9.028 9.557 12-14.575 1.167-18.283zm-12.893 14.264c.609 1.091 1.1 2.444-.111 3.324-5.9 7.6-7.666-10.736-2.772-13.95l4.173 4.173a5.962 5.962 0 0 0 -1.29 6.453zm2.285-7.312-4.259-4.264c4.341-4.47 12.4-4.232 16.621.24l-1.9 1.9c-1.345-.664-2.591.341-3.558 1.2a7.29 7.29 0 0 0 -6.904.924zm3.627 6.325c-3.118-1.888 4.183-6.9 5.78-7.643 2.764.429-4.791 8.786-5.78 7.643zm12.474 1.043c-.93 5.047-3.157 7.35-6.363 2.038.244-2.444 1.933-4.892.339-7.376.812-.972 2.194-2.264 1.127-3.545l1.811-1.817a12.716 12.716 0 0 1 3.086 10.7z" fill="#262626"/><path d="m28.965 51.534c-4.71.786 2.516 1.585 3.59.5.397-1.134-2.88-.219-3.59-.5z" fill="#262626"/></svg>