<svg id="Capa_1" enable-background="new 0 0 512 512" height="300" viewBox="0 0 512 512" width="300" xmlns="http://www.w3.org/2000/svg" xmlns:xlink="http://www.w3.org/1999/xlink" version="1.1" xmlns:svgjs="http://svgjs.dev/svgjs"><g width="100%" height="100%" transform="matrix(1,0,0,1,0,0)"><linearGradient id="lg1"><stop offset="0" stop-color="#444"/><stop offset="1" stop-color="#0b1b4c"/></linearGradient><linearGradient id="SVGID_1_" gradientUnits="userSpaceOnUse" x1="238.069" x2="278.219" xlink:href="#lg1" y1="446.922" y2="446.922"/><linearGradient id="lg2"><stop offset="0" stop-color="#0b1b4c" stop-opacity="0"/><stop offset=".2811" stop-color="#0c1b48" stop-opacity=".281"/><stop offset=".5663" stop-color="#101b3c" stop-opacity=".566"/><stop offset=".8525" stop-color="#161a28" stop-opacity=".853"/><stop offset="1" stop-color="#1a1a1a"/></linearGradient><linearGradient id="SVGID_00000049189280540768799660000014629224421231093421_" gradientUnits="userSpaceOnUse" x1="256" x2="256" xlink:href="#lg2" y1="420.388" y2="458.177"/><linearGradient id="SVGID_00000075160179472159207290000012284388285542567565_" gradientUnits="userSpaceOnUse" x1="256" x2="256" xlink:href="#lg2" y1="456.308" y2="409.259"/><linearGradient id="lg3"><stop stop-opacity="1" stop-color="#eaf9fa" offset="0"/><stop stop-opacity="1" stop-color="#c8effe" offset="1"/></linearGradient><linearGradient id="SVGID_00000060738289576573698970000017654181715625800584_" gradientUnits="userSpaceOnUse" x1="207.247" x2="359.461" xlink:href="#lg3" y1="124.123" y2="478.367"/><linearGradient id="lg4"><stop stop-opacity="0" stop-color="#b3dafe" offset="0"/><stop stop-opacity="0.20784313725490197" stop-color="#afd8fe" offset="0.2076"/><stop stop-opacity="0.43529411764705883" stop-color="#a2d3fe" offset="0.4339"/><stop stop-opacity="0.6705882352941176" stop-color="#8ccafe" offset="0.6688"/><stop stop-opacity="0.9098039215686274" stop-color="#6ebdfe" offset="0.9085"/><stop stop-opacity="1" stop-color="#60b7ff" offset="1"/></linearGradient><linearGradient id="SVGID_00000006709864675468186250000010262241887714664584_" gradientUnits="userSpaceOnUse" x1="465.673" x2="508.659" xlink:href="#lg4" y1="232.175" y2="232.175"/><linearGradient id="SVGID_00000034067676989436997740000009848494337546160512_" gradientUnits="userSpaceOnUse" x1="483.693" x2="450.901" xlink:href="#lg4" y1="111.565" y2="111.565"/><linearGradient id="SVGID_00000055673373129059919400000016090028693725620150_" gradientUnits="userSpaceOnUse" x1="31.463" x2="93.483" xlink:href="#lg4" y1="136.222" y2="106.994"/><linearGradient id="SVGID_00000150809486268330299730000009059612289178317466_" gradientUnits="userSpaceOnUse" x1="250.525" x2="273.337" xlink:href="#lg1" y1="344.143" y2="462.479"/><linearGradient id="lg5"><stop stop-opacity="1" stop-color="#fff5c6" offset="0"/><stop stop-opacity="1" stop-color="#fac600" offset="1"/></linearGradient><linearGradient id="SVGID_00000049207793261826241910000016181557084419425200_" gradientUnits="userSpaceOnUse" x1="-144.797" x2="427.95" xlink:href="#lg5" y1="-418.503" y2="474.889"/><linearGradient id="lg6"><stop stop-opacity="0" stop-color="#fea613" offset="0"/><stop stop-opacity="0.17647058823529413" stop-color="#fda116" offset="0.1766"/><stop stop-opacity="0.39215686274509803" stop-color="#fa921d" offset="0.39390000000000003"/><stop stop-opacity="0.6313725490196078" stop-color="#f4792a" offset="0.6325"/><stop stop-opacity="0.8862745098039215" stop-color="#ed573b" offset="0.8846"/><stop stop-opacity="1" stop-color="#e94444" offset="1"/></linearGradient><linearGradient id="SVGID_00000121266220654320725460000015482618706259957908_" gradientUnits="userSpaceOnUse" x1="63.009" x2="11.663" xlink:href="#lg6" y1="206.675" y2="206.675"/><linearGradient id="SVGID_00000069386560777564038930000013143501180846724015_" gradientUnits="userSpaceOnUse" x1="256" x2="256" xlink:href="#lg6" y1="158.79" y2="77.472"/><linearGradient id="SVGID_00000113351251140402465150000003408628116329623983_" gradientUnits="userSpaceOnUse" x1="498.267" x2="454.064" xlink:href="#lg6" y1="206.675" y2="206.675"/><linearGradient id="SVGID_00000090285074490413060270000003456804927327830682_" gradientUnits="userSpaceOnUse" x1="251.299" x2="259.14" xlink:href="#lg1" y1="462.105" y2="512.006"/><linearGradient id="SVGID_00000170974587028568741310000007829456578156997310_" gradientUnits="userSpaceOnUse" x1="256" x2="256" xlink:href="#lg2" y1="383.747" y2="427.945"/><linearGradient id="SVGID_00000114069639097012637620000012128566805099110281_" gradientUnits="userSpaceOnUse" x1="465.673" x2="526.275" xlink:href="#lg2" y1="384.201" y2="384.201"/><linearGradient id="SVGID_00000060725702029161315710000017783239575933478333_" gradientUnits="userSpaceOnUse" x1="305.317" x2="346.979" xlink:href="#lg2" y1="484.925" y2="484.925"/><linearGradient id="SVGID_00000101096558582049584000000009563514457076110217_" gradientUnits="userSpaceOnUse" x1="162.44" x2="388.42" xlink:href="#lg3" y1="55.532" y2="372.047"/><linearGradient id="SVGID_00000181776101407234925100000015532672045491421334_" gradientUnits="userSpaceOnUse" x1="256" x2="256" xlink:href="#lg3" y1="-1.156" y2="75.133"/><linearGradient id="SVGID_00000026128431601757580780000001870441030217923201_" gradientUnits="userSpaceOnUse" x1="95.098" x2="114.822" y1="15.963" y2="35.688"><stop stop-opacity="1" stop-color="#ffa1ae" offset="0"/><stop stop-opacity="1" stop-color="#e41f2d" offset="1"/></linearGradient><linearGradient id="SVGID_00000158000655333644453740000009159218643422694305_" gradientUnits="userSpaceOnUse" x1="132.558" x2="152.283" xlink:href="#lg5" y1="15.963" y2="35.688"/><linearGradient id="SVGID_00000140699238686051768620000006526976005783495356_" gradientUnits="userSpaceOnUse" x1="170.019" x2="189.743" y1="15.963" y2="35.688"><stop stop-opacity="1" stop-color="#bbf49b" offset="0"/><stop stop-opacity="1" stop-color="#0bb494" offset="1"/></linearGradient><linearGradient id="SVGID_00000132057720302993449620000012265371228633013891_" gradientUnits="userSpaceOnUse" x1="39.081" x2="177.123" y1="41.316" y2="179.358"><stop stop-opacity="1" stop-color="#d4f2f6" offset="0"/><stop stop-opacity="1" stop-color="#03bed7" offset="1"/></linearGradient><linearGradient id="SVGID_00000011033105697674458280000011921124034060086163_" gradientUnits="userSpaceOnUse" x1="195.41" x2="159.829" y1="160.15" y2="151.584"><stop stop-opacity="0" stop-color="#0199b1" offset="0"/><stop stop-opacity="0.9372549019607843" stop-color="#0199b1" offset="0.9369"/><stop stop-opacity="1" stop-color="#0199b1" offset="1"/></linearGradient><linearGradient id="SVGID_00000149383311898940252630000015202507139223479974_" gradientUnits="userSpaceOnUse" x1="134.476" x2="142.875" xlink:href="#lg3" y1="166.134" y2="199.262"/><linearGradient id="SVGID_00000125600753091928819850000005002402246402655619_" gradientUnits="userSpaceOnUse" x1="161.491" x2="184.586" xlink:href="#lg4" y1="188.371" y2="186.687"/><linearGradient id="SVGID_00000091722191275489117330000008144154844760785039_" gradientUnits="userSpaceOnUse" x1="154.992" x2="152.901" xlink:href="#lg4" y1="186.937" y2="165.691"/><linearGradient id="SVGID_00000121260905023427321280000006816173098809838770_" gradientUnits="userSpaceOnUse" x1="140.935" x2="140.935" xlink:href="#lg4" y1="194.644" y2="210.373"/><linearGradient id="SVGID_00000012457062721346243790000000397393827267507341_" gradientUnits="userSpaceOnUse" x1="126.85" x2="163.179" xlink:href="#lg3" y1="124.021" y2="160.35"/><linearGradient id="SVGID_00000117665433796676742940000003197889070424023973_" gradientUnits="userSpaceOnUse" x1="142.69" x2="168.743" xlink:href="#lg4" y1="139.755" y2="164.25"/><linearGradient id="SVGID_00000169527828235529869640000000366323628146621315_" gradientUnits="userSpaceOnUse" x1="140.935" x2="140.935" xlink:href="#lg4" y1="152.833" y2="176.504"/><linearGradient id="SVGID_00000098930504259501872930000008410615213367760560_" gradientUnits="userSpaceOnUse" x1="175.556" x2="329.521" xlink:href="#lg4" y1="-65.675" y2="183.958"/><linearGradient id="SVGID_00000152986251257310841430000007000452367467477897_" gradientUnits="userSpaceOnUse" x1="240.099" x2="300.952" xlink:href="#lg1" y1="38.973" y2="137.637"/><linearGradient id="SVGID_00000021094891207340732390000015349247296219589003_" gradientUnits="userSpaceOnUse" x1="285.35" x2="439.315" xlink:href="#lg4" y1="-65.675" y2="183.958"/><linearGradient id="SVGID_00000062180665726080052140000002926399970719669909_" gradientUnits="userSpaceOnUse" x1="349.893" x2="410.746" xlink:href="#lg1" y1="38.973" y2="137.637"/><linearGradient id="SVGID_00000104686717184854852580000007990011597221883542_" gradientUnits="userSpaceOnUse" x1="223.657" x2="390.131" xlink:href="#lg1" y1="-20.789" y2="249.125"/><linearGradient id="SVGID_00000120543346658476048820000011903329134030242460_" gradientUnits="userSpaceOnUse" x1="233.914" x2="334.5" xlink:href="#lg1" y1="88.551" y2="251.636"/><linearGradient id="SVGID_00000121276941407278570040000014040401230727362750_" gradientUnits="userSpaceOnUse" x1="181.763" x2="282.278" xlink:href="#lg4" y1="5.763" y2="377.882"/><linearGradient id="SVGID_00000152981901404965688050000000307083009903839364_" gradientUnits="userSpaceOnUse" x1="124.148" x2="128.425" xlink:href="#lg4" y1="75.355" y2="317.018"/><linearGradient id="SVGID_00000036217832577321196870000017349948856211614602_" gradientUnits="userSpaceOnUse" x1="380.202" x2="384.479" xlink:href="#lg4" y1="70.823" y2="312.487"/><linearGradient id="SVGID_00000147213866248292186920000017275034960454417328_" gradientUnits="userSpaceOnUse" x1="252.175" x2="256.452" xlink:href="#lg4" y1="73.089" y2="314.752"/><g><g><g><path d="m219.767 390.5h72.466v112.844h-72.466z" fill="#6782bb" data-original-color="lg1" stroke="none" stroke-opacity="1" fill-opacity="1" style=""/></g><path d="m219.767 390.5h72.466v112.844h-72.466z" fill="#6782bb" data-original-color="lg2" stroke="none" stroke-opacity="1" fill-opacity="1" style=""/><path d="m219.767 390.5h72.466v112.844h-72.466z" fill="#6782bb" data-original-color="lg2" stroke="none" stroke-opacity="1" fill-opacity="1" style=""/><g><path d="m0 390.69v-301.013c0-14.25 11.552-25.802 25.802-25.802h460.396c14.25 0 25.802 11.552 25.802 25.802v301.013c0 14.25-512 14.25-512 0z" fill="url(#SVGID_00000060738289576573698970000017654181715625800584_)" data-original-color="lg3" stroke="none" stroke-opacity="1" style=""/><path d="m486.198 63.875h-121.752v336.599c83.133-1.469 147.554-4.73 147.554-9.784v-301.013c0-14.25-11.552-25.802-25.802-25.802z" fill="url(#SVGID_00000006709864675468186250000010262241887714664584_)" data-original-color="lg4" stroke="none" stroke-opacity="1" style=""/><path d="m486.198 63.875h-121.752v95.38h147.554v-69.578c0-14.25-11.552-25.802-25.802-25.802z" fill="url(#SVGID_00000034067676989436997740000009848494337546160512_)" data-original-color="lg4" stroke="none" stroke-opacity="1" style=""/><path d="m25.802 63.875h121.752v95.38h-147.554v-69.578c0-14.25 11.552-25.802 25.802-25.802z" fill="url(#SVGID_00000055673373129059919400000016090028693725620150_)" data-original-color="lg4" stroke="none" stroke-opacity="1" style=""/><g><path d="m0 351.91v38.78c0 14.25 11.552 25.802 25.802 25.802h460.396c14.25 0 25.802-11.552 25.802-25.802v-38.78z" fill="#6782bb" data-original-color="lg1" stroke="none" stroke-opacity="1" fill-opacity="1" style=""/></g><g><path d="m470.488 328.567h-428.976c-11.799 0-21.364-9.565-21.364-21.364v-201.055c0-11.799 9.565-21.364 21.364-21.364h428.975c11.799 0 21.364 9.565 21.364 21.364v201.055c.001 11.799-9.564 21.364-21.363 21.364z" fill="url(#SVGID_00000049207793261826241910000016181557084419425200_)" data-original-color="lg5" stroke="none" stroke-opacity="1" style=""/></g><path d="m145.313 84.784h-103.801c-11.799 0-21.364 9.565-21.364 21.365v201.055c0 11.799 9.565 21.365 21.364 21.365h103.801z" fill="url(#SVGID_00000121266220654320725460000015482618706259957908_)" data-original-color="lg6" stroke="none" stroke-opacity="1"/><path d="m470.488 84.784h-428.976c-11.799 0-21.364 9.565-21.364 21.365v107.081h471.704v-107.082c0-11.799-9.565-21.364-21.364-21.364z" fill="url(#SVGID_00000069386560777564038930000013143501180846724015_)" data-original-color="lg6" stroke="none" stroke-opacity="1"/><path d="m470.488 84.784h-33.502v243.783h33.502c11.799 0 21.364-9.565 21.364-21.364v-201.055c0-11.799-9.565-21.364-21.364-21.364z" fill="url(#SVGID_00000113351251140402465150000003408628116329623983_)" data-original-color="lg6" stroke="none" stroke-opacity="1"/></g><g><path d="m330.135 512h-148.27c-8.396 0-15.202-6.806-15.202-15.202v-8.336c0-16.906 13.705-30.612 30.612-30.612h117.45c16.906 0 30.612 13.705 30.612 30.612v8.336c0 8.396-6.807 15.202-15.202 15.202z" fill="#6782bb" data-original-color="lg1" stroke="none" stroke-opacity="1" fill-opacity="1" style=""/></g><path d="m0 351.91v38.78c0 14.25 11.552 25.802 25.802 25.802h460.396c14.25 0 25.802-11.552 25.802-25.802v-38.78z" fill="#6782bb" data-original-color="lg2" stroke="none" stroke-opacity="1" fill-opacity="1" style=""/><path d="m364.446 416.492h121.752c14.25 0 25.802-11.552 25.802-25.802v-38.78h-147.554z" fill="#6782bb" data-original-color="lg2" stroke="none" stroke-opacity="1" fill-opacity="1" style=""/><path d="m314.725 457.85h-29.87v54.15h45.28c8.396 0 15.202-6.806 15.202-15.202v-8.336c0-16.907-13.706-30.612-30.612-30.612z" fill="#6782bb" data-original-color="lg2" stroke="none" stroke-opacity="1" fill-opacity="1" style=""/></g><path d="m58.533 44.584h394.934v283.983h-394.934z" fill="url(#SVGID_00000101096558582049584000000009563514457076110217_)" data-original-color="lg3" stroke="none" stroke-opacity="1" style=""/><g><path d="m432.103 0h-352.206c-11.799 0-21.364 9.565-21.364 21.365v30.344h394.934v-30.344c0-11.8-9.565-21.365-21.364-21.365z" fill="url(#SVGID_00000181776101407234925100000015532672045491421334_)" data-original-color="lg3" stroke="none" stroke-opacity="1" style=""/><circle cx="104.5" cy="25.366" fill="url(#SVGID_00000026128431601757580780000001870441030217923201_)" r="12.026" data-original-color="SVGID_00000026128431601757580780000001870441030217923201_" stroke="none" stroke-opacity="1" style=""/><circle cx="141.96" cy="25.366" fill="url(#SVGID_00000158000655333644453740000009159218643422694305_)" r="12.026" data-original-color="lg5" stroke="none" stroke-opacity="1" style=""/><circle cx="179.421" cy="25.366" fill="url(#SVGID_00000140699238686051768620000006526976005783495356_)" r="12.026" data-original-color="SVGID_00000140699238686051768620000006526976005783495356_" stroke="none" stroke-opacity="1" style=""/></g><g><g><path d="m206.857 143.174c0 18.205-7.382 34.689-19.307 46.615-.619.619-1.253 1.23-1.902 1.819h-89.425c-13.042-12.039-21.209-29.278-21.209-48.434 0-18.205 7.382-34.689 19.307-46.615 11.925-11.925 28.41-19.307 46.615-19.307s34.689 7.382 46.615 19.307c11.924 11.926 19.306 28.41 19.306 46.615z" fill="url(#SVGID_00000132057720302993449620000012265371228633013891_)" data-original-color="SVGID_00000132057720302993449620000012265371228633013891_" stroke="none" stroke-opacity="1" style=""/></g><path d="m167.704 111.336-16.683 16.683v63.589h34.627c.649-.589 1.283-1.2 1.902-1.819 10.388-10.388 17.325-24.235 18.943-39.664z" fill="url(#SVGID_00000011033105697674458280000011921124034060086163_)" data-original-color="SVGID_00000011033105697674458280000011921124034060086163_" stroke="none" stroke-opacity="1" style=""/><g><path d="m155.71 171.284h-29.551c-13.591 0-25.207 8.421-29.939 20.326 11.751 10.854 27.457 17.488 44.715 17.488 17.258 0 32.964-6.635 44.715-17.488-4.733-11.905-16.349-20.326-29.94-20.326z" fill="url(#SVGID_00000149383311898940252630000015202507139223479974_)" data-original-color="lg3" stroke="none" stroke-opacity="1" style=""/><path d="m155.71 171.284h-26.021v36.855c3.655.628 7.412.959 11.246.959 17.258 0 32.964-6.635 44.715-17.488-4.733-11.905-16.349-20.326-29.94-20.326z" fill="url(#SVGID_00000125600753091928819850000005002402246402655619_)" data-original-color="lg4" stroke="none" stroke-opacity="1" style=""/><path d="m185.649 191.61c-4.732-11.905-16.348-20.326-29.939-20.326h-29.551c-.975 0-1.939.046-2.892.131l35.296 35.296c10.248-2.838 19.493-8.088 27.086-15.101z" fill="url(#SVGID_00000091722191275489117330000008144154844760785039_)" data-original-color="lg4" stroke="none" stroke-opacity="1" style=""/><path d="m176.42 178.825h-70.971c-4.05 3.403-7.243 7.788-9.23 12.784 11.751 10.854 27.457 17.489 44.715 17.489 17.258 0 32.964-6.635 44.715-17.489-1.985-4.996-5.179-9.381-9.229-12.784z" fill="url(#SVGID_00000121260905023427321280000006816173098809838770_)" data-original-color="lg4" stroke="none" stroke-opacity="1" style=""/><g><path d="m114.165 111.336c-14.784 14.784-14.784 38.755 0 53.539s38.755 14.784 53.539 0 14.784-38.755 0-53.539-38.755-14.784-53.539 0z" fill="url(#SVGID_00000012457062721346243790000000397393827267507341_)" data-original-color="lg3" stroke="none" stroke-opacity="1" style=""/><path d="m161.446 106.282-52.334 52.334c6.741 10.437 18.475 17.346 31.823 17.346 20.908 0 37.857-16.95 37.857-37.857 0-13.348-6.909-25.082-17.346-31.823z" fill="url(#SVGID_00000117665433796676742940000003197889070424023973_)" data-original-color="lg4" stroke="none" stroke-opacity="1" style=""/><path d="m103.077 138.105c0 20.908 16.95 37.857 37.857 37.857 20.908 0 37.857-16.95 37.857-37.857 0-2.269-.2-4.49-.583-6.649h-74.55c-.381 2.159-.581 4.38-.581 6.649z" fill="url(#SVGID_00000169527828235529869640000000366323628146621315_)" data-original-color="lg4" stroke="none" stroke-opacity="1" style=""/></g></g></g><g><g><path d="m311.865 137.477h-59.168c-8.465 0-15.327-6.862-15.327-15.327v-29.571c0-8.465 6.862-15.327 15.327-15.327h59.168c8.465 0 15.327 6.862 15.327 15.327v29.571c0 8.465-6.862 15.327-15.327 15.327z" fill="url(#SVGID_00000098930504259501872930000008410615213367760560_)" data-original-color="lg4" stroke="none" stroke-opacity="1" style=""/><path d="m300.701 99.865h-36.839c-4.143 0-7.5 3.358-7.5 7.5s3.357 7.5 7.5 7.5h36.839c4.143 0 7.5-3.358 7.5-7.5s-3.357-7.5-7.5-7.5z" fill="#6782bb" data-original-color="lg1" stroke="none" stroke-opacity="1" fill-opacity="1" style=""/></g><g><path d="m421.659 137.477h-59.168c-8.465 0-15.327-6.862-15.327-15.327v-29.571c0-8.465 6.862-15.327 15.327-15.327h59.168c8.465 0 15.327 6.862 15.327 15.327v29.571c0 8.465-6.862 15.327-15.327 15.327z" fill="url(#SVGID_00000021094891207340732390000015349247296219589003_)" data-original-color="lg4" stroke="none" stroke-opacity="1" style=""/><path d="m410.495 99.865h-36.84c-4.143 0-7.5 3.358-7.5 7.5s3.357 7.5 7.5 7.5h36.84c4.143 0 7.5-3.358 7.5-7.5s-3.357-7.5-7.5-7.5z" fill="#6782bb" data-original-color="lg1" stroke="none" stroke-opacity="1" fill-opacity="1" style=""/></g></g><g><path d="m414.245 158.81h-150.384c-4.143 0-7.5 3.358-7.5 7.5s3.357 7.5 7.5 7.5h150.384c4.143 0 7.5-3.358 7.5-7.5s-3.357-7.5-7.5-7.5z" fill="#6782bb" data-original-color="lg1" stroke="none" stroke-opacity="1" fill-opacity="1" style=""/><path d="m343.414 194.098h-79.553c-4.143 0-7.5 3.358-7.5 7.5s3.357 7.5 7.5 7.5h79.553c4.143 0 7.5-3.358 7.5-7.5s-3.357-7.5-7.5-7.5z" fill="#6782bb" data-original-color="lg1" stroke="none" stroke-opacity="1" fill-opacity="1" style=""/></g><path d="m58.533 232.626h394.934v95.941h-394.934z" fill="url(#SVGID_00000121276941407278570040000014040401230727362750_)" data-original-color="lg4" stroke="none" stroke-opacity="1" style=""/><g><path d="m170.515 249.891h-85.164c-5.709 0-10.337 4.628-10.337 10.337v58.003c0 5.709 4.628 10.337 10.337 10.337h85.165c5.709 0 10.337-4.628 10.337-10.337v-58.003c-.001-5.709-4.629-10.337-10.338-10.337z" fill="url(#SVGID_00000152981901404965688050000000307083009903839364_)" data-original-color="lg4" stroke="none" stroke-opacity="1" style=""/><path d="m426.649 249.891h-85.165c-5.709 0-10.337 4.628-10.337 10.337v58.003c0 5.709 4.628 10.337 10.337 10.337h85.165c5.709 0 10.337-4.628 10.337-10.337v-58.003c0-5.709-4.628-10.337-10.337-10.337z" fill="url(#SVGID_00000036217832577321196870000017349948856211614602_)" data-original-color="lg4" stroke="none" stroke-opacity="1" style=""/><path d="m298.582 249.891h-85.165c-5.709 0-10.337 4.628-10.337 10.337v58.003c0 5.709 4.628 10.337 10.337 10.337h85.165c5.709 0 10.337-4.628 10.337-10.337v-58.003c0-5.709-4.628-10.337-10.337-10.337z" fill="url(#SVGID_00000147213866248292186920000017275034960454417328_)" data-original-color="lg4" stroke="none" stroke-opacity="1" style=""/></g></g></g></svg>