<svg id="Layer_1" height="512" viewBox="0 0 512 512" width="512" xmlns="http://www.w3.org/2000/svg" data-name="Layer 1"><g fill-rule="evenodd"><path d="m139.645 4.5a4 4 0 1 0 -3.892 6.993l322.647 179.866-36.77 10.381a4 4 0 0 0 1.085 7.846 4.3 4.3 0 0 0 1.085-.143l46.228-13.051a4.011 4.011 0 0 0 2.759-4.944l-13.051-46.22a4 4 0 1 0 -7.689 2.176l10.469 37.075z" fill="#d1e7ff"/><path d="m503.934 344.26h-31.36v-82.36a4 4 0 0 0 -4-4h-52.08a4 4 0 0 0 -4 4v82.36h-36.848v-141.633a4 4 0 0 0 -4-4h-52.08a4 4 0 0 0 -4 4v141.633h-36.847v-199.284a4 4 0 0 0 -4-4h-52.087a4 4 0 0 0 -3.994 4v114.658l-3.1.713a6.686 6.686 0 0 0 -1.92.763l-18.3 10.854-1.984-1.051q-4.446-2.358-9.1-4.3l-2.452-1.029v-165.257a4 4 0 0 0 -4-4h-52.082a4 4 0 0 0 -4 4v135.537l-3.178.667a6.659 6.659 0 0 0 -5.089 4.868l-5.256 20.622-2.148.659a113.807 113.807 0 0 0 -20.144 8.378l-1.987 1.06-18.221-10.818a6.644 6.644 0 0 0 -8.112 1.018l-27.9 27.89a6.652 6.652 0 0 0 -1.01 8.1l10.87 18.305-1.056 1.987a114.415 114.415 0 0 0 -8.338 20.162l-.657 2.151-20.517 5.244a6.654 6.654 0 0 0 -5.02 6.448v39.441a6.651 6.651 0 0 0 5 6.454l20.629 5.255.66 2.146a114.244 114.244 0 0 0 8.379 20.148l1.058 1.987-10.819 18.223a6.646 6.646 0 0 0 1.019 8.111l27.89 27.9a6.662 6.662 0 0 0 8.115 1.011l18.3-10.87 1.984 1.052a114.491 114.491 0 0 0 20.162 8.338l2.152.657 5.236 20.533a6.647 6.647 0 0 0 6.454 5h39.444a6.648 6.648 0 0 0 6.447-5l5.255-20.629 2.147-.66a113.923 113.923 0 0 0 20.145-8.378l1.988-1.06 18.224 10.823a6.657 6.657 0 0 0 8.11-1.018l27.9-27.89a6.649 6.649 0 0 0 1.01-8.11l-10.863-18.307 1.055-1.985a113.442 113.442 0 0 0 7.852-18.658l.889-2.782h254.175a4 4 0 0 0 4-4v-52.083a3.994 3.994 0 0 0 -4-3.994z" fill="#d1e7ff"/><path d="m141.612 1.006 314.457 175.294-7.851-27.8a8 8 0 1 1 15.387-4.35l13.052 46.22a8.008 8.008 0 0 1 -5.522 9.88l-46.228 13.051a8.358 8.358 0 0 1 -2.171.294 8 8 0 0 1 -2.172-15.7l27.454-7.752-314.193-175.156a8 8 0 1 1 7.787-13.981zm354.348 391.332h-216.415c.007-.178.021-.371.021-.557v-35.526h216.394zm-279.574 78.311-16.688-9.9a7.989 7.989 0 0 0 -8.13-.029 101.882 101.882 0 0 1 -25.574 10.652 7.959 7.959 0 0 0 -5.709 5.758l-4.822 18.87h-31.14l-4.786-18.788a8.033 8.033 0 0 0 -5.743-5.772 101.944 101.944 0 0 1 -25.6-10.566 7.994 7.994 0 0 0 -8.115.029l-16.76 9.951-22.014-22.036 9.9-16.688a7.987 7.987 0 0 0 .022-8.13 102.369 102.369 0 0 1 -10.645-25.568 7.965 7.965 0 0 0 -5.757-5.715l-18.866-4.817v-31.145l18.788-4.8a7.969 7.969 0 0 0 5.765-5.729 102.217 102.217 0 0 1 10.573-25.6 8.009 8.009 0 0 0 -.029-8.123l-9.951-16.745 22.031-22.024 16.689 9.9a7.971 7.971 0 0 0 8.129.022 102.313 102.313 0 0 1 25.568-10.645 7.965 7.965 0 0 0 5.715-5.758l4.822-18.867h31.141l4.787 18.789a8.034 8.034 0 0 0 5.736 5.772 101.689 101.689 0 0 1 25.6 10.566 8.009 8.009 0 0 0 8.123-.029l16.745-9.951 22.024 22.031-9.9 16.688a7.971 7.971 0 0 0 -.021 8.13 101.809 101.809 0 0 1 10.637 25.575 7.98 7.98 0 0 0 5.765 5.708l18.867 4.822v31.14l-18.788 4.786a7.991 7.991 0 0 0 -5.623 5.294c-.035.121-.078.236-.121.357a.265.265 0 0 1 -.029.093 101.438 101.438 0 0 1 -10.572 25.6 8 8 0 0 0 .035 8.108l9.952 16.76-22.032 22.024zm-46.586-362.321h-36.075v124.06h25.618a10.65 10.65 0 0 1 10.33 8.023l.128.507v-132.59zm96.935 44.649h-36.083v112.394l21.818 21.817a10.67 10.67 0 0 1 1.628 12.981l-9.672 16.288a117.719 117.719 0 0 1 8.665 20.838l11.594 2.965h2.051v-187.283zm60.851 57.651v129.632h36.076v-129.632zm96.928 59.272h36.086v70.36h-36.086zm79.44 70.36h-27.361v-78.36a8 8 0 0 0 -8-8h-52.08a8 8 0 0 0 -8 8v78.36h-28.848v-137.633a8 8 0 0 0 -8-8h-52.079a8 8 0 0 0 -8 8v137.633h-28.848v-195.284a8.006 8.006 0 0 0 -8-8h-52.087a8 8 0 0 0 -7.994 8v111.473a10.412 10.412 0 0 0 -3.064 1.221l-16.367 9.709c-3.072-1.629-6.222-3.115-9.423-4.458v-162.594a8 8 0 0 0 -8-8h-52.079a8 8 0 0 0 -8 8v132.29a10.65 10.65 0 0 0 -8.144 7.794l-4.7 18.445a117.734 117.734 0 0 0 -20.853 8.673l-16.288-9.666a10.635 10.635 0 0 0 -12.98 1.629l-27.9 27.889a10.664 10.664 0 0 0 -1.622 12.973l9.723 16.374a118.427 118.427 0 0 0 -8.63 20.867l-18.344 4.687a10.645 10.645 0 0 0 -8.03 10.323v39.441a10.651 10.651 0 0 0 8.016 10.33l18.452 4.7a118.246 118.246 0 0 0 8.676 20.853l-9.673 16.288a10.645 10.645 0 0 0 1.629 12.98l27.89 27.9a10.674 10.674 0 0 0 12.987 1.622l16.367-9.719a118.427 118.427 0 0 0 20.867 8.63l4.679 18.352a10.663 10.663 0 0 0 10.327 8.018h39.448a10.648 10.648 0 0 0 10.323-8.016l4.7-18.452a117.943 117.943 0 0 0 20.852-8.673l16.288 9.673a10.653 10.653 0 0 0 12.981-1.629l27.9-27.889a10.655 10.655 0 0 0 1.622-12.981l-9.715-16.373a117.445 117.445 0 0 0 8.129-19.317h251.253a8 8 0 0 0 8-8v-52.089a8 8 0 0 0 -8-7.994zm-356.292 31.926a8.008 8.008 0 1 0 0 .014zm2.594-3.065a8 8 0 0 1 1.443-7.1l7.079-8.944-8.944 7.08a7.961 7.961 0 0 1 -7.087 1.443 10.957 10.957 0 0 0 -2.871-.393 10.792 10.792 0 1 0 10.38 7.915zm55.5 3.065a65.715 65.715 0 0 0 -11.856-37.686l-27.418 34.612a26.792 26.792 0 1 1 -23.739-23.739l34.6-27.418a66.061 66.061 0 1 0 28.4 54.236zm8.38-63.23a8 8 0 0 0 -11.245-11.23l-12.559 9.951a82.235 82.235 0 1 0 13.852 13.852z" fill="#2e58ff"/></g></svg>