<svg id="Layer_1" height="512" viewBox="0 0 512 512" width="512" xmlns="http://www.w3.org/2000/svg" data-name="Layer 1"><path d="m317.553 227.854a14.14 14.14 0 0 0 13.336-9.37 14.533 14.533 0 0 0 -3.561-15.079l-61.274-61.7a14.174 14.174 0 0 0 -20.116 0l-61.555 61.981a14.141 14.141 0 0 0 -2.75 16.066 14.534 14.534 0 0 0 13.21 8.1h25.094v37.478a8.182 8.182 0 0 0 7.466 8.257 8 8 0 0 0 8.534-7.983v-45.666a2.625 2.625 0 0 0 -.222-1.288 8 8 0 0 0 -7.9-6.8h-28.991l57.176-57.564 57.172 57.568h-28.99a7.994 7.994 0 0 0 -7.911 6.872 2.337 2.337 0 0 0 -.211 1.212v150.883a8.182 8.182 0 0 0 7.467 8.257 8 8 0 0 0 8.533-7.983v-143.241z" fill="#150f91"/><path d="m227.45 282.928a8.182 8.182 0 0 0 -7.466 8.257v152.125a8.182 8.182 0 0 0 7.466 8.257 8 8 0 0 0 8.534-7.982v-152.675a8 8 0 0 0 -8.534-7.982z" fill="#150f91"/><path d="m157.7 247.213a11.778 11.778 0 0 0 -8.912-3.488 12.365 12.365 0 0 0 -8.175 3.763l-37.833 38.093a12.174 12.174 0 0 0 -3.139 12.2 11.824 11.824 0 0 0 11.292 8.255h12.873v19.1a8.182 8.182 0 0 0 7.467 8.257 8 8 0 0 0 8.533-7.983v-27.323a2.906 2.906 0 0 0 -.157-1.129 8 8 0 0 0 -7.919-6.923h-10.823l28.384-28.581 28.384 28.581h-10.822a7.994 7.994 0 0 0 -7.909 6.856 3.131 3.131 0 0 0 -.167 1.2v92.779a8.182 8.182 0 0 0 7.466 8.257 8 8 0 0 0 8.534-7.983v-85.109h12.508a12.18 12.18 0 0 0 10.871-6.367 11.824 11.824 0 0 0 -2.1-13.83z" fill="#ea7513"/><path d="m131.3 342.94a8.182 8.182 0 0 0 -7.467 8.257v83.708a8.182 8.182 0 0 0 7.467 8.257 8 8 0 0 0 8.533-7.983v-84.256a8 8 0 0 0 -8.533-7.983z" fill="#ea7513"/><g fill="#150f91"><path d="m412.352 297.78a12.175 12.175 0 0 0 -3.14-12.2l-38.1-38.368a11.778 11.778 0 0 0 -8.912-3.488 12.367 12.367 0 0 0 -8.175 3.763l-37.835 38.094a12.174 12.174 0 0 0 -3.139 12.2 11.824 11.824 0 0 0 11.292 8.255h12.873v84.834a8.182 8.182 0 0 0 7.467 8.257 8 8 0 0 0 8.533-7.983v-93.057a2.484 2.484 0 0 0 -.138-1 8 8 0 0 0 -7.938-7.049h-10.822l28.382-28.584 28.384 28.581h-10.821a8 8 0 0 0 -7.9 6.791 3.424 3.424 0 0 0 -.177 1.261v27.047a8.182 8.182 0 0 0 7.466 8.257 8 8 0 0 0 8.534-7.983v-19.373h12.874a11.824 11.824 0 0 0 11.292-8.255z"/><path d="m379.624 342.94a8.182 8.182 0 0 0 -7.467 8.257v83.708a8.182 8.182 0 0 0 7.467 8.257 8 8 0 0 0 8.533-7.983v-84.256a8 8 0 0 0 -8.533-7.983z"/><path d="m511.037 285.761a86.054 86.054 0 0 0 -63.926-74.43 83.978 83.978 0 0 0 -117.018-92.165 136.178 136.178 0 0 0 -24.025-26.5c-57.449-48.626-143.743-41.445-192.368 16.004a136.416 136.416 0 0 0 -31.752 100.266c-22.118 1.54-41.929 10.03-56.5 24.369-16.091 15.828-24.948 37.602-24.948 61.316a86.485 86.485 0 0 0 19.271 54.265c10.905 13.4 27.014 29.03 55.016 30.9.347.023.477.032 19.473.039a7.909 7.909 0 0 0 7.582-5.376 8.027 8.027 0 0 0 -7.579-10.624c-6.815 0-17.051-.01-18.635-.019-21.576-1.517-34.071-13.494-43.442-25.012a70.425 70.425 0 0 1 -15.686-44.178c0-19.386 7.163-37.109 20.169-49.906 13.669-13.449 32.376-20.381 54.163-20.016a8 8 0 0 0 8.033-9.238 120.45 120.45 0 0 1 221.623-81.742 8 8 0 0 0 10.742 2.783 67.982 67.982 0 0 1 98.5 78.69 8 8 0 0 0 6.44 10.2 70.056 70.056 0 0 1 43.64 113.402c-11.9 14.631-23.82 24.486-43.261 25.018-1.53 0-23.979.021-23.98.021a8.027 8.027 0 0 0 -7.577 10.624 7.911 7.911 0 0 0 7.582 5.376h.006c24-.017 24.173-.021 24.309-.024 27.175-.713 43.221-16.03 55.336-30.922a85.488 85.488 0 0 0 18.812-63.121z"/></g></svg>