<svg enable-background="new 0 0 512 512" viewBox="0 0 512 512" xmlns="http://www.w3.org/2000/svg"><g id="_x33_3_Search_Optimization"><g><path d="m319.675 260.087 147.699 125.712c21.339 18.162 22.644 50.667 2.829 70.481-19.814 19.814-52.319 18.509-70.481-2.829l-125.711-147.7z" fill="#c9def7"/><path d="m373.099 305.558-53.424-45.471-45.664 45.664 45.471 53.424z" fill="#fff"/><circle cx="200.25" cy="186.326" fill="#c9def7" r="155.462"/><path d="m270.074 256.15c-38.501 38.501-101.148 38.501-139.648 0s-38.499-101.146.002-139.646 101.146-38.503 139.646-.002 38.5 101.147 0 139.648z" fill="#fff"/><path d="m328.682 437.674v42.408c0 11.063-8.969 20.032-20.032 20.032h-277.125c-11.063 0-20.032-8.969-20.032-20.032v-42.408c0-11.063 8.969-20.032 20.032-20.032h277.125c11.064 0 20.032 8.969 20.032 20.032z" fill="#c9def7"/><path d="m244.204 417.642v82.472h64.447c11.063 0 20.032-8.969 20.032-20.032v-42.408c0-11.063-8.969-20.032-20.032-20.032z" fill="#fff"/><path d="m482.889 133.03c-1.573 5.319-3.689 10.41-6.291 15.214l12.44 12.44-33.975 33.975-12.44-12.44c-4.804 2.602-9.895 4.719-15.214 6.292v17.616h-48.045v-17.617c-5.319-1.573-10.41-3.689-15.214-6.292l-12.44 12.44-33.975-33.975 12.44-12.44c-2.603-4.804-4.719-9.895-6.292-15.214h-17.616v-48.044h17.616c1.573-5.319 3.689-10.41 6.292-15.214l-12.44-12.44 33.975-33.975 12.44 12.44c4.804-2.602 9.895-4.719 15.214-6.292v-17.616h48.045v17.616c5.319 1.573 10.41 3.689 15.214 6.292l12.44-12.44 33.975 33.975-12.44 12.44c2.602 4.804 4.719 9.895 6.291 15.214h17.617v48.045z" fill="#c9def7"/><path d="m448.342 108.99c0 24.831-20.142 44.973-44.973 44.973-24.798 0-44.939-20.142-44.939-44.973 0-24.798 20.142-44.939 44.939-44.939 24.831 0 44.973 20.142 44.973 44.939z" fill="#fff"/><g fill="#0c76f0"><path d="m126.969 113.048c-40.408 40.406-40.408 106.155-.002 146.56 40.403 40.403 106.154 40.411 146.565 0 40.41-40.41 40.41-106.159 0-146.565-40.41-40.41-106.152-40.401-146.563.005zm139.648 139.645c-36.59 36.595-96.14 36.59-132.735 0-36.592-36.595-36.592-96.136.002-132.73 36.592-36.592 96.132-36.605 132.733-.005 36.595 36.595 36.595 96.14 0 132.735z"/><path d="m213.141 165.44c2.703 0 4.89-2.187 4.89-4.89s-2.187-4.89-4.89-4.89h-25.783c-2.701 0-4.89 2.187-4.89 4.89v51.556c0 2.703 2.19 4.89 4.89 4.89h25.783c2.703 0 4.89-2.187 4.89-4.89s-2.187-4.89-4.89-4.89h-20.893v-15.998h20.893c2.703 0 4.89-2.187 4.89-4.89s-2.187-4.89-4.89-4.89h-20.893v-15.998z"/><path d="m249.803 155.655c-9.804 0-17.779 7.98-17.779 17.784v25.778c0 9.804 7.975 17.779 17.779 17.779s17.779-7.975 17.779-17.779v-25.778c0-9.804-7.975-17.784-17.779-17.784zm7.999 43.562c0 4.413-3.586 7.999-7.999 7.999s-7.999-3.586-7.999-7.999v-25.778c0-4.413 3.586-8.004 7.999-8.004s7.999 3.591 7.999 8.004z"/><path d="m150.697 165.44h12.889c2.701 0 4.89-2.187 4.89-4.89s-2.19-4.89-4.89-4.89h-12.889c-9.804 0-17.779 7.975-17.779 17.779s7.975 17.779 17.779 17.779c4.41 0 7.999 3.586 7.999 7.999s-3.589 7.999-7.999 7.999h-12.889c-2.701 0-4.89 2.187-4.89 4.89s2.19 4.89 4.89 4.89h12.889c9.804 0 17.779-7.975 17.779-17.779s-7.975-17.779-17.779-17.779c-4.41 0-7.999-3.586-7.999-7.999s3.588-7.999 7.999-7.999z"/><path d="m308.651 505.002c13.744 0 24.923-11.179 24.923-24.919v-42.411c0-13.739-11.179-24.919-24.923-24.919-39.351 0-249.255 0-277.125 0-13.744 0-24.923 11.179-24.923 24.919v42.411c0 13.739 11.179 24.919 24.923 24.919zm0-82.468c8.348 0 15.143 6.791 15.143 15.138v42.411c0 8.348-6.796 15.138-15.143 15.138h-59.555v-72.688h59.555zm-292.268 57.549v-42.411c0-8.348 6.793-15.138 15.143-15.138h207.789v72.688h-207.789c-8.35 0-15.143-6.791-15.143-15.139z"/><path d="m289.002 470.424 13.833 13.833c1.91 1.91 5.005 1.91 6.915 0s1.91-5.005 0-6.915l-13.833-13.833c4.84-7.969 3.878-18.5-3.001-25.379-8.08-8.08-21.213-8.08-29.293 0-8.075 8.075-8.075 21.218 0 29.293 6.556 6.557 16.91 8.146 25.379 3.001zm-18.464-25.379c4.259-4.259 11.203-4.26 15.463 0 4.265 4.265 4.265 11.199 0 15.463-4.26 4.26-11.203 4.26-15.463 0-4.265-4.264-4.265-11.198 0-15.463z"/><path d="m42.804 463.77h111.637c2.701 0 4.89-2.187 4.89-4.89s-2.19-4.89-4.89-4.89h-111.637c-2.701 0-4.89 2.187-4.89 4.89-.001 2.703 2.189 4.89 4.89 4.89z"/><path d="m500.507 80.097h-14.05c-1.103-3.2-2.402-6.342-3.883-9.389l9.919-9.919c1.91-1.91 1.91-5.005 0-6.915l-33.973-33.978c-.917-.917-2.159-1.433-3.457-1.433-1.299 0-2.541.516-3.457 1.433l-9.919 9.919c-3.052-1.48-6.189-2.779-9.389-3.878v-14.05c0-2.703-2.187-4.89-4.89-4.89h-48.046c-2.703 0-4.89 2.187-4.89 4.89v14.05c-3.2 1.098-6.337 2.397-9.389 3.878l-9.919-9.919c-1.834-1.834-5.081-1.834-6.915 0l-33.973 33.978c-1.91 1.91-1.91 5.005 0 6.915l9.919 9.919c-1.48 3.05-2.778 6.186-3.876 9.385-2.15-2.431-4.357-4.829-6.682-7.155-62.526-62.526-164.253-62.516-226.772 0-62.521 62.521-62.521 164.253 0 226.774 52.678 52.678 133.878 61.39 196.026 24.02 25.879 30.404 103.58 121.694 113.109 132.889 19.987 23.478 55.802 24.971 77.659 3.114 21.813-21.813 20.377-57.662-3.114-77.659-11.822-10.062-99.678-84.84-132.88-113.101 14.037-23.367 21.548-49.572 22.634-75.996l4.784-4.784c3.052 1.485 6.194 2.784 9.389 3.882v14.05c0 2.703 2.187 4.89 4.89 4.89h48.046c2.703 0 4.89-2.187 4.89-4.89v-14.05c3.195-1.098 6.337-2.397 9.389-3.882l9.919 9.919c1.91 1.91 5.005 1.91 6.915 0l33.973-33.973c1.91-1.91 1.91-5.005 0-6.915l-9.919-9.919c1.48-3.047 2.779-6.189 3.883-9.389h14.05c2.703 0 4.89-2.187 4.89-4.89v-48.041c-.001-2.703-2.188-4.89-4.891-4.89zm-406.727 212.701c-58.705-58.71-58.705-154.234 0-212.944 58.716-58.711 154.23-58.702 212.942 0 .08.08.152.164.231.244h-.685c-2.703 0-4.89 2.187-4.89 4.89v48.042c0 2.703 2.187 4.89 4.89 4.89h14.05c1.098 3.2 2.397 6.337 3.878 9.389l-9.919 9.919c-1.91 1.91-1.91 5.005 0 6.915l33.973 33.973c.544.544 1.192.89 1.873 1.124-2.908 34.147-17.329 67.485-43.401 93.56-58.715 58.698-154.235 58.708-212.942-.002zm197.393 25.573c15.807-10.893 29.566-24.337 41.123-41.121l33.599 28.599-46.122 46.122zm175.571 134.449c-17.943 17.943-47.066 16.527-63.295-2.541l-77.318-90.837 47.234-47.234 90.837 77.318c19.084 16.24 20.46 45.377 2.542 63.294zm28.873-324.682h-12.727c-2.168 0-4.073 1.423-4.69 3.5-1.461 4.943-3.448 9.742-5.903 14.274-1.031 1.905-.692 4.26.841 5.788l8.983 8.983-27.058 27.058-8.983-8.983c-1.533-1.533-3.882-1.877-5.788-.84-4.546 2.464-9.35 4.451-14.269 5.903-2.077.611-3.505 2.521-3.505 4.69v12.727h-38.266v-12.728c0-2.168-1.428-4.078-3.505-4.69-4.919-1.452-9.723-3.438-14.269-5.903-1.901-1.036-4.255-.692-5.788.84l-8.983 8.983-27.058-27.058 8.983-8.983c1.533-1.528 1.872-3.882.84-5.788-2.455-4.537-4.441-9.336-5.898-14.269-.611-2.077-2.521-3.505-4.69-3.505h-12.727v-38.26h12.727c2.168 0 4.078-1.428 4.69-3.505 1.457-4.933 3.443-9.732 5.898-14.269 1.032-1.905.692-4.26-.84-5.788l-8.983-8.983 27.058-27.063 8.983 8.983c1.538 1.533 3.887 1.882 5.788.84 4.537-2.455 9.336-4.441 14.269-5.898 2.077-.611 3.505-2.521 3.505-4.69v-12.726h38.266v12.727c0 2.168 1.428 4.078 3.505 4.69 4.933 1.457 9.732 3.443 14.269 5.898 1.905 1.036 4.255.692 5.788-.84l8.983-8.983 27.058 27.063-8.983 8.983c-1.533 1.528-1.872 3.882-.841 5.788 2.455 4.532 4.441 9.331 5.903 14.274.616 2.077 2.521 3.5 4.69 3.5h12.727z"/><path d="m403.368 59.161c-27.473 0-49.828 22.354-49.828 49.828 0 27.497 22.354 49.866 49.828 49.866 27.497 0 49.866-22.368 49.866-49.866 0-27.474-22.368-49.828-49.866-49.828zm0 89.913c-22.082 0-40.047-17.985-40.047-40.086 0-22.082 17.965-40.047 40.047-40.047 22.101 0 40.086 17.965 40.086 40.047 0 22.102-17.985 40.086-40.086 40.086z"/></g></g></g><g id="Layer_1"/></svg>