<svg id="Layer_1" viewBox="0 0 512 512" xmlns="http://www.w3.org/2000/svg" xmlns:xlink="http://www.w3.org/1999/xlink" data-name="Layer 1"><linearGradient id="linear-gradient" gradientUnits="userSpaceOnUse" x1="14.485" x2="497.515" y1="256" y2="256"><stop offset="0" stop-color="#0056e9"/><stop offset=".008" stop-color="#0057e9"/><stop offset=".304" stop-color="#007de2"/><stop offset=".577" stop-color="#0098dc"/><stop offset=".818" stop-color="#00a9d9"/><stop offset="1" stop-color="#00afd8"/></linearGradient><path d="m35.034 310.349a7 7 0 1 1 -13.6 3.33 242.762 242.762 0 0 1 -6.949-57.679 241.518 241.518 0 0 1 241.515-241.514 243.062 243.062 0 0 1 40.469 3.414l-4.661-7.026a7 7 0 0 1 11.668-7.742l14.031 21.147a7 7 0 0 1 -2.081 9.782l-21.426 13.606a7 7 0 1 1 -7.506-11.822l6.741-4.28a228.965 228.965 0 0 0 -37.235-3.075c-125.45 0-227.51 102.061-227.51 227.51a228.816 228.816 0 0 0 6.544 54.349zm455.532-112.025a7 7 0 1 0 -13.6 3.326 229.115 229.115 0 0 1 6.544 54.35c0 125.451-102.06 227.511-227.51 227.511a229.488 229.488 0 0 1 -37.252-3.056l6.765-4.3a7 7 0 0 0 -7.513-11.818l-21.4 13.606a7 7 0 0 0 -2.082 9.774l14 21.146a7 7 0 1 0 11.675-7.73l-4.638-7a243.549 243.549 0 0 0 40.445 3.382 241.518 241.518 0 0 0 241.515-241.515 243.028 243.028 0 0 0 -6.949-57.676zm-267.079 102.182h-24.549a7 7 0 0 1 -7-7v-34.048a7 7 0 0 1 7-7h24.549a7 7 0 0 1 7 7v34.042a7 7 0 0 1 -7 7.006zm-7-34.046h-10.548v20.04h10.545zm20.24 27.044v-75.004a7 7 0 0 1 7-7h24.548a7 7 0 0 1 7 7v75a7 7 0 0 1 -7 7h-24.549a7 7 0 0 1 -7.002-7zm14-7h10.544v-61h-10.543zm30.812 7v-53.633a7 7 0 0 1 7-7h24.52a7 7 0 0 1 7 7v53.629a7 7 0 0 1 -7 7h-24.52a7 7 0 0 1 -6.999-7zm14-7h10.521v-39.631h-10.516zm107.31-118.585a7 7 0 1 0 -12.1 7.047l2.608 4.479a7 7 0 0 0 12.1-7.047zm-43.859-2.544a7 7 0 0 0 -9.561 2.574l-2.579 4.479a7 7 0 1 0 12.135 6.987l2.579-4.48a7 7 0 0 0 -2.574-9.56zm-12.552-12.593a7 7 0 0 0 -9.573-2.527l-4.479 2.609a7 7 0 1 0 7.047 12.1l4.479-2.608a7 7 0 0 0 2.526-9.574zm73.5.082-4.479-2.609a7 7 0 0 0 -7.047 12.1l4.479 2.608a7 7 0 1 0 7.047-12.1zm-43.776-51.494a7 7 0 0 0 7-7v-5.19a7 7 0 0 0 -14 0v5.188a7 7 0 0 0 7 7.002zm-240.324 267.989a8.277 8.277 0 1 1 7.8-11.089 7 7 0 1 0 13.193-4.693 22.271 22.271 0 0 0 -13.991-13.647v-5.664a7 7 0 0 0 -14 0v5.662a22.282 22.282 0 0 0 7 43.435 8.277 8.277 0 1 1 -7.775 11.061 7 7 0 0 0 -13.194 4.693 22.313 22.313 0 0 0 13.967 13.668v5.671a7 7 0 0 0 14 0v-5.662a22.282 22.282 0 0 0 -7-43.435zm196.577-250.867 4.479 2.579a7 7 0 1 0 6.988-12.134l-4.478-2.58a7 7 0 0 0 -6.989 12.135zm-2.742 24.179h5.188a7 7 0 1 0 0-14h-5.188a7 7 0 0 0 0 14zm-24.436-7a70.924 70.924 0 1 1 70.925 70.895 71 71 0 0 1 -70.925-70.897zm14 0a56.92 56.92 0 1 0 56.921-56.92 56.97 56.97 0 0 0 -56.917 56.918zm-112.475 240.69a70.91 70.91 0 1 1 -70.924-70.924 70.991 70.991 0 0 1 70.924 70.924zm-14 0a56.906 56.906 0 1 0 -56.92 56.891 56.985 56.985 0 0 0 56.916-56.891zm-56.92 95.784a95.782 95.782 0 0 1 -46.768-179.374l-18.281-4.613a7 7 0 0 1 -5.215-5.817 190.613 190.613 0 0 1 0-52.656 7 7 0 0 1 5.215-5.814l32.222-8.135a156.377 156.377 0 0 1 16.346-39.407l-17.061-28.537a7.006 7.006 0 0 1 .429-7.818 192.506 192.506 0 0 1 37.243-37.242 7 7 0 0 1 7.82-.426l28.508 17.057a156.96 156.96 0 0 1 39.435-16.348l8.1-32.21a7 7 0 0 1 5.843-5.23 193.932 193.932 0 0 1 52.635 0 7 7 0 0 1 5.843 5.23l4.517 17.9a95.789 95.789 0 1 1 130.241 130.543l18.32 4.622a7 7 0 0 1 5.22 5.838 193.8 193.8 0 0 1 0 52.61 7 7 0 0 1 -5.221 5.841l-32.243 8.133a156.681 156.681 0 0 1 -16.331 39.408l17.041 28.539a7 7 0 0 1 -.434 7.822 193.77 193.77 0 0 1 -37.2 37.2 7 7 0 0 1 -7.822.434l-28.544-17.035a157.533 157.533 0 0 1 -39.415 16.356l-8.123 32.208a7 7 0 0 1 -5.842 5.23 194.469 194.469 0 0 1 -52.635 0 7 7 0 0 1 -5.844-5.23l-4.511-17.924a95.881 95.881 0 0 1 -83.492 48.845zm94.286-112.863a106.464 106.464 0 0 0 129.103-129.327 96.059 96.059 0 0 1 -77.358-77.226 106.462 106.462 0 0 0 -129.107 129.317 96.073 96.073 0 0 1 77.358 77.236zm170.957-131.123a95.645 95.645 0 0 1 -24.923 3.293c-.747 0-1.492-.011-2.235-.028a120.444 120.444 0 0 1 -142.307 142.552q.03 1.19.031 2.385a95.539 95.539 0 0 1 -3.36 25.157v.006l7.957 31.632a180.573 180.573 0 0 0 39.5 0l7.989-31.643a7 7 0 0 1 5.19-5.1 143.648 143.648 0 0 0 43.061-17.868 7 7 0 0 1 7.282-.063l28.03 16.734a179.66 179.66 0 0 0 27.918-27.916l-16.734-28.032a7 7 0 0 1 .063-7.281 142.885 142.885 0 0 0 17.838-43.049 7 7 0 0 1 5.113-5.2l31.657-7.979a179.756 179.756 0 0 0 0-39.486l-31.633-7.979c-.149-.039-.292-.088-.437-.135zm-106.731-92.49a81.808 81.808 0 1 0 81.808-81.808 81.886 81.886 0 0 0 -81.808 81.808zm-183.471 148.185a95.536 95.536 0 0 1 24.955-3.305c.746 0 1.489.011 2.231.028a120.475 120.475 0 0 1 142.31-142.533q-.029-1.185-.03-2.375a95.589 95.589 0 0 1 3.374-25.215l-7.973-31.58a180.263 180.263 0 0 0 -39.5 0l-7.957 31.631a7 7 0 0 1 -5.193 5.108 143.059 143.059 0 0 0 -43.081 17.864 7 7 0 0 1 -7.3.063l-28-16.758a178.577 178.577 0 0 0 -27.939 27.94l16.76 28.028a7 7 0 0 1 -.066 7.3 142.552 142.552 0 0 0 -17.862 43.05 7 7 0 0 1 -5.111 5.194l-31.643 7.98a177.209 177.209 0 0 0 0 39.482l31.641 7.981c.133.033.257.077.384.117zm106.763 92.507a81.794 81.794 0 1 0 -81.808 81.78 81.9 81.9 0 0 0 81.808-81.78zm199.817-247.694a7 7 0 0 0 0 14h5.159a7 7 0 1 0 0-14zm-11.6-10.169a7 7 0 0 0 9.562 2.573l4.478-2.579a7 7 0 0 0 -6.988-12.135l-4.479 2.58a7 7 0 0 0 -2.568 9.563zm-56.434-15.108a7 7 0 0 0 12.135-6.99l-2.579-4.478a7 7 0 1 0 -12.135 6.988zm43.845 2.555a7 7 0 0 0 9.574-2.526l2.608-4.479a7 7 0 0 0 -12.1-7.047l-2.608 4.479a7 7 0 0 0 2.526 9.573zm-17.112 83.186a7 7 0 0 0 7-7v-5.161a7 7 0 0 0 -14 0v5.159a7 7 0 0 0 7 7.002zm-3.493-47.393 11.821 6.8a7 7 0 1 0 6.984-12.137l-8.31-4.784v-18.909a7 7 0 0 0 -14 0v22.961a7 7 0 0 0 3.505 6.069z" fill="url(#linear-gradient)"/></svg>