<svg id="Layer_1" enable-background="new 0 0 512 512" viewBox="0 0 512 512" xmlns="http://www.w3.org/2000/svg"><g><g><path d="m256.01 347.22c-3.17 0-6.34-.16-9.49-.49-6.91-.72-12.18-6.05-12.82-12.96l-1.16-12.46c-.17-1.88-1.53-2.63-2.11-2.87-.58-.23-2.07-.65-3.51.56l-9.56 8.07c-5.31 4.47-12.8 4.58-18.23.25-5.14-4.1-9.84-8.77-13.98-13.87-4.38-5.39-4.34-12.89.1-18.23l7.99-9.63c1.2-1.45.77-2.95.53-3.52-.24-.58-1-1.93-2.88-2.09l-12.47-1.06c-6.92-.59-12.29-5.82-13.06-12.73-.73-6.53-.75-13.15-.07-19.68.72-6.91 6.05-12.18 12.96-12.82l12.46-1.16c1.88-.17 2.63-1.53 2.87-2.11s.65-2.07-.56-3.52l-8.07-9.56c-4.48-5.31-4.58-12.8-.25-18.23 4.1-5.14 8.77-9.84 13.87-13.98 5.39-4.38 12.89-4.34 18.23.1l9.63 7.99c1.45 1.21 2.94.78 3.52.53.57-.24 1.93-1 2.09-2.88l1.06-12.47c.59-6.92 5.82-12.29 12.72-13.06 6.53-.73 13.15-.75 19.69-.07 6.91.72 12.18 6.05 12.82 12.96l1.16 12.46c.17 1.88 1.53 2.63 2.11 2.87s2.07.66 3.52-.56l9.56-8.07c5.31-4.48 12.8-4.58 18.23-.25 5.14 4.1 9.84 8.77 13.98 13.87 4.38 5.39 4.34 12.89-.1 18.23l-7.99 9.63c-1.2 1.45-.77 2.95-.53 3.52s1 1.93 2.88 2.09l12.48 1.06c6.92.59 12.29 5.82 13.06 12.72.73 6.53.75 13.16.07 19.69-.72 6.91-6.05 12.18-12.96 12.82l-12.46 1.16c-1.88.17-2.63 1.53-2.87 2.11s-.65 2.07.56 3.51l8.07 9.56c4.48 5.31 4.58 12.8.25 18.23-4.1 5.14-8.77 9.84-13.87 13.98-5.39 4.38-12.89 4.34-18.23-.1l-9.63-7.99c-1.45-1.21-2.94-.78-3.52-.53-.57.24-1.93 1-2.09 2.88l-1.06 12.48c-.59 6.92-5.82 12.29-12.72 13.06-3.41.38-6.82.56-10.22.56zm-26.88-39.04c1.71 0 3.44.33 5.09 1 4.64 1.9 7.81 6.19 8.28 11.2l1.16 12.46c.2 2.13 1.76 3.72 3.9 3.94 5.82.61 11.72.58 17.54-.07 2.13-.24 3.69-1.83 3.87-3.97l1.06-12.48c.42-5.01 3.56-9.32 8.19-11.26s9.9-1.15 13.77 2.06l9.63 7.99c1.65 1.37 3.88 1.38 5.54.03 4.55-3.69 8.71-7.88 12.36-12.46 1.34-1.67 1.31-3.9-.08-5.54l-8.07-9.56c-3.24-3.84-4.07-9.11-2.17-13.75s6.19-7.81 11.2-8.28l12.46-1.16c2.13-.2 3.72-1.76 3.94-3.89.6-5.82.58-11.72-.07-17.54-.24-2.13-1.83-3.69-3.97-3.87l-12.48-1.06c-5.01-.42-9.32-3.56-11.26-8.19s-1.15-9.9 2.06-13.77l7.99-9.63c1.37-1.65 1.38-3.88.03-5.54-3.69-4.54-7.88-8.7-12.46-12.36-1.68-1.34-3.9-1.31-5.54.07l-9.56 8.07c-3.84 3.24-9.11 4.07-13.75 2.17s-7.81-6.19-8.28-11.2l-1.16-12.46c-.2-2.13-1.76-3.72-3.9-3.94-5.82-.61-11.72-.58-17.54.07-2.13.24-3.69 1.83-3.87 3.97l-1.06 12.47c-.43 5.01-3.56 9.32-8.19 11.26-4.62 1.94-9.9 1.15-13.77-2.06l-9.63-7.99c-1.65-1.37-3.88-1.38-5.54-.03-4.55 3.69-8.7 7.88-12.36 12.46-1.34 1.67-1.31 3.9.08 5.54l8.07 9.56c3.24 3.84 4.07 9.11 2.17 13.75s-6.19 7.81-11.2 8.28l-12.46 1.16c-2.13.2-3.72 1.76-3.94 3.9-.6 5.82-.58 11.72.07 17.54.24 2.13 1.83 3.69 3.97 3.87l12.48 1.06c5.01.43 9.32 3.56 11.26 8.19 1.94 4.62 1.15 9.9-2.06 13.77l-7.99 9.63c-1.37 1.65-1.38 3.88-.03 5.54 3.69 4.55 7.88 8.7 12.46 12.36 1.68 1.34 3.9 1.31 5.54-.07l9.56-8.07c2.47-2.08 5.54-3.17 8.66-3.17zm26.87-11.26c-22.56 0-40.92-18.36-40.92-40.92s18.36-40.92 40.92-40.92 40.92 18.36 40.92 40.92-18.35 40.92-40.92 40.92zm0-71.84c-17.05 0-30.92 13.87-30.92 30.92s13.87 30.92 30.92 30.92 30.92-13.87 30.92-30.92-13.87-30.92-30.92-30.92z" fill="#1a3b70"/></g><g><path d="m208.21 460.49c-1.7 0-3.35-.86-4.29-2.42l-14.38-23.88c-1.42-2.37-.66-5.44 1.71-6.86l23.88-14.38c2.37-1.42 5.44-.66 6.86 1.71s.66 5.44-1.71 6.86l-14.52 8.74c26.22 7.54 54.14 9.07 81.19 4.42 2.72-.46 5.31 1.36 5.78 4.08s-1.36 5.31-4.08 5.78c-27.86 4.79-56.6 3.36-83.69-4.11l7.52 12.5c1.42 2.37.66 5.44-1.71 6.86-.79.47-1.68.7-2.56.7zm-120.53-119.53c-1.87 0-3.66-1.05-4.52-2.85-19-39.91-23.53-85.53-12.78-128.45 9.94-39.68 32.5-75.31 63.93-101.28l-14.6-1.01c-2.75-.19-4.83-2.58-4.64-5.33s2.58-4.82 5.33-4.64l27.81 1.93c1.32.09 2.56.71 3.43 1.71s1.31 2.31 1.22 3.63l-1.93 27.81c-.19 2.75-2.59 4.83-5.33 4.64-2.75-.19-4.83-2.58-4.64-5.33l1.17-16.87c-64.83 52.4-85.93 143.27-49.93 218.9 1.19 2.49.13 5.48-2.37 6.66-.7.32-1.43.48-2.15.48zm340.61-9.1c-1.78 0-3.51-.96-4.41-2.64l-13.17-24.57c-1.3-2.43-.39-5.46 2.05-6.77 2.44-1.3 5.46-.39 6.77 2.05l8.01 14.95c26.03-75.63-.55-159.59-66.29-206.53-2.25-1.6-2.77-4.73-1.16-6.97 1.6-2.25 4.73-2.77 6.98-1.16 68.79 49.12 96.95 136.67 70.6 215.96l12.84-6.88c2.44-1.3 5.47-.39 6.77 2.05 1.3 2.43.39 5.46-2.05 6.77l-24.57 13.17c-.77.38-1.57.57-2.37.57z" fill="#f88125"/></g><g><path d="m330.43 133.9h-148.86c-4.81 0-8.72-3.91-8.72-8.72v-105.46c0-4.81 3.91-8.72 8.72-8.72h19.93c4.81 0 8.72 3.91 8.72 8.72v36.06l52.9-18.31c2.67-.92 5.62-.5 7.91 1.13s3.66 4.29 3.66 7.11v10.07l52.9-18.31c2.66-.92 5.62-.5 7.91 1.13s3.66 4.29 3.66 7.11v79.47c-.01 4.81-3.92 8.72-8.73 8.72zm-55.75-10h54.47v-76.39l-54.47 18.85zm-64.47 0h54.47v-76.39l-54.47 18.85zm-27.36 0h17.36v-102.9h-17.36z" fill="#1a3b70"/></g><g><path d="m248.45 105.4h-22c-2.76 0-5-2.24-5-5v-22c0-2.76 2.24-5 5-5h22c2.76 0 5 2.24 5 5v22c0 2.76-2.24 5-5 5zm-17-10h12v-12h-12z" fill="#1a3b70"/></g><g><path d="m312.92 105.4h-22c-2.76 0-5-2.24-5-5v-22c0-2.76 2.24-5 5-5h22c2.76 0 5 2.24 5 5v22c0 2.76-2.24 5-5 5zm-17-10h12v-12h-12z" fill="#1a3b70"/></g><g><path d="m177.85 27.46h27.36v10h-27.36z" fill="#1a3b70"/></g><g><path d="m139.32 501h-106.64c-6.37 0-11.56-5.19-11.56-11.56v-68.5h10v68.5c0 .84.71 1.56 1.56 1.56h106.65c.85 0 1.56-.71 1.56-1.56v-68.5h10v68.5c-.01 6.37-5.19 11.56-11.57 11.56z" fill="#1a3b70"/></g><g><path d="m156 406.67h-140c-1.57 0-3.04-.73-3.99-1.98s-1.25-2.87-.82-4.38l8.06-28.44c1.85-6.53 7.65-10.91 14.43-10.91h104.64c6.78 0 12.58 4.38 14.43 10.91l8.06 28.44c.43 1.51.12 3.13-.82 4.38-.95 1.24-2.42 1.98-3.99 1.98zm-133.39-10h126.77l-6.25-22.07c-.63-2.21-2.51-3.64-4.81-3.64h-104.64c-2.3 0-4.18 1.43-4.81 3.64z" fill="#1a3b70"/></g><g><path d="m79.1 496h-10v-47.26h-20.35v47.26h-10v-49.76c0-4.13 3.36-7.5 7.5-7.5h25.35c4.14 0 7.5 3.36 7.5 7.5z" fill="#1a3b70"/></g><g><path d="m125.93 481.04h-29.27c-4.04 0-7.32-3.28-7.32-7.32v-27.66c0-4.04 3.28-7.32 7.32-7.32h29.27c4.04 0 7.32 3.28 7.32 7.32v27.66c0 4.04-3.28 7.32-7.32 7.32zm-26.59-10h23.91v-22.3h-23.91z" fill="#1a3b70"/></g><g><path d="m132.59 430.07c-15.66 0-28.41-12.74-28.41-28.41h10c0 10.15 8.26 18.41 18.41 18.41s18.41-8.25 18.41-18.4h10c0 15.66-12.74 28.4-28.41 28.4z" fill="#1a3b70"/></g><g><path d="m85.78 430.07c-15.66 0-28.41-12.74-28.41-28.41h10c0 10.15 8.26 18.41 18.41 18.41s18.41-8.26 18.41-18.41h10c0 15.67-12.74 28.41-28.41 28.41z" fill="#1a3b70"/></g><g><path d="m39.41 430.07c-15.66 0-28.41-12.74-28.41-28.41h10c0 10.15 8.26 18.41 18.41 18.41s18.41-8.26 18.41-18.41h10c-.01 15.67-12.75 28.41-28.41 28.41z" fill="#1a3b70"/></g><g><path d="m46.47 378.81h35.85v10h-35.85z" fill="#1a3b70" transform="matrix(.088 -.996 .996 .088 -323.603 414.071)"/></g><g><path d="m102.61 365.89h10v35.85h-10z" fill="#1a3b70" transform="matrix(.996 -.088 .088 .996 -33.483 11.006)"/></g><g><path d="m350.2 422.94h-32.39v-10h32.39c2.44 0 4.43-1.99 4.43-4.43v-27.97h10v27.97c0 7.96-6.48 14.43-14.43 14.43z" fill="#1a3b70"/></g><g><path d="m485.44 456.56h-1.8v-10h1.8c3.07 0 5.56-2.5 5.56-5.56v-73.55c0-3.07-2.5-5.56-5.56-5.56h-97.51c-3.07 0-5.56 2.5-5.56 5.56v79.11h69.37v10h-89.62v-10h10.25v-61.01h-27.47c-3.47 0-6.3 1.67-7.99 4.7l-12.95 23.26c-.81 1.45-1.15 2.78-1.15 4.45v24.19c0 2.44 1.99 4.43 4.43 4.43h2.93v10h-2.93c-7.96 0-14.43-6.47-14.43-14.43v-24.19c0-3.39.77-6.35 2.42-9.31l12.95-23.26c3.43-6.16 9.68-9.83 16.73-9.83h27.47v-8.1c0-8.58 6.98-15.56 15.56-15.56h97.51c8.58 0 15.56 6.98 15.56 15.56v73.55c-.01 8.57-6.99 15.55-15.57 15.55z" fill="#1a3b70"/></g><g><path d="m346.15 472.53c-11.56 0-20.97-9.41-20.97-20.97s9.41-20.97 20.97-20.97 20.97 9.41 20.97 20.97-9.41 20.97-20.97 20.97zm0-31.95c-6.05 0-10.97 4.92-10.97 10.97s4.92 10.97 10.97 10.97 10.97-4.92 10.97-10.97c0-6.04-4.93-10.97-10.97-10.97z" fill="#1a3b70"/></g><g><path d="m467.67 472.53c-11.56 0-20.97-9.41-20.97-20.97s9.41-20.97 20.97-20.97 20.97 9.41 20.97 20.97-9.41 20.97-20.97 20.97zm0-31.95c-6.05 0-10.97 4.92-10.97 10.97s4.92 10.97 10.97 10.97 10.97-4.92 10.97-10.97c0-6.04-4.92-10.97-10.97-10.97z" fill="#1a3b70"/></g></g></svg>