<svg id="Icons" viewBox="0 0 60 60" xmlns="http://www.w3.org/2000/svg"><path d="m41 55s-5-1-5-6v-1h-12v1c0 5-5 6-5 6v1h22z" fill="#b5cddd"/><path d="m59 43v4a2.006 2.006 0 0 1 -2 2h-54a2.006 2.006 0 0 1 -2-2v-4l1-1h56z" fill="#cfe3ed"/><path d="m59 3v40h-58v-40a2.006 2.006 0 0 1 2-2h54a2.006 2.006 0 0 1 2 2z" fill="#4982c8"/><path d="m19 55h22a3 3 0 0 1 3 3 1 1 0 0 1 -1 1h-26a1 1 0 0 1 -1-1 3 3 0 0 1 3-3z" fill="#cfe3ed"/><rect fill="#3b6a9d" height="34" rx="1" width="50" x="5" y="5"/><path d="m30 22v17h-24a1 1 0 0 1 -1-1v-16z" fill="#4982c8"/><path d="m55 6v16h-25v-17h24a1 1 0 0 1 1 1z" fill="#4982c8"/><circle cx="43" cy="16" fill="#e4f0ff" r="2"/><g fill="#373737"><path d="m54 40a2 2 0 0 0 2-2v-32a2 2 0 0 0 -2-2h-48a2 2 0 0 0 -2 2v32a2 2 0 0 0 2 2zm-48-17h23v15h-23zm25 15v-15h23v15zm23-17h-23v-15h23zm-25-15v15h-23v-15z"/><path d="m40 16a3 3 0 1 0 4-2.816v-4.184a1 1 0 0 0 -2 0v4.184a3 3 0 0 0 -2 2.816zm3-1a1 1 0 1 1 -1 1 1 1 0 0 1 1-1z"/><path d="m1 37a1 1 0 0 0 -1 1v9a3 3 0 0 0 3 3h19.9c-.59 3.233-3.933 3.984-4.1 4.02a4 4 0 0 0 -3.8 3.98 2 2 0 0 0 2 2h26a2 2 0 0 0 2-2 4 4 0 0 0 -3.8-3.98c-.157-.032-3.514-.753-4.1-4.02h19.9a3 3 0 0 0 3-3v-44a3 3 0 0 0 -3-3h-54a3 3 0 0 0 -3 3v31a1 1 0 0 0 2 0v-31a1 1 0 0 1 1-1h54a1 1 0 0 1 1 1v39h-56v-4a1 1 0 0 0 -1-1zm42 21h-26a2 2 0 0 1 2-2h22a2.005 2.005 0 0 1 2 2zm-5.918-4h-14.166a6.6 6.6 0 0 0 2.014-4h10.14a6.6 6.6 0 0 0 2.014 4zm20.918-10v3a1 1 0 0 1 -1 1h-54a1 1 0 0 1 -1-1v-3z"/><path d="m17 19a5 5 0 0 0 4.33-7.5 1 1 0 0 0 -1.73 1 3 3 0 1 1 -5.2 0 1 1 0 1 0 -1.73-1 5 5 0 0 0 4.33 7.5z"/><path d="m17 13a1 1 0 0 0 1-1v-2a1 1 0 0 0 -2 0v2a1 1 0 0 0 1 1z"/><path d="m19.851 30.475a1 1 0 0 0 -.851-.475h-2.382l1.282-2.553a1 1 0 0 0 -1.79-.894l-2 4a1 1 0 0 0 .89 1.447h2.382l-1.277 2.553a1 1 0 0 0 1.79.894l2-4a1 1 0 0 0 -.044-.972z"/><path d="m47.33 28.5a1 1 0 0 0 -1.366-.366l-1.964 1.134v-2.268a1 1 0 0 0 -2 0v2.268l-1.964-1.134a1 1 0 0 0 -1 1.732l1.964 1.134-1.964 1.134a1 1 0 1 0 1 1.732l1.964-1.134v2.268a1 1 0 0 0 2 0v-2.268l1.964 1.134a1 1 0 0 0 1-1.732l-1.964-1.134 1.964-1.134a1 1 0 0 0 .366-1.366z"/></g></svg>