<svg id="Layer_1" enable-background="new 0 0 66 66" viewBox="0 0 66 66" xmlns="http://www.w3.org/2000/svg"><g><g><g><g><path d="m31.48 15.97c-.01-2.31-.01-4.85-.02-7.16h-8.27c-.28 2.51-.32 5.05-.12 7.57z" fill="#fff"/></g><g><g><path d="m43.61 18.55c.54-.71 1.08-1.42 1.62-2.13.45-.59.91-1.19 1.49-1.66.29-.23.61-.43.97-.5.75-.15 1.51.28 2.06.82.41.39.76.86.96 1.4.19.54.22 1.14-.01 1.67-.19.44-.54.79-.87 1.13-.95.95-1.89 1.89-2.84 2.84z" fill="#ffad00"/></g><g><path d="m12.29 18.55c-.54-.71-1.08-1.42-1.62-2.13-.45-.59-.91-1.19-1.49-1.66-.29-.23-.61-.43-.97-.5-.75-.15-1.51.28-2.06.82-.41.39-.76.86-.96 1.4-.19.54-.21 1.15.01 1.67.19.44.54.79.87 1.13l2.84 2.84z" fill="#ffad00"/></g></g><g><path d="m23.06 16.85c-.25 0-.46-.19-.48-.45-.2-2.54-.16-5.12.12-7.66.03-.25.23-.43.48-.43h8.27c.27 0 .48.22.48.48l.02 7.16c0 .26-.2.47-.46.49l-8.41.4c0 .01-.01.01-.02.01zm.56-7.56c-.22 2.18-.25 4.39-.11 6.57l7.48-.36-.02-6.21z"/></g><g><g><path d="m46.98 22.6c-.14 0-.26-.06-.35-.15l-3.37-3.56c-.16-.17-.18-.44-.03-.63l1.62-2.13c.46-.61.94-1.24 1.57-1.74.41-.32.79-.52 1.18-.59.8-.16 1.69.18 2.49.94.51.49.88 1.02 1.08 1.58.25.68.24 1.42-.02 2.02-.23.53-.63.93-.98 1.28l-2.84 2.84c-.1.09-.22.14-.35.14zm-2.74-4.08 2.75 2.9 2.49-2.49c.3-.3.62-.62.77-.98.16-.38.16-.86 0-1.31-.15-.41-.43-.82-.84-1.21-.26-.25-.95-.83-1.63-.69-.23.05-.48.18-.76.4-.54.43-.98 1.01-1.4 1.57z"/></g><g><path d="m8.91 22.6c-.13 0-.25-.05-.34-.14l-2.84-2.84c-.35-.35-.75-.75-.98-1.28-.25-.6-.26-1.34-.01-2.02.2-.56.56-1.09 1.08-1.58.8-.77 1.68-1.1 2.49-.94.39.08.77.27 1.18.59.63.51 1.11 1.13 1.57 1.74l1.62 2.13c.14.19.13.45-.03.63l-3.37 3.56c-.1.09-.23.14-.37.15.01 0 .01 0 0 0zm-1-7.88c-.61 0-1.19.48-1.42.71-.41.39-.69.8-.84 1.21-.17.46-.17.93 0 1.31.16.36.47.67.77.98l2.49 2.49 2.75-2.9-1.37-1.8c-.43-.56-.87-1.14-1.4-1.57-.28-.22-.53-.35-.76-.4-.08-.02-.15-.03-.22-.03z"/></g></g><g><path d="m43.25 59.16c-8.79 6.4-21.73 6.43-30.55.05-8.81-6.38-12.85-18.66-9.52-29.02 1.29-4.04 3.68-7.68 6.74-10.61 3.07-2.93 6.84-5.17 10.92-6.4 4.05-1.22 8.35-1.38 12.48-.45 4.15.94 8.05 2.93 11.32 5.65 3.27 2.74 5.93 6.26 7.52 10.23.2.49.38 1 .54 1.51 3.35 10.34-.65 22.63-9.45 29.04z" fill="#8d77e6"/></g><g><path d="m29.19 63.95c-5.83.26-11.75-1.31-16.49-4.74-8.81-6.39-12.85-18.66-9.53-29.02 1.29-4.04 3.68-7.68 6.74-10.61 3.08-2.93 6.84-5.16 10.92-6.4 2.71-.82 5.54-1.16 8.34-1.02-1.98.1-3.94.44-5.86 1.02-4.08 1.24-7.85 3.47-10.92 6.4-3.06 2.93-5.45 6.57-6.74 10.61-3.32 10.36.71 22.64 9.53 29.02 4.08 2.94 9.01 4.51 14.01 4.74z" fill="#fff"/></g><g><path d="m27.94 64.48c-5.51 0-11.02-1.63-15.52-4.88-9.02-6.53-13.1-18.96-9.7-29.56 1.28-4 3.66-7.74 6.87-10.81 3.16-3.02 7.01-5.27 11.11-6.52 4.14-1.25 8.54-1.41 12.73-.46 4.16.94 8.14 2.93 11.52 5.76 3.43 2.88 6.08 6.48 7.66 10.42.2.5.39 1.02.56 1.54 3.43 10.59-.61 23.03-9.62 29.59-4.53 3.27-10.07 4.92-15.61 4.92zm.01-51.87c-2.35 0-4.7.34-6.97 1.03-3.96 1.2-7.67 3.38-10.73 6.29-3.1 2.96-5.38 6.56-6.62 10.41-3.27 10.21.66 22.19 9.35 28.48s21.3 6.27 29.98-.05c8.68-6.31 12.58-18.3 9.27-28.5-.16-.5-.34-.99-.53-1.48-1.52-3.79-4.07-7.26-7.38-10.04-3.26-2.73-7.1-4.65-11.11-5.55-1.73-.4-3.49-.59-5.26-.59z"/></g><g><g><path d="m40.31 55.1c-7.11 5.17-17.56 5.19-24.68.04-7.13-5.15-10.38-15.07-7.7-23.45 1.05-3.26 2.98-6.21 5.45-8.57 2.48-2.37 5.53-4.18 8.82-5.17 3.27-.99 6.75-1.12 10.08-.37 3.36.76 6.51 2.36 9.14 4.57 2.64 2.22 4.79 5.05 6.07 8.27.16.4.31.81.44 1.22 2.73 8.36-.5 18.29-7.62 23.46z" fill="#fff"/></g><g><path d="m27.94 59.5c-4.47 0-8.94-1.32-12.59-3.96-7.32-5.3-10.63-15.39-7.88-23.99 1.04-3.25 2.97-6.28 5.57-8.77 2.57-2.45 5.69-4.28 9.02-5.29 3.36-1.01 6.93-1.14 10.33-.38 3.37.76 6.61 2.38 9.35 4.67 2.78 2.33 4.93 5.26 6.21 8.46.16.41.31.83.45 1.25 2.79 8.59-.5 18.69-7.81 24.01-3.66 2.66-8.15 4-12.65 4zm.01-41.91c-1.89 0-3.78.28-5.61.83-3.19.97-6.17 2.72-8.63 5.06-2.49 2.38-4.33 5.28-5.32 8.37-2.63 8.22.53 17.85 7.52 22.91s17.14 5.04 24.11-.04c6.98-5.08 10.12-14.72 7.46-22.93-.13-.4-.27-.8-.43-1.19-1.22-3.05-3.27-5.84-5.94-8.07-2.62-2.19-5.72-3.74-8.94-4.47-1.38-.32-2.8-.47-4.22-.47z"/></g><g><path d="m30.69 41.83c-1.58 1.15-3.89 1.15-5.47.01s-2.3-3.34-1.71-5.2c.23-.72.66-1.38 1.21-1.9.55-.53 1.23-.93 1.96-1.15.72-.22 1.5-.25 2.24-.08s1.44.52 2.03 1.01 1.06 1.12 1.35 1.83c.04.09.07.18.1.27.58 1.86-.14 4.06-1.71 5.21z" fill="#8d77e6"/></g><g><path d="m27.71 41.84c.45.32.96.56 1.49.69-1.34.36-2.85.12-3.98-.69-1.58-1.14-2.3-3.34-1.71-5.2.23-.72.66-1.37 1.21-1.9s1.22-.93 1.96-1.15c.72-.22 1.49-.25 2.24-.08.1.02.19.05.29.07-.01 0-.02 0-.03.01-.73.22-1.41.62-1.96 1.15-.55.52-.98 1.18-1.21 1.9-.6 1.86.12 4.06 1.7 5.2z" fill="#fff"/></g><g><path d="m27.95 38.53c-.14 0-.29-.06-.38-.19-.16-.21-.13-.52.08-.68 2.83-2.2 5.93-3.45 8.94-4.66 2.02-.81 3.92-1.58 5.65-2.59.23-.14.53-.06.66.17.14.23.06.53-.17.66-1.79 1.05-3.73 1.83-5.78 2.65-2.94 1.18-5.99 2.4-8.71 4.52-.08.09-.19.12-.29.12z"/></g></g><g><path d="m27.95 43.18c-1.07 0-2.14-.32-3.01-.95-1.75-1.27-2.54-3.68-1.88-5.74.25-.78.71-1.51 1.33-2.1.61-.58 1.36-1.02 2.15-1.26.81-.24 1.67-.27 2.48-.09s1.58.57 2.23 1.11c.66.56 1.18 1.26 1.49 2.02.04.1.08.2.11.3.67 2.05-.12 4.47-1.87 5.74-.88.65-1.96.97-3.03.97zm0-9.29c-.38 0-.77.06-1.13.17-.65.2-1.26.55-1.76 1.03-.51.48-.88 1.07-1.08 1.7-.53 1.64.13 3.65 1.53 4.66s3.51 1.01 4.9-.01c1.4-1.02 2.05-3.02 1.52-4.66-.03-.08-.06-.16-.09-.24-.25-.62-.67-1.19-1.21-1.64s-1.17-.76-1.82-.91c-.29-.07-.57-.1-.86-.1z"/></g><g><path d="m35.53 7.03c-.03.53-.09 1.11-.45 1.51-.44.49-1.17.56-1.83.59-4.14.21-8.27.3-12.41.26-.41-.01-.86-.02-1.19-.27-.37-.28-.51-.77-.59-1.23-.29-1.64-.25-3.32.13-4.94.11-.5.55-.86 1.07-.87 4.28-.02 8.56-.04 12.84-.08.6 0 1.26.01 1.72.4.48.4.59 1.09.65 1.71.09.97.11 1.94.06 2.92z" fill="#ffad00"/></g><g><path d="m23.32 9.39h.66c-1.05 0-2.1 0-3.15 0-.41 0-.86-.02-1.19-.26-.37-.28-.5-.77-.58-1.23-.29-1.64-.25-3.32.12-4.94.11-.5.55-.86 1.07-.87.81 0 1.62-.01 2.43-.01-.49.03-.91.4-1.02.88-.37 1.62-.42 3.3-.12 4.94.08.46.21.96.58 1.23.34.24.79.25 1.2.26z" fill="#fff"/></g><g><path d="m22.77 9.88c-.65 0-1.3 0-1.94-.01-.43-.01-1.01-.02-1.48-.36-.52-.39-.69-1.03-.78-1.54-.3-1.7-.26-3.43.13-5.13.16-.72.8-1.23 1.54-1.24 4.29-.02 8.57-.05 12.85-.08h.01c.6 0 1.42 0 2.02.51.6.5.75 1.27.82 2.04.09 1 .11 2.01.05 2.98-.03.64-.12 1.3-.57 1.81-.6.68-1.58.73-2.17.76-3.46.17-6.98.26-10.48.26zm10.33-7.39c-4.28.03-8.56.06-12.84.08-.29 0-.54.2-.6.49-.36 1.57-.4 3.17-.12 4.75.06.36.16.75.4.93.2.15.52.16.91.17 4.11.04 8.28-.05 12.38-.26.59-.03 1.19-.09 1.5-.43.24-.28.3-.75.32-1.21.05-.93.03-1.89-.05-2.84-.05-.55-.15-1.11-.48-1.38-.33-.28-.84-.3-1.42-.3z"/></g><g><g><path d="m28.95 23.87c-.58.42-1.43.42-2.01 0s-.85-1.23-.63-1.91c.09-.27.24-.51.44-.7s.45-.34.72-.42.55-.09.82-.03.53.19.75.37.39.41.49.67c.01.03.02.07.04.1.23.69-.04 1.5-.62 1.92z" fill="#ffad00"/></g><g><path d="m27.95 24.67c-.46 0-.91-.13-1.29-.4-.75-.54-1.09-1.57-.8-2.45.11-.33.3-.65.57-.9.26-.25.57-.43.91-.54.35-.11.72-.12 1.07-.04.34.08.67.24.95.47.28.24.5.54.63.87.02.04.03.09.05.13.28.88-.05 1.91-.8 2.45-.37.27-.83.41-1.29.41zm0-3.41c-.11 0-.22.02-.33.05-.19.06-.37.17-.52.31s-.26.31-.32.5c-.15.48.04 1.07.45 1.37s1.03.3 1.44 0c.41-.3.6-.89.45-1.37l-.03-.07c-.07-.18-.19-.35-.36-.48-.16-.13-.35-.23-.54-.27-.08-.03-.16-.04-.24-.04z"/></g></g><g><g><path d="m26.94 52.23c.58-.42 1.43-.42 2.01 0s.85 1.23.63 1.91c-.09.27-.24.51-.44.7s-.45.34-.72.42-.55.09-.82.03-.53-.19-.75-.37-.39-.41-.49-.67c-.01-.03-.02-.07-.04-.1-.22-.69.04-1.5.62-1.92z" fill="#ffad00"/></g><g><path d="m27.95 55.81c-.15 0-.31-.02-.46-.05-.34-.08-.67-.24-.95-.47-.28-.24-.5-.54-.63-.86-.02-.05-.03-.09-.05-.13-.28-.88.05-1.91.8-2.45s1.83-.54 2.58 0 1.09 1.57.8 2.45c-.11.34-.3.65-.57.9-.26.25-.57.43-.91.54-.2.04-.41.07-.61.07zm0-3.42c-.26 0-.52.07-.72.23-.41.3-.6.89-.45 1.37l.03.07c.07.18.19.34.36.48.16.13.35.23.54.27s.39.03.58-.02c.19-.06.37-.17.52-.31s.26-.31.32-.5c.16-.48-.04-1.07-.45-1.37-.22-.14-.48-.22-.73-.22z"/></g></g><g><g><path d="m18.63 27.31c-.11.71-.71 1.31-1.42 1.42s-1.47-.27-1.79-.91c-.13-.25-.19-.53-.18-.81s.08-.56.21-.81.32-.45.56-.6.51-.24.79-.26.57.02.83.13c.03.01.06.03.1.04.63.33 1.02 1.09.9 1.8z" fill="#ffad00"/></g><g><path d="m16.97 29.24c-.81 0-1.6-.47-1.98-1.19-.16-.31-.24-.67-.23-1.04.01-.36.1-.71.27-1.02.17-.32.42-.59.73-.78.3-.19.64-.3 1.01-.34.37-.03.73.02 1.06.16.04.02.09.04.13.06.82.42 1.31 1.39 1.17 2.3-.14.91-.91 1.68-1.82 1.83-.13.01-.24.02-.34.02zm-.01-3.41c-.04 0-.08 0-.12.01-.21.02-.41.08-.57.19-.16.1-.3.25-.39.42-.1.18-.15.38-.15.59s.04.41.13.58c.23.45.79.73 1.29.65s.94-.52 1.02-1.02c.08-.5-.2-1.05-.65-1.29-.02-.01-.05-.02-.07-.03-.16-.07-.32-.1-.49-.1z"/></g></g><g><g><path d="m37.26 48.79c.11-.71.71-1.31 1.42-1.42s1.47.27 1.79.91c.13.25.19.53.18.81s-.08.56-.21.81-.32.45-.56.6-.51.24-.79.26-.57-.02-.83-.13c-.03-.01-.06-.03-.1-.04-.63-.34-1.01-1.09-.9-1.8z" fill="#ffad00"/></g><g><path d="m38.94 51.24c-.3 0-.59-.06-.86-.17-.04-.02-.08-.04-.12-.06-.82-.42-1.32-1.39-1.17-2.3.14-.91.91-1.68 1.82-1.83s1.88.34 2.3 1.16c.16.31.24.67.23 1.04-.01.36-.1.71-.27 1.02-.17.32-.42.59-.73.78-.3.19-.65.3-1.01.34-.06.02-.13.02-.19.02zm-.01-3.41c-.06 0-.12 0-.17.01-.5.08-.94.52-1.02 1.02-.08.5.2 1.05.65 1.29l.07.03c.18.08.38.11.59.09s.41-.08.57-.19c.16-.1.3-.25.39-.42.1-.18.15-.38.15-.59s-.04-.41-.13-.58c-.19-.4-.65-.66-1.1-.66z"/></g></g><g><g><path d="m18.63 27.31c-.11.71-.71 1.31-1.42 1.42s-1.47-.27-1.79-.91c-.13-.25-.19-.53-.18-.81s.08-.56.21-.81.32-.45.56-.6.51-.24.79-.26.57.02.83.13c.03.01.06.03.1.04.63.33 1.02 1.09.9 1.8z" fill="#fff"/></g><g><path d="m16.97 29.24c-.81 0-1.6-.47-1.98-1.19-.16-.31-.24-.67-.23-1.04.01-.36.1-.71.27-1.02.17-.32.42-.59.73-.78.3-.19.64-.3 1.01-.34.37-.03.73.02 1.06.16.04.02.09.04.13.06.82.42 1.31 1.39 1.17 2.3-.14.91-.91 1.68-1.82 1.83-.13.01-.24.02-.34.02zm-.01-3.41c-.04 0-.08 0-.12.01-.21.02-.41.08-.57.19-.16.1-.3.25-.39.42-.1.18-.15.38-.15.59s.04.41.13.58c.23.45.79.73 1.29.65s.94-.52 1.02-1.02c.08-.5-.2-1.05-.65-1.29-.02-.01-.05-.02-.07-.03-.16-.07-.32-.1-.49-.1z"/></g></g><g><g><path d="m37.26 48.79c.11-.71.71-1.31 1.42-1.42s1.47.27 1.79.91c.13.25.19.53.18.81s-.08.56-.21.81-.32.45-.56.6-.51.24-.79.26-.57-.02-.83-.13c-.03-.01-.06-.03-.1-.04-.63-.34-1.01-1.09-.9-1.8z" fill="#ffad00"/></g><g><path d="m38.94 51.24c-.3 0-.59-.06-.86-.17-.04-.02-.08-.04-.12-.06-.82-.42-1.32-1.39-1.17-2.3.14-.91.91-1.68 1.82-1.83s1.88.34 2.3 1.16c.16.31.24.67.23 1.04-.01.36-.1.71-.27 1.02-.17.32-.42.59-.73.78-.3.19-.65.3-1.01.34-.06.02-.13.02-.19.02zm-.01-3.41c-.06 0-.12 0-.17.01-.5.08-.94.52-1.02 1.02-.08.5.2 1.05.65 1.29l.07.03c.18.08.38.11.59.09s.41-.08.57-.19c.16-.1.3-.25.39-.42.1-.18.15-.38.15-.59s-.04-.41-.13-.58c-.19-.4-.65-.66-1.1-.66z"/></g></g><g><g><path d="m17.21 47.36c.71.11 1.31.71 1.42 1.42s-.27 1.47-.91 1.79c-.25.13-.53.19-.81.18s-.56-.08-.81-.21-.45-.32-.6-.56-.24-.51-.26-.79.02-.57.13-.83c.01-.03.03-.06.04-.1.33-.62 1.09-1.01 1.8-.9z" fill="#8d77e6"/></g><g><path d="m16.96 51.24c-.02 0-.03 0-.05 0-.36-.01-.71-.1-1.02-.27-.32-.17-.59-.42-.78-.73-.19-.3-.3-.64-.34-1.01-.03-.37.02-.73.16-1.06.02-.05.04-.09.06-.13.42-.82 1.39-1.31 2.3-1.17s1.68.91 1.83 1.82-.34 1.88-1.16 2.3c-.31.17-.65.25-1 .25zm0-3.41c-.45 0-.91.27-1.11.67l-.03.07c-.08.18-.11.38-.09.59s.08.41.19.57c.1.16.25.3.42.39.18.1.38.15.59.15s.41-.04.57-.13c.45-.23.73-.79.65-1.29s-.52-.94-1.02-1.02c-.05 0-.11 0-.17 0z"/></g></g><g><g><path d="m38.69 28.74c-.71-.11-1.31-.71-1.42-1.42s.27-1.47.91-1.79c.25-.13.53-.19.81-.18s.56.08.81.21.45.32.6.56.24.51.26.79-.02.57-.13.83c-.01.03-.03.06-.04.1-.34.62-1.1 1.01-1.8.9z" fill="#fff"/></g><g><path d="m38.93 29.24c-.11 0-.21-.01-.32-.02-.91-.14-1.68-.91-1.83-1.82s.34-1.88 1.16-2.3c.31-.16.66-.25 1.04-.23.36.01.71.1 1.02.27.32.17.59.42.78.73.19.3.3.65.34 1.01.03.37-.02.73-.16 1.06-.02.04-.04.08-.06.13-.36.7-1.16 1.17-1.97 1.17zm.01-3.41c-.2 0-.38.04-.55.13-.45.23-.73.79-.65 1.29s.52.94 1.02 1.02c.5.08 1.05-.2 1.29-.65.01-.02.02-.04.03-.07.08-.18.11-.38.09-.59s-.08-.41-.19-.57c-.1-.16-.25-.3-.42-.39-.18-.1-.38-.15-.59-.15-.01-.02-.02-.02-.03-.02z"/></g></g><g><g><path d="m13.77 37.04c.42.58.42 1.43 0 2.01s-1.23.85-1.91.63c-.27-.09-.51-.24-.7-.44s-.34-.45-.42-.72-.09-.55-.03-.82.19-.53.37-.75.41-.39.67-.49c.03-.01.07-.02.1-.04.69-.22 1.5.04 1.92.62z" fill="#ffad00"/></g><g><path d="m12.35 40.24c-.22 0-.43-.03-.64-.1-.33-.11-.65-.3-.9-.57-.25-.26-.43-.58-.54-.91-.1-.35-.12-.72-.04-1.07.08-.34.24-.67.47-.95.24-.28.54-.5.87-.63.04-.02.09-.03.13-.05.88-.28 1.91.05 2.45.8s.55 1.83 0 2.58c-.4.57-1.1.9-1.8.9zm.01-3.41c-.12 0-.24.02-.35.05-.02.01-.05.02-.07.03-.18.07-.35.2-.48.36s-.23.35-.27.54-.04.39.02.57c.06.19.17.37.31.52s.31.26.5.32c.48.16 1.07-.04 1.37-.45s.3-1.03 0-1.44c-.24-.32-.64-.5-1.03-.5z"/></g></g><g><g><path d="m42.13 39.06c-.42-.58-.42-1.43 0-2.01s1.23-.85 1.91-.63c.27.09.51.24.7.44s.34.45.42.72.09.55.03.82-.19.53-.37.75-.41.39-.67.49c-.03.01-.07.02-.1.04-.69.22-1.5-.04-1.92-.62z" fill="#8d77e6"/></g><g><path d="m43.54 40.24c-.7 0-1.39-.33-1.81-.9-.54-.75-.55-1.83 0-2.58.54-.75 1.57-1.09 2.45-.8.33.11.65.3.9.57.25.26.43.58.54.91.1.35.12.72.04 1.07-.08.34-.24.67-.47.95-.24.28-.54.5-.86.63-.04.02-.09.03-.13.05-.22.07-.44.1-.66.1zm0-3.41c-.39 0-.79.19-1.02.5-.3.41-.3 1.03 0 1.44.3.41.89.6 1.37.45.03-.01.05-.02.07-.02.18-.07.35-.2.48-.36s.23-.35.27-.54.03-.39-.02-.58c-.06-.19-.17-.37-.31-.52s-.31-.26-.5-.32c-.11-.04-.23-.05-.34-.05z"/></g></g></g><g><g><g><g><path d="m61.45 60.47c.01.83-.01 1.74-.55 2.38-.63.75-1.74.85-2.72.89-8.5.32-11.26.3-19.76.02-.59-.02-1.25-.07-1.66-.5-.39-.41-.42-1.04-.42-1.61-.05-4.2.05-10.61.07-15.96 0-.48 0-.95 0-1.4 0-1.21.98-2.2 2.18-2.2 2.49-.02 3.95-.04 5.25-.03 3.92.01 4.51.03 8.43.04 2.17 0 4.34.01 6.51.01.76 0 1.62.05 2.11.63.38.46.4 1.11.41 1.71 0 .43.01.87.01 1.3.06 5.13.1 9.59.14 14.72z" fill="#ffad00"/></g></g><g><g><path d="m51.93 47.8c.01.24.01.54-.14.74-.1.14-.37.23-.53.23-.76.04-1.52-2.19-2.28-2.2-.63-.01-1.19 2.22-2.02 2.22-.27 0-.42.01-.64-.15-.29-.22-.3-.65-.29-1.02l-.09-5.56c2.14.01 3.16.03 5.98.03z" fill="#8d77e6"/></g></g><g><path d="m43.49 42.06c-.62.01-1.31.01-2.11.02-1.21.01-2.19 1-2.18 2.21v1.39c-.01 5.35-.12 11.77-.07 15.96.01.57.03 1.19.42 1.61.29.3.7.49 1.12.58-.7-.02-1.45-.04-2.24-.07-.59-.02-1.25-.07-1.66-.5-.39-.41-.42-1.04-.42-1.61-.05-4.2.05-10.61.07-15.96 0-.48 0-.94 0-1.39 0-1.21.98-2.2 2.18-2.21 2.26-.01 3.68-.03 4.89-.03z" fill="#fff"/></g><g><g><path d="m48.24 64.46c-2.86 0-5.65-.08-9.82-.22-.53-.02-1.42-.05-1.99-.65-.5-.53-.55-1.25-.55-1.93-.03-2.62 0-6.04.03-9.65.02-2.14.04-4.3.04-6.31v-1.39c0-1.47 1.19-2.68 2.66-2.69l1.22-.01c1.78-.02 2.97-.03 4.04-.02 1.96 0 3.09.01 4.22.02s2.25.02 4.21.02l6.51.01c.88 0 1.87.07 2.48.8.51.61.52 1.46.52 2.02l.05 6.29c.03 3.21.06 6.33.09 9.74.01.95-.03 1.94-.66 2.7-.76.9-1.98 1.02-3.07 1.06-4.32.14-7.19.21-9.98.21zm-4.7-21.91c-.99 0-2.11.01-3.72.02l-1.22.01c-.94.01-1.7.78-1.7 1.72v1.4c-.01 2.02-.02 4.18-.04 6.32-.03 3.61-.06 7.02-.03 9.63.01.52.03 1.01.29 1.28.27.29.8.33 1.32.34 8.22.28 11.02.31 19.72-.02.88-.03 1.86-.12 2.36-.72.42-.5.44-1.26.43-2.06-.03-3.41-.06-6.53-.09-9.74l-.05-6.29c-.01-.58-.03-1.08-.3-1.4-.35-.41-1.05-.45-1.74-.45l-6.51-.01c-1.96 0-3.09-.01-4.22-.02s-2.25-.02-4.21-.02c-.08.01-.18.01-.29.01z"/></g></g><g><path d="m39.14 62.21c-.03 0-.06 0-.09-.01-.26-.05-.43-.31-.38-.57.24-1.24.12-2.52-.36-3.72-.1-.25.02-.53.27-.63s.53.02.63.27c.55 1.37.69 2.85.41 4.27-.05.23-.26.39-.48.39z"/></g><g><path d="m41.45 62.2c-.03 0-.06 0-.09-.01-.26-.05-.44-.3-.39-.56.21-1.13.26-2.29.16-3.43-.02-.27.17-.5.44-.53.27-.02.5.17.53.44.11 1.23.05 2.47-.17 3.69-.05.23-.25.4-.48.4z"/></g><g><path d="m44.02 62.18c-.01 0-.01 0-.02 0-.27-.01-.47-.24-.46-.5l.15-3.6c.01-.27.24-.47.5-.46s.47.24.46.5l-.15 3.6c-.01.26-.23.46-.48.46z"/></g><g><path d="m46.62 62.17c-.03 0-.05 0-.08-.01-.26-.04-.44-.29-.4-.56.19-1.13.15-2.28-.11-3.4-.06-.26.1-.52.36-.58s.52.1.58.36c.29 1.25.33 2.52.12 3.78-.03.24-.24.41-.47.41z"/></g><g><g><g><path d="m46.88 49.28c-.28 0-.54-.02-.85-.25-.51-.39-.5-1.06-.49-1.42l-.09-5.54c0-.13.05-.26.14-.35s.22-.14.34-.14l1.74.01c1.19.01 2.29.02 4.24.02.27 0 .48.22.48.48l.01 5.69c.01.25.02.69-.23 1.04-.23.31-.69.42-.9.43-.64.03-1.1-.62-1.58-1.31-.18-.27-.51-.75-.7-.87-.13.13-.35.5-.48.73-.39.69-.84 1.46-1.56 1.47-.01.01-.04.01-.07.01zm-.44-6.72.08 5.06c0 .17-.01.55.1.64.07.05.08.06.31.05.22-.03.58-.67.76-.98.37-.64.71-1.24 1.29-1.24h.01c.62.01 1.06.64 1.52 1.31.2.3.58.85.75.89.04 0 .14-.04.17-.06.04-.06.03-.32.02-.41 0-.01 0-.01 0-.02l-.01-5.22c-1.66 0-2.67-.01-3.76-.02z"/></g></g></g></g></g><g><path d="m63.63 64.19c-.26 0-.47-.2-.48-.46-.01-.27.19-.49.46-.51.12-.01.24-.01.35-.02.26-.02.5.19.51.45.02.27-.18.5-.45.51-.12.01-.24.01-.37.02 0 .01-.01.01-.02.01z"/></g><g><path d="m60.56 64.24c-.79 0-1.62-.01-2.38-.01-.27 0-.48-.22-.48-.49s.22-.48.48-.48c1.38.01 2.95.02 4.2 0 .27-.01.49.21.49.48s-.21.49-.48.49c-.55.01-1.18.01-1.83.01z"/></g></g><g><g><path d="m56.24 9.06c-.15 0-.3-.07-.39-.2-.16-.22-.1-.52.11-.68.16-.11.32-.22.48-.31.23-.14.53-.06.66.17.14.23.06.53-.17.66-.14.08-.27.17-.41.27-.09.06-.18.09-.28.09z"/></g><g><path d="m52.49 12.99c-.1 0-.2-.03-.28-.09-.22-.16-.26-.46-.11-.68.04-.06 1.01-1.39 2.26-2.65.19-.19.5-.19.68 0 .19.19.19.49 0 .68-1.19 1.2-2.15 2.52-2.16 2.53-.09.14-.24.21-.39.21z"/></g><g><path d="m55.12 15.18c-.21 0-.41-.14-.47-.36-.07-.26.08-.52.34-.59 1.21-.33 2.45-.58 3.69-.74.26-.04.51.15.54.42s-.15.51-.42.54c-1.2.16-2.39.4-3.56.71-.03.02-.08.02-.12.02z"/></g><g><path d="m50.1 10.84c-.04 0-.08 0-.12-.01-.26-.07-.42-.33-.35-.59l1.17-4.62c.07-.26.33-.42.59-.35s.42.33.35.59l-1.17 4.62c-.06.21-.26.36-.47.36z"/></g></g></g></svg>