<svg id="Layer_1" viewBox="0 0 512 512" xmlns="http://www.w3.org/2000/svg" data-name="Layer 1"><g fill-rule="evenodd"><path d="m442.847 272.266h-243.04c-4.386 0-8-3.59-8-7.999s3.614-8.001 8-8.001h243.04c4.434 0 8 3.58 8 8.001s-3.567 7.999-8 7.999zm-243.04-51.93h88.821c4.434 0 8 3.581 8 8.001s-3.566 7.999-8 7.999h-88.821c-4.386 0-8-3.59-8-7.999s3.614-8.001 8-8.001zm20.964-35.929h43.663c4.434 0 8 3.579 8 7.999s-3.566 8-8 8h-43.663c-4.434 0-8-3.59-8-8s3.566-7.999 8-7.999zm236.389-176.932h-402.32c-24.097 0-43.856 19.73-43.856 43.831v211.07c0 21.439 15.615 39.419 36.049 43.13-.386-3.351-.578-6.77-.578-10.311v-23.69c-2.892-3.56-4.627-8.099-4.627-13.039v-102.191c0-21.12 11.422-39.66 28.434-49.739-11.952-10.16-19.374-25.64-19.374-42.41 0-29.249 22.603-54.579 52.387-54.579s52.386 25.33 52.386 54.579c0 18.28-8.819 35.031-22.747 45.02 2.843 1.99 5.446 4.239 7.904 6.74 7.566 7.751 18.651 9.631 28.386 4.821l60.483-29.84c13.205-6.35 28.579-2.82 37.109 9.279.434.612.868 1.231 1.253 1.841l8.193-1.331c1.301-3.899 2.891-7.709 4.723-11.38l-5.783-8.038c-3.759-5.221-3.181-12.301 1.35-16.851l15.229-15.179c4.53-4.541 11.615-5.111 16.819-1.352l8.048 5.8c3.663-1.86 7.47-3.44 11.374-4.72l1.591-9.78c1.012-6.35 6.458-10.961 12.868-10.961h21.446c6.458 0 11.856 4.611 12.868 10.961l1.59 9.78c3.904 1.28 7.711 2.86 11.374 4.72l8.048-5.8c5.253-3.759 12.337-3.189 16.868 1.361l15.181 15.169c4.53 4.55 5.109 11.63 1.35 16.84l-5.783 8.04c1.831 3.681 3.422 7.491 4.723 11.39l9.735 1.591c6.361 1.02 10.988 6.44 10.988 12.86v21.471c0 6.429-4.627 11.84-10.94 12.86l-9.783 1.589c-1.301 3.91-2.892 7.711-4.723 11.391l5.783 8.029c3.759 5.22 3.181 12.309-1.35 16.839l-15.181 15.19c-4.53 4.541-11.615 5.111-16.868 1.35l-8.048-5.8c-3.663 1.86-7.47 3.441-11.374 4.722l-1.59 9.78c-1.012 6.35-6.41 10.96-12.868 10.96h-21.446c-6.41 0-11.856-4.61-12.868-10.96l-1.591-9.78c-3.904-1.28-7.711-2.862-11.374-4.722l-8.048 5.8c-5.205 3.762-12.289 3.191-16.819-1.35l-15.229-15.19c-4.53-4.539-5.109-11.619-1.35-16.83l5.783-8.039c-1.832-3.68-3.422-7.481-4.723-11.391l-9.735-1.589c-4-.65-7.374-3.071-9.253-6.39-.819.569-1.687 1.099-2.554 1.61l-67.134 38.769c-7.614 4.39-15.518 6.51-24.338 6.51h-5.88v68.531c0 4.94-1.735 9.479-4.626 13.039v34.701h304.439c24.097 0 43.856-19.72 43.856-43.83v-211.071c0-24.11-19.76-43.832-43.856-43.832z" fill="#2e3760"/><path d="m287.567 404.987c22.073 0 41.977 9.249 56.049 24.079-9.205 12.839-15.229 28.199-16.723 44.959l-.048.631v1.71h-116.291v-1.081c3.566-39.41 36.675-70.298 77.013-70.298z" fill="#ff695a"/><path d="m287.567 397.127c20.29 0 36.82-16.54 36.82-36.831s-16.53-36.821-36.82-36.821-36.82 16.54-36.82 36.821 16.53 36.831 36.82 36.831z" fill="#2e3760"/><path d="m417.834 404.987c40.338 0 73.447 30.889 77.013 70.298v1.081h-154.027v-1.081c3.567-39.41 36.675-70.298 77.013-70.298z" fill="#ff695a"/><path d="m417.834 397.127c20.289 0 36.82-16.54 36.82-36.831s-16.531-36.821-36.82-36.821-36.82 16.54-36.82 36.821 16.531 36.831 36.82 36.831z" fill="#2e3760"/><path d="m10.984 504.525c-4.386 0-8-3.59-8-7.999s3.614-8.001 8-8.001h490.033c4.434 0 8 3.581 8 8.001s-3.566 7.999-8 7.999z" fill="#2e3760"/><path d="m62.551 265.206h74.074c3.711 0 6.747-3.02 6.747-6.74v-82.532h19.856c6.361 0 11.807-1.459 17.301-4.629l67.182-38.77c21.735-12.56 5.735-37.57-11.904-29.079l-60.435 29.81c-15.181 7.489-32.675 4.508-44.579-7.591-7.952-8.12-18.988-13.17-31.229-13.17-24.049 0-43.76 19.699-43.76 43.769v102.191c0 3.708 3.036 6.74 6.747 6.74z" fill="#ff695a"/><path d="m103.275 104.707c21.157 0 38.41-18.231 38.41-40.581s-17.253-40.589-38.41-40.589-38.41 18.239-38.41 40.589 17.253 40.581 38.41 40.581z" fill="#2e3760"/><path d="m86.744 374.506 12 90.141c.916 6.679 6.362 11.719 13.109 11.719h51.615c13.783 0 16.579-20.251 4.386-25.019l-20.049-7.841c-5.591-2.18-9.06-7.289-9.06-13.28v-152.26h-78.315v17.229c0 9.181 1.494 17.041 4.916 25.571l21.398 53.739zm1.928 101.86h-15.036c-5.976 0-11.036-4.87-10.892-10.849l2.603-107.641 8.193 19.931 11.807 88.309c.434 3.72 1.59 7.18 3.325 10.251z" fill="#2e3760"/><path d="m353.207 168.945c-23.808 0-43.133-19.34-43.133-43.099s19.326-43.111 43.133-43.111 43.085 19.342 43.085 43.111-19.325 43.099-43.085 43.099zm69.351-53.299c-3.133-.501-5.687-2.829-6.458-5.921-1.542-5.94-3.904-11.649-7.085-16.96-1.59-2.739-1.397-6.18.434-8.76l7.277-10.091-11.567-11.61-10.169 7.291c-2.554 1.86-6.024 2.009-8.771.39-5.253-3.151-10.988-5.51-16.916-7.041-3.084-.779-5.398-3.33-5.928-6.47l-1.976-12.28h-16.434l-1.976 12.28c-.482 3.14-2.843 5.691-5.928 6.47-5.928 1.531-11.615 3.889-16.916 7.041-2.747 1.63-6.169 1.47-8.771-.39l-10.072-7.291-11.615 11.61 7.277 10.091c1.879 2.59 2.024 6.03.386 8.771-3.132 5.299-5.494 11-7.085 16.96-.771 3.08-3.277 5.408-6.458 5.909l-12.289 1.99v16.41l12.289 1.99c3.181.51 5.687 2.829 6.458 5.92 1.591 5.949 3.952 11.65 7.085 16.949 1.638 2.741 1.494 6.19-.386 8.771l-7.277 10.091 11.615 11.61 10.072-7.282c2.554-1.869 6.024-2.02 8.771-.399 5.301 3.149 10.988 5.52 16.916 7.041 3.084.779 5.446 3.33 5.928 6.459l1.976 12.291h16.434l1.976-12.291c.53-3.129 2.843-5.68 5.928-6.459 5.928-1.521 11.615-3.892 16.964-7.041 2.699-1.621 6.169-1.47 8.723.399l10.169 7.282 11.567-11.61-7.277-10.091c-1.831-2.581-2.024-6.03-.434-8.771 3.181-5.29 5.542-11 7.085-16.96.771-3.08 3.325-5.399 6.458-5.909l12.289-1.99v-16.41l-12.289-1.99z" fill="#ff695a"/></g></svg>