<svg id="Layer_1" height="512" viewBox="0 0 512 512" width="512" xmlns="http://www.w3.org/2000/svg" data-name="Layer 1"><g fill="#b9dcff"><path d="m277.35 87.471a33.209 33.209 0 1 0 9.725 23.48 33.1 33.1 0 0 0 -9.725-23.48z" fill-rule="evenodd"/><path d="m276.29 56.775a58 58 0 0 0 -9.183-2.951 7.569 7.569 0 0 1 -6.031-6.418l-2-14.528h-10.412l-1.995 14.488a7.567 7.567 0 0 1 -5.846 6.416 58.037 58.037 0 0 0 -9.374 2.994 58.631 58.631 0 0 0 -8.449 4.324 7.58 7.58 0 0 1 -8.936-.143l-11.728-8.889-3.674 3.674-3.674 3.674 8.889 11.728h-.007a7.569 7.569 0 0 1 .363 8.591 58.841 58.841 0 0 0 -7.49 17.971 7.571 7.571 0 0 1 -6.417 6.031l-14.56 2v5.2h.029v5.206l14.488 2a7.568 7.568 0 0 1 6.417 5.857 58.9 58.9 0 0 0 7.321 17.823 7.579 7.579 0 0 1 -.144 8.936l-8.887 11.727 3.673 3.674 3.674 3.673 11.728-8.888v.007a7.569 7.569 0 0 1 8.592-.363 58.893 58.893 0 0 0 17.97 7.492 7.569 7.569 0 0 1 6.031 6.417l2.006 14.558h5.2v-.03h5.2l2-14.487a7.571 7.571 0 0 1 5.846-6.417 58.866 58.866 0 0 0 17.822-7.321 7.579 7.579 0 0 1 8.936.144l11.728 8.888 3.674-3.673 3.674-3.674-8.889-11.728h.007a7.569 7.569 0 0 1 -.362-8.592 58.879 58.879 0 0 0 7.5-17.977 7.57 7.57 0 0 1 6.418-6.031l14.559-2.006v-5.2h-.029v-5.2l-14.487-1.995a7.571 7.571 0 0 1 -6.417-5.846 58.858 58.858 0 0 0 -7.321-17.823 7.579 7.579 0 0 1 .144-8.936l8.888-11.727-3.674-3.674-3.681-3.68-11.726 8.889v-.007a7.571 7.571 0 0 1 -8.592.363 58.335 58.335 0 0 0 -8.792-4.541z" fill-rule="evenodd"/><path d="m80.316 184.722a7.589 7.589 0 0 1 0-15.178h45.818a7.589 7.589 0 1 1 0 15.178z" fill-rule="evenodd"/><path d="m80.316 218.176a7.589 7.589 0 0 1 0-15.178h91.636a7.589 7.589 0 0 1 0 15.178z" fill-rule="evenodd"/><path d="m80.316 251.63a7.589 7.589 0 1 1 0-15.177h91.636a7.589 7.589 0 1 1 0 15.177z" fill-rule="evenodd"/><path d="m80.316 285.085a7.589 7.589 0 1 1 0-15.178h91.636a7.589 7.589 0 0 1 0 15.178z" fill-rule="evenodd"/><path d="m273.4 308.254a63.245 63.245 0 1 0 18.523 44.72 63.046 63.046 0 0 0 -18.523-44.72z" fill-rule="evenodd"/><path d="m152.013 369.543a78.451 78.451 0 0 1 69.077-94.626v-97.871q-.954-.475-1.894-.978l-12.991 9.846a7.577 7.577 0 0 1 -9.923-.69l-.007.008-8.343-8.343-8.343-8.343a7.59 7.59 0 0 1 -.423-10.272l9.586-12.649q-1.683-3.148-3.05-6.441-1.353-3.263-2.4-6.717l-16.1-2.217a7.57 7.57 0 0 1 -6.56-7.5h-.021v-4.21h-80.8l-48.643 48.644v202.359z" fill-rule="evenodd"/><path d="m335.818 287.212h145.004v37.295h-145.004z"/><path d="m335.818 364.519h145.004v37.296h-145.004z"/><path d="m335.818 441.826h145.004v37.295h-145.004z"/></g><path d="m277.35 87.471a33.209 33.209 0 1 0 9.725 23.48 33.1 33.1 0 0 0 -9.725-23.48zm-1.06-30.7a58.335 58.335 0 0 1 8.787 4.541 7.571 7.571 0 0 0 8.592-.363v.007l11.731-8.885 3.674 3.674 3.674 3.674-8.888 11.727a7.579 7.579 0 0 0 -.144 8.936 58.858 58.858 0 0 1 7.321 17.823 7.571 7.571 0 0 0 6.417 5.846l14.487 1.995v5.2h.029v5.2l-14.559 2.006a7.57 7.57 0 0 0 -6.411 6.037 58.879 58.879 0 0 1 -7.489 17.97 7.569 7.569 0 0 0 .362 8.592h-.007l8.889 11.728-3.674 3.674-3.674 3.673-11.728-8.888a7.579 7.579 0 0 0 -8.936-.144 58.866 58.866 0 0 1 -17.822 7.321 7.571 7.571 0 0 0 -5.846 6.417l-2 14.487h-5.2v.03h-5.2l-2.012-14.549a7.569 7.569 0 0 0 -6.031-6.417 58.893 58.893 0 0 1 -17.97-7.492 7.569 7.569 0 0 0 -8.592.363v-.007l-11.728 8.888-3.674-3.673-3.673-3.674 8.887-11.727a7.579 7.579 0 0 0 .144-8.936 58.9 58.9 0 0 1 -7.326-17.825 7.568 7.568 0 0 0 -6.416-5.846l-14.488-2v-5.206h-.029v-5.2l14.56-2a7.571 7.571 0 0 0 6.417-6.031 58.841 58.841 0 0 1 7.49-17.971 7.569 7.569 0 0 0 -.363-8.591h.007l-8.889-11.728 3.674-3.674 3.674-3.674 11.728 8.889a7.58 7.58 0 0 0 8.935.132 58.631 58.631 0 0 1 8.448-4.327 58.037 58.037 0 0 1 9.374-2.994 7.567 7.567 0 0 0 5.846-6.416l1.995-14.488h10.411l2 14.528a7.569 7.569 0 0 0 6.031 6.418 58 58 0 0 1 9.183 2.951zm-195.974 127.951a7.589 7.589 0 0 1 0-15.178h45.818a7.589 7.589 0 1 1 0 15.178zm0 33.454a7.589 7.589 0 0 1 0-15.178h91.636a7.589 7.589 0 0 1 0 15.178zm0 33.454a7.589 7.589 0 1 1 0-15.177h91.636a7.589 7.589 0 1 1 0 15.177zm0 33.455a7.589 7.589 0 1 1 0-15.178h91.636a7.589 7.589 0 0 1 0 15.178zm193.084 23.169a63.245 63.245 0 1 0 18.523 44.72 63.046 63.046 0 0 0 -18.523-44.72zm-121.387 61.289h-120.835v-202.359l48.644-48.644h80.8v4.21h.021a7.57 7.57 0 0 0 6.56 7.5l16.1 2.217q1.047 3.451 2.4 6.717 1.363 3.29 3.05 6.441l-9.586 12.649a7.59 7.59 0 0 0 .423 10.272l8.343 8.343 8.343 8.343.007-.008a7.577 7.577 0 0 0 9.923.69l12.991-9.846q.941.5 1.894.978v97.871a78.5 78.5 0 0 0 -69.077 94.626zm109.256-45.659a7.588 7.588 0 0 1 10.731 10.731l-47.448 47.449a7.59 7.59 0 0 1 -10.732 0l-28.462-28.464a7.588 7.588 0 0 1 10.731-10.731l23.1 23.1 42.083-42.083zm219.553-36.672h-145v37.3h145zm-115.769 26.236a7.589 7.589 0 0 1 0-15.178h86.535a7.589 7.589 0 0 1 0 15.178zm35.678-159.476a7.589 7.589 0 0 1 15.178 0v20.764a7.589 7.589 0 0 1 -15.178 0zm-37.041-47.849a7.589 7.589 0 1 1 0 15.178h-16.6v1.449a7.561 7.561 0 0 1 -6.553 7.492v.008l-16.1 2.217q-1.047 3.451-2.4 6.715-1.365 3.291-3.052 6.442l9.846 12.991a7.577 7.577 0 0 1 -.69 9.923l.008.008-8.343 8.343-8.343 8.343a7.589 7.589 0 0 1 -10.271.423l-12.651-9.587q-3.147 1.683-6.442 3.051-3.261 1.352-6.714 2.4l-2.218 16.1a7.569 7.569 0 0 1 -7.5 6.56v.021h-11.8v-.029h-11.8a7.54 7.54 0 0 1 -5.8-2.716v73.461a78.4 78.4 0 1 1 -79.316 109.8h-133.362a7.589 7.589 0 0 1 -7.589-7.584v-213.09a7.57 7.57 0 0 1 2.266-5.409l53.048-53.047a7.565 7.565 0 0 1 5.366-2.223h83.968v-4.21a7.562 7.562 0 0 1 6.552-7.493v-.007l16.1-2.218q1.047-3.45 2.4-6.714 1.364-3.291 3.052-6.443l-9.846-12.991a7.577 7.577 0 0 1 .69-9.923l-.008-.008 8.343-8.342 8.343-8.343a7.588 7.588 0 0 1 10.271-.424l12.655 9.588q3.148-1.684 6.442-3.051 3.261-1.351 6.714-2.4l2.218-16.1a7.57 7.57 0 0 1 7.5-6.56v-.024h23.6a7.59 7.59 0 0 1 7.574 7.119l2.143 15.56q3.452 1.047 6.716 2.4 3.289 1.364 6.442 3.052l12.991-9.846a7.578 7.578 0 0 1 9.923.689l.007-.007 8.343 8.343 8.343 8.343a7.587 7.587 0 0 1 .423 10.271l-9.586 12.649q1.685 3.148 3.051 6.443 1.351 3.261 2.4 6.715l16.1 2.218a7.569 7.569 0 0 1 6.56 7.5h.021v6.97zm37.041 15.177h-2.793a7.589 7.589 0 0 1 0-15.178h10.382a7.589 7.589 0 0 1 7.589 7.589v10.382a7.589 7.589 0 0 1 -15.178 0zm-320.415 197.239h45.818a7.589 7.589 0 1 0 0-15.177h-45.818a7.589 7.589 0 1 0 0 15.177zm400.506 45.98h-145v37.3h145zm-152.593-15.178a7.589 7.589 0 0 0 -7.589 7.589v52.47a7.589 7.589 0 0 0 7.589 7.589h160.182a7.589 7.589 0 0 0 7.589-7.589v-52.47a7.589 7.589 0 0 0 -7.589-7.589zm36.824 41.414h86.535a7.589 7.589 0 1 0 0-15.177h-86.535a7.589 7.589 0 1 0 0 15.177zm115.769 51.071h-145v37.3h145zm-152.593-15.178a7.589 7.589 0 0 0 -7.589 7.589v52.474a7.589 7.589 0 0 0 7.589 7.588h160.182a7.589 7.589 0 0 0 7.589-7.588v-52.474a7.589 7.589 0 0 0 -7.589-7.589zm36.824 41.415a7.589 7.589 0 0 1 0-15.178h86.535a7.589 7.589 0 0 1 0 15.178zm35.678-263.449a7.589 7.589 0 0 1 15.178 0v20.764a7.589 7.589 0 1 1 -15.178 0zm0 50.641a7.589 7.589 0 0 1 15.178 0v16.779h72.5a7.589 7.589 0 0 1 7.591 7.589v52.477a7.589 7.589 0 0 1 -7.589 7.589h-160.182a7.589 7.589 0 0 1 -7.589-7.589v-52.477a7.589 7.589 0 0 1 7.589-7.589h72.5v-16.779zm-221.718 212.808a7.589 7.589 0 0 1 0-15.178h20.764a7.589 7.589 0 1 1 0 15.178zm-32.671-52.219v-20.764a7.589 7.589 0 0 0 -15.178 0v20.764a7.589 7.589 0 0 0 15.178 0zm-15.178 44.63v-10.382a7.589 7.589 0 0 1 15.178 0v2.793h2.793a7.589 7.589 0 0 1 0 15.178h-10.382a7.589 7.589 0 0 1 -7.589-7.589zm98.491 7.589a7.589 7.589 0 0 1 0-15.178h20.764a7.589 7.589 0 0 1 0 15.178zm50.642 0a7.589 7.589 0 0 1 0-15.178h20.764a7.589 7.589 0 0 1 0 15.178zm-26.427-405.495a48.385 48.385 0 1 1 -34.212 14.172 48.232 48.232 0 0 1 34.212-14.172z" fill="#2f59ff" fill-rule="evenodd"/></svg>