<svg id="Layer_1" enable-background="new 0 0 512 512" height="300" viewBox="0 0 512 512" width="300" xmlns="http://www.w3.org/2000/svg" version="1.1" xmlns:xlink="http://www.w3.org/1999/xlink" xmlns:svgjs="http://svgjs.dev/svgjs"><g width="100%" height="100%" transform="matrix(1,0,0,1,0,0)"><path d="m365.275 136.11c15.238 18.252 38.145 29.89 63.725 29.89 45.767 0 83-37.233 83-83s-37.233-83-83-83-83 37.233-83 83c0 13.335 3.179 25.934 8.791 37.11h-70.044c-2.122 0-4.156.843-5.657 2.343l-36.433 36.433c-33.528 5.707-62.161 25.962-79.144 54.026h-35.934l-28.043-48.571c37.871-7.687 66.464-41.236 66.464-81.341 0-45.767-37.233-83-83-83s-83 37.233-83 83c0 45.433 36.697 82.437 82.004 82.975l34.028 58.938c1.429 2.476 4.069 4 6.928 4h32.508c-5.477 13.398-8.504 28.048-8.504 43.394 0 44.224 25.084 82.694 61.769 101.947v33.562l-42.822 24.724c.05-1.175.09-2.352.09-3.538 0-45.767-37.233-83-83-83s-83.001 37.231-83.001 82.998 37.233 83 83 83c37.418 0 69.12-24.894 79.445-58.986l58.288-33.652c2.476-1.429 4-4.069 4-6.928v-31.277c11.7 4.019 24.243 6.206 37.289 6.206 26.269 0 50.505-8.855 69.894-23.729l22.585 21.916c-3.474 6.759-2.314 15.278 3.416 20.838l58.791 57.049c3.44 3.337 7.896 4.997 12.347 4.997 4.63 0 9.257-1.798 12.728-5.375l21.227-21.875c6.808-7.016 6.639-18.263-.377-25.073l-58.791-57.05c-3.391-3.291-7.898-5.076-12.616-4.992-2.147.032-4.221.459-6.162 1.211l-24.448-23.723c10.446-17.317 16.464-37.593 16.464-59.249 0-61.837-49.035-112.427-110.262-114.95l21.245-21.245h77.212zm20.21-2.226c4.071-20.581 22.122-35.65 43.515-35.65s39.444 15.069 43.515 35.65c-11.717 10.034-26.915 16.116-43.515 16.116s-31.798-6.082-43.515-16.116zm43.516-51.651c-10.19 0-18.48-8.291-18.48-18.481s8.29-18.48 18.48-18.48 18.48 8.29 18.48 18.48-8.29 18.481-18.48 18.481zm-.001-66.233c36.944 0 67 30.056 67 67 0 13.588-4.077 26.237-11.057 36.809-5.843-14.417-17.043-25.92-31.047-32.237 5.93-6.196 9.585-14.586 9.585-23.819 0-19.013-15.468-34.48-34.48-34.48s-34.48 15.468-34.48 34.48c0 9.233 3.655 17.623 9.584 23.819-14.005 6.316-25.205 17.82-31.048 32.238-6.98-10.573-11.057-23.222-11.057-36.81 0-36.944 30.056-67 67-67zm-345.999 66.233c-10.19 0-18.48-8.291-18.48-18.481s8.29-18.48 18.48-18.48 18.48 8.29 18.48 18.48-8.29 18.481-18.48 18.481zm-.001 16c21.393 0 39.444 15.069 43.515 35.65-11.717 10.035-26.915 16.117-43.515 16.117s-31.798-6.082-43.515-16.116c4.072-20.582 22.122-35.651 43.515-35.651zm0-82.233c36.944 0 67 30.056 67 67 0 13.588-4.077 26.237-11.057 36.809-5.843-14.417-17.043-25.92-31.047-32.237 5.93-6.196 9.585-14.586 9.585-23.819 0-19.013-15.468-34.48-34.48-34.48s-34.48 15.468-34.48 34.48c0 9.233 3.655 17.623 9.584 23.819-14.005 6.315-25.205 17.819-31.048 32.237-6.98-10.572-11.057-23.221-11.057-36.809 0-36.944 30.056-67 67-67zm-43.515 463.884c4.071-20.582 22.122-35.651 43.515-35.651s39.443 15.069 43.515 35.651c-11.717 10.034-26.915 16.116-43.515 16.116s-31.798-6.082-43.515-16.116zm43.516-51.652c-10.19 0-18.48-8.29-18.48-18.48s8.29-18.48 18.48-18.48 18.48 8.29 18.48 18.48-8.29 18.48-18.48 18.48zm55.943 37.577c-5.844-14.418-17.043-25.921-31.047-32.238 5.93-6.196 9.584-14.586 9.584-23.819 0-19.013-15.468-34.48-34.48-34.48s-34.48 15.468-34.48 34.48c0 9.233 3.654 17.623 9.584 23.818-14.005 6.317-25.205 17.82-31.049 32.239-6.979-10.572-11.056-23.221-11.056-36.809 0-36.944 30.056-67 67-67s67 30.056 67 67c0 13.588-4.077 26.237-11.056 36.809zm252.521-95.744h.029c.332 0 .8.085 1.203.477l58.79 57.049c.674.654.691 1.776.038 2.45l-21.227 21.874v.001c-.655.673-1.777.688-2.45.036l-58.791-57.048c-.674-.654-.69-1.776-.037-2.45l21.227-21.876c.403-.415.885-.508 1.218-.513zm-18.71-4.435-7.665 7.899-21.147-20.521c2.577-2.616 5.03-5.354 7.35-8.205zm-11.677-93.324c0 54.62-44.437 99.057-99.057 99.057s-99.058-44.437-99.058-99.057 44.438-99.058 99.058-99.058 99.057 44.438 99.057 99.058zm-183.067-.001c0 46.323 37.688 84.011 84.011 84.011s84.011-37.688 84.011-84.011-37.688-84.01-84.011-84.01-84.011 37.686-84.011 84.01zm152.021 0c0 37.501-30.51 68.011-68.011 68.011s-68.011-30.51-68.011-68.011 30.51-68.01 68.011-68.01 68.011 30.509 68.011 68.01zm-48.326 32.151v-68.258c0-4.418 3.582-8 8-8s8 3.582 8 8v68.258c0 4.418-3.582 8-8 8s-8-3.582-8-8zm-48.917-28.64v28.64c0 4.418-3.582 8-8 8s-8-3.582-8-8v-28.64c0-4.418 3.582-8 8-8s8 3.582 8 8zm24.458-29.003c4.418 0 8 3.582 8 8v49.643c0 4.418-3.582 8-8 8s-8-3.582-8-8v-49.643c0-4.417 3.582-8 8-8z" fill="#6882bc" fill-opacity="1" data-original-color="#000000ff" stroke="none" stroke-opacity="1"/></g></svg>