<svg enable-background="new 0 0 512 512" height="512" viewBox="0 0 512 512" width="512" xmlns="http://www.w3.org/2000/svg"><g id="_x31_7_Vision"><g><path d="m370.884 307.792.203.068c6.129 2.163 8.503 9.858 2.433 17.372-7.534 9.163 6.225 15.639-1.419 24.672-1.825 6.963-6.151 12.167-12.167 16.291-4.462 2.974-4.867 8.72-1.555 12.978 5.881 7.435 7.841 15.817 5.475 25.281-.54 2.095-1.892 3.988-3.785 5.137-16.358 9.936-39.476 9.328-64.622 5.611-21.901-3.177-41.572 13.857-41.572 35.961v14.263h-162.705c9.599-23.456 13.114-46.844 10.815-70.165-2.636-26.903-16.764-50.968-36.705-69.151-90.386-82.394-75.412-339.908 239.292-266.532 12.1 2.839 21.293 15.074 20.414 27.377l-1.96 27.85c-.135 2.907 1.081 5.678 3.244 7.571 20.684 18.792 24.741 42.112 12.843 69.827-1.352 3.177-.879 6.895 1.42 9.464l53.739 61.986c9.212 10.614-12.32 23.715-22.307 26.836-8.314 2.567-9.328 14.261-1.081 17.303z" fill="#b8daff"/><path d="m370.866 307.762.231.076c6.082 2.156 8.469 9.855 2.387 17.4-7.468 9.163 6.236 15.63-1.386 24.638-1.848 7.006-6.159 12.164-12.165 16.321-4.466 3.004-4.851 8.701-1.54 13.012 5.852 7.392 7.853 15.783 5.467 25.254-.539 2.078-1.925 4.003-3.773 5.159-13.859 8.392-32.414 9.239-52.971 7.006 7.622-1.077 14.552-3.31 20.557-7.006 1.925-1.156 3.234-3.081 3.773-5.159 2.387-9.471.462-17.862-5.466-25.254-3.311-4.311-2.849-10.008 1.617-13.012 6.006-4.157 10.317-9.316 12.165-16.321 7.622-9.008-6.159-15.476 1.386-24.638 6.083-7.545 3.696-15.244-2.464-17.4l-.154-.076c-8.238-3.004-7.237-14.707 1.078-17.247 9.932-3.157 31.49-16.245 22.328-26.87l-53.741-61.978c-2.31-2.541-2.772-6.314-1.463-9.47 11.934-27.718 7.853-51.047-12.858-69.833-2.156-1.848-3.387-4.619-3.234-7.545l2.002-27.871c.847-12.319-8.315-24.561-20.48-27.333-31.49-7.391-60.055-11.395-85.77-12.55 33.569-1.771 72.758 1.925 118.183 12.55 12.088 2.772 21.327 15.014 20.403 27.333l-1.925 27.871c-.154 2.926 1.078 5.697 3.234 7.545 20.634 18.786 24.715 42.115 12.858 69.833-1.386 3.156-.924 6.929 1.386 9.47l53.741 61.978c9.239 10.625-12.319 23.713-22.328 26.87-8.315 2.54-9.316 14.243-1.078 17.247z" fill="#3f8cf4" opacity=".2"/><path d="m307.116 416.628c-8.931 1.386-18.786 1.309-29.257.385 5.466-2.002 11.395-2.773 17.554-1.848 4.004.617 7.854 1.078 11.703 1.463z" fill="#3f8cf4" opacity=".2"/><path d="m159.295 274.265h30.377c2.186-13.323 8.533-25.7 18.312-35.285 8.855-8.679 14.368-20.78 14.368-34.105 0-26.495-21.472-47.868-47.868-47.868s-47.868 21.373-47.868 47.868c0 13.325 5.513 25.426 14.368 34.105 9.778 9.585 16.125 21.962 18.311 35.285z" fill="#fefdfe"/><path d="m222.348 204.899c0 13.32-5.543 25.408-14.398 34.108-9.778 9.547-16.092 21.943-18.247 35.262h-21.173c2.233-13.32 8.546-25.715 18.324-35.262 8.854-8.7 14.398-20.789 14.398-34.108 0-22.867-16.015-41.961-37.341-46.658 3.388-.846 6.929-1.231 10.548-1.231 26.408 0 47.889 21.404 47.889 47.889z" fill="#3f8cf4" opacity=".2"/><path d="m201.223 282.033v12.828c0 4.263-3.456 7.72-7.72 7.72h-38.04c-4.263 0-7.72-3.456-7.72-7.72v-12.828c0-4.263 3.456-7.72 7.72-7.72h38.04c4.264 0 7.72 3.456 7.72 7.72z" fill="#b8daff"/><path d="m494.557 107.307v174.003l-204.407-75.037v-23.928z" fill="#fefdfe"/><g fill="#3f8cf4"><path d="m494.593 107.273v174.003l-31.567-11.549v-150.828z" opacity=".2"/><path d="m305.882 53.951c-37.421-8.722-72.308-13.15-103.692-13.15-121.474 0-164.564 64.414-179.436 102.812-24.331 62.797-7.361 144.835 38.632 186.759 20.135 18.368 32.519 41.617 34.857 65.451 2.211 22.444-1.293 45.128-10.421 67.414-.729 1.782-.519 3.805.549 5.406 1.075 1.594 2.872 2.556 4.797 2.556h162.707c3.188 0 5.774-2.586 5.774-5.774v-14.263c0-18.323 16.474-32.977 34.955-30.248 11.632 1.722 21.436 2.556 29.977 2.556 44.574 0 58.208-22.72 38.361-47.835-1.216-1.572-1.465-3.524.256-4.677 10.643-7.29 20.278-22.204 15.015-35.489-1.624-4.105-1.654-4.842-.203-6.609 4.218-5.218 5.759-11.293 4.241-16.669-1.301-4.594-4.669-8.158-9.368-9.812-1.308-.489-1.955-1.436-1.917-2.835.03-1.316.767-2.94 2.722-3.549 53.683-16.786 15.3-46.441 15.259-47.303l103.62 38.039c3.822 1.378 7.767-1.439 7.767-5.421v-174.005c0-3.997-3.969-6.795-7.767-5.421l-141.961 52.114c-2.117-13.321-8.866-25.371-20.536-35.978-.865-.752-1.331-1.82-1.286-2.805l1.962-27.85c1.091-15.203-9.827-29.88-24.864-33.414zm182.902 61.624v157.466c-39.671-14.563-126.951-46.603-192.857-70.797v-15.872zm-149.231 42.48-51.393 18.867c-2.271.835-3.782 3-3.782 5.421v23.932c0 2.421 1.511 4.586 3.782 5.421l78.375 28.772c19.282 22.735 38.917 33.513 3.723 44.499-6.308 1.955-10.662 7.684-10.842 14.271-.165 6.301 3.549 11.789 9.744 14.068 3.344 1.189 2.278 5.311-.098 8.256-5.925 7.211-3.211 14.068-1.586 18.165 1.934 4.87-1.769 15.52-10.752 21.662-7.238 4.842-8.294 14.397-2.872 21.368 16.852 21.327-3.599 29.165-29.271 29.165-7.97 0-17.218-.797-28.308-2.436-25.759-3.752-48.173 16.444-48.173 41.677v8.489h-148.557c7.571-21.489 10.323-43.301 8.188-64.955-2.617-26.684-16.308-52.556-38.564-72.857-42.714-38.932-58.376-115.391-35.647-174.06 23.843-61.536 83.745-95.43 168.67-95.43 30.504 0 64.504 4.323 101.06 12.85 9.331 2.188 16.647 11.962 15.977 21.346l-1.97 27.992c-.218 4.662 1.684 9.105 5.128 12.105 10.214 9.28 15.868 19.702 17.168 31.412z"/><path d="m174.483 151.229c-29.579 0-53.639 24.068-53.639 53.647 0 14.474 5.714 28.053 16.09 38.233 7.352 7.202 12.422 16.103 15.144 25.911-5.795 1.512-10.106 6.747-10.106 13.014v12.827c0 7.444 6.053 13.496 13.489 13.496h38.045c7.436 0 13.489-6.053 13.489-13.496v-12.827c0-6.267-4.312-11.502-10.106-13.014 2.722-9.807 7.792-18.71 15.144-25.918 10.376-10.173 16.09-23.752 16.09-38.226-.001-29.579-24.061-53.647-53.64-53.647zm20.963 143.632c0 1.075-.872 1.947-1.94 1.947h-38.045c-1.068 0-1.94-.872-1.94-1.947v-12.827c0-1.075.872-1.947 1.94-1.947h38.045c1.068 0 1.94.872 1.94 1.947zm8.496-60.008c-9.466 9.286-15.977 20.827-19 33.639h-20.917c-3.023-12.812-9.534-24.353-19-33.632-8.143-7.985-12.632-18.639-12.632-29.985 0-23.211 18.88-42.098 42.09-42.098s42.09 18.887 42.09 42.098c0 11.347-4.488 22.001-12.631 29.978z"/><path d="m174.483 130.056c3.188 0 5.774-2.586 5.774-5.774v-8.744c0-3.188-2.586-5.774-5.774-5.774s-5.774 2.586-5.774 5.774v8.744c0 3.188 2.586 5.774 5.774 5.774z"/><path d="m229.897 136.102-6.18 6.18c-2.256 2.256-2.256 5.91 0 8.165 2.256 2.256 5.91 2.256 8.165 0l6.18-6.18c2.256-2.256 2.256-5.91 0-8.165-2.256-2.256-5.91-2.256-8.165 0z"/><path d="m258.618 193.906h-8.737c-3.188 0-5.774 2.586-5.774 5.774s2.586 5.774 5.774 5.774h8.737c3.188 0 5.774-2.586 5.774-5.774s-2.586-5.774-5.774-5.774z"/><path d="m99.085 193.914h-8.737c-3.188 0-5.774 2.586-5.774 5.774s2.586 5.774 5.774 5.774h8.737c3.188 0 5.774-2.586 5.774-5.774s-2.586-5.774-5.774-5.774z"/><path d="m125.25 150.455c2.256-2.256 2.256-5.91 0-8.165l-6.18-6.18c-2.256-2.256-5.91-2.256-8.165 0-2.256 2.256-2.256 5.91 0 8.165l6.18 6.18c2.256 2.256 5.909 2.256 8.165 0z"/></g></g></g></svg>