<svg id="Layer_1" enable-background="new 0 0 52 52" height="512" viewBox="0 0 52 52" width="512" xmlns="http://www.w3.org/2000/svg"><g id="_x37_2"><g><g><g><g><g><path d="m49.4950218 11.6138401v34.4703217c0 2.1537227-1.7621155 3.9158382-3.9158363 3.9158382h-39.158371c-2.1536622 0-3.9158368-1.7621155-3.9158368-3.9158363v-34.4703236z" fill="#deddff"/></g></g></g><g><g><g><path d="m49.4950218 5.9162903v5.6975498h-46.9802451v-5.6975498c0-2.1634617 1.7523756-3.915837 3.9158373-3.915837h39.148571c2.1537213-.0000001 3.9158368 1.7621745 3.9158368 3.915837z" fill="#5b5e8b"/></g></g></g><g><g><path d="m8.7916393 49.9995461h-2.3690643c-2.1537223 0-3.915837-1.7621155-3.915837-3.9158363v-34.4605237h2.3690646v34.4605255c-.0000001 2.153719 1.7621745 3.9158345 3.9158367 3.9158345z" fill="#c6c6f7"/></g></g><g><g><g><path d="m8.7916393 2c-2.1634612 0-3.9158368 1.7523754-3.9158368 3.9158373v5.7073488h-2.3690646v-5.7073488c0-2.1634619 1.7621148-3.9158373 3.9158371-3.9158373z" fill="#312e4b"/></g></g></g><g><g><g><g><path d="m19.2843819 6.8102331c0 .9203544-.7456818 1.6660357-1.6593113 1.6660357-.9203548 0-1.6660776-.7456813-1.6660776-1.6660357s.7457228-1.6660767 1.6660776-1.6660767c.9136295.0000001 1.6593113.7457223 1.6593113 1.6660767z" fill="#deddff"/></g></g><g><g><path d="m14.6858025 6.8102331c0 .9203544-.7456808 1.6660357-1.6593113 1.6660357-.9203539 0-1.6660767-.7456813-1.6660767-1.6660357s.7457228-1.6660767 1.6660767-1.6660767c.9136305.0000001 1.6593113.7457223 1.6593113 1.6660767z" fill="#deddff"/></g></g><g><g><path d="m10.087224 6.8102331c0 .9203544-.7456818 1.6660357-1.6593113 1.6660357-.9203544 0-1.6660767-.7456813-1.6660767-1.6660357s.7457223-1.6660767 1.6660767-1.6660767c.9136295.0000001 1.6593113.7457223 1.6593113 1.6660767z" fill="#deddff"/></g></g></g><g><g><path d="m45.2473755 7.0092072c0 .5886641-.4779243 1.0665889-1.0665894 1.0665889h-15.5430736c-.5944977 0-1.0665894-.4779248-1.0665894-1.0665889s.4720917-1.0665889 1.0665894-1.0665889h15.5430737c.5886649.0000001 1.0665893.4779249 1.0665893 1.0665889z" fill="#deddff"/></g></g></g></g></g><g><g><path d="m18.2487526 34.4407463v-5.6652374c0-.7885838-.6392746-1.4278564-1.4278564-1.4278564h-8.8879405c-.7885833 0-1.4278564.6392727-1.4278564 1.4278564v5.6652374c0 .7885818.6392732 1.4278564 1.4278564 1.4278564h8.8879404c.7885819.0000001 1.4278565-.6392745 1.4278565-1.4278564z" fill="#46cc6b"/></g></g><g><g><path d="m18.2487526 44.6446037v-5.2470474c0-.7885818-.6392746-1.4278564-1.4278564-1.4278564h-8.8879405c-.7885833 0-1.4278564.6392746-1.4278564 1.4278564v5.2470474c0 .7885818.6392732 1.4278564 1.4278564 1.4278564h8.8879404c.7885819.0000001 1.4278565-.6392745 1.4278565-1.4278564z" fill="#65b9ff"/></g></g><g><g><path d="m12.1462736 35.86726h-4.210022c-.789978 0-1.4299927-.6400146-1.4299927-1.4300537v-5.6663361c0-.7800293.6400146-1.4200439 1.4299927-1.4200439h4.210022c-.789978 0-1.4299927.6400146-1.4299927 1.4200439v5.6663361c0 .790039.6400147 1.4300537 1.4299927 1.4300537z" fill="#179c5f"/></g></g><g><g><path d="m12.1462736 46.0772209h-4.210022c-.789978 0-1.4299927-.6400146-1.4299927-1.4299927v-5.2482071c0-.789978.6400146-1.4299927 1.4299927-1.4299927h4.210022c-.789978 0-1.4299927.6400146-1.4299927 1.4299927v5.2482071c0 .7899781.6400147 1.4299927 1.4299927 1.4299927z" fill="#3e7fff"/></g></g><g><g><g><g><path d="m45.9257469 29.3427334h-22.7869301c-.3199272 0-.5793514-.2594223-.5793514-.5793495s.2594242-.5793514.5793514-.5793514h22.7869301c.3199272 0 .5793533.2594242.5793533.5793514s-.2594261.5793495-.5793533.5793495z" fill="#b5b5ea"/></g></g></g><g><g><g><path d="m45.9257469 32.0263176h-22.7869301c-.3199272 0-.5793514-.2594242-.5793514-.5793514 0-.3199253.2594242-.5793495.5793514-.5793495h22.7869301c.3199272 0 .5793533.2594242.5793533.5793495.0000001.3199272-.2594261.5793514-.5793533.5793514z" fill="#b5b5ea"/></g></g></g><g><g><g><path d="m35.1251221 34.7098999h-11.9863053c-.3199272 0-.5793514-.2594223-.5793514-.5793495s.2594242-.5793495.5793514-.5793495h11.9863052c.3199272 0 .5793495.2594223.5793495.5793495s-.2594222.5793495-.5793494.5793495z" fill="#b5b5ea"/></g></g></g></g><g><g><g><g><path d="m45.9257469 39.5465927h-22.7869301c-.3199272 0-.5793514-.2594261-.5793514-.5793533s.2594242-.5793495.5793514-.5793495h22.7869301c.3199272 0 .5793533.2594223.5793533.5793495s-.2594261.5793533-.5793533.5793533z" fill="#b5b5ea"/></g></g></g><g><g><g><path d="m45.9257469 42.230175h-22.7869301c-.3199272 0-.5793514-.2594223-.5793514-.5793495s.2594242-.5793533.5793514-.5793533h22.7869301c.3199272 0 .5793533.2594261.5793533.5793533s-.2594261.5793495-.5793533.5793495z" fill="#b5b5ea"/></g></g></g><g><g><g><path d="m35.1251221 44.9137573h-11.9863053c-.3199272 0-.5793514-.2594223-.5793514-.5793495s.2594242-.5793495.5793514-.5793495h11.9863052c.3199272 0 .5793495.2594223.5793495.5793495s-.2594222.5793495-.5793494.5793495z" fill="#b5b5ea"/></g></g></g></g><g><g><path d="m44.202446 23.6220264h-36.4049473c-.7137723 0-1.2923994-.5786266-1.2923994-1.2924004v-5.423502c0-.7137718.5786271-1.2923994 1.2923994-1.2923994h36.4049473c.7137718 0 1.2924004.5786276 1.2924004 1.2923994v5.423502c-.0000001.7137738-.5786286 1.2924004-1.2924004 1.2924004z" fill="#c6c6f7"/></g></g><g><g><path d="m12.9860563 21.6601124-1.1533203-3.3793945c-.1684608-.4954739.5360107-.6929512.6743164-.2841797l.9501953 3.1274414.9423828-3.0541992c.1217155-.3868828.6733236-.3911648.7963867 0l.9423838 3.0541992.9501953-3.1274414c.1343269-.4060364.841259-.2217121.6743164.2841797l-1.1533203 3.3793945c-.1480732.442009-.7771206.4677963-.9506845-.0078125l-.8613281-2.6889648-.8608398 2.6889648c-.1755343.474844-.8026553.4496879-.9506837.0078125z" fill="#5b5e8b"/></g><g><path d="m19.4201393 21.6601124-1.1533203-3.3793945c-.1717529-.5051517.53965-.6821938.6743164-.2841797l.9501953 3.1274414.9423828-3.0541992c.1217556-.3870106.6733894-.3909531.7963867 0l.9423828 3.0541992.9501953-3.1274414c.1313248-.3969612.8428116-.2264137.6743164.2841797l-1.1533203 3.3793945c-.1479073.4415112-.7760811.470644-.9506836-.0078125l-.8613281-2.6889648-.8608398 2.6889648c-.1772671.4795284-.8040466.4455356-.9506836.0078125z" fill="#5b5e8b"/></g><g><path d="m25.8542213 21.6601124c-1.193922-3.5218697-1.1777344-3.3923283-1.1777344-3.5175781 0-.4136257.5802193-.4962597.6987305-.1459961l.9501953 3.1274414.9423828-3.0541992c.1217556-.3870106.6733894-.3909531.7963867 0l.9423828 3.0541992.9501953-3.1274414c.1343269-.4060364.841259-.2217121.6743164.2841797l-1.1533203 3.3793945c-.146553.4374657-.7760143.4708309-.9506836-.0078125l-.8613281-2.6889648-.8608398 2.6889648c-.1758213.4756164-.8028888.4489898-.9506836.0078125z" fill="#5b5e8b"/></g></g><g><g><path d="m44.2024879 15.6137247h-6.2841415v8.0083017h6.2841415c.7137451 0 1.2923584-.5786133 1.2923584-1.2924194v-5.4234619c0-.7138062-.5786132-1.2924204-1.2923584-1.2924204z" fill="#e83d62"/></g></g><g><g><g><path d="m40.1067619 17.8399925c-.7533913.7533894-.7533913 1.9719429.0000381 2.7253723.6420288.642025 1.6181831.7403126 2.3584557.2882633l.969635.9696369c.1834183.1834183.4717255.1834183.6551437 0 .1834564-.1834583.1834183-.4717216 0-.6551418l-.9696388-.9696369c.4520912-.7403126.3538017-1.7164669-.2882233-2.3584938-.7534293-.7534275-1.971981-.7534275-2.7254104 0zm2.0702286 2.0702305c-.3930702.3930683-1.0219803.3930683-1.4150467 0-.3931084-.3931084-.3931084-1.0220184-.000042-1.4150887.3931084-.3931084 1.0220184-.3931084 1.4151306 0 .3930665.3930703.3930665 1.0219803-.0000419 1.4150887z" fill="#deddff"/></g></g></g></g></svg>