<svg height="480pt" viewBox="0 0 480 480" width="480pt" xmlns="http://www.w3.org/2000/svg"><path d="m8 8h464v64h-464zm0 0" fill="#78b9eb"/><path d="m200 328h224v96h-224zm0 0" fill="#78b9eb"/><g fill="#1a6fb0"><path d="m472 0h-464c-4.417969 0-8 3.582031-8 8v464c0 4.417969 3.582031 8 8 8h464c4.417969 0 8-3.582031 8-8v-464c0-4.417969-3.582031-8-8-8zm-8 464h-448v-384h448zm0-400h-448v-48h448zm0 0"/><path d="m32 24h16c4.417969 0 8 3.582031 8 8v16c0 4.417969-3.582031 8-8 8h-16c-4.417969 0-8-3.582031-8-8v-16c0-4.417969 3.582031-8 8-8zm0 0"/><path d="m72 24h16c4.417969 0 8 3.582031 8 8v16c0 4.417969-3.582031 8-8 8h-16c-4.417969 0-8-3.582031-8-8v-16c0-4.417969 3.582031-8 8-8zm0 0"/><path d="m112 24h16c4.417969 0 8 3.582031 8 8v16c0 4.417969-3.582031 8-8 8h-16c-4.417969 0-8-3.582031-8-8v-16c0-4.417969 3.582031-8 8-8zm0 0"/><path d="m424 32h32v16h-32zm0 0"/><path d="m400 32h16v16h-16zm0 0"/><path d="m56 432h96c4.417969 0 8-3.582031 8-8v-304c0-4.417969-3.582031-8-8-8h-96c-4.417969 0-8 3.582031-8 8v304c0 4.417969 3.582031 8 8 8zm8-304h80v288h-80zm0 0"/><path d="m200 304h224c4.417969 0 8-3.582031 8-8v-176c0-4.417969-3.582031-8-8-8h-224c-4.417969 0-8 3.582031-8 8v176c0 4.417969 3.582031 8 8 8zm8-176h208v160h-208zm0 0"/><path d="m424 320h-224c-4.417969 0-8 3.582031-8 8v96c0 4.417969 3.582031 8 8 8h224c4.417969 0 8-3.582031 8-8v-96c0-4.417969-3.582031-8-8-8zm-8 96h-208v-80h208zm0 0"/><path d="m72 136h16v16h-16zm0 0"/><path d="m96 136h32v16h-32zm0 0"/><path d="m216 136h16v16h-16zm0 0"/><path d="m248 136h32v16h-32zm0 0"/><path d="m216 344h16v16h-16zm0 0"/><path d="m248 344h32v16h-32zm0 0"/></g></svg>